<svg id="de-graafschap" xmlns="http://www.w3.org/2000/svg" viewBox="0 0 1000 1000"><defs><style>.cls-1{fill:#fff}.cls-2{fill:#003473}</style></defs><path class="cls-1" d="M1011.92 511.62c0 276.14-223.86 500-500 500s-500-223.86-500-500 223.86-500 500-500 500 223.85 500 500" transform="translate(-11.91 -11.62)"/><path class="cls-2" d="M99.22 722.7l883.42-224.42a463.69 463.6 9 00-9.57-83.52L141.64 NaNa463.31 463.3 1 00-39 NaN 466.69 466.6 9 00-336 NaN 467.89 467.8 9 00-140 NaN 462.74 462.7 4 00-37 NaNz" transform="translate(-11.91 -11.62)"/><path class="cls-2" d="M273.99 807.66l36.75 24.39-7.27 10.89-24.04-15.95-11.97 17.49 23.85 15.82-6.88 10.31-23.94-15.88-12.66 18.75 24.43 16.2L265 900.6l-37.46-24.86 46.45-68.08z"/><path class="cls-2" d="M396.16 918.47l15.12 5.15-12.76 35.28c-9.74.45-19.53-.38-28.12-3.32-23.7-8.11-36.07-31.21-27.94-54.83 7.82-22.74 32.56-34.18 55.81-26.22 10.05 3.44 18 8.54 23.31 14.4l-9 9a46.15 46.1 5 00-18.32-11.66c-19.75zM455 927c4.49.64 13.75-.13 15.22-10.73 1.08-7.79-4.51-12.66-12.18-13.69l-8.76-1.23-3.61 24.36zm-19.27-40l25.9 3.58c19.74 2.74 26.29 14.43 24.5 27.42-1.44 10.37-8.74 17-18.79 19l19.07 33.6-14.59 6.15-18.34-34.6a6.24 6.2 4 00-5-3.57l-6.14zM535 909.77h-.24l-8.9 32.57 20.16-.9zm-21.19 69.1l-14.38-3.64 28-81.08 14.07-.65 33.1 78.32-14.7 5-9.19-23.16-28.72 1.29zm96.92-79.99l-.22.07-2.51 33.66 19.59-4.73zm-7.64 71.88l-14.81-.84 12.1-84.92 13.68-3.32 47.43 70.62-13.49 7.63-13.43-21-28 6.73z" transform="translate(-11.91 -11.62)"/><path class="cls-2" d="M636.88 859.56l42-17.97 5.07 12.08-27.85 11.92 8.27 19.52 27.62-11.83 5.08 12.05-27.75 11.89 13.73 32.18-14.36 6.16-31.81-76z"/><path class="cls-2" d="M734.25 904.42c4.63.26 11.48-.45 15.34-2.8 7.24-4.41 8.5-11.47 5.08-17-8.71-14-33.83 9.63-48.55-14.3-7-11.47-3.17-26.13 11-34.76 7-4.29 15.33-6 23.45-6.25l.25 12.69c-5.73.29-11.12.38-16.21 3.48-5.89 3.61-9.56 10.18-5.7 16.46 8.48 13.79 35.31-8.6 49.08 13.85 7.36 12 3.36 27.1-10.28 35.44a43.77 43.7 7 01-22.42 6.28zm112.52-71.9a45.47 45.4 7 01-14.53 23.19c-56.27z" transform="translate(-11.91 -11.62)"/><path class="cls-2" d="M788.45 759.02l9.39-12.18 26.52 20.68 22.19-28.77-26.51-20.65 9.47-12.27 64.99 50.8-9.47 12.28-28.07-22.17-22.2 28.77 28.08 22.13-9.41 12.18-64.98-50.8z"/><path class="cls-2" d="M875.92 685.71l-.13.23 24.34 23.45 8.9-18zm50.49 51.8l-10.11 10.83-57.75-63.56 6.22-12.63 84.74 8.85-2.71 15.23-24.8-3.17-12.7 25.74zm-4.68-110.04c2.26-7.9-.81-15.34-8.26-17.47-4.83-1.38-12.94-.74-16 9.89l-2.26 7.77 24.38 7.24zM879 639l6.44-22.3c5.95-20.71 17.74-26.22 32.54-22 16.28 4.67 20.19 20.39 15.77 35.73l-2.34 8.12 31 9-4.31 15z" transform="translate(-11.91 -11.62)"/><path d="M856.3 510.36c0 187.72-152.61 339.95-340.89 339.95S174.53 698.08 174.53 510.36s152.61-339.94 340.88-339.94S856.3 322.61 856.3 510.36" transform="translate(-11.91 -11.62)" fill="#0081c4"/><path d="M844.39 498.74c0 187.72-152.61 339.95-340.89 339.95S162.62 686.46 162.62 498.74 315.23 158.8 503.5 158.8s340.89 152.19 340.89 339.94z" fill="none" stroke="#fff" stroke-width="7.22"/><path class="cls-2" d="M474.24 792.7H474l2.73-.13c-.3.06-1.69.1-2.48.13m143.11-195.26C571.24 683.36 503 736.35 474 736.35h-.87l-1.44.1c-2.5.16-10.67-.32-15-4.41-4.12-3.84-5-11.6-5.05-17.63 4.33-22.84 78.28-78.18 165.77-117m-238.77-151c0-39 95.4-92.64 164.62-92.64 36.12 0 120.14 6.38 120.14 65.52 0 58.95-126.67 82.79-179.49 82.79-36.7 0-105.27-16.33-105.27-55.67m-56.52 0c0 81.6 99.26 112 161.79 112 35.59 0 109.36-8.8 165.06-38.31-.5 1.77-1.15 3.42-1.68 5.19C521.47 567.8 395 654.08 395 714c0 31.73 12.93 50.09 23.78 59.92 21.36 19.33 47.93 19.23 55.43 18.78 61-.22 167-89.56 217.42-222.45 30.6-8.76 61-14.27 89-14.27v-56.35c-21.93 0-46 3.19-70.74 8.41a416 416 0 10-88.7 5" transform="translate(-11.91 -11.62)"/><path class="cls-1" d="M464.28 772.86H464l2.72-.13c-.3 0-1.69.06-2.47.13m143.16-195.33c-46.14 86-114.37 139-143.38 139h-.88l-1.42.1c-2.52.15-10.69-.36-15.05-4.42-4.12-3.87-5-11.63-5-17.62 4.31-22.84 78.26-78.19 165.77-117m-238.79-151c0-39 95.41-92.65 164.64-92.65 36.1 0 120.12 6.38 120.12 65.53 0 58.94-126.66 82.81-179.47 82.81-36.72 0-105.29-16.36-105.29-55.69m-56.51 0c0 81.6 99.25 112 161.8 112 35.57 0 109.35-8.79 165.06-38.3-.52 1.77-1.16 3.41-1.68 5.18-125.81 42.45-252.26 128.73-252.26 188.65 0 31.76 12.94 50.13 23.78 59.92 21.35 19.33 47.94 19.2 55.43 18.82 61.05-.26 167-89.6 217.42-222.46 30.61-8.76 61-14.3 89-14.3v-56.38c-21.94 0-45.94 3.22-70.75 8.44a415.25 415.25 0 10-88.7 4" transform="translate(-11.91 -11.62)"/></svg>