<svg viewBox="0 0 1000 1000" xmlns="http://www.w3.org/2000/svg"><path d="M500 22.08C237.8 22.72 23.4 235.56 22.09 500 23.35 761.46 237.82 976 500 977.91 763.76 975.98 976.61 761.53 977.92 500 976.55 235.49 763.78 22.75 500 22.08z" fill="#fff"/><path d="M500 0C223.86 0 0 223.85 0 500s223.86 500 500 500 500-223.86 500-500S776.15 0 500 0zm0 969.59C242.39 967.72 31.65 756.91 30.41 500 31.7 240.16 242.41 31 500 30.41 759.19 31.06 968.25 240.1 969.6 500 968.31 756.98 759.17 967.69 500 969.59z"/><path d="M259.85 500.38c1.24 130.81 108.79 238.22 240.11 239.77 133.13-1.55 240.69-108.96 240.13-239.77-252.94-1.24-243.82 1.06-480.24 0z" fill="#ed1c24"/><path d="M259.94 502.65c1.22-132.46 108.78-241.22 240.15-242.81 133.1 1.59 240.68 110.35 240.11 242.81-252.97 1.22-243.83-1.09-480.26 0zm44.49-290.59c6.69.18 12.93.08 18.2 1.44s9.58 4 13.31 10a22.08 22.08 0 013.52 11.49 17.64 17.64 0 01-8.27 14.87c-5.69 3.49-15.14 4.76-20.65 4.93l-4 .15 10.94 21.91 1.85-.24c7.44-1 15.33-2.27 22.13-6.36 11.85-7.11 20.18-18.16 20.16-32.31 0-8-2.62-16.78-8.35-26.28-12.22-20.46-28.38-23.71-42-24.3-6.82-.34-13.13-.21-18.27-1.3s-9-3.17-12.1-8.21a18.15 18.15 0 01-3-9.38c0-5.45 3.63-9.56 8-12.25 6.24-3.72 9.86-4.18 18.41-4.72l3.78-.12-1.59-3.46-8.41-18.54-1.85.19a55.86 55.86 0 00-22.56 7.51c-10.6 6.35-17.16 16.82-17.14 29.18 0 7.51 2.38 15.63 7.41 24 11.54 19.43 27.21 21.55 40.48 21.8zm77.92 33.83l20.39-7.72-9.74-25.74-20.4 7.72.92 2.44zm126.23-30.23c7.76-6 12.54-15.91 12.5-30.57v-2c-.36-17-8.28-29.42-20-33.75 9.62-5.72 15.71-15.84 15.57-31.3v-1.79c-.33-12.92-4.28-22.31-11.13-28.29s-16.2-8.35-26.78-8.35h-2l-30.65.9 3.92 144.22 2.61-.07 27.55-.74c10.52-.3 20.67-2.29 28.41-8.26zm-39.17-13l-1.14-41.79 7-.19h1.92c5.87 0 11.55.87 15.59 3.76s7 7.79 7.29 17.5v1.07c-.06 8.34-2.59 12.66-6.38 15.43s-9.52 3.86-15.82 4zm-2.76-101.14l12.95-.36h.64a16.69 16.69 0 0110.85 3.45c3 2.52 5.31 6.68 5.55 14.2v1.27c-.07 9.17-2.63 13.25-6.47 15.72s-10 3.2-16.91 3.37l-5.55.15zm70.19 100.04l-4.25 24.55 21.49 3.72 4.69-27.12-21.48-3.72zm110.15 63.57l105.57-103.78-18.27-10.38-83.42 84.34 30.48-114.42L662.18 110l-36.12 145.41 19.53 11.1zm21.7 17.35l16.77 13.95 17.59-21.16-16.76-13.95-1.67 2.01zM75.39 514.66l46.64-2.82 2.67 44.13 25.04-1.51-2.67-44.14 40.79-2.47 2.93 48.47 25.04-1.52-4.25-70.32-2.6.16-159.96 9.67 4.25 70.32 25.04-1.51zM256.7 649.04l-64.44.65 37.24-52.68-11.99-22.94-50.65 72.04-95.47-.02 12.02 22.99 71.08-1.48-41.27 58.52 12.47 23.85 54.8-78.75 87.75-.1zm73.23 116.34l3.38-3.72 15.85-17.39-.55-1.49a52.45 52.45 0 00-17-22.83 56.25 56.25 0 00-35.72-12.66c-22.68 0-46.83 12.86-66.61 37.41-16.61 20.63-25 41.8-25 61a56.45 56.45 0 0021.69 45.21c5.48 4.39 14.61 11 25.41 12.79l1.58.26 16.73-22.83-4.75-.3h-.24c-6.5.08-16.89-4.46-22.86-9.35-8.23-6.65-12.59-16.61-12.61-28.43 0-13.18 5.55-28.62 17.5-43.45 14.31-17.8 31.92-27.49 47.53-27.45a34.87 34.87 0 0122.3 7.87 35.34 35.34 0 0112.28 20.46zm46.35-12.78l-47.97 152.9 67.22 21.09 7.51-23.94-46.33-14.53 13.99-44.59 42.19 13.24 7.51-23.94-42.19-13.24 12.23-38.98 46.33 14.53 7.51-23.94-67.22-21.09zm128.23 158.78l-4.57-137.7-21.88.74.08 2.6 5.32 160.16 70.58-2.34-.83-25.08zm130.91-96.84c-7.49-1.77-14.52-2.9-20.06-5.19s-9.53-5.46-12-11.81a24.05 24.05 0 01-1.75-8.5c0-8 5.55-12.57 11.77-15a30.68 30.68 0 0111.78-2.32 81.83 81.83 0 019.72.79l3.81.47-1-3.71-5.69-22-1.84-.15c-1.54-.13-3.09-.19-4.62-.19a62.29 62.29 0 00-21.77 3.94c-15.22 5.73-25.28 18.92-25.22 36.24a57.61 57.61 0 004.11 20.54c9 23.88 25.73 29.34 40.4 32.34 7.38 1.56 14.34 2.72 20 5.34s10 6.47 13 14.1a27.84 27.84 0 012 10 20.15 20.15 0 01-12.65 18.89 40.05 40.05 0 01-13.75 2.06 73.7 73.7 0 01-10.28-.75l-4-.58 7.6 25.89 1.84.09c2.49.13 5 .23 7.58.23 6.09 0 12.28-.56 18.11-2.79 16.8-6.3 29.28-19.57 29.22-39.36a64.88 64.88 0 00-4.72-23.06c-9.54-25.27-26.64-32.08-41.59-35.51zm27.36-92.09l1.57 2.08 96.6 127.86 17.48-13.2-98.18-129.94zm176.31-86.87c-19.5-12.14-39.27-18.71-56.92-18.72-18.85-.05-35.4 7.7-45.52 24a49.21 49.21 0 00-7.71 26.29c.07 24.83 18.56 49.56 48.11 68 19.87 12.37 39.56 19 57.06 19h.19c18.74 0 35-7.93 45.18-24.29a50.06 50.06 0 007.9-26.72c-.03-24.57-18.23-48.84-48.29-67.56zm23.46 66.25a27.57 27.57 0 01-4.37 14.77c-6.08 9.66-15.21 13.56-26.4 13.61-13.05 0-28.56-5.7-42.63-14.48-20.52-12.72-35.61-31.06-35.47-47.23a26.27 26.27 0 014.25-14.34c5.8-9.42 15-13.36 26.44-13.41 12.95 0 28.44 5.42 42.61 14.26 20.2 12.48 35.75 30.37 35.61 46.82zm8.4-161.68c1.62-2.17 5-4.3 12.71-6.07l58-12.82 2.4-24.47-68.21 16.65h-.06c-5.1 1.38-8.71 2.64-11.61 4.32a18.81 18.81 0 00-3.52 2.61c-4-12.88-16.81-23-34.62-24.73q-4.36-.43-8.26-.43c-15.82 0-26.12 5.35-32.23 13.74s-8.19 19.1-9.26 29.85l-3 31 162.07 15.94.25-2.6 1.89-19.2-69.68-6.85.73-7.37c.33-4.45.75-7.44 2.4-9.57zm-70.63 10.31l1.31-13.34c.65-6.56 2.86-11.16 6.1-14.18s7.67-4.56 13.36-4.56a31.06 31.06 0 013.15.16c6.47.64 11.36 2.95 14.67 6.49s5.19 8.46 5.2 14.81c0 1.07-.06 2.18-.17 3.33l-1.13 11.52z"/></svg>