<svg viewBox="0 0 958.21 1000" xmlns="http://www.w3.org/2000/svg"><path d="M62.77 104.8H0v215.58h62.77V663.3c.05 174.64 126.67 281.35 281.42 320.08v-973C189.08 33.47 62.77 87.95 62.77 104.8zm832.67 0c0-16.85-126.31-71.33-281.39-94.36v972.94c154.72-38.73 281.34-145.44 281.34-320.1V320.36h62.8V104.8z" fill="#d91f26"/><path d="M479.1 0a924.5 924.5 0 00-134.91 10.43v972.95a557.12 557.12 0 00269.89 0v-973A923.13 923.13 0 00479.1 0z" fill="#fff"/><path d="M224.94 132c-8.59-7.05-20.25-11.15-33.89-11.09s-25.31 4-33.89 11.09c-12.94 10.65-18.46 26-21.27 40.56a148.27 148.27 0 00-2 15.1 128.57 128.57 0 00-4.42-21.84c-5.62-19.15-16.58-31.42-29.32-37.1s-25.38-5.67-36.1-5.73H26.19v179.19h27.59c10.85 0 21.12-.18 30.91-1.81a63.27 63.27 0 0021.05-7.07c9.94-5.58 17.94-15.11 22.66-27.9a107 107 0 005.72-25.31 116.55 116.55 0 005.66 27.13c3.41 9.58 8.76 18.92 17.38 25.94s20.25 11.16 33.89 11.1h.32c13.51 0 25-4.09 33.57-11.1 12.94-10.65 18.47-26 21.27-40.56s2.78-29.31 2.79-40c-.06-14.31.08-35.45-6.68-54.64-3.41-9.58-8.77-18.94-17.38-25.96zM72.27 163.8a17.73 17.73 0 014.92 2.28c4 2.72 6.89 7.65 8.65 15.15s2.08 16.53 2.07 25.11v15.3c.1 12.16-.67 23.85-4 30.43a15.47 15.47 0 01-6.33 7.17 19.8 19.8 0 01-5.36 2.11zm111.62 8.68c1.21-4.53 2.83-7.4 3.93-8.52s1.23-1.18 3.23-1.32c2 .14 2 .25 3.23 1.32 1.72 1.6 4.3 7.51 5.51 16.31s1.71 20 1.71 32.31c0 16.33-.77 31-3.29 40.1-1.21 4.53-2.83 7.41-3.93 8.52s-1.23 1.18-3.23 1.32c-2-.14-2-.25-3.23-1.32-1.72-1.59-4.3-7.51-5.51-16.31s-1.71-20-1.7-32.31c-.04-16.33.76-31.05 3.28-40.1zm241.03-43.76c-12.62-5.72-25.38-5.67-36.09-5.73h-37.86v155.55L325.9 220.9a33.61 33.61 0 004.65-3.36c7.08-6.07 11-14 13.38-21.57a74.78 74.78 0 003.12-21.7c0-11.1-1.91-20.32-5.71-27.88a40.13 40.13 0 00-25-20.59c-9.36-2.8-18.33-2.79-25-2.81h-39.86v179.19h46.07v-34.46l14.58 34.46h66.41c10.85 0 21.13-.18 30.92-1.81a63.27 63.27 0 0021.05-7.07c9.94-5.58 17.93-15.11 22.66-27.9s7-28.94 7-50.11c0-20.63-2.05-36.66-5.93-49.48-5.61-19.14-16.57-31.43-29.32-37.09zm-27.88 35.08a17.38 17.38 0 014.93 2.28c4 2.71 6.89 7.65 8.66 15.15s2.08 16.53 2.06 25.1v15.35c.11 12.16-.66 23.85-3.94 30.43a15.53 15.53 0 01-6.33 7.17 19.93 19.93 0 01-5.36 2.11zm-99.49 25.64v-24.62a12.41 12.41 0 01.88 2.12c.76 2.45 1.14 6.77 1.12 11.9.03 5.44-.99 8.93-2 10.6zm623.38-66.45H793.19v61.23h-14v-61.23h-46.07v4.89l-2.3-1.18c-8.34-4.38-16.88-5.89-25.84-5.79-14.18-.05-26.3 3.87-35.58 10.68-10.32 7.57-16.81 17.92-21 28.85v-37.45h-86.51v155.55l-25.07-57.64a34.51 34.51 0 004.66-3.35c7.08-6.08 11-14 13.38-21.58a75.16 75.16 0 003.13-21.7c0-11.1-1.92-20.32-5.72-27.88a40.12 40.12 0 00-25.08-20.59c-9.35-2.79-18.32-2.79-25-2.81h-39.78v179.19h46.07v-34.44l14.58 34.44h125.33v-36.26c.75 1.85 1.55 3.7 2.44 5.51a58.15 58.15 0 0020.66 23.52c9.42 6 21.28 9.34 35.16 9.31h.27c7.9 0 16.32-1.32 24.26-5.78l1.94-1.08v4.78h46.07V224.5h14v77.68h46V163.27h19.69v138.91h46.11V163.26h27v-40.27zm-412.45 66.44v-24.6a12.58 12.58 0 01.88 2.11c.76 2.45 1.14 6.77 1.11 11.9.04 5.43-.98 8.92-1.99 10.59zm138.87-26.16c-1 3-1.92 6-2.67 9a139.07 139.07 0 00-3.13 18.15h-30.49v-27.15zm-36.26 98.63v-31.16h29.8a121.49 121.49 0 006 31.16zm110.1-1.52a22 22 0 01-9.73 2.12c-6-.07-9.28-1.56-12.15-3.87-4.23-3.4-7.59-10.43-9.35-19.15s-2.11-18.35-2.1-25.88c0-9.64.22-24.24 3.76-35 1.73-5.36 4.15-9.47 6.93-12s5.9-4 11.95-4.07c2.92 0 6.45 1.08 10.87 3l11.77 5.14v84.13z" fill="#010101"/><path d="M64.06 134.07H37.28v157h16.5c42.81 0 70.55-3.34 70.55-75.81 0-79.53-32.04-81.19-60.27-81.19zm-2.87 139.31V151.77c40.42-2.08 37.79 39.36 37.79 63.52 0 26.66 1.67 59.15-37.79 58.09zm129.86 19.8c46.4 0 46.88-52.27 46.88-80.6s-.48-80.59-46.88-80.59-46.86 52.27-46.86 80.59.47 80.6 46.86 80.6zm0-141.62c18.89 0 21.53 27.7 21.53 61s-2.64 61-21.53 61-21.52-27.7-21.52-61 2.66-61 21.52-61zM341.1 283.63l-30-69c19.85-3.12 24.87-25.61 24.87-40.39 0-39.37-27.26-40.2-44.72-40.2h-28.7v157h23.91v-76.79h.48l32.53 76.85h24.87zm-54.63-80v-51.86h3.83c18.17-.42 20.33 12.08 20.33 27.07 0 15.83-6.22 25.83-24.16 24.78zm162.63 11.66c0-79.56-32.06-81.22-60.27-81.22h-26.78v157h16.49c42.81.03 70.56-3.31 70.56-75.78zm-63.14-63.52c40.42-2.08 37.78 39.36 37.78 63.52 0 26.66 1.68 59.15-37.78 58.11zm160.95 22.5c0-39.37-27.27-40.2-44.72-40.2h-28.7v157h23.91v-76.82h.48l32.52 76.85h24.88l-33.25-76.44c19.85-3.12 24.88-25.61 24.88-40.39zm-49.51 29.35v-51.85h3.79c18.18-.42 20.34 12.08 20.34 27.07.03 15.83-6.19 25.83-24.13 24.78zm139.9-69.55h-64.32V291.1h64.32v-18.12h-37.28l-.03-53.31H633v-18.12h-33.01l-.02-49.36h37.33zm69.35 159.11c6.94 0 13.15-1 19.13-4.37v-18.33a33.28 33.28 0 01-14.34 3.12c-32.77 0-34.68-39.15-34.68-60 0-19.57.24-62.06 33.72-62.06 5.5 0 10.53 1.88 15.3 4v-18.97c-6.93-3.54-12.67-4.58-20.8-4.58-49 0-53.57 51.64-53.57 83.09 0 32.91 6.46 78.1 55.24 78.1zm97.58-97.88h-36.12v-61.23H744.2V291.1h23.91v-77.68h36.12v77.68h23.91V134.07h-23.91zm116.7-61.23h-79.16v18.12h28.22V291.1h23.92V152.19h27.02z" fill="#fff"/><path d="M450.35 45.05h16.56v-7.33h-26.24v63.57h9.68V72.37h14.91v-7.34h-14.91zm59.44 57.08a15.28 15.28 0 007.75-1.77v-7.42a13.51 13.51 0 01-5.81 1.26c-13.26 0-14-15.85-14-24.28 0-7.92.1-25.12 13.65-25.12a15.59 15.59 0 016.2 1.6v-7.67a16.8 16.8 0 00-8.42-1.86c-19.85 0-21.69 20.91-21.69 33.64-.04 13.32 2.57 31.62 22.32 31.62zm300.19 409.66c-2.78-43-18.22-76.42-45.89-99.29-42.38-35-99.25-33.8-112.18-33-42.56-30.19-86.83-49-131.62-55.76a293.9 293.9 0 00-82.37 0c-44.79 6.8-89.06 25.57-131.62 55.76-12.93-.78-69.8-2-112.19 33-27.66 22.88-43.11 56.28-45.92 99.29-.43 3.21-3.82 32.93 10.9 76.12 13.92 40.86 47.54 102.17 128.59 162.25 1.58 1.31 21.08 18.09 7.88 34.1a6.81 6.81 0 00-.89 1.45c-1.69 3.74-5 13 .63 18.14 3.61 3.34 8.91 3.4 15.74.2 3.2-1.11 11.25-5.75 16.37-51.75 4.63-41.65-22.48-89.26-51.18-139.65l-.74-1.31c-18.17-31.9 11.49-66.57 30.7-84.36-1.79 12.52-2 29.69 4.8 47.63 8 21.07 15.3 36 22.41 50.43 3.88 7.87 13.84 15.31 17.37 23.31 10.48 23.75 16.58 69.88 17.62 98.08a6.74 6.74 0 001.73 3.57 81.1 81.1 0 00.58 9.14c1.54 9.08 2.42 23.2 3.34 38.15 2.55 41.08 5.44 87.64 23.68 100.93 21.53 15.69 49.57 29.11 53 30.74 11 6.9 20.63 9.39 28.31 9.83 7.69-.44 17.29-2.93 28.32-9.83 3.45-1.63 31.5-15.05 53-30.74 18.24-13.29 21.12-59.85 23.67-100.93.93-14.95 1.81-29.07 3.35-38.15a83.51 83.51 0 00.58-9.14 6.74 6.74 0 001.73-3.57c1-28.2 7.14-74.33 17.62-98.08 3.53-8 13.49-15.44 17.37-23.31 7.1-14.43 14.46-29.36 22.41-50.43 6.76-17.94 6.59-35.11 4.8-47.63 19.21 17.79 48.87 52.46 30.7 84.36l-.74 1.31c-28.71 50.39-55.81 98-51.18 139.65 5.12 46 13.17 50.64 16.37 51.75 6.83 3.2 12.13 3.14 15.74-.2 5.62-5.18 2.32-14.4.63-18.14a6.81 6.81 0 00-.89-1.45c-13.2-16 6.3-32.79 7.88-34.1 81.15-60.08 114.8-121.39 128.69-162.25 14.72-43.19 11.33-72.91 10.9-76.12z" fill="#010101"/><path d="M552.44 887.86c-21.42 15.61-50.83 29.43-51.12 29.58a6 6 0 00-.75.41c-8.67 5.49-15.9 7.52-21.47 8-5.56-.47-12.79-2.5-21.46-8a6.79 6.79 0 00-.75-.41c-.29-.15-29.7-14-51.12-29.58-3.64-2.65-6.51-8.27-8.8-15.66a84.21 84.21 0 0017.77 12.93 151.37 151.37 0 0117.74 11c.61.45 15.11 11.15 24.46 15.69 9.94 4.83 18.18 3.18 22.16 1.1 4 2.08 12.23 3.73 22.17-1.1 9.35-4.54 23.84-15.24 24.46-15.69a152.08 152.08 0 0117.73-11 83.85 83.85 0 0017.78-12.93c-2.29 7.39-5.16 13.01-8.8 15.66z" fill="#fff"/><path d="M618.01 506.17c-.66.21-16.31 5-31.46 19.59-13.87 13.37-30 37.89-28.2 78.73l3.34 74.5c.13 2.79-2.65 22.69 0 23.48.25.53 5.23-16.42 5.53-15.68.15.39 15.31 39.45 10.12 69.68-1.67 9.73-2.52 23.53-3.51 39.49-.72 11.6-1.57 25.31-3 38.59a6.36 6.36 0 00-1.3 2.89c-3.82 22.34-29 35.54-29.29 35.67a167.47 167.47 0 00-19.61 12.14c-.13.09-14.11 10.41-22.33 14.4a28.05 28.05 0 01-3.31 1.37s-4.4 2-5.33 0c-2-4.31-6.76-10.24-6.91-14.16-.06-1.45-.11-2.93-.15-4.42.37-11.8.37-21 0-27.42a30.62 30.62 0 01.51-4.91c1.21-2.08 7.64-4.54 21.09-8.27l.18-.06a36.32 36.32 0 013.82.76c5.57 1.27 14 3.22 23.4-.1 32.79-11.59 30.49-29.28 29-34.41-2.79-9.71-12.63-16.46-21.48-14.74-14.94 2.9-16.63 10.22-16.79 12.39a36.31 36.31 0 000 7.3c-3.45 4.84-10.94 13.12-21.21 16.21l-.51.16h-.06c-10.71 3-17.22 5.66-21.45 9.13-4.22-3.47-10.73-6.16-21.44-9.13h-.07l-.5-.16c-10.27-3.09-17.76-11.37-21.21-16.21a37.06 37.06 0 000-7.3c-.16-2.17-1.85-9.49-16.79-12.39-8.85-1.72-18.69 5-21.48 14.74-1.49 5.13-3.78 22.82 29 34.41 9.41 3.32 17.83 1.37 23.4.1a36.32 36.32 0 013.82-.76l.18.06c13.44 3.73 19.88 6.19 21.09 8.27a30.62 30.62 0 01.51 4.91c-.39 6.46-.39 15.62 0 27.42 0 1.49-.09 3-.15 4.42-.15 3.92-4.93 9.85-6.91 14.16-.93 2-5.33 0-5.33 0a27.37 27.37 0 01-3.31-1.37c-8.22-4-22.2-14.31-22.33-14.4a167.6 167.6 0 00-19.62-12.14c-.25-.13-25.46-13.33-29.28-35.67a6.36 6.36 0 00-1.3-2.89c-1.4-13.28-2.26-27-3-38.59-1-16-1.84-29.76-3.51-39.49-5.19-30.23 10-69.29 10.12-69.68.3-.74 5.28 16.21 5.52 15.68 2.66-.79-.12-20.69 0-23.48l3.35-74.5c1.81-40.84-14.33-65.36-28.2-78.73-15.15-14.61-30.81-19.38-31.47-19.59l-12.33-3.79a112.13 112.13 0 0012.85-21.31c42.33 45.43 90.69 67.3 138.39 67.3s96.07-21.87 138.4-67.3a112.13 112.13 0 0012.85 21.31z" fill="#fff"/><path d="M607.72 440.62a71.31 71.31 0 001.77 26.94c-41 46.1-84.93 77.09-130.39 76.37-45.45.72-89.36-30.27-130.38-76.37a71.31 71.31 0 001.77-26.94c-3.3-26.55-21.06-45.38-31.3-54.24 58.55-40.15 113-53.4 159.87-53 46.85-.35 101.33 12.9 159.88 53-10.16 8.86-27.87 27.69-31.22 54.24zM533.1 816.38a.75.75 0 01-.07.12l.14-.24a6.34 6.34 0 00-.66-6.61v-1a17.56 17.56 0 016.17-2.09c1.07-.2 4.91 1.68 6 5.53 1.84 6.39-6.11 13.57-20.73 18.74a17.46 17.46 0 01-3.55.86 57.24 57.24 0 0012.7-15.31z" fill="#fff"/><path d="M568.68 604.48c-1.44-31.9 9-52.48 20.66-65.42 3 7.63 13.89 23.73 8.18 41.06-3.07 9.32-14 19-18.89 29.2-3 6.34-6.09 12.75-8.89 19.27zm2.91 77c.08-.21.16-.42.22-.63-.06.19-.14.4-.22.61zm63.06-111.32c-7.73 20.5-14.94 35.14-21.91 49.3-3.94 8-7.65 15.56-11.3 23.8-6.42 14.54-13.5 37.13-18.5 59.32a195.2 195.2 0 00-6.28-19.85c-1.18-3-2.7-6.17-4.87-8.31l-.12-2.83a6.35 6.35 0 00.32-1.57c1.34-18.87 10.18-37.34 18.73-55.21 5.09-10.62 9.87-20.62 13.21-30.72 8.53-25.92-1.43-48.8-4.25-54.49a67.23 67.23 0 0119.25-10.47s3.48-1 9.76-2.88c2.25 6.85 15.44 28.79 5.96 53.89zm27.59 169.82l-.21.17c-6 4.82-19.6 13.63-22.42 24-.59-3.89-1.17-8.28-1.73-13.27-4.18-37.57 28.08-83.43 55.73-132l.73-1.3c13.19-23.11 8.65-50.2-13.15-78.38a190.22 190.22 0 00-35.08-34.22c-19.24-21.26-27.72-42.35-25.17-62.67 3.37-27.16 25.66-45.52 31.42-49.86 10.39-.59 64.53-2 103.16 30 24.82 20.54 38.66 51 41.15 90.41l.06.52c.18 1.13 14.69 116.09-134.49 226.6z" fill="#fff"/><path d="M579.02 591.03c3.3 0 12.74-14.54 12.74-20.7s-2.68-11.15-6-11.15-6 5-6 11.15-4.04 20.7-.74 20.7z" fill="#010101"/><path d="M425.11 816.38a.37.37 0 00.07.12l-.14-.24a6.34 6.34 0 01.66-6.61c0-.31 0-.65-.05-1a17.56 17.56 0 00-6.17-2.09c-1.07-.2-4.91 1.68-6 5.53-1.84 6.39 6.11 13.57 20.73 18.74a17.46 17.46 0 003.55.86 57.24 57.24 0 01-12.65-15.31zm-35.58-211.9c1.44-31.9-9-52.48-20.66-65.42-3 7.63-13.89 23.73-8.19 41.06 3.08 9.32 14 19 18.9 29.2 3 6.34 6.09 12.75 8.89 19.27zm-2.91 77c-.08-.21-.16-.42-.22-.63.06.19.14.4.22.61zm-63.06-111.34c7.73 20.5 14.94 35.14 21.91 49.3 3.94 8 7.65 15.56 11.3 23.8 6.42 14.54 13.5 37.13 18.5 59.32a195.2 195.2 0 016.28-19.85c1.18-3 2.7-6.17 4.87-8.31l.12-2.83a6.35 6.35 0 01-.32-1.57c-1.34-18.87-10.19-37.34-18.73-55.21-5.09-10.62-9.88-20.62-13.21-30.72-8.53-25.92 1.43-48.8 4.25-54.49a67.23 67.23 0 00-19.25-10.47s-3.48-1-9.76-2.88c-2.25 6.87-15.44 28.81-5.96 53.91zm-27.59 169.84l.21.17c6 4.82 19.59 13.63 22.42 24 .59-3.89 1.17-8.28 1.73-13.27 4.18-37.57-28.08-83.43-55.73-132l-.73-1.3c-13.19-23.11-8.68-50.2 13.14-78.38a189.9 189.9 0 0135.08-34.22c19.24-21.26 27.72-42.35 25.17-62.67-3.37-27.16-25.66-45.52-31.43-49.86-10.38-.59-64.52-2-103.15 30-24.82 20.54-38.67 51-41.15 90.41 0 .18 0 .35-.07.52-.16 1.13-14.67 116.09 134.51 226.6z" fill="#fff"/><path d="M379.19 591.03c-3.3 0-12.75-14.54-12.75-20.7s2.69-11.15 6-11.15 6 5 6 11.15 4.05 20.7.75 20.7z" fill="#010101"/></svg>