<svg viewBox="0 0 802.43 1000" xmlns="http://www.w3.org/2000/svg"><path d="M176.45 951.68c-10.06-3.89-14.28-6.06-14.28-11 0-3.89 3.66-7.43 11.2-7.43a36.06 36.06 0 0116 3.65l3.88-13.94c-4.56-2.17-10.85-3.88-19.64-3.88-18.06 0-29.14 9.94-29.14 23.08 0 11.31 8.45 18.39 21.25 23 9.26 3.2 12.91 6.05 12.91 10.74 0 5.14-4.23 8.45-12.23 8.45a44 44 0 01-19.3-4.79l-3.55 14.28c4.35 2.4 13 4.79 21.83 4.79 21.14 0 31-11 31-23.88-.08-10.97-6.34-18.05-19.93-23.07zm39.77-36c-5.94 0-9.83 4-9.83 9.26s3.77 9.25 9.6 9.25h.11c6.06 0 9.83-4.11 9.83-9.25s-3.77-9.26-9.71-9.26zm-8.8 81.7h17.37V941.5h-17.37zm64.33-57.13a20.08 20.08 0 00-17.26 9h-.33l-.8-7.78H238.3c.23 5 .46 10.86.46 17.82v38.09h17.36v-32.22a12.75 12.75 0 01.57-4.35c1.27-3.2 4.13-6.51 8.92-6.51 6.28 0 8.8 4.91 8.8 12.11v31h17.36v-33.03c-.03-16.48-8.6-24.13-20.02-24.13zm63.55 13.37a23.68 23.68 0 019.71 1.71l2.72-12.95a40.31 40.31 0 00-13.25-2.17c-20.8 0-32 13.37-32 29.71 0 17.59 11.55 28.67 29.6 28.67 6.62 0 12.46-1.14 15.54-2.62l-2.06-12.8a24.57 24.57 0 01-9.94 1.83c-8.45 0-15.31-5.48-15.31-15.77-.12-9.1 5.83-15.61 14.99-15.61zm45.71-13.49c-19.31 0-28.23 15.66-28.23 29.83 0 17.59 10.86 28.56 29.83 28.56 7.53 0 14.51-1.14 20.22-3.54l-2.3-11.77a45.91 45.91 0 01-15.41 2.4c-8.11 0-15.2-3.43-15.77-10.74l36 .11a44.1 44.1 0 00.57-7c-.03-13.8-6.88-27.85-24.93-27.85zm-11.78 22.86c.46-4.58 3.43-11.31 10.86-11.31 7.88 0 9.71 7.19 9.71 11.31zm49.82-30.74l2.86 13 14.17-6.73h.22v58.86h16.79v-74.27H438.8zm85.13-10.4c-16.34 0-28 12.23-28 26.74s10.49 23.19 23.12 23.19c6.85 0 11.65-1.94 15.08-5.37l.22.12a21.81 21.81 0 01-9.37 13.71 28.67 28.67 0 01-14.73 4.57 32.44 32.44 0 01-7.55 0v13.57a62.58 62.58 0 007.89 0c11.65-.46 21.48-3.89 28.57-10.4 8-7.43 12.91-18.63 12.91-34.17-.02-17.33-9.08-31.96-28.16-31.96zm9.59 32.8c-1.71 2.62-4.91 4.79-9.82 4.79-7 0-10.51-5.48-10.51-11.87 0-7.78 4.34-13 10.16-13h.12c7.88 0 11 7.77 10.85 15.66a9.06 9.06 0 01-.82 4.42zm54.39-32.8c-19.19 0-28.22 16.91-28.22 38.51.12 21 8.57 38.27 27.77 38.27h.12c18.73 0 28-15.88 28-38.73-.04-20.34-7.91-38.05-27.69-38.05zm-.22 63.63h-.11c-6.64 0-10.75-8.21-10.63-25.35 0-16.8 4.11-25.14 10.63-25.14 7 0 10.51 8.69 10.51 25.14-.04 16.91-3.68 25.35-10.42 25.35zm63.07-63.63c-16.34 0-28 12.23-28 26.74s10.51 23.19 23.08 23.19c6.85 0 11.66-1.94 15.08-5.37l.24.12a21.87 21.87 0 01-9.38 13.71 28.73 28.73 0 01-14.73 4.57 32.27 32.27 0 01-7.53 0v13.57a62.42 62.42 0 007.88 0c11.66-.46 21.48-3.89 28.57-10.4 8-7.43 12.91-18.63 12.91-34.17-.03-17.33-9.06-31.96-28.14-31.96zm9.59 32.8c-1.7 2.62-4.91 4.79-9.81 4.79-7 0-10.52-5.48-10.52-11.87 0-7.78 4.34-13 10.16-13h.12c7.88 0 11 7.77 10.86 15.66a9.16 9.16 0 01-.83 4.42z" fill="#254ca1"/><path d="M176.92 950.38c-10.07-3.89-13.42-5.84-13.42-9.7 0-3 3-6.07 9.85-6.07a34.89 34.89 0 0115.38 3.51l1.48.74 4.63-16.63-1-.5c-5.62-2.66-12.42-4-20.23-4-18 0-30.51 10-30.51 24.44 0 11 7.25 18.92 22.16 24.25 10 3.45 12 6.18 12 9.46 0 4.5-4 7.09-10.87 7.09a42.74 42.74 0 01-18.67-4.59l-1.54-.81-4.22 17 .92.51c4.33 2.39 13.21 5 22.49 5 23.86 0 32.32-13.61 32.32-25.25s-6.39-19.12-20.77-24.45zm-11.55 46.87a49.47 49.47 0 01-20.24-4.21c.41-1.65 2.3-9.25 2.87-11.57a44.35 44.35 0 0018.39 4.23c8.51 0 13.59-3.68 13.59-9.82s-5.29-9.08-13.83-12c-13.68-4.89-20.34-12-20.34-21.68 0-13 11.17-21.72 27.79-21.72a44.92 44.92 0 0118 3.4c-.51 1.83-2.52 9-3.13 11.19a36.84 36.84 0 00-15.09-3.14c-8.68 0-12.57 4.41-12.57 8.79 0 6.08 5.48 8.49 15.16 12.23 13.15 4.86 19 11.58 19 21.8 0 10.89-7.77 22.52-29.6 22.52zm50.85-82.95c-6.48 0-11.19 4.46-11.19 10.62s4.61 10.61 11 10.61c6.6 0 11.3-4.46 11.3-10.61s-4.73-10.6-11.11-10.6zm-.12 18.52c-5 0-8.35-3.24-8.35-7.9s3.48-7.9 8.47-7.9 8.25 3.11 8.35 7.93c0 4.65-3.48 7.89-8.47 7.89zm-10 65.9h20.08v-58.6h-20.11zm2.71-55.87h14.64V996h-14.67zm63-4a21.45 21.45 0 00-16.56 7.21c-.23-2.25-.62-6-.62-6h-17.75l.49 19.18v39.42h20.08v-33.5a11 11 0 01.48-3.84c.66-1.71 2.75-5.67 7.65-5.67s7.43 3.63 7.43 10.76v32.33h20.09v-34.36c0-16-7.98-25.49-21.35-25.49zm18.64 57.13h-14.71v-29.6c0-11.72-6.37-13.47-10.16-13.47-4.56 0-8.37 2.76-10.19 7.38a13.64 13.64 0 00-.65 4.84v30.86h-14.65v-36.7s-.36-14.05-.43-16.45h12.47c.17 1.73.8 7.76.8 7.76h2.37l.4-.63a18.55 18.55 0 0116.1-8.39c11.84 0 18.64 8.29 18.64 22.75zm44.89-41a22.86 22.86 0 019.15 1.59l1.54.7 3.27-15.71-1.1-.42a41.5 41.5 0 00-13.73-2.25c-23 0-33.35 15.6-33.35 31.07 0 18.24 12.15 30 30.95 30 6.41 0 12.58-1.06 16.13-2.77l.92-.44-2.5-15.52-1.61.69a23.17 23.17 0 01-9.4 1.72c-8.47 0-13.95-5.66-13.95-14.41a14.51 14.51 0 013.84-10.53 13.37 13.37 0 019.8-3.72zm-16.33 14.3c0 10.23 6.7 17.11 16.67 17.11a26.67 26.67 0 008.84-1.45c.35 2.15 1.38 8.58 1.64 10.18-3.28 1.3-8.58 2.15-14 2.15-17.41 0-28.24-10.46-28.24-27.31 0-17.23 12-28.35 30.64-28.35a39.62 39.62 0 0111.65 1.8c-.38 1.81-1.75 8.2-2.16 10.21a26.68 26.68 0 00-8.69-1.36 16 16 0 00-11.71 4.58 17.13 17.13 0 00-4.7 12.44zm62-30.51c-19.43 0-29.59 15.69-29.59 31.19 0 18.73 11.66 29.92 31.19 29.92 8 0 15-1.22 20.75-3.64l1-.44-2.8-14.42-1.47.5a44.52 44.52 0 01-15 2.33c-6.1 0-12.7-2.18-14.11-8l35.49.12.18-1.14a45.92 45.92 0 00.59-7.2c.06-14.12-6.89-29.22-26.25-29.22zm23.14 34.85l-36.27-.12.11 1.47c.57 7.29 7.29 12 17.13 12a48.55 48.55 0 0014.36-2.09c.38 1.91 1.45 7.44 1.77 9.14a52 52 0 01-18.64 3.14c-17.83 0-28.47-10.17-28.47-27.2 0-13.72 8.4-28.47 26.87-28.47 17.36 0 23.54 13.7 23.54 26.52a40.23 40.23 0 01-.42 5.61zm-24.06-23.31c-8.65 0-11.74 7.88-12.21 12.54l-.15 1.5h23.43v-1.36c-.02-6.3-3.44-12.68-11.09-12.68zm-9.26 11.32c.81-3.74 3.39-8.6 9.26-8.6 6.62 0 8 5.71 8.27 8.6zm46.66-30.15l3.46 15.76 14-6.66v58.16h19.51v-77H438.5zm34.25-7v71.55h-14.1v-59.65l-2.17.93-12.61 6c-.51-2.3-1.92-8.73-2.26-10.28l18.5-8.56zm52.44-4c-16.46 0-29.36 12.35-29.36 28.1 0 14.23 10.28 24.55 24.45 24.55 5.14 0 9.34-1 12.77-3.18a20.24 20.24 0 01-7.58 9.14 27.48 27.48 0 01-14.06 4.35 32.57 32.57 0 01-7.28 0l-1.56-.24v16.53h9.36c12.24-.48 22.15-4.1 29.38-10.75 8.86-8.23 13.35-20.06 13.35-35.17-.02-20.22-11.59-33.32-29.49-33.32zM518.45 987c-6.74 6.21-16.06 9.58-27.69 10h-6.46v-10.73a46.72 46.72 0 006.26-.1 30.2 30.2 0 0015.39-4.79 23.27 23.27 0 009.94-14.53l1-4.58-3.54 3.2c-3.35 3.35-8 5-14.12 5-12.79 0-21.73-9-21.73-21.83 0-14.23 11.7-25.38 26.64-25.38 19.72 0 26.75 15.82 26.75 30.63.02 14.27-4.18 25.43-12.46 33.12zm-14.75-53.83c-6.8 0-11.64 6.06-11.64 14.4 0 7.92 4.77 13.23 11.87 13.23 6.48 0 9.65-3.39 11-5.42v-.12a10.69 10.69 0 00.94-5.07c.07-5.85-1.54-10.92-4.45-13.87a10.5 10.5 0 00-7.72-3.15zm9.49 17a7.78 7.78 0 01-.63 3.8c-1 1.57-3.5 4.12-8.63 4.12-6.76 0-9.16-5.67-9.16-10.52 0-6.88 3.63-11.68 8.81-11.68a7.94 7.94 0 016 2.34c2.34 2.37 3.67 6.56 3.67 11.54-.05.13-.05.27-.06.4zm55-29.68c-18.24 0-29.58 15.27-29.58 39.87.14 24.83 11 39.64 29.13 39.64 18.49 0 29.47-15 29.47-40.1-.05-24.67-10.91-39.41-29.07-39.41zm-.33 76.78c-16.53 0-26.4-13.8-26.52-36.92s10-37.14 26.85-37.14c16.47 0 26.3 13.72 26.3 36.69-.05 23.75-9.76 37.37-26.68 37.37zm0-63.64c-4.48 0-12 3.44-12 26.5-.08 12 1.86 20.14 5.78 24.08a8.48 8.48 0 006.21 2.65h.11c7.8 0 11.76-9 11.76-26.73s-4.04-26.5-11.91-26.5zm.11 50.49h-.11a5.79 5.79 0 01-4.28-1.82c-2.33-2.35-5.09-8.1-5-22.16 0-15.12 3.38-23.79 9.27-23.79 7.56 0 9.15 12.93 9.15 23.78s-1.61 23.99-9.08 23.99zm63.07-63.63c-16.46 0-29.35 12.35-29.35 28.1 0 14.23 10.27 24.55 24.43 24.55 5.14 0 9.36-1 12.78-3.18a20.31 20.31 0 01-7.58 9.14 27.45 27.45 0 01-14.05 4.35 32.56 32.56 0 01-7.28 0l-1.57-.24v16.53h9.36c12.24-.48 22.14-4.1 29.38-10.75 8.86-8.23 13.35-20.06 13.35-35.17-.05-20.23-11.62-33.33-29.52-33.33zm14.26 66.52c-6.74 6.21-16.06 9.58-27.69 10h-6.48v-10.74a46.83 46.83 0 006.27-.1 30.23 30.23 0 0015.39-4.79 23.26 23.26 0 009.93-14.53l1-4.58-3.55 3.2c-3.34 3.35-8 5-14.13 5-12.79 0-21.72-9-21.72-21.83 0-14.23 11.7-25.38 26.64-25.38 19.72 0 26.75 15.82 26.75 30.63.03 14.27-4.17 25.43-12.41 33.12zm-14.73-53.84c-6.8 0-11.64 6.06-11.64 14.4 0 7.92 4.77 13.23 11.88 13.23 6.47 0 9.64-3.39 10.95-5.42l.05-.06v-.06a10.44 10.44 0 001-5.07c.08-5.85-1.54-10.92-4.45-13.87a10.5 10.5 0 00-7.83-3.15zm9.5 17a7.75 7.75 0 01-.64 3.8c-1 1.57-3.51 4.12-8.62 4.12-6.77 0-9.16-5.67-9.16-10.52 0-6.88 3.62-11.68 8.8-11.68a8 8 0 015.95 2.34c2.34 2.37 3.67 6.56 3.67 11.54z" fill="#254ca1"/><g fill-rule="evenodd"><path d="M401.07 14.87A123.24 123.24 0 00341.86 0c-48 0-75.41 32.75-90.15 50.35-3.37 4-8.7 10.39-11.21 12.32-35.36 15.11-77.26 8.27-79.73 7.84-2.27-.49-6.09-1.28-13.34-2.78l-15.83-3.27L27.91 185.99l14.83 21.81 7.86 11.58-.33-.47c.1.15 10.29 15.41 20.68 42.28a316.85 316.85 0 0121.66 114c0 12.41-3.38 26.19-10 41-5.71 12.67-14 26.07-24.61 39.8a290.76 290.76 0 01-37.66 40L0 512.51l1.46 27c1.06 14.88 14.28 147 149.62 203.59 55.25 23.22 89.05 31.44 113.74 37.45l1.31.31c19.24 4.75 29.7 7.24 43.48 14.77l1.23.68 1.61.63.67.28a130.14 130.14 0 0119.5 11.71c11 7.89 26.74 21.37 38.85 40.68l29.67 46.59 28.88-46.82c12.11-19.18 27.81-32.65 38.83-40.54a133.94 133.94 0 0118.72-11.3l1.2-.3 3-1.65c13.88-7.56 24.31-10.06 43.26-14.58 23.36-5.53 58.55-13.91 116.13-38 141.43-59.08 149.5-202.89 149.56-204.33 0 0 .19-3.64.21-4.06l1.48-21.79-13.69-11.31-6.94-5.7c-24.83-21.11-72.25-73.81-72.25-120.67 0-48 11.68-88.28 21.48-113.64 10.42-26.83 20.66-42.35 20.76-42.49l-4.33 4.49 4.47-4.69 22.59-32.91-26.1-30.21-57.8-67.86s-6.33-7.25-6.73-7.72l-13-15.69s-19.73 4.18-20.07 4.24l-9.16 1.81c-7.61 1.18-46.94 6.24-80-7.81-2.62-2-8.23-8.76-11-12.12C535.87 32.84 508.46 0 460.38 0a123.74 123.74 0 00-59.31 14.87zm-73 730.22l2.29.29 3.34 1.37a42 42 0 00-5.6-1.66zm146-.16a40 40 0 00-6.07 1.74l3.79-1.49zm4.71 54.12l-.66.13zM648 124.65l1.92-.21.07.08c-.17 0-3.67.26-3.67.26z" fill="#fff"/><path d="M401.05 47.2a96.57 96.57 0 00-59.19-19.82c-35.29 0-55.69 24.46-69.26 40.67-7.16 8.52-13.9 16.53-20.3 19.33-44.08 19.26-94 10.43-96.4 10-.14 0-14-2.92-14-2.92l-67.45 79.06-12.15 14.35 3.09 4.55s7.43 10.88 7.43 11c.59.82 12.2 18.26 23.67 47.95a344.59 344.59 0 0123.5 123.86c0 16.4-4.23 34-12.43 52.2-6.69 14.84-16.12 30.05-27.91 45.31a316.88 316.88 0 01-41.81 44.3l-9.74 7.93.68 12.56c.37 5.15 8.93 128.55 132.88 180.33 54.28 22.82 87 30.61 111 36.43v.19h.13c19.85 4.73 33 7.87 50 17.16l.32.09.32.14c.14 0 11 4.69 25.14 14.8 13 9.29 31.55 25.18 46.13 48.4l6.15 9.66 6-9.66c14.67-23.22 33.2-39.11 46.18-48.4 14.2-10.11 25.09-14.8 25.18-14.8l.22-.14.37-.09c17-9.29 30.15-12.43 50-17.16h.09c24.09-5.74 56.92-13.66 111.84-36.62 123.95-51.78 132.56-175.18 132.79-180.33l.23-4.46.54-8-2.99-2.41-6.88-5.65c-.78-.68-82.24-68.63-82.24-141.81 0-52.32 12.7-96 23.31-123.49 11.81-30.33 23.71-48.18 23.89-48.33l10.66-15.52-12.34-14.3-57.92-68-6.75-7.74-2.68-3.24-4.1.87-9.93 2c-.55 0-52 9.47-96.54-10-6.33-2.83-13.11-10.84-20.22-19.4-13.52-16.25-33.97-40.67-69.21-40.67a97.19 97.19 0 00-59.3 19.82z" fill="#fff"/><path d="M275.05 747.43c-23.77-5.74-56.46-13.57-110.69-36.16C44.63 661.23 36.3 542.1 36.03 537.05c0 0-.37-5.74-.59-8.84l6.87-5.65c.86-.72 84.84-70.48 84.84-147.36 0-103.82-47.95-175.13-48.41-175.82 0 0-4.82-7.2-7.52-11.11 2.24-2.51 6-7 8.7-10.07l58-67.94 6.69-7.74 10 2c.45 0 53.64 10.11 100.63-10.52 7.93-3.46 15.22-12.2 22.86-21.49 13.53-16 31.84-38 63.76-38a90.58 90.58 0 0156.92 20l2.27 2 2.38-2a90.44 90.44 0 0156.92-20c31.87 0 50.27 22 63.66 38 7.78 9.29 15.07 18 22.86 21.49 46.95 20.54 100.18 10.57 100.73 10.52l10.06-2c1.69 2 4.6 5.37 6.6 7.74l58 67.94s5.73 6.6 8.74 10.2l-7.61 11c-.45.68-48.31 72-48.31 175.81 0 77 84 146.64 84.83 147.36 0 0 4.56 3.7 6.83 5.65-.13 2.33-.31 6.15-.54 8.84-.27 5.05-8.56 124.18-128.33 174.22-54.23 22.59-86.89 30.42-110.65 36.16-20.5 4.92-34.07 8.15-52 17.76 0 0-44.86 18.94-74.45 66-29.7-47.09-74.64-66-74.64-66-17.83-9.62-31.36-12.82-51.83-17.77z" fill="#034da0"/><path d="M401.05 47.2a96.57 96.57 0 00-59.19-19.82c-35.29 0-55.69 24.46-69.26 40.67-7.16 8.52-13.9 16.53-20.3 19.33-44.08 19.26-94 10.43-96.4 10-.14 0-14-2.92-14-2.92l-67.45 79.06-12.15 14.35 3.09 4.55s7.43 10.88 7.43 11c.59.82 12.2 18.26 23.67 47.95a344.59 344.59 0 0123.5 123.86c0 16.4-4.23 34-12.43 52.2-6.69 14.84-16.12 30.05-27.91 45.31a316.88 316.88 0 01-41.81 44.3l-9.74 7.93.68 12.56c.37 5.15 8.93 128.55 132.88 180.33 54.28 22.82 87 30.61 111 36.43v.19h.13c19.85 4.73 33 7.87 50 17.16l.32.09.32.14c.14 0 11 4.69 25.14 14.8 13 9.29 31.55 25.18 46.13 48.4l6.15 9.66 6-9.66c14.67-23.22 33.2-39.11 46.18-48.4 14.2-10.11 25.09-14.8 25.18-14.8l.22-.14.37-.09c17-9.29 30.15-12.43 50-17.16h.09c24.09-5.74 56.92-13.66 111.84-36.62 123.95-51.78 132.56-175.18 132.79-180.33l.23-4.46.54-8-2.99-2.41-6.88-5.65c-.78-.68-82.24-68.63-82.24-141.81 0-52.32 12.7-96 23.31-123.49 11.81-30.33 23.71-48.18 23.89-48.33l10.66-15.52-12.34-14.3-57.92-68-6.75-7.74-2.68-3.24-4.1.87-9.93 2c-.55 0-52 9.47-96.54-10-6.33-2.83-13.11-10.84-20.22-19.4-13.52-16.25-33.97-40.67-69.21-40.67a97.19 97.19 0 00-59.3 19.82z" fill="#fff"/><path d="M401.05 47.2a96.57 96.57 0 00-59.19-19.82c-35.29 0-55.69 24.46-69.26 40.67-7.16 8.52-13.9 16.53-20.3 19.33-44.08 19.26-94 10.43-96.4 10-.14 0-14-2.92-14-2.92l-67.45 79.06-12.15 14.35 3.09 4.55s7.43 10.88 7.43 11c.59.82 12.2 18.26 23.67 47.95a344.59 344.59 0 0123.5 123.86c0 16.4-4.23 34-12.43 52.2-6.69 14.84-16.12 30.05-27.91 45.31a316.88 316.88 0 01-41.81 44.3l-9.74 7.93.68 12.56c.37 5.15 8.93 128.55 132.88 180.33 54.28 22.82 87 30.61 111 36.43v.19h.13c19.85 4.73 33 7.87 50 17.16l.32.09.32.14c.14 0 11 4.69 25.14 14.8 13 9.29 31.55 25.18 46.13 48.4l6.15 9.66 6-9.66c14.67-23.22 33.2-39.11 46.18-48.4 14.2-10.11 25.09-14.8 25.18-14.8l.22-.14.37-.09c17-9.29 30.15-12.43 50-17.16h.09c24.09-5.74 56.92-13.66 111.84-36.62 123.95-51.78 132.56-175.18 132.79-180.33l.23-4.46.54-8-2.99-2.41-6.88-5.65c-.78-.68-82.24-68.63-82.24-141.81 0-52.32 12.7-96 23.31-123.49 11.81-30.33 23.71-48.18 23.89-48.33l10.66-15.52-12.34-14.3-57.92-68-6.75-7.74-2.68-3.24-4.1.87-9.93 2c-.55 0-52 9.47-96.54-10-6.33-2.83-13.11-10.84-20.22-19.4-13.52-16.25-33.97-40.67-69.21-40.67a97.19 97.19 0 00-59.3 19.82z" fill="#034da0"/><path d="M275.05 747.43c-23.77-5.74-56.46-13.57-110.69-36.16C44.63 661.23 36.3 542.1 36.03 537.05c0 0-.37-5.74-.59-8.84l6.87-5.65c.86-.72 84.84-70.48 84.84-147.36 0-103.82-47.95-175.13-48.41-175.82 0 0-4.82-7.2-7.52-11.11 2.24-2.51 6-7 8.7-10.07l58-67.94 6.69-7.74 10 2c.45 0 53.64 10.11 100.63-10.52 7.93-3.46 15.22-12.2 22.86-21.49 13.53-16 31.84-38 63.76-38a90.58 90.58 0 0156.92 20l2.27 2 2.38-2a90.44 90.44 0 0156.92-20c31.87 0 50.27 22 63.66 38 7.78 9.29 15.07 18 22.86 21.49 46.95 20.54 100.18 10.57 100.73 10.52l10.06-2c1.69 2 4.6 5.37 6.6 7.74l58 67.94s5.73 6.6 8.74 10.2l-7.61 11c-.45.68-48.31 72-48.31 175.81 0 77 84 146.64 84.83 147.36 0 0 4.56 3.7 6.83 5.65-.13 2.33-.31 6.15-.54 8.84-.27 5.05-8.56 124.18-128.33 174.22-54.23 22.59-86.89 30.42-110.65 36.16-20.5 4.92-34.07 8.15-52 17.76 0 0-44.86 18.94-74.45 66-29.7-47.09-74.64-66-74.64-66-17.83-9.62-31.36-12.82-51.83-17.77z" fill="#fff"/><path d="M751.15 533.13c-.85-.75-89.75-74.45-89.75-157.93 0-108.56 50.27-182.87 50.73-183.6l1.68-2.32-1.91-2.24-58-67.94-1.36-1.64-2.14.41c-.64.14-57.61 11.11-108.93-11.38-10.86-4.74-19.17-14.62-27.89-25.11-13.71-16.26-27.73-33.19-53.23-33.19a76.79 76.79 0 00-59.3 27.5 76.42 76.42 0 00-59.19-27.5c-25.46-.03-39.56 16.9-53.24 33.19-8.74 10.52-17 20.4-27.91 25.14-51.32 22.49-108.24 11.52-108.79 11.38l-2.14-.41-1.48 1.61-58 67.94-1.87 2.24 1.73 2.32c.46.73 50.69 75 50.69 183.6 0 83.48-88.89 157.2-89.85 157.93l-1.5 1.23.14 1.91c0 1.14 8.06 115.62 120 162.39 53.19 22.18 83.93 29.65 108.57 35.47 20.72 5 35.74 8.57 55.23 19.09 48.13 25.91 64.26 53 64.44 53.32l3.18 5.56c.1 0 3.24-5.56 3.24-5.56.13-.32 16.35-27.41 64.44-53.32 19.58-10.52 34.51-14.13 55.28-19.09 24.64-5.82 55.42-13.29 108.56-35.47 111.94-46.77 120-161.25 120-162.39l.09-1.91-1.55-1.23zm-134-404.92a220.49 220.49 0 0022.87-1.28l-471 563.21c-4.68-2-9.15-4.14-13.34-6.37l461.45-555.56zm12.6 563.57c-52.64 22-83.11 29.24-107.47 35.11-20.58 4.92-36.66 8.84-57 19.72-38.71 20.85-57.39 42.12-64.22 51.37-6.82-9.25-25.45-30.52-64.11-51.37-20.31-10.88-36.43-14.8-57.06-19.72-23.77-5.74-53.32-12.89-103.69-33.6l474-566.86 54.18 63.39c-8.69 13.71-50.5 85.38-50.5 185.38 0 81.93 78.69 151.88 91.08 162.48-1.46 14.31-15.3 112.3-115.21 154.1z" fill="#034da0"/><path d="M640.86 549.8l-.09-.86c-.14-2.38-.37-4.75-.69-7.16-.08 0-.08-.13-.08-.13l-.14-1.69a123.29 123.29 0 00-47.77-80.83l-1.46-1.14c-.55-.4-1.18-.72-1.77-1.18-1.33-.91-2.69-1.82-4.06-2.73-.86-.55-1.68-1.1-2.46-1.64-2.09-1.14-4.1-2.37-6.23-3.46-.69-.45-1.6-.82-2.37-1.28-1.69-.77-3.38-1.68-5.15-2.46-.68-.32-1.37-.54-2-.86-2.37-1.05-4.65-2-7.06-2.83-.6-.22-1.23-.41-1.82-.59-2.24-.72-4.37-1.41-6.6-2a5.58 5.58 0 00-1.14-.32c-2.69-.77-5.38-1.37-8.16-1.91a5.91 5.91 0 01-.91-.14c-2.5-.45-5.14-.86-7.83-1.18a1.77 1.77 0 00-.68-.09 80.45 80.45 0 00-8.74-.64l-2.28-.09c-1 0-2-.18-2.92-.18a122.4 122.4 0 00-74.15 25.09h-.09l-1.91 1.41c-.37.36-.73.68-1.14 1.05-1 .77-2 1.59-3 2.45-1.19 1-2.23 2-3.37 3.05s-2.33 2.19-3.46 3.33c-.78.77-1.56 1.69-2.33 2.46s-1.68 1.77-2.5 2.59-1.46 1.78-2.19 2.6c-.91 1.14-1.73 2.23-2.64 3.33-.72.91-1.41 1.82-2.09 2.73-1.15 1.54-2.32 3.14-3.29 4.69-.54.77-1 1.54-1.54 2.36-.77 1.23-1.55 2.46-2.32 3.78-.46.78-.92 1.6-1.46 2.46-.82 1.55-1.69 3.15-2.46 4.74-.22.46-.45.91-.69 1.37-1 2.18-2 4.32-2.91 6.46a2.72 2.72 0 00-.22.55l-1.15 2.73.15.09a120.72 120.72 0 00-8.07 43.44 122.94 122.94 0 003.79 30.33l.08.27c.05.06.05.19.14.37l.32 1.27a2.71 2.71 0 00.23.73c.59 2.15 1.27 4.29 2 6.42a7.92 7.92 0 01.5 1.56c.86 2.36 1.68 4.68 2.69 7 .22.46.45.82.64 1.23.77 1.82 1.68 3.6 2.5 5.43.41.76.87 1.63 1.23 2.45.86 1.55 1.68 3 2.55 4.46.54.91 1.14 1.92 1.69 2.92 1 1.55 2 3.09 3 4.69.73 1 1.4 1.91 2.09 2.82.78 1.09 1.46 2.1 2.28 3.14.77.87 1.45 1.87 2.23 2.78 1.32 1.59 2.68 3.23 4.05 4.73.86.78 1.64 1.69 2.46 2.55s1.87 1.83 2.77 2.79a20 20 0 011.6 1.59l1.46 1.37a125.88 125.88 0 0018.67 13.88c-13.57.55-39.67 1.55-39.67 1.55-4.5 0-7.51 6.2-7.51 10.48 0 4.09 2.6 6.82 6.43 6.82 4.37.1 108.79 2.46 126.41-2.59 1.45-.36 3.32-.82 5.15-1.32a107 107 0 0012.9-3.68c.09 0 .09-.09.18-.09a123.1 123.1 0 0073.41-69.59l.87-2c.09-.14.09-.36.14-.45 1.22-3.23 2.32-6.42 3.32-9.74a7.72 7.72 0 01.32-1.15c.91-3.32 1.68-6.55 2.27-9.92a7.52 7.52 0 00.23-1.28c.64-3.27 1.09-6.69 1.41-10.07a8.51 8.51 0 00.14-1.13c.23-3.46.46-7 .46-10.57 0-2.45-.1-4.91-.23-7.37zM511.62 655.95v3.82l-44.67 1.78a118.8 118.8 0 01-24.45-16.17l13.66-5.74 3-1.23-1.32-2.92-12.54-28.41 34.7-18.17 48.18 17.81 4.28 39.35-19.17 9-1.69.91zm110-124.05l-2.77-1.14-1.28 2.6-13.66 28.69-.45 1 .23 1.09 8.74 36 .45 2.24 2.33.18 10.2.59a117.11 117.11 0 01-43.72 51.64l-1.78-8.74-.45-2.56-2.69.1-38.16 1.14-4.31-39.35 31.92-40.48 18.86 2.73 1-6.1-19.26-2.87-29.69-44.28-1.19-1.91-2.19.59-51.27 14.44-19.58-12.68-3.37 5.1 19.31 12.67-2.06 51-34.83 18.21-24.54-25.68-2-2-2.23 1.92-8.29 6.92a120 120 0 01-3-25.78 116.83 116.83 0 017.55-40.8l5.69 2.59 1.68.82 1.37-1 23.63-16.22.69-.45.36-.78 13.66-29.83 1.19-2.37-2.19-1.54-5.87-4.22a116 116 0 0168.8-22.72h.59l-3.59 9.74-.69 1.91 1.51 1.47 23.72 21.12.78.68 1 .06 44.76 3.77 2.92.23.41-2.91 1.27-10.35a116.28 116.28 0 0141.81 70.49l-11.35-5z" fill="#034da0"/></g><path d="M186.62 562.82l12.34-16.39-54.78-45.49-12.12 16.53zm18.31-83.74l-51.14 8.3 56.51 47 12.35-16.39-24-20 51.19-8.33-57.15-47.45-12.39 16.38zm258.51-361.39l24.59 20.49-51.13 8.29 56.51 46.91 12.29-16.4-23.95-19.9 51.18-8.38-57.06-47.49zM137.58 575.26l12.29-14.81-11.83-9.74-12.21 14.75-7.43-6.24 16.13-19.35-14.12-8.29-27.64 33.15 53.87 44.72 28.55-34.43-10-13.34-17.89 21.63zm307.19-370l12.29-14.7-11.76-9.71-12.2 14.71-7.5-6.18 16.12-19.49-14.12-8.28-27.55 33.27 53.79 44.62 28.55-34.33-10-13.39-17.87 21.6zM294.23 362.64l-13.44 16.25-20.85-17.34-12.21 16.66 54.57 45.27 12.39-16.44-22.18-18.4 13.48-16.21 22.95 19 12.36-16.45-54.73-45.5-12.16 16.67zm-92.58 70.31l53.37 44.35c36.43-30.6 21.49-55.78 21.49-55.78s-11.43-20.85-33.74-21.22c0 0-19.67-1.69-41.12 32.65zm54.5 18.58l-29.18-24.32s11-14.57 25.59-3.83c0 0 16.74 12.35 3.59 28.15zm62.21-160.57a36.4 36.4 0 1051.28-4.73 36.36 36.36 0 00-51.28 4.73zm42.08 34.84a18.23 18.23 0 11-2.42-25.69 18.3 18.3 0 012.42 25.69zm37.79-72.73l-39.43-8.56-13.25 16 81.83 16.71-31.51-77.41-13.3 16.08zm-173.81-65.39l-3.24-19.44h-51.82v85.25l24.59-1.11h.19v-34.64h23v-18.49h-23v-11.57zm64.34 5.88v-24.32a43.62 43.62 0 00-41.85 74.95 43.18 43.18 0 0041.85 7.7v-24.32a22 22 0 110-34z" fill="#fff"/></svg>