<svg viewBox="0 0 920.04 1000" xmlns="http://www.w3.org/2000/svg"><path d="M459.94 1000l-28-40.41c-6.07-8.77-25.6-26.83-88.13-49.19-42.11-15.02-87.56-26.3-114.7-33.02-6.14-1.51-11.43-2.82-15.83-4-46.86-12-93.88-40.36-129-77.71C38.82 747.38 14.8 686.58 14.8 619.81c0-56.06 13.82-102.4 27.18-147.2C52.74 436.53 62.9 402.46 62.9 369c0-93.05-41.95-150.27-42.38-150.84L0 191.5l22.66-24.83L175.46 0l21.65 9.87c86.44 39.37 201.21 43.62 246.54 43.62 5.7 0 16.25.14 16.25.14s10.62-.14 16.26-.14c45.33 0 160.09-4.25 246.55-43.62L744.39 0l175.66 191.55-20.75 26.7c-1.7 2.34-42.31 59.22-42.31 150.75 0 33.46 10.16 67.53 20.92 103.6 13.37 44.78 27.2 91.15 27.2 147.21 0 66.77-24 127.6-69.48 175.92-35.12 37.35-82.14 65.68-129 77.71-4.41 1.13-9.7 2.44-15.7 3.92-27.29 6.74-72.73 18-114.86 33-62.54 22.36-82.07 40.42-88.14 49.19z" fill="#f47920"/><path d="M191.36 814.68a199.83 199.83 0 0033.75 12.14l15.62 3.89c28 6.93 74.92 18.52 119.3 34.39 47.45 17 80.24 34.73 99.92 54 19.67-19.24 52.46-37 99.92-54 44.45-15.9 91.43-27.51 119.48-34.44l13-3.24a23.72 23.72 0 012.5-.48l-.17-.1c38.26-9.83 76.87-33.18 105.92-64.08 36.91-39.24 56.41-88.67 56.41-143 0-49.06-12.23-90.06-25.18-133.46-11.27-37.78-22.92-76.85-22.92-117.35 0-94.08 36.84-157.07 48.48-174.63l-.07-.07zM792.85 369c0 42.83 12 83.05 23.59 121.93 12.61 42.26 24.52 82.16 24.52 128.88 0 50.13-18 95.77-52.06 132-26.63 28.33-63.35 50.58-98.23 59.54l-15.15 3.78c-28.35 7-75.84 18.74-121 34.91-42.08 15-73 30.52-94.53 47.49-21.54-17-52.44-32.45-94.51-47.49-45.15-16.15-92.54-27.87-120.86-34.87l-15.51-3.87c-2.7-.7-5.41-1.5-8.12-2.35l588.21-548A360.07 360.07 0 00792.85 369zM732.32 57.98c-93.56 39.18-209.6 43.61-256 43.61l-16.64.14-16-.14c-46.5 0-162.56-4.43-256.12-43.61L62.49 194.38c11.82 18.17 48.52 82.06 48.52 174.59 0 40.48-11.14 77.82-22.93 117.36-13 43.4-25.18 84.4-25.18 133.45a213.16 213.16 0 007.21 55.29L732.33 57.99zM80.37 643.55a202.17 202.17 0 01-1.43-23.74c0-46.71 11.9-86.62 24.51-128.87 11.6-38.91 23.59-79.12 23.59-121.94 0-84.21-28.39-144.93-44.54-172.69L191.8 77.09c94.11 36.34 205.89 40.54 251.89 40.54l16 .14h1.12l15.43-.13c36.51 0 114.46-2.67 192.13-21.93z" fill="#fff"/><path d="M832.94 369c0-97.69 42.12-158.32 46.93-164.91l.21-.3 8.52-11-6.87-7.41L738.5 29.12l-7.91 3.54C639.97 73.17 522.5 77.54 476.2 77.54l-16.52.14-15.88-.14c-46.41 0-163.89-4.37-254.5-44.88l-7.91-3.54L40.45 182.85l-9.08 10 8.37 10.9c.39.52 47.21 64.55 47.21 165.29 0 37-10.64 72.68-21.92 110.48-13.46 45.14-26.18 87.77-26.18 140.33 0 60.53 21.76 115.66 62.94 159.44 32.09 34.13 74.89 60 117.42 70.88l15.68 3.92c27.64 6.83 73.81 18.24 117 33.7 50.82 18.18 83.93 37.17 98.4 56.44l9.62 12.82 9.62-12.82c14.46-19.27 47.56-38.26 98.4-56.44 43.3-15.49 89.55-26.91 117.18-33.74l15.41-3.85c42.68-10.98 85.49-36.82 117.59-70.95 41.17-43.78 62.93-98.91 62.93-159.44 0-52.57-12.71-95.2-26.18-140.33-10.75-36.1-21.92-73.49-21.92-110.48zM88.11 486.38c11.79-39.54 22.93-76.88 22.93-117.36 0-92.53-36.7-156.42-48.52-174.59L187.57 57.98c93.56 39.18 209.62 43.61 256.12 43.61l16 .14 16.64-.14c46.41 0 162.45-4.43 256-43.61L70.11 675.07a213.16 213.16 0 01-7.16-55.26c-.05-49.05 12.16-90.05 25.16-133.43zm712.5 276.41c-29.05 30.9-67.66 54.25-105.92 64.08l.17.1a23.72 23.72 0 00-2.5.48l-13 3.24c-28 6.93-75 18.54-119.48 34.44-47.46 17-80.25 34.72-99.92 54-19.68-19.24-52.47-37-99.92-54-44.38-15.87-91.28-27.46-119.3-34.39l-15.63-3.92a199.83 199.83 0 01-33.75-12.14L857.3 194.3l.07.07c-11.64 17.56-48.48 80.55-48.48 174.63 0 40.5 11.65 79.57 22.92 117.35 12.95 43.4 25.18 84.4 25.18 133.46 0 54.29-19.5 103.72-56.41 142.96z" fill="#231f20"/><path d="M97.25 700.19l45.64-42.53 12.58 13.5-29.17 27.22 17.9 19.22 27.46-25.58 12.57 13.5-27.45 25.57 33 35.47-16.48 15.34zm114.94-55.59c-11.09-11.89-18.29-14.8-25.72-7.88-8.35 7.78-2.52 17.95 19 41 23 24.71 30.61 26 37.7 19.37 5.95-5.54 7.42-12.68-9-30.3l16.47-15.34c16.41 17.61 26.24 36.88 4.62 57-24.71 23-44.21 8.28-67.34-16.54s-36.45-45.32-11.74-68.34c23.57-22 41.38-6.28 52.46 5.62zm43.26-91.81l67.83 49.64.34-.32-44.14-71.73 17-15.88 57.33 99.16-21.12 19.72-94.85-64.2zm73.09-71.08c24.71-23 44.21-8.28 67.34 16.55s36.45 45.31 11.74 68.33-44.21 8.28-67.34-16.54-36.45-45.32-11.74-68.34zm67.78 72.76c9.73-9.06 3.55-18.91-16.91-40.87s-29.85-28.82-39.57-19.76-3.44 19 16.92 40.86 29.84 28.83 39.56 19.77zm48.71-25.73l-76.09-81.67 16.47-15.35 63.52 68.18 29.18-27.18 12.58 13.5zm23.88-174.81l12.57 13.5-29.17 27.18 17.91 19.21 27.45-25.57 12.58 13.5-27.46 25.57 20.46 22 30.32-28.25 12.54 13.47-46.78 43.59-76.1-81.67zm29.76-27.73l72 37.4.23-.22-52.09-55.93 15.1-14.07L610 375.05l-18.76 17.48-73.42-38.44-.23.22 53.29 57.19-15.1 14.07-76.1-81.68zm48.83-45.48l27-25.15c22.88-21.32 41.6-9.48 64 14.54 27 28.94 32.94 47.74 11.09 68.09l-26 24.19zm81.26 54.2l7.33-6.82c11.44-10.66 7-20-13.67-42.19-17.26-18.53-27.59-26.64-40.18-14.91l-7 6.5zm-3-127.11l20.36-19 97.71 61.57-17.16 16-19.86-13.78-21.7 20.25 12.32 20.79-17.16 16zm49.6 48.88l16-14.92-42.09-29.39-.23.21zm-.19-94.92l24.48-22.81 65.38 46.79.23-.22-41.93-68.63 24.37-22.7 76.09 81.68-15.1 14.07-60.75-65.21-.23.21 46.22 78.74-12.82 11.94-75.27-51.67-.23.21 60.75 65.21-15.1 14.07zm-3.79 360.96l30.31 2.71c2.5 10.84 13.12 48.17 48.25 90.46l-78.56 18.48zm-84.27 101.96c52-47.45 68.14-83.34 76.07-114.43V652.8z" fill="#fff"/><path d="M686.84 591.85h-6.16l7.21-19.04h-9.73v-4.92h15.88l-.04 5.13zm18.24 0h-6.15l7.2-19.04h-9.76v-4.92h15.91l-.03 5.13z" fill="#231f20"/><path d="M587.11 624.69c52-47.45 68.14-83.34 76.07-114.43V652.8zm84.23-102l30.31 2.7c2.5 10.85 13.12 48.18 48.25 90.47l-78.52 18.52zm0 146.82v-26.79l93.54-21.94-4.45-5.11c-43.08-49.53-51.26-94.29-51.32-94.72l-.54-3.1-37.18-3.32v-38.44c10.41 3.64 34.48 13 55.88 27.77l4.64-6.72c-29.14-20.18-62-30.2-63.43-30.62l-4.24-1.28-.93 4.32c-1 4.74-1.9 9.39-2.84 14.33-6.94 36.58-14.8 78-83.78 139.24l-5.09 4.52 91.63 33.59v8.35c-27.6.88-53.69 9-53.69 24.24a58.72 58.72 0 10117.44 0c0-15.64-27.31-23.73-55.59-24.28" fill="#231f20"/><path d="M251.41 318.61a78.51 78.51 0 1178.5-78.51 78.59 78.59 0 01-78.5 78.51" fill="#fff"/><path d="M248.68 183.38l22.43 14.58 24.16-.44v-11.89l-10.45-8.9a70.51 70.51 0 00-25-7.77l-9.55 2.57zm-51.24 9.67l-.21 5.36 20.26-.29 24.85-15 1.67-12-4.34-1.77a71.72 71.72 0 00-42.23 23.62m-6.33 59.58l18.91 1.29 14-24.6-8.06-24.74h-19.85l-13.8 24.47zm86.8 1.95h22.86l11-25.6-15-24.91-25 .48-10 25.34zm-98.14-14.67v.27a71.23 71.23 0 009.67 35.92l-3.17-19.22zm128.16 38l3.74 1a71.21 71.21 0 0011.38-38.71 73.34 73.34 0 00-.62-9.47l-5 .47-11.62 27.2zm-79.59 3.92h30.18l14.23-23.21-16-25-27.43-.9-14.65 25.13zm-30.17 6.27a73 73 0 0018.81 14.92l-2.33-2zm80.66 15.13l-5.06 5.06a71.75 71.75 0 0034.08-24l-2-.58zm-44.61 6.55a72.23 72.23 0 0028 1.26l10.61-11-13.88-12.21h-30.84l-8.21 9.72zm17.19 9a78.51 78.51 0 1178.5-78.51 78.59 78.59 0 01-78.5 78.51" fill="#231f20"/></svg>