<svg viewBox="0 0 1000 592.07" xmlns="http://www.w3.org/2000/svg"><path d="M744.72 244.72c0 135.15-109.56 244.7-244.71 244.7s-244.72-109.55-244.72-244.7S364.85 0 500.01 0s244.71 109.57 244.71 244.72z"/><path d="M736.76 244.72c0 130.76-106 236.76-236.75 236.76s-236.76-106-236.76-236.76S369.25 7.96 500.01 7.96s236.75 106 236.75 236.76z" fill="#fff"/><path d="M493.19 470.9c-121.83-3.59-219.48-103.48-219.48-226.19 0-118.11 90.5-215.08 205.92-225.39 0 0-9.91 13.95-9.91 25.28s5.33 20.43 9.1 18.9-1.51-17.39 3.8-21.17 18.14-12.86 28-6 18.13 20.43 3 34-25 18.93-23.51 21.18 33.32 1.53 40.89 2.28 14.35 0 17.39 6.05 7.53 15.88 3.78 21.16-12.09 22-12.84 25 0 15.87-5.31 18.15-39.33 9.84-48.43 9.84-26.45-.77-27.21-3.79-.78-12.12-2.28-15.15-9.78-18.14-16.61-16.63-13.6 14.38-12.85 18.9 9.08 15.9 13.6 20.42 8.32 9.07 6.08 9.86-14.42 1.51-16.66 6.05-8.33 37.82-1.52 66.58 13.61 45.39 13.61 52.19-1.51 36.31 1.49 44.64 21.24 29.49 24.24 37.07 6.81 19.66 11.34 24.21 7.56 6.82 7.56 12.1 1.52 25 3 30.27a83.82 83.82 0 003.78 10.2"/><path d="M521.26 470.03c115-10.72 205-107.54 205-225.32 0-117.09-88.91-213.41-202.88-225.11 0 0 8.38 4.57 7.62 23.48s-6.06 20.42-3.83 25.72 22 9.84 28.75 12.13 14.41 17.39 8.35 31.76-10.59 31-12.1 39.34-4.53 21.95-13.61 28-32.55 5.3-42.36 3.77-28-3-26.51 2.27 12.9 21.2 15.16 26.49 8.31 9.85 2.27 13.63c-3.28 2.05-12.1-10.62-16.66-13.63s-18.92-3-26.47 4.53-14.36 23.45-6.8 39.35 15.88 40.1 14.35 44.63-2.25 11.35 0 15.14 8.33 9.84 6.84 13.6-8.35 18.16-3 26.49a143.08 143.08 0 0017.41 21.94c4.51 4.55 12.82 15.15 15.1 21.18s15.13 20.44 18.14 23.45 11.35 18.91 12.87 25 2.35 22.18 2.35 22.18" fill="#ed1c24"/><path d="M446.32 127.07c3.31-.47 0-7.57-2.3-14.38s-1.52-19.66 1.54-25 9.09-13.61 10.57-20.42 3.77-12.87-.75-16.64-11.36-6.81-21.19-7.58-22.7-3-25 1.52-11.34 15.88-11.34 34-1.55 46.15 3.75 49.18 12.87 9.09 18.16 8.33 8.33-7.57 6.83-16.65-3.02-12.01-5.26-12.01-4.53.77-6.81-3.79-7.54-11.35-7.54-19.67 3-16.63 12.83-16.63 15.13-2.27 15.13 4.53-3 19.67-1.53 26.49 7.56 29.5 12.91 28.75m98.31 61.26c-3.45 1.71 4.56 40.08 7.57 48.41s5.3 35.54.76 40.84-9.84 15.9-17.42 16.66-18.92-6.83-24.17-12.12-10.62-9.06-9.83-5.29 3 17.41 9.09 25 21.16 18.15 20.39 23.46a12.84 12.84 0 01-10.57 10.59c-5.31.75-12.88 9.08-5.31 16.62s13.62 13.62 19.66 11.36 12.09-10.62 12.09-18.9-11.35-17.42-8.3-21.95 5.28-4.55 10.6-8.34 10.59-14.37 12.86-37.81.73-50.68-2.27-59-12.11-31.05-15.15-29.49m15.15 188.87a34.25 34.25 0 1034.31 34.26 34.22 34.22 0 00-34.26-34.26" fill="#fff"/><path d="M0 495.91h29.17v31.89h18.56v-31.89h29.16v94.65H47.73v-32.89H29.17v32.89H0zm86.17 0h56v25.86h-25.51v9h23.31v24.65h-23.31v9.29h26.43v25.86H86.17zm65.51 0h30.27v64.27h25.41v30.38h-55.68zm70.15 0h31.15l11.49 49.71h.77a121.21 121.21 0 012.1-12.55l9.39-37.16h30.82l13.7 94.65h-29.27l-4.09-51.84h-.55a88.75 88.75 0 01-2 9.41l-12 42.43h-17.71l-10.82-40a72.22 72.22 0 01-1.88-11.8h-1c-.22 3.76-.44 7.65-.77 11.42l-3.53 40.42h-29.28zm194.87 47.58c0 30.38-20.66 48.58-46.07 48.58s-46.06-18.2-46.06-48.58c0-29.76 20.77-49.09 46.06-49.09s46.07 19.33 46.07 49.09zm-61.64.5c0 10.8 6.4 18.2 15.57 18.2s15.58-7.4 15.58-18.2c0-10-6-18.45-15.58-18.45s-15.54 8.41-15.54 18.45zm68.03-48.08h29.05l27.2 52.51h.88c-1.22-7.91-2.54-16.07-2.54-24.1v-28.41h28.94v94.65h-28.94l-26.59-49.71h-.88a124.85 124.85 0 011.88 19v30.75h-29zm93.14 0h30.86c27.95 0 49.38 13.93 49.38 48.71 0 28.12-17.45 45.94-41.86 45.94h-38.38zm30.27 66.28h1.88c10.05 0 17.79-5.27 17.79-17.7 0-13.31-6.74-19-17.79-19h-1.88z" fill="#231f20"/><g fill="#ed1c24"><path d="M627.61 556.67l1.54 1.38c5.42 4.77 11.93 8.66 18.89 8.66 3 0 7.74-1.38 7.74-5.65s-4-4.64-6.74-5.27l-6.08-1.26c-11.82-2.38-21.76-10.29-21.76-25.1 0-22.47 18-35 36.12-35a45.22 45.22 0 0126.41 8.29l-8.18 24.23c-5.19-4-11.05-7.16-17.56-7.16-2.65 0-6.52 1.13-6.52 5 0 3.52 3.75 4 6.07 4.65l6.85 1.75c12.82 3.27 22.1 11 22.1 27.12 0 22.6-18.12 33.77-36.13 33.77a67.75 67.75 0 01-32-8.66zm64.4-60.76h38.33c19.45 0 33.81 11.3 33.81 34.77 0 19.34-10.61 31.39-27.51 31.39h-15.46v28.49h-29.17zm29.17 42.3h3c5.3 0 11-1 11-8.66 0-7.4-6.18-7.78-11.15-7.78h-2.87zm136.54 5.28c0 30.38-20.66 48.58-46.07 48.58s-46.07-18.2-46.07-48.58c0-29.76 20.77-49.09 46.07-49.09s46.07 19.33 46.07 49.09zm-61.65.5c0 10.8 6.41 18.2 15.58 18.2s15.58-7.4 15.58-18.2c0-10-6-18.45-15.58-18.45s-15.56 8.41-15.56 18.45zm68.5-48.08h36.52c18.78 0 34.69 9 34.69 32.89 0 14.31-4.86 20.34-16.13 24.6v.76a22.41 22.41 0 015.08 5.65l18.12 30.75h-34.87l-13.26-30.38h-.55v30.38h-29.6zm29.6 41.93h2.1c5 0 9.94-.88 9.94-7.91 0-7.28-4.53-8.16-9.72-8.16h-2.32z"/><path d="M936.37 495.91H1000v30.76l-16.68-.88v64.77h-30.23v-64.77l-16.68.88z"/></g></svg>