<svg viewBox="0 0 773.93 1000" xmlns="http://www.w3.org/2000/svg"><path d="M392.59 0l16.4 47.19 49.96 1.02-39.82 30.18 14.47 47.84-41.01-28.54-41.01 28.54 14.47-47.84-39.81-30.18 49.95-1.01zm324.23 75.67l-6.35 49.55 44.21 23.2-49.09 9.24-8.41 49.25-23.96-43.82-49.44 7.21 34.3-36.34-22.13-44.76 45.13 21.38zM151.19 93.06l-22.18 44.78 34.28 36.34-49.44-7.25-23.99 43.81-8.36-49.25-49.09-9.27 44.25-23.17-6.34-49.55 35.71 34.92z" fill="#cc9b29"/><g fill="#231f20"><path d="M135.29 768.04a5.92 5.92 0 101.22 11.77c.22 0 20.7-2 40.81 2.51 21.48 4.81 51.1 15.21 65.27 21.06l2.35 1c54.59 22.54 66.69 23.58 71.95 17.45 9.47-11-4.58-24-9.2-28.24a5.93 5.93 0 00-8.38.33 6 6 0 00-1.54 4 5.93 5.93 0 001.9 4.36c7.12 6.54 8.45 9.61 8.49 11-4.35.07-17.72-2.89-58.69-19.83l-2.37-1c-14.56-6-45-16.69-67.2-21.65s-43.69-2.83-44.61-2.74m245.76-35.26a85.57 85.57 0 01-6.89 24.24c-5.91 12.7-25.71 47.14-25.91 47.48a5.92 5.92 0 007.32 8.46c.23-.09 23.73-9.47 31.53-11.53l31.28-7.84c3.15-.84 4.31-3.92 3.47-7.08s-3-5-6.25-4.4l-31.48 7.85c-3.91 1-10.86 3.54-17.4 6 6.3-11.25 14.55-26.17 18.16-33.91a97.07 97.07 0 007.94-28.06v-.6a5.9 5.9 0 00-11.78-.6M269.22 855.63a5.91 5.91 0 004.16 7.25c.12 0 13.35 3.73 22.48 13.56 5 5.43 9.74 15.91 11.19 22.54 1.24 5.58 2 17.28 2.05 17.41a5.924 5.924 0 1011.82-.8c0-.5-.88-12.72-2.32-19.18-1.81-8.2-7.35-20.8-14.06-28-11.53-12.39-27.43-16.78-28.09-16.94a5.89 5.89 0 00-7.23 4.18M583.9 769.9c-6.27 6.72-4.29 21.73 7 53.5 4.09 11.46 1.74 19.87.2 20.71-2.1 1.12-8.94-1.5-14.12-7.41l-.2-.22c-16.75-17.27-25.69-22.61-33-19.68-8.35 3.34-14.56 25.62-17.54 38.6-4.89 21.32-8.51 27-10.42 28.41-1.92-4-3.34-16.08-3.34-28.64 0-2.45.07-4.91.19-7.34v-1.22c0-6.68-.63-37.9-10.89-41.62-10.69-3.89-27.58 13.58-27.74 13.76a265.67 265.67 0 00-35.73 50.46c-13.12 24.49-24.26 55.24-24.75 56.52a5.93 5.93 0 1011.14 4c.08-.31 11.35-31.29 24-55 13.7-25.57 32-45.81 34-48 4-4.36 10.84-9 14.22-10.19 2 4.92 3.92 19 3.92 28.29a24.66 24.66 0 01-.08 2.47c0 1.51-.14 4.58-.14 8.43 0 11.8 1 31.17 7.46 37.58a9.56 9.56 0 007.2 2.87c12.81-.64 18.11-19.2 22.46-38.15 3.55-15.6 8.17-26.94 10.52-30 1.77.53 7 3.24 20 16.64-.06-.07-.16-.13-.21-.2 7.48 8.58 19.78 14.78 28.63 10 5.92-3.09 8.37-10.43 8.37-18.59a50.59 50.59 0 00-2.89-16.44c-8.35-23.3-10-33.74-10-38.34a7.21 7.21 0 01.49-3.21c3.71-3.83 11.74-3.73 26.71.45 15.29 4.25 33.9 10.69 34 10.77a5.922 5.922 0 003.91-11.18c-.78-.28-19.13-6.64-34.81-11-14.79-4.1-29.66-6.58-38.61 3"/><path d="M506.64 765.75c-1.63 7.7-.45 14.43 3.5 20 5.21 7.36 14.55 11 21.54 11.92 7.78 1 23.47-2.56 28.3-9.44 3.49-5 6.58-14.94 6.93-16.06a6 6 0 00-4-7.38 5.9 5.9 0 00-7.36 3.94c-1.1 3.51-3.45 10.07-5.26 12.69-1.68 2-11.81 5.23-17 4.51-3.52-.44-10.24-2.46-13.48-7-2-2.8-2.49-6.31-1.55-10.74 2.75-13.19 17.45-12.82 19.12-12.73a5.91 5.91 0 00.71-11.8c-9.12-.56-27.49 3.33-31.42 22.12M232.29 559.67c-.12.19-9.95 17.71-13.66 23.09-3.09 4.46-15.86 29.6-15.86 35.17 0 4.75 2.19 8.45 30.73 12.81a5.91 5.91 0 006.75-5 7.11 7.11 0 00.07-.91 5.92 5.92 0 00-5-5.83 180.43 180.43 0 01-19.48-4c2.78-7 9.66-21.41 12.55-25.59 4-5.82 13.84-23.26 14.26-24a6 6 0 00.75-2.88 5.92 5.92 0 00-11.07-2.92"/><path d="M264.3 529.12c-14.48 14-14.48 18.14-14.48 19.94 0 7.11 7.69 11.72 14.93 12.43l3.18.18c9.82.46 13.63 1.45 15.06 2.29 0 1.26.13 4.24.13 4.24.05 1.4.12 3.25.12 5a24.18 24.18 0 01-.1 2.52c-1.76-.39-4.25-1.18-5.94-1.7-6.15-1.92-11-3.43-14.95-1.45-4.81 2.39-5.41 8.07-6.3 16.64a138.62 138.62 0 01-2.9 18.63 42.31 42.31 0 00-1.07 10c0 9 2.21 18.08 5.14 22 0 0 1 1.32 1.21 1.61-2.75.11-8.73-.24-23.85-2.73a5.92 5.92 0 00-1.93 11.66c23.7 3.88 28.23 3.21 32.09 1.87l.39-.12h-.05a8.25 8.25 0 006.75-5 7.65 7.65 0 00.56-3c0-3.91-2.78-7.57-5.1-10.65l-.6-.79c-1-1.37-2.85-7.87-2.85-14.84a30.4 30.4 0 01.8-7.2 146.11 146.11 0 003.18-20.19c.24-2.25.51-4.81.81-6.63 1.65.4 3.68 1 5.14 1.49 4.87 1.51 9.47 3 13.21 2.27 7-1.27 8.2-8.21 8.2-14.87 0-1.73-.09-3.44-.16-5l-.13-4.65c0-11.93-17.12-12.71-26.32-13.16l-2.54-.13a9.84 9.84 0 01-3.45-1 101.42 101.42 0 0110-11 5.86 5.86 0 00.15-8.36 5.86 5.86 0 00-8.33-.16"/><path d="M216.94 498.27c-3.52 5.5-1.54 12.58.75 17.55 3.06 6.61 14 14.51 17.27 16.76a5.92 5.92 0 006.72-9.74c-5.48-3.78-12.11-9.48-13.25-12a14.63 14.63 0 01-1.59-5.65 1.87 1.87 0 01.07-.47 5.51 5.51 0 012.26-.32c9.41 0 25.69 2.9 49.8 16.67s84.48 54.14 118.61 81.8c35.24 28.56 66.63 55.8 81.86 71.06 10.32 10.31 25.81 25.79 25.81 30.63a.47.47 0 010 .23c-.2 2-.24 2.42-7.13 4.62l-4.19 1.39c-11.86 4.15-17.92 10-17.92 17.34a38.31 38.31 0 001.57 8.39c.62 2.48 1.82 7.13 1.82 9.68a3.88 3.88 0 01-.19 1.3c-1.9 2.69-6.17 2.79-12 2.63-3.29-.09-6.39-.19-9.15.68a38.26 38.26 0 00-6.87 3.28c-3.53 2-8.89 5-10.79 3.44-2.12-1.73-3.18-4.63-3.18-8.93a49.11 49.11 0 011.32-10.07l2.27-9.13c1.45-5.49 2.51-9.51 2.51-12.71a9 9 0 00-.93-4.28c-1.56-3.17-5-4.53-13.31-7.57-3.76-1.37-10.7-3.92-12.22-5.34-1.2-1.6-1.92-4.91-1.92-9 0-1.19.06-2.4.16-3.66.33-3.59 2.24-12 2.9-14.85a8.55 8.55 0 00.2-1.41 5.91 5.91 0 00-11.65-1.36 149.79 149.79 0 00-3.21 16.54c-.14 1.51-.25 3.14-.25 4.85 0 5.63 1 11.91 4.56 16.36 2.73 3.43 8.36 5.68 17.36 9 1.92.69 4.53 1.67 6.28 2.41-.39 2.13-1.21 5.4-1.93 8l-2.37 9.64a55.78 55.78 0 00-1.7 12.35c0 6.39 1.62 13.47 7.58 18.35 8.16 6.6 18.1 1 24.07-2.31a29.63 29.63 0 014.51-2.3 26 26 0 015.38-.16c6.6.18 16.54.46 22.12-7.81 3.84-5.61 1.83-13.53 0-20.56a41.44 41.44 0 01-1.17-5.46c0-.69 1.85-3.31 10-6.17l3.76-1.28c6.67-2.12 14.21-4.52 15.37-14.54 1.15-9.78-9.19-20.65-29.15-40.58-15.51-15.54-47.24-43.08-82.79-71.89-34.55-28-95.8-69-120.21-82.9-26.36-15-44.8-18.21-55.65-18.21-7.11 0-10.58 3.09-12.23 5.67"/><path d="M385.39 672.01c-.72-4.36-1.53-9.31-1.71-12.61l.06-7.73c.06-2 .12-3.74.12-5.4 0-5.56-.69-9.62-4.11-11.92 0 0-2.9-1.8-6-3.89-3.36-2.26-5.11-5.31-2.9-10.49.57-2 3.63-9.43 5.41-13.7a5.43 5.43 0 00.49-2.29 6 6 0 00-2.43-4.79l-30.27-22.01-15.26-11.37s3.39 49 3.69 52.93c-2.81 3.74-9 12.09-10.89 15.49a15.88 15.88 0 01-11.24 8.4l-19 3.45c-2.67.41-5.66 3.6-5.07 6.84s3.84 5 7 4.84l19.37-3.54a27.76 27.76 0 0019.26-14.25c1.43-2.6 7.69-11.09 11.29-15.86a5.88 5.88 0 001.23-3.58 2 2 0 000-.42s-1.24-17.13-2.13-29.57c8.79 6.4 17.18 12.5 21.22 15.47-1.53 3.72-3.48 8.6-4.1 10.73a37.62 37.62 0 00-1.92 8.91c-.15 3.85 2.1 9.14 6.57 12.49 0 0 4.05 2.64 6.1 4 1.46.65 1.84 2.87 1.84 4.08 0 1.66-.07 3.53-.13 5v8.86c.22 3.91 1.12 9.18 1.89 13.84.45 2.79 1 6.34 1.15 8-.82 1.26-2.69 3.82-4.31 6-4.91 6.63-11.66 15.74-15.61 24.21l-4.56 10.27c-2.41 5.6-5.43 12.58-7.08 13.73-2.23 1.29-13 3.25-19.44 4.47l-11.51 2.25c-6.29 1.43-14.36 4.73-20.83 7.41-2.9 1.2-6.4 2.64-7.65 3-1.65-.06-6.79-1.74-10.23-2.85a124.63 124.63 0 00-14.72-4.03c-4.05-.74-4.87-.89-4.87-3.27 0-.58.05-1.33.13-2.26a8.33 8.33 0 000-.86c0-6.41-5.17-12.84-16.16-20.19-4.93-3.28-12.94-10.89-13.51-17.38v-.66c0-5.36 5.28-11.36 9.57-16.22l3.59-4.21a13.45 13.45 0 003-8.46c0-.46-.13-.88-.16-1.33l11.28.7a5.911 5.911 0 10.72-11.8l-20.92-1.31a5.84 5.84 0 00-5.69 3.43 5.71 5.71 0 00-.57 2.49 6.08 6.08 0 001.67 4.13c.22.23 1.79 1.89 1.79 3.5a2 2 0 01-.47 1.33l-3.16 3.69c-5.34 6.06-12.54 14.23-12.54 24 0 .57 0 1.16.08 1.72 1.24 14.17 16.95 25 18.72 26.22 10.54 7 10.89 10.32 10.91 10.37-.07.87-.11 1.75-.11 2.61 0 6.9 2.44 13.17 14.53 15.36a115.33 115.33 0 0113.24 3.7c8.19 2.64 12.62 4 16.2 3.22 1.95-.43 4.85-1.62 9.81-3.66 6.09-2.51 13.65-5.61 19-6.81l11-2.17c12.16-2.26 19.78-3.77 23.37-5.93 4.83-2.89 7.63-9.39 11.89-19.21l4.42-10c3.43-7.38 9.77-15.92 14.36-22.18 4.79-6.43 6.18-8.39 6.6-10.71a9.38 9.38 0 00.12-1.66c0-2-.47-5-1.4-10.6m36.83-264.47c-17.76 6.37-39.75 18.34-55.05 27.29-18.91 11-41.21 22.73-54.24 28.47-14.76 6.52-37.32 13.69-41.51 13.63a5.92 5.92 0 10-.12 11.83c8 .09 34.6-9.42 46.41-14.62 13.38-5.92 36.17-17.86 55.41-29.12 21.36-12.42 39.7-21.55 53.09-26.34 15.1-5.45 31.57-10.65 51.32-9.53 20.74 1.17 27.45 3.9 35.15 7.07 8.16 3.32 20.74 10.93 20.87 11a5.92 5.92 0 106.13-10.12c-.53-.33-13.51-8.17-22.48-11.86-9.49-3.89-17.9-6.73-39-7.93-21.95-1.22-40.38 4.63-56 10.22M59.77 518.38l-6.16 22.16-31.4-21 .06-.26zm19.28 68.46l6.68-23.94-16.92-12.23 9.24-33.17 20.7-1.33 7.2-25.79-97.9 9.36-8 28.89zm45.3-99.19c2.79-4.08 5.59-12.65 6.35-17.11 1.18-7.13 1.86-14.65-10.4-23.25l-65.51-44.72 14-20 71.52 49c16.15 11.31 22.81 26.67 10.51 44.66-2.57 3.74-5.93 8.68-5.93 8.68l-20.59 2.8m73.26-154.52l-18.63 13.47-11.48-36 .22-.16zm-27.51 65.52l20.13-14.57-5.62-20.1 27.91-20.18 17 11.86L251.19 340l-82.45-53.62-24.28 17.59zm121.44-122.47l-36.16-35.96 27.71-6.78 22.15 25.71 8.14-33.13 26.04-6.37-15.69 48.65 40.07 39.86-28.35 6.93-25.28-28.58-9.05 37-26.96 6.6zm255.31 659.3l-.1.05 3.2 31.45-4.71 2.11-20.92-23.52-.08.03 12.27 27.4-6.01 2.67-14.68-32.83 9.86-4.44 18.45 21.17.08-.03-3.38-27.9 9.64-4.29 14.64 32.83-6 2.71zm36.73 6.16a14.41 14.41 0 007.62-2.2c2.42-1.56 3.79-4.27 1.83-7.32-1.37-2.16-3.23-2.33-6.89-2.1l-3.84.22c-4.06.25-7.51-.92-10-4.84-3.44-5.45-.77-11.11 4.32-14.34a24.09 24.09 0 017.06-2.93l2.68 4.84a16.27 16.27 0 00-6.52 2.31c-2.82 1.74-3.3 4.14-2 6.23 1.46 2.28 3.53 2.17 5.83 2l4.43-.19c4.84-.26 7.77.6 10.44 4.86 3.92 6.2 1.4 11.94-4.4 15.6-3 1.93-5.68 3-7.79 3l-2.81-5.16m23.7-45.07l-6.3 5.02-3.3-4.12 17.74-14.09 3.26 4.11-6.25 4.98 19.12 24.03-5.13 4.11zm20.7-24.55l13.46-13.32 3.69 3.71-8.7 8.71 6.7 6.79 8.27-8.2 3.69 3.75-8.25 8.17 7.48 7.57 9.09-9.07 3.73 3.76-13.79 13.67zM486.77 975.05l.28-17.51h.11l8.85 15-9.24 2.58m16.7 9.59l6.59-1.82-20.84-31.56-6.94 1.94-2 37.89 6.4-1.76.15-9 11.93-3.34zm166.68-135l-8.3-6.63 1.69-2.09c2.32-2.9 4.49-3.95 7.7-1.38 2.81 2.3 2.8 5.27.59 8zm11.73 17.87l4.17-5.2-12.08-9.66.94-1.16c1.53-1.89 3.28-2.65 6.08-1.54l11.34 4.52 4.37-5.46-13.65-4.96c-3.34-1.22-4.76-.44-5.73.49l-.14-.1c2-3.53 1.41-7.76-2.22-10.72-5.15-4.13-10.1-2.55-14.11 2.44l-7 8.76zm4.2-57.74l1.17-1.88c3.91-6.34 9.94-6.53 16.68-2.39s9.23 9.64 5.33 15.94l-1.13 1.87zm22.85 21.83l4.94-8c5.24-8.53 4-17.76-6.28-24.1-10.12-6.25-18.45-4.35-24.35 5.2l-4.93 8zm14-53l-13.18-11.54v-.11l17.17 2.88zm18.12-6.62l2.82-6.18-37.54-4.44-3 6.56 27.69 26 2.76-6-6.73-6 5.14-11.26zm-9.59-64.59l-.05.11 26.09 17.85-1.42 4.95-31.47.78-.03.11 28.85 8.32-1.85 6.32-34.56-9.98 2.98-10.38 28.08-.44.05-.09-23.52-15.45 2.91-10.09 34.56 9.98-1.82 6.34z"/></g><path d="M52.29 622.2c0 189.58 154.25 343.82 343.84 343.82a347.9 347.9 0 0061.26-5.43l-.52-3a345.12 345.12 0 01-60.74 5.39c-187.92 0-340.81-152.88-340.81-340.79h-3m343.81-340.81c187.92 0 340.79 152.9 340.79 340.82a345.45 345.45 0 01-5.2 59.76l3 .53a345.69 345.69 0 005.27-60.29c-.04-189.59-154.28-343.82-343.86-343.82z" fill="#ed1849"/><path d="M29.56 622.2c0 202.12 164.45 366.56 366.56 366.56a368.43 368.43 0 0065.34-5.81l-2.41-13.77a356.77 356.77 0 01-62.88 5.58c-194.4 0-352.55-158.17-352.55-352.56h-14m366.51-352.58c194.4 0 352.56 158.17 352.56 352.58a357.12 357.12 0 01-5.4 61.91l13.76 2.44a368.39 368.39 0 005.63-64.35c0-202.13-164.43-366.59-366.55-366.59v14" fill="#ed1849"/><path d="M18.32 622.2c0 208.31 169.48 377.8 377.81 377.8a380.49 380.49 0 0067.28-6l-.52-3a378.7 378.7 0 01-66.76 5.91c-206.67 0-374.77-168.1-374.77-374.76h-3m377.77-374.77c206.65 0 374.78 168.11 374.78 374.79a379.32 379.32 0 01-5.75 65.75l3 .54a378.72 378.72 0 005.81-66.29c0-208.33-169.48-377.8-377.8-377.8v3" fill="#ed1849"/><path d="M569.6 380.69l-1.39 65a6 6 0 002.62 5c.13.08 15 10.2 22.9 21.72 7.72 11.22 9.62 24.53 9.64 24.68a5.92 5.92 0 0011.79-.81 5.1 5.1 0 000-.79c-.12-.65-2.25-16.15-11.69-29.78-7.08-10.36-18.27-19.2-23.32-22.93.08-4.2.66-31.63.93-45.62 42.5 17.84 64.74 54.5 64.74 108.64 0 77.63-47.51 131.83-115.57 131.83-61.77 0-82.89-51.42-96.84-85.43l-4.69-11.16c-4.62-10.39-11.48-17.36-20.4-20.72-16.82-6.33-35.89 2.48-43.07 5.8a5.893 5.893 0 104.94 10.7c5.95-2.75 21.77-10 34-5.46 5.94 2.25 10.43 7 13.78 14.48l4.55 10.84c14.25 34.69 38.08 92.75 107.76 92.75 75 0 127.37-59.05 127.37-143.63 0-65.37-30.87-108.42-88-125.13" fill="#231f20"/></svg>