<svg viewBox="0 0 1000 1000" xmlns="http://www.w3.org/2000/svg"><linearGradient id="a" gradientTransform="rotate(45 511.914 511.612)" gradientUnits="userSpaceOnUse" x1="511.91" x2="511.91" y1="7.52" y2="1007.52"><stop offset="0" stop-color="#ffde22"/><stop offset=".44" stop-color="#ffdc22"/><stop offset=".66" stop-color="#fdd420"/><stop offset=".82" stop-color="#fac71d"/><stop offset=".95" stop-color="#f6b519"/><stop offset=".99" stop-color="#f5ae18"/></linearGradient><linearGradient id="b" gradientUnits="userSpaceOnUse" x1="511.92" x2="511.92" y1="349.25" y2="67.76"><stop offset=".03" stop-color="#ffde22"/><stop offset=".1" stop-color="#ffe069"/><stop offset=".16" stop-color="#ffe187"/><stop offset=".51" stop-color="#ffe58c"/><stop offset=".68" stop-color="#ffe991"/><stop offset="1" stop-color="#fff09d"/></linearGradient><linearGradient id="c" gradientUnits="userSpaceOnUse" x1="511.92" x2="511.92" y1="51.04" y2="332.35"><stop offset="0" stop-color="#9c9c9d"/><stop offset=".21" stop-color="#99999a"/><stop offset=".38" stop-color="#8e8f90"/><stop offset=".5" stop-color="#838485"/><stop offset=".99" stop-color="#231f20"/></linearGradient><circle cx="511.92" cy="511.62" fill="url(#a)" r="500" transform="rotate(-45 491.932 520.195)"/><path d="M511.91 364.92c81.47 0 170.07-15.66 246-36.91 22.94-6.43 98.18-29.36 103.24-66.81 5.32-39.32-43.52-111.34-119.69-152.2-67.68-36.29-146.08-56.81-229.55-56.81-83.46 0-161.86 20.52-229.53 56.81-76.17 40.86-125 112.88-119.69 152.2 5.06 37.45 80.3 60.38 103.24 66.81 75.91 21.25 164.51 36.91 246 36.91z" fill="url(#b)" fill-rule="evenodd" transform="translate(-11.92 -11.62)"/><path d="M808.36 135.24v729.5h-.06a477 477 0 01-147.46 85.08V738.28l.09-.07a287.5 287.5 0 000-476.41l-.11-.07V50.15h.12a477.16 477.16 0 01147.32 85zM191.75 864.82a477.11 477.11 0 00147.38 85h.07V738.26h-.09a287.49 287.49 0 010-476.42l.1-.06V50.15h-.09a477.16 477.16 0 00-147.44 85.07v729.5zm382.03-642.69V28.04h-.08a483.44 483.44 0 00-147.39 0h-.09v194.09h.08a289.7 289.7 0 01147.39 0z" fill="#231f20"/><path d="M323.3 309.87l24.78-19.49c9.45-7.42 15.57-2.88 18.31.61 3.26 4.16 3.69 8.14.9 12.57l.08.09c4.55-2.56 9.22 2.11 11.84 5.45 1.31 1.67 4.61 5.57 7.58 6l-10.13 7.95c-2.09-.9-3.23-2.25-6-5.83-3.75-4.78-6.74-4.36-9.61-2.11l-11.51 9 9.82 12.52-9.28 7.35zm21.12 7.82l12.28-9.64c2.05-1.61 3.54-4.63 1-7.83-2.67-3.4-6-2.16-8.26-.39l-11.8 9.26zm53.26-56.63c21.43-9.18 30.24 2.11 33.8 10.42s5.67 22.48-15.76 31.67-30.24-2.1-33.81-10.42-5.67-22.48 15.77-31.67zm14.78 34.5c9.83-4.21 10.18-12.95 7.52-19.15s-9.22-12-19-7.75-10.17 13-7.52 19.14 9.18 11.97 19 7.76zm31.39-49.18l26.81-3.41c14.76-1.88 22.23 5.87 23.88 18.82s-3.89 22.35-17.39 24.07l-27.83 3.52zm16.12 33.34l13-1.66c7.71-1 10.61-6.06 9.46-15.16-1-7.95-5-12.46-13.94-11.33l-11.92 1.52zm77.96-.97l-19.77-2.46-4.6 8.42-12.6-1.57 24.3-40.67 14.1 1.76 13.55 45.39-12.6-1.57zm-6.78-26.12l-8.88 16.21 13.5 1.69zm79.12 13.3l10.75 4.82-10.84 24.16c-3.06 6.82-7.74 16.36-23.37 9.35-9.2-4.13-16.66-10.34-11.61-21.59l1.12-2.49 10.76 4.82-1.25 2.77c-1.66 3.72-.54 7.15 3.06 8.76 5.6 2.52 7.87-.46 10-5.11zm47.12 49.45c2.93-5.64.7-11.23-4.17-14.95-8.88-6.79-16.07-1.27-19.65 3.41s-7 13.07 1.88 19.85c4.54 3.47 10.59 4.65 15.67-.11l10.19 7.8c-8.83 9.16-20.25 7-31.21-1.36-12.55-9.58-16.24-21-6.47-33.75s21.71-12.23 34.26-2.65c8.3 6.34 17.26 16.54 9.59 29.48zM345.65 656.89l7.31 6.12-11.54 13.79 24.53-2.91 9.12 7.65-24 2.25-2.6 32-9.17-7.68 2.5-23.33-7.73.73-9 10.71-7.31-6.12zm35.16 27.97l28.41 15.64-3.87 7-20.06-11-4.48 8.14 18.41 10.13-3.57 6.49-18.41-10.14-5.16 9.31 20.49 11.27-3.87 7-28.84-15.87zm35.8 18.91l22.28 7.07c7.41 2.36 10.46 9 8.48 15.25-1.55 4.86-4.67 7.88-9.83 8.28v.12c4.09 2.57 4 7.32 2.95 11.57-.65 2.67-2.26 7.51-1.37 10.34l-9.09-2.88c-.27-3 1.11-6.92 1.7-10.36.74-4.55-.33-7-4.9-8.44l-9.09-2.89-5.13 16.15-9.09-2.89zm3.15 21.61l9.95 3.16c4.05 1.29 6.81.25 8.13-3.92 1.27-4-.38-6.43-4.43-7.71l-10-3.17zm39.84-9l9.48 1-1.84 17.88 18.7-16.15 11.84 1.27-18.61 15.3 15.8 28-11.89-1.3-11-20.7-6 4.93-1.43 13.9-9.48-1zm44.73 3.66l23.27-2.3c7.74-.77 13.16 4.12 13.81 10.65.51 5.07-1.17 9.08-5.75 11.49v.12c4.77.75 6.55 5.15 7.29 9.47.45 2.7.89 7.79 2.82 10l-9.49 1c-1.41-2.61-1.71-6.79-2.53-10.19-1.12-4.47-3.07-6.29-7.84-5.81l-9.49.94 1.66 16.84-9.48.94zm11.43 18.58l10.39-1c4.23-.42 6.35-2.46 5.92-6.81-.42-4.17-2.89-5.76-7.12-5.34l-10.4 1zm44.4-27.53l9.35-2.88 28.26 36.66-9.46 2.92-6-8.26-15.5 4.77-.41 10.23-9.19 2.85zm7 25.69l10.73-3.31-9.91-13.6h-.11zm22.16-35.5l16.4-9c9.85-5.41 20.64-3.3 27.56 9.32 6 11 4.91 22.32-6.7 28.69l-16.39 9zm25.37 26.39l7.45-4.09c4.84-2.66 7.84-8.18 3.23-16.59-4.21-7.67-9.56-11.11-17.87-6.55l-6 3.28zm14.39-49.6l24.84-20.85 5.16 6.16-17.54 14.7 6 7.12 16.09-13.51 4.77 5.68-16.1 13.51 6.84 8.14 17.91-15 5.15 6.14-25.21 21.17zm76.82-163.69c-.16 28.32-4.47 48.26-15.71 61.09-11.46 13.41-29.79 19.78-57.29 19.78-70 0-77.57-44.25-77.57-95.54 0-51 7.53-95.21 77.57-95.21 56.93 0 72.46 21.35 73 73.6v.17h-55.6v-7.23c0-18-4-25.65-17.13-25.65-14.34 0-17.52 7.66-17.52 52.63 0 44.31 1.19 53 17.12 53 14.58 0 18.44-8 18.71-36.62h54.43zM318.68 666.03a245.87 245.87 0 01-1.38-330.55l10.67 14.21a228.43 228.43 0 003.39 304.41z" fill="#231f20"/><path d="M681.31 666.03a245.87 245.87 0 001.38-330.55l-10.67 14.21a228.46 228.46 0 01-3.39 304.41zM312.59 414.12v167.59l60.31-.23V515c.07-17.88 15.12-34.75 34-39.14 13.25-3.07 33.06-.68 33.06-.68v-66.8c-20.93 0-41.34 4.25-60 25.38-1.52 1.72-3 3.6-4.51 5.52-.9 1.13-2.57 1-2.56-.87v-26.47h-60.55v169.54" fill="#231f20"/><path d="M436.56 593.51c2.57 19.39 9.31 25.41 19.31 25.41 14.22 0 18.74-10.51 18.74-64.27V398.27l-28.53 1.84v-57.42l94.57-12.41V556.7c0 62.24-8.24 115.94-84.88 115.94-30.09 0-50.14-7.73-62.68-24-9.9-12.54-14.88-30.66-16.54-55.16v-.21h60zm-10.21 378.44a483 483 0 00147.33 0h.1v-194h-.11a289.45 289.45 0 01-147.4 0h-.05v193.98zm469.03-203.97v-536l.1.16a477.89 477.89 0 010 535.72zm-790.77 0v-536l-.1.16a477.86 477.86 0 000 535.7z" fill="#231f20"/><path d="M203.55 303.94v-132.5A285.59 285.59 0 01282.39 109a472.89 472.89 0 0168.73-30.07v194.42l-.1.06a289.07 289.07 0 00-64.62 60l-.08.09q-10.32-2.67-20.38-5.5c-12.17-3.41-39.05-11.46-62.36-23.86zM438.14 57.82v175.93h.08a289.7 289.7 0 01147.39 0h.09V57.63a500.89 500.89 0 00-73.8-5.44 500.51 500.51 0 00-73.78 5.44zm234.58 21.35v194.18l.1.07a289.15 289.15 0 0164.63 60v.07q10.32-2.67 20.39-5.49c12.17-3.41 39.07-11.47 62.4-23.88V171.47a285.86 285.86 0 00-78.8-62.47 471.92 471.92 0 00-68.74-30.07z" fill="url(#c)" fill-rule="evenodd" transform="translate(-11.92 -11.62)"/></svg>