<svg viewBox="0 0 821.87 1000" xmlns="http://www.w3.org/2000/svg"><path d="M817.28 621.96a259.37 259.37 0 00-9.11-25.89c-6-14.69-241.21-498.64-246.42-508.81-.74-1.41-1.12-2.18-1.83-3.43-7.9-13.74-25.9-40.62-62.39-62.45-13.16-7.91-27.51-12.48-40.68-15.57a239.71 239.71 0 00-33.83-5.2c-5.75-.47-9.59-.6-11.79-.61h-.63c-2.21 0-6 .14-11.79.61a239.5 239.5 0 00-33.79 5.2c-13.21 3.09-27.52 7.66-40.68 15.53-36.51 21.87-54.45 48.75-62.39 62.49-.71 1.25-1.1 2-1.83 3.43C254.91 97.43 19.69 581.38 13.7 596.07a259.37 259.37 0 00-9.11 25.89C2.02 631.05.02 640.12.02 649.68a47.33 47.33 0 001.55 12.49c7.73 28.35 25.78 45.89 37 57.15 1.43 1.41 284.61 249.75 285.35 250.37a55.8 55.8 0 005.75 4.09 193.17 193.17 0 0032.68 15.91c14.09 5.31 30.59 10 48 10.3h1.27c17.4-.33 33.9-5 48-10.3a192.62 192.62 0 0032.67-15.91 54.85 54.85 0 005.76-4.09c.74-.62 283.92-249 285.35-250.37 11.2-11.26 29.25-28.8 37-57.15a47.33 47.33 0 001.55-12.49c-.13-9.56-2.12-18.63-4.67-27.72z" fill="#010101"/><path d="M311.46 673.47l-48.81 46.48c-31.54 30-63.29 60.28-63.95 60.92-1.08 1-3.41 3.57-7 3.69h-.07a5.73 5.73 0 01-4-1.76 6.47 6.47 0 01-2-4.68 8.88 8.88 0 012-5.26l100.7-120.93c-1.5-1.7-3-3.41-4.41-5.16l-150.2 43.94a17.87 17.87 0 01-4.45.64 8.12 8.12 0 01-3.24-.58 4.65 4.65 0 01-2.67-2.85 5 5 0 01-.34-1.54 6.38 6.38 0 013-5 13.55 13.55 0 012.6-1.45l139.87-55.55c-.34-.61-.66-1.22-1-1.82a244.29 244.29 0 01-53.78-27.33c-12.27-7.67-12.58-18.57-12.55-19.3-.06-1.4-.84-21.28-.84-40.49 0-13.65.37-26.81 1.76-33.25 3.45-15.24 18.17-22.43 31.54-27l-75.3-53.81a6.35 6.35 0 01-2.58-4.82 5.6 5.6 0 01.66-2.59 5.49 5.49 0 014.9-3.31c2.23 0 3.9 1.12 5.38 1.85 1.82.93 59.83 31.84 99.65 53.06a164.63 164.63 0 0133.94-43.59l-41.91-142.6a24.76 24.76 0 01-.92-5.95 8 8 0 01.49-3 4 4 0 012.63-2.47 6.63 6.63 0 011.85-.27c5.21.26 7.48 5.12 8.71 7.66.56 1.26 17.39 38.56 34.06 75.52 8.34 18.5 16.65 36.91 22.87 50.7a163.12 163.12 0 0149-19l-2.36-57.84-1.67-.35c-3.47-.91-6.58-2.14-8.93-4.41s-3.7-5.58-3.66-9.74a25.86 25.86 0 01.25-3.51 14.21 14.21 0 011.73-5.37l-1-.21c-4.49-1-8.4-2.32-11.38-4.74a13.13 13.13 0 01-4.75-10.74 26.09 26.09 0 01.33-3.9 13.72 13.72 0 013.18-7.2c-5.3-1.22-9.9-2.82-13.37-5.65-3.62-2.92-5.76-7.31-5.71-13a30.28 30.28 0 01.4-4.77c.79-5.05 3-8.55 5.94-10.57a16.59 16.59 0 019.51-2.58 44.29 44.29 0 018.11.94c15.28 2.91 37.74 4.52 56.94 4.53V20.18c-5.13 0-48.19 1.79-75.87 18.45C301.9 58.38 286.56 81.69 279.38 94S44.6 576.9 44.6 576.9s-29.73 57.41-23.58 80 20.5 36.91 31.78 48.19 277.85 244 284 249.14c5.49 4.57 35.55 21.36 64.53 24.95L390.18 705.8a163.08 163.08 0 01-78.72-32.33z" fill="#0e58a4"/><path d="M776.64 576.9S549.02 106.3 541.85 94s-22.51-35.62-55.36-55.37c-27.68-16.66-70.74-18.45-75.87-18.45v223.2h.32c19.26 0 41.89-1.61 57.26-4.53a43.28 43.28 0 018.1-.93 16.44 16.44 0 019.51 2.58c2.94 2 5.15 5.51 5.94 10.56l-2 .32 2-.32a30.28 30.28 0 01.4 4.77c0 5.68-2.09 10.07-5.71 13-3.47 2.83-8.07 4.43-13.37 5.65a13.72 13.72 0 013.18 7.2l-2 .32 2-.32a24.83 24.83 0 01.33 3.9 13.12 13.12 0 01-4.74 10.8c-3 2.43-6.9 3.74-11.39 4.74l-1 .21a14.39 14.39 0 011.74 5.37l-2 .28 2-.27a27.1 27.1 0 01.24 3.5c0 4.16-1.29 7.47-3.66 9.74s-5.46 3.5-8.93 4.41l-1.61.39-2.36 57.84a163.33 163.33 0 0148.95 19c6.22-13.78 14.53-32.2 22.87-50.7 16.67-36.95 33.49-74.26 34.05-75.52 1.23-2.54 3.5-7.4 8.71-7.66a7 7 0 011.85.26 4 4 0 012.63 2.48 8.24 8.24 0 01.5 3 24.28 24.28 0 01-.93 5.94l-41.9 142.66a164.59 164.59 0 0133.93 43.59c39.82-21.22 97.83-52.13 99.64-53.06 1.49-.73 3.16-1.8 5.4-1.85a5.48 5.48 0 014.89 3.32 5.62 5.62 0 01.66 2.58 6.36 6.36 0 01-2.59 4.83l-75.29 53.81c13.37 4.54 28.09 11.73 31.54 27 1.39 6.45 1.75 19.6 1.76 33.25 0 19.49-.8 39.67-.84 40.54 0 1-.48 11.71-12.54 19.26a244.21 244.21 0 01-53.79 27.33c-.33.6-.65 1.21-1 1.81l139.84 55.58a13.56 13.56 0 012.6 1.45 6.38 6.38 0 013 5 5.38 5.38 0 01-.24 1.54 4.69 4.69 0 01-2.68 2.85 8.11 8.11 0 01-3.23.58 17.9 17.9 0 01-4.46-.64l-150.18-44.05c-1.43 1.75-2.91 3.46-4.41 5.15l100.7 120.94a8.81 8.81 0 012 5.26 6.53 6.53 0 01-2 4.68 5.76 5.76 0 01-4 1.76h-.07c-3.59-.12-5.92-2.73-7-3.7s-71.96-68.48-107.31-102.13l-5.51-5.26a163.15 163.15 0 01-78.73 32.33l-11.14 273.26c28.78-3.75 58.44-20.33 63.89-24.86 6.15-5.13 272.72-237.87 284-249.14s25.63-25.68 31.78-48.19-23.58-79.97-23.58-79.97z" fill="#ed1c24"/><path d="M468.2 238.89h.19c52.35-50.51-1-99.58-1-99.58-5.15 2-13.41 6.51-13.41 6.51-.66 2.82-6.51 7.6-9.39 12.74-3.36 6-11.48 23.44-15.17 30.37-3.16 5.94-12.31 28.51-12.31 28.51a11.84 11.84 0 00-11 1.76c0-14 10.11-28.85 13.32-33.85s17.46-24.68 20.62-39.6 2.97-32.28-.03-45.37-8.47-16.33-8.47-16.33c0 12.92-19.12 32.06-22 34.39s-17.29 10.66-24.43 15.3-23.88 21.91-30.17 33.81-6.93 27.83-4.73 38.04c1.83 8.39 12.14 28.22 15.85 35.2a384.88 384.88 0 0044.87 2.59c19.27.05 41.89-1.57 57.26-4.49z" fill="#f1c219"/><path d="M366.07 240.79c-3.71-7-14-26.81-15.85-35.2-2.25-10.26-1.58-26.16 4.7-38.05s23-29.17 30.17-33.81 21.57-13 24.43-15.3 22-21.47 22-34.39c0 0 5.47 3.22 8.47 16.33s3.25 30.43.08 45.35-17.41 34.59-20.62 39.6-13.31 19.84-13.32 33.85a11.84 11.84 0 0111-1.76s9.15-22.57 12.31-28.51c3.69-6.93 11.81-24.37 15.17-30.37 2.88-5.14 8.73-9.92 9.39-12.74 12.13-71.12-38.42-88.13-38.42-88.13 5.52 10.32-2.39 28.17-7.09 35.8s-45.55 36.37-53.84 44-23.9 26.37-24.23 54c-.22 18.73 11.06 36.88 18.38 46.67 1.81.19 3.48.48 4.85.74 3.78.74 7.96 1.37 12.42 1.92zm105.68-33.27c5.2-16.06 2.1-26.25-1.64-34.2a23.75 23.75 0 00-8.08-9.67s-2.11 4.77-8.36 12.89-11.38 36.78-12.17 45.66c-.48 5.48-6 14.53-10.08 20.67 5.65-.3 11.28-.71 16.66-1.23 7.43-7.43 19.39-20.88 23.67-34.12z" fill="#f47821"/><path d="M366.77 302.18c-.86.87-1.66 2.35-2 5.05a21.39 21.39 0 00-.21 2.95c0 3.4.91 5.3 2.41 6.8s3.94 2.56 7.12 3.39a148.58 148.58 0 0073.76 0c3.17-.83 5.59-1.91 7.1-3.39s2.4-3.4 2.42-6.8a23.5 23.5 0 00-.21-3c-.38-2.69-1.18-4.16-2-5a234.86 234.86 0 01-88.33 0z" fill="#f1c219"/><path d="M354.18 275.65a6 6 0 00-1.28.68c-1.45 1-2.66 2.68-3.22 6a19.73 19.73 0 00-.29 3.25c0 3.72 1.16 5.82 3.24 7.57s5.45 3 9.67 3.9a230.47 230.47 0 0097.27 0c4.23-.92 7.57-2.16 9.67-3.9s3.2-3.84 3.24-7.57a20.69 20.69 0 00-.28-3.25c-.56-3.35-1.78-5-3.23-6a5.8 5.8 0 00-1.28-.68 308.67 308.67 0 01-56.75 5.56 308.69 308.69 0 01-56.76-5.56z" fill="#f1c219"/><path d="M338.4 243.91c-1.93 1.35-3.52 3.57-4.23 7.84a26.32 26.32 0 00-.35 4.12c0 4.76 1.51 7.56 4.21 9.82 2.72 2.25 6.95 3.8 12.25 5a301.82 301.82 0 0060.66 6.46 301.79 301.79 0 0060.65-6.46c5.3-1.16 9.52-2.71 12.24-5 2.71-2.26 4.18-5.06 4.22-9.82a26.32 26.32 0 00-.35-4.12c-.71-4.27-2.3-6.48-4.22-7.84a12.39 12.39 0 00-7.18-1.85 40.29 40.29 0 00-7.34.86c-15.79 3-38.52 4.6-58 4.6-19.51 0-42.24-1.6-58-4.6a39.43 39.43 0 00-7.34-.86 12.41 12.41 0 00-7.14 1.85zm102.41 137.85l2.28-56.09a151.57 151.57 0 01-64.31 0l2.29 56.09a164.18 164.18 0 0159.74 0zm-29.87 325.35a166.23 166.23 0 01-16.64-.87l11.15 273.32c1.73.14 3.46.23 5.17.26 1.92 0 3.86-.14 5.81-.3l11.14-273.28a166 166 0 01-16.63.87z" fill="#f1c219"/><path d="M253.83 824.38c4 3.3 5.25 4.2 7 4.71 2.63.89 4.69-.29 8.28-4.46l25.88-30c2.78-3.4 2.78-3.4 3.12-4.13.9-1.73.08-3-4.24-6.74l-2.29-2 1.57-1.83c8.5 6.43 15.25 11.11 21.53 15.16a200 200 0 00-14.94 15.77l-19.86 23c-3.43 4-4.33 6-3.59 8.28.57 1.74 1.47 2.75 5.74 6.54l-1.57 1.83-28.24-24.35zm73.85 35.48c-11.28-9.73-13.66-22.48-5.94-31.48 8.6-10 23.08-9.09 36.21 2.24 7.38 6.36 11.4 13.7 11.36 20.94.07 7.46-2.81 14.06-9.23 21.5-15 17.34-31.25 19.44-46.86 6-10.34-8.92-15-19.1-10.91-23.86 2.2-2.54 5.78-2.07 9.6 1.23 2.11 1.82 3.5 3.82 3.59 5.26 0 1-.11 1.15-2.28 4.18-3 4.14-2.4 8.27 1.67 11.78 5.08 4.39 11.32 4.53 17.93.46a58.1 58.1 0 0012.47-10.85c-7.27-.67-12.1-2.65-17.61-7.4zm18 3.81c2.59-.6 4.79-2.12 7.37-5.12a34.47 34.47 0 007.53-14.17 12.75 12.75 0 00-4.29-12.34c-6.44-5.56-15.12-3.38-23.11 5.88-3.88 4.5-5.65 8.78-5.47 13a12.92 12.92 0 004.62 9.21 15.85 15.85 0 0013.35 3.54zm135.68-18.29c11.13-10.07 24-10.88 31.95-2.07 8.83 9.77 6.17 24-6.62 35.59-14.11 12.77-29 11.69-42.38-3.13-7.79-8.63-11.82-17.75-11.52-25.93.29-7.69 4-14.63 11.38-21.31 10-9.09 20.72-12.47 24.88-7.87 2.08 2.3 1.11 5.73-2.63 9.11-2.08 1.88-4.22 3-5.67 2.91-1-.05-1.13-.25-3.74-2.64-3.55-3.42-7.74-3.22-11.65.31-5.07 4.58-6 10.75-2.76 17.82a58.51 58.51 0 009.24 13.71c1.51-7.14 4.04-11.5 9.52-16.5zm-6 17.39c.23 2.58 1.46 5 4.12 7.89a32.76 32.76 0 0013.17 9.22 12.78 12.78 0 0012.78-2.73c6.31-5.71 5.22-14.59-3-23.66-7.16-7.92-15.51-9.31-21.9-3.53a15.47 15.47 0 00-5.18 12.84zm60.27-56.34c13.32-10.64 23.6-12.29 30.25-4.94 7.39 8.18 3.68 20.6-9.78 32.76-11.79 10.66-24.1 14.24-29.3 8.5-2.19-2.43-1.13-5.94 2.77-9.47 2-1.8 4-2.78 5.33-2.61 1 .05 1.08.18 3.9 3a11.51 11.51 0 006.86 3.08c2.55.14 6-1.43 8.78-4 6.89-6.23 6.92-14 .22-21.45-4-4.41-8.45-6.18-12.94-5.14-3.26.74-8.16 3.67-12.65 7.72l-2.49 2.26-1.79-2 2.32-2.1c9.33-8.55 10.82-16.75 4.29-24-5.59-6.19-11.67-6.73-17.57-1.4-3.07 2.77-4.5 5.7-4.13 8.61a13.21 13.21 0 003 6.68c1.82 2.18 2.07 2.78 1.9 4.09s-1.46 3.07-3.45 4.86c-3.82 3.46-6.8 4.18-8.65 2.13-5.37-5.94-1-18.27 10.07-28.26 5.9-5.33 12.45-8.94 18-9.85a12.93 12.93 0 0111.67 3.72c5.66 6.27 3.1 16.12-7 27.27z" fill="#010101"/><path d="M661.83 415.89c-.73-1.21-.84-1.05-1.25-1.13a9.76 9.76 0 00-3.52 1.4c-1.3.68-35.47 18.88-69.25 36.88l-67.1 35.75-.15.08-1.93-3.62 33.3-17.74a160.44 160.44 0 00-27.91-37.54c-1.21-1.22-2.47-2.38-3.72-3.55l-4.75 16.17-2-.57-2-.58.14-.51 47.8-162.75a21.44 21.44 0 00.76-4.79 5.16 5.16 0 00-.12-1.25 2.25 2.25 0 00-.1-.31 2.67 2.67 0 00-.65-.08c-1.69-.26-4 2.85-5 5.21-1.15 2.61-67.26 149.14-67.26 149.15l-1.87-.85-1.87-.84 8.63-19.14a159.83 159.83 0 00-162.39 0l8.76 19.1-1.87.84-1.87.85s-66.12-146.5-67.26-149.11c-.95-2.36-3.29-5.47-5-5.22a2.65 2.65 0 00-.64.09v.08a4.48 4.48 0 00-.2 1.48 16.88 16.88 0 00.39 3.21c.19.95.38 1.58.38 1.58l47.8 162.76.15.5-2 .57-2 .58-4.7-16.21c-1.24 1.17-2.51 2.33-3.72 3.55a160.4 160.4 0 00-27.89 37.54l33.29 17.74-1 1.81-1 1.8-.15-.08L234 452.98c-33.78-18-67.95-36.19-69.26-36.87a10.07 10.07 0 00-3.51-1.4c-.42.08-.53-.08-1.27 1.14a1.56 1.56 0 00-.19.67 2.26 2.26 0 00.8 1.42l.08.07 127.35 91h.08l-1.06 1.77-1.19 1.67L259 493.28a160.17 160.17 0 00-6 25.16c5.72 2.45 12 4.95 18.71 7.44 35.18 13 83.75 25.4 139.32 25.4 66.22 0 122.52-17.65 158-32.85a159.59 159.59 0 00-6-25.16l-26.83 19.18-1.19-1.67-1.19-1.66h.08l127.33-91 .09-.08a2.36 2.36 0 00.36-.39 1.73 1.73 0 00.44-1 1.53 1.53 0 00-.29-.76zM130.16 683.77a5.09 5.09 0 00-.51.23 9 9 0 00-1.2.73c-.91.62-1.38 1.39-1.31 1.65a.78.78 0 000 .27c.08.17.06.18.39.35a4.27 4.27 0 001.62.25 13.08 13.08 0 002.28-.24c.65-.13 1-.24 1-.24l148.69-43.47a166.72 166.72 0 01-10.57-15.33zm563.86 1.44a8 8 0 00-1.79-1.21 5.09 5.09 0 00-.51-.23l-140.4-55.8a166.72 166.72 0 01-10.57 15.33l148.62 43.47s.44.11 1.09.24a12.07 12.07 0 002.22.24 4.35 4.35 0 001.62-.25c.32-.17.31-.18.37-.31a1.22 1.22 0 00.06-.31c.02-.22-.16-.65-.71-1.17z" fill="#f1c219"/><path d="M572.85 516.76a263.68 263.68 0 0031.2-16 34.74 34.74 0 004.75-3.3 4 4 0 001.15-2.79 7.58 7.58 0 00-1.61-4.13c-.08-.1-.13-.17-.18-.22-6.17-5.63-15-9.31-23.61-12l-.45-.12-17.67 12.62a165 165 0 016.42 25.94zm-335.07-38.58c-.15 0-.31.07-.46.12-8.57 2.72-17.43 6.41-23.6 12l-.19.23a10.16 10.16 0 00-.67 1 6.39 6.39 0 00-.94 3.09 4 4 0 001.16 2.79 34.24 34.24 0 004.74 3.3c2.85 1.77 6.85 4.07 11.89 6.71 5.32 2.79 11.8 6 19.31 9.28a163.73 163.73 0 016.43-26z" fill="#fff"/><path d="M616.61 575.8v.12c0 .07 0 9.15-10.62 15.83-11.76 7.32-66.79 48.68-195.07 50.28-128.25-1.6-183.28-43-195-50.28-9.83-6.15-10.53-14.34-10.61-15.64v-.28s-.84-20.59-.84-40.4c0-13.5.42-26.79 1.67-32.37a21.44 21.44 0 012.17-5.83 8.26 8.26 0 001.78 3 32.83 32.83 0 005.62 4c20.6 12.8 96.93 51.12 195.28 51.14 56.18 0 105.21-12.54 140.73-25.65a365.65 365.65 0 0042.4-18.62c5.12-2.68 9.19-5 12.15-6.87a32.83 32.83 0 005.62-4 8.37 8.37 0 001.77-3 21.44 21.44 0 012.17 5.83c1.25 5.59 1.68 18.87 1.67 32.37-.05 19.34-.85 39.4-.89 40.37z" fill="#fff"/><path d="M631.28 775.65l-.12-.17-111.31-133.67 1.54-1.28 1.63-1.35 7.95 9.55a160.5 160.5 0 0017.49-24c-31.52 10.91-76.37 20.74-137.52 21.44-61.13-.7-106-10.52-137.49-21.44a161.92 161.92 0 0017.49 24l8-9.55 1.59 1.32 1.56 1.3-111.38 133.68-.12.17c-.12.17-.24.37-.38.63a4.13 4.13 0 00-.51 1.84 2.41 2.41 0 00.8 1.78 1.66 1.66 0 001.21.57c1 .12 3.24-1.57 4.13-2.54 1.4-1.36 120.89-115.14 126.66-120.64l.24-.22 1.41 1.48 1.41 1.49-11.11 10.57a159.87 159.87 0 00193 0l-11.11-10.57 2.83-3 .24.22c5.77 5.5 125.27 119.28 126.66 120.64.89 1 3.08 2.66 4.14 2.54a1.61 1.61 0 001.19-.57 2.44 2.44 0 00.82-1.78 4.85 4.85 0 00-.94-2.44z" fill="#f1c219"/><path d="M594.55 563.72c7.07-6.54 11.53-14.35 11.26-23.29-.38-13.38-8-17-22.6-10.4l-23.19 10.53 2 60.47 10.67-4.84-.78-21.16 13.56-6.15 12.7 12.93 11.18-5.07zm-11.73-4.83l-11.27 5.1-.6-18.39 11.52-5.22c7.76-3.53 12-4.93 12.23 2 .21 7.17-3.78 12.83-11.88 16.51zm-239.9 52.87l.02-49.81-11.08-1.14.01 60.71 38.79 4.87-.03-10.9zm-59.5-14.58l-.12-12.47 28.64 6.46-.1-9.82-28.64-6.47-.16-16 33.55 8.16-.11-10-43.61-10.6.59 58.13 43.81 10.65-.1-9.83zm-20.95-55.56l-49.88-21.05.07 10.73 18.07 7.8.27 48.75 10.5 4.38-.27-48.76 21.32 8.88zm232.15 28.71l-.08-10.46-52.68 7.73.08 10.46 21.87-3.07.38 52.24 10.16-1.54-.37-52.24zm-66.98 29.44c-4.55-3.65-9.71-4.86-15.4-6.34-9.77-2.6-15.29-3.45-15.35-9.58-.05-5 4.07-8.53 10.92-8.6s11.59 3.13 13.81 9.33l10-2.71c-3.6-10.07-11.9-15.58-23.45-15.49-14.16.14-22.92 8.17-22.81 19.08a14.22 14.22 0 004.66 10.55c4.91 4.55 10.61 5.57 16.76 7.13 9.77 2.52 14.83 3.55 14.9 10.41 0 4.69-4.87 8.8-11.9 8.87-8.39.09-14.21-4-16.45-11.38l-10.72 2.18c3.37 11.61 13.09 18.46 26 18.33 15.52-.16 24.92-8.38 24.8-19.11-.1-5.5-2.04-9.64-5.77-12.67zm86.62-45.6l-20.22 65 11.11-2.79 5-17.23 24.59-6 6.72 14.35 13.07-3.21-25.88-53.66zm-1.61 36.28l8.16-27.6 10.78 22.94z" fill="#010101"/></svg>