<svg viewBox="0 0 773.93 1000" xmlns="http://www.w3.org/2000/svg"><path d="M392.59 0l16.4 47.19 49.96 1.02-39.82 30.18 14.47 47.84-41.01-28.54-41.01 28.54 14.47-47.84-39.81-30.18 49.95-1.01zm324.23 75.67l-6.35 49.55 44.21 23.2-49.09 9.24-8.41 49.25-23.96-43.82-49.44 7.21 34.3-36.34-22.13-44.76 45.13 21.38zM151.19 93.06l-22.18 44.78 34.28 36.34-49.44-7.25-23.99 43.81-8.36-49.25-49.09-9.27 44.25-23.17-6.34-49.55 35.71 34.92z" fill="#d29f0a"/><g fill="#1d1d1b"><path d="M135.3 768.05a5.912 5.912 0 101.22 11.76c.22 0 20.7-2 40.8 2.51 21.48 4.82 51.11 15.21 65.27 21.06l2.36 1c54.58 22.54 66.68 23.59 71.94 17.45 9.47-11-4.57-24-9.19-28.23a5.93 5.93 0 00-8.38.32 6 6 0 00-1.54 4 5.93 5.93 0 001.9 4.36c7.11 6.54 8.45 9.62 8.48 11-4.34.07-17.72-2.89-58.69-19.83l-2.36-1c-14.56-6-45-16.69-67.21-21.64s-43.68-2.84-44.6-2.74m245.75-35.26a85.64 85.64 0 01-6.89 24.19c-5.92 12.71-25.72 47.15-25.92 47.48a5.93 5.93 0 007.32 8.47c.23-.1 23.74-9.48 31.54-11.54l31.27-7.84c3.16-.84 4.31-3.91 3.47-7.08s-3-5-6.24-4.4L384.11 790c-3.9 1-10.85 3.54-17.39 6 6.3-11.25 14.55-26.17 18.16-33.92a97.3 97.3 0 007.93-28v-.6a5.9 5.9 0 00-11.78-.6m-111.8 122.75a5.9 5.9 0 004.15 7.25c.12 0 13.35 3.73 22.49 13.57 5 5.42 9.73 15.9 11.19 22.53 1.23 5.58 2 17.29 2.05 17.42a5.92 5.92 0 1011.81-.81c0-.5-.87-12.72-2.31-19.18-1.82-8.2-7.35-20.79-14.06-28-11.58-12.41-27.43-16.8-28.09-16.96a5.89 5.89 0 00-7.23 4.18M583.9 769.9c-6.27 6.72-4.29 21.73 7 53.51 4.1 11.45 1.74 19.86.21 20.7-2.1 1.12-8.95-1.5-14.12-7.4l-.2-.23c-16.75-17.26-25.69-22.61-33-19.68-8.34 3.34-14.56 25.62-17.54 38.6-4.88 21.32-8.51 27-10.42 28.41-1.92-4-3.33-16.08-3.33-28.64 0-2.45.07-4.91.19-7.33v-1.23c0-6.67-.62-37.9-10.89-41.62-10.68-3.89-27.57 13.58-27.74 13.76a265.66 265.66 0 00-35.72 50.47c-13.13 24.49-24.27 55.23-24.76 56.51a5.93 5.93 0 1011.14 4c.09-.31 11.36-31.28 24.05-55 13.69-25.57 32-45.81 34-48 4-4.35 10.84-9 14.23-10.19 2 4.92 3.91 19 3.91 28.3 0 .86 0 1.68-.07 2.46 0 1.51-.14 4.58-.14 8.44 0 11.8 1 31.16 7.45 37.57a9.58 9.58 0 007.2 2.87c12.81-.64 18.12-19.19 22.46-38.15 3.56-15.59 8.18-26.94 10.52-30 1.78.52 7 3.24 20 16.64-.06-.08-.17-.14-.22-.21 7.48 8.58 19.79 14.78 28.63 10 5.87-3.14 8.3-10.48 8.3-18.64a50.9 50.9 0 00-2.89-16.44c-8.36-23.3-10-33.74-10-38.34a7.27 7.27 0 01.49-3.2c3.71-3.83 11.74-3.74 26.71.44 15.3 4.25 33.91 10.7 34.05 10.77a5.92 5.92 0 003.9-11.18c-.78-.27-19.12-6.64-34.8-11-14.79-4.1-29.66-6.57-38.62 3"/><path d="M506.65 765.75c-1.64 7.7-.46 14.43 3.49 20 5.21 7.36 14.55 11 21.55 11.92 7.78 1 23.47-2.55 28.29-9.43 3.5-5 6.58-15 6.93-16.06a6 6 0 00-4-7.39 5.91 5.91 0 00-7.36 3.94c-1.11 3.52-3.46 10.07-5.26 12.69-1.68 2-11.81 5.23-17.06 4.51-3.52-.44-10.24-2.46-13.48-7-2-2.8-2.48-6.3-1.55-10.73 2.75-13.2 17.46-12.82 19.13-12.74a5.91 5.91 0 00.7-11.8c-9.12-.55-27.49 3.34-31.41 22.12M232.3 559.67c-.12.2-10 17.71-13.67 23.09-3.08 4.46-15.85 29.6-15.85 35.17 0 4.76 2.18 8.45 30.73 12.81a5.9 5.9 0 006.74-4.94 7.46 7.46 0 00.08-.92 5.93 5.93 0 00-5.05-5.83 183.15 183.15 0 01-19.48-4c2.79-7 9.67-21.42 12.56-25.6 4-5.82 13.84-23.25 14.26-24a6.08 6.08 0 00.74-2.88 5.92 5.92 0 00-11.06-2.92"/><path d="M264.3 529.12c-14.48 14-14.48 18.14-14.48 19.94 0 7.11 7.7 11.72 14.94 12.43l3.18.18c9.82.47 13.62 1.45 15 2.29 0 1.26.13 4.24.13 4.24.05 1.4.12 3.25.12 5 0 .93 0 1.79-.09 2.52-1.77-.38-4.25-1.18-5.94-1.69-6.15-1.92-11-3.44-14.95-1.46-4.81 2.39-5.41 8.07-6.3 16.64a138.56 138.56 0 01-2.91 18.63 42.84 42.84 0 00-1.07 10c0 9 2.21 18.08 5.14 22 0 0 1 1.32 1.21 1.61-2.74.11-8.72-.24-23.85-2.72a5.92 5.92 0 00-1.92 11.68c23.7 3.87 28.22 3.2 32.09 1.86l.38-.12h-.01c4.45-.73 6.13-3.47 6.75-5a7.63 7.63 0 00.57-3c0-3.91-2.79-7.57-5.11-10.64l-.6-.8c-1-1.36-2.84-7.87-2.84-14.83a30.94 30.94 0 01.79-7.21 144.61 144.61 0 003.18-20.19c.24-2.24.52-4.81.82-6.62 1.64.39 3.67 1 5.14 1.48 4.87 1.52 9.47 3 13.2 2.27 7-1.27 8.2-8.21 8.2-14.87 0-1.73-.08-3.43-.16-5l-.13-4.65c0-11.93-17.12-12.71-26.31-13.15l-2.55-.14a9.51 9.51 0 01-3.44-1 102.43 102.43 0 0110-11 6 6 0 001.82-4.26 5.93 5.93 0 00-10-4.27"/><path d="M216.97 498.27c-3.52 5.5-1.54 12.58.76 17.55 3.06 6.62 14 14.52 17.26 16.76a5.913 5.913 0 006.72-9.73c-5.47-3.78-12.11-9.49-13.25-12a14.63 14.63 0 01-1.58-5.66 1.44 1.44 0 01.07-.46 5.4 5.4 0 012.25-.33c9.42 0 25.7 2.91 49.8 16.68s84.49 54.14 118.62 81.8c35.23 28.56 66.63 55.79 81.86 71.05 10.31 10.31 25.81 25.79 25.81 30.64a.42.42 0 010 .23c-.19 2-.24 2.41-7.13 4.62l-4.19 1.38c-11.94 4.2-18 10-18 17.38 0 2.34.76 5.15 1.56 8.39.62 2.47 1.83 7.13 1.83 9.67a3.8 3.8 0 01-.2 1.3c-1.89 2.69-6.17 2.8-12 2.63-3.29-.09-6.38-.18-9.14.68a37.94 37.94 0 00-6.87 3.28c-3.53 2-8.9 5-10.79 3.45-2.13-1.73-3.19-4.64-3.19-8.94a49.19 49.19 0 011.32-10.07l2.27-9.12c1.46-5.5 2.51-9.52 2.51-12.71a9 9 0 00-.92-4.29c-1.56-3.17-5-4.53-13.31-7.56-3.76-1.37-10.7-3.93-12.23-5.35-1.2-1.59-1.92-4.91-1.92-9 0-1.19.06-2.4.16-3.66.34-3.59 2.24-11.94 2.9-14.85a7.52 7.52 0 00.21-1.4 5.91 5.91 0 00-11.66-1.37 152.76 152.76 0 00-3.2 16.54c-.15 1.51-.25 3.15-.25 4.85 0 5.63 1 11.91 4.56 16.36 2.72 3.44 8.35 5.68 17.36 9 1.92.7 4.52 1.67 6.27 2.41-.38 2.13-1.21 5.41-1.93 8l-2.34 9.64a55.2 55.2 0 00-1.62 12.37c0 6.38 1.62 13.47 7.57 18.34 8.16 6.6 18.1 1 24.07-2.3a29.86 29.86 0 014.51-2.31 26.14 26.14 0 015.38-.15c6.61.17 16.55.45 22.13-7.82 3.84-5.61 1.82-13.53 0-20.55a41.07 41.07 0 01-1.16-5.46c0-.7 1.85-3.32 10-6.18l3.77-1.28c6.66-2.11 14.2-4.51 15.37-14.54 1.15-9.78-9.2-20.65-29.15-40.57-15.51-15.55-47.24-43.09-82.8-71.9-34.55-28-95.8-68.94-120.2-82.89-26.36-15-44.8-18.21-55.66-18.21-7.1 0-10.57 3.08-12.23 5.66"/><path d="M385.4 672c-.72-4.36-1.54-9.3-1.72-12.6l.06-7.74c.06-1.95.12-3.74.12-5.4 0-5.56-.68-9.61-4.1-11.92 0 0-2.91-1.8-6-3.89-3.36-2.25-5.12-5.3-2.91-10.49.58-1.94 3.64-9.42 5.42-13.7a5.58 5.58 0 00.49-2.29 6 6 0 00-2.44-4.79l-30.21-22-15.26-11.37s3.38 48.95 3.68 52.93c-2.81 3.73-9 12.08-10.89 15.48a15.9 15.9 0 01-11.23 8.41l-19 3.44c-2.68.41-5.67 3.6-5.08 6.84s3.84 5 7 4.84l19.38-3.54A27.76 27.76 0 00331.97 640c1.43-2.59 7.7-11.09 11.3-15.86a5.91 5.91 0 001.22-3.58 3 3 0 000-.42s-1.25-17.13-2.14-29.56C351.1 597 359.49 603 363.54 606c-1.54 3.72-3.48 8.61-4.11 10.73a38.64 38.64 0 00-1.92 8.91c-.14 3.85 2.1 9.15 6.58 12.5l6.1 4c1.45.65 1.83 2.87 1.83 4.09 0 1.65-.07 3.53-.13 5v8.86c.21 3.92 1.11 9.19 1.88 13.84.46 2.79 1 6.34 1.15 8-.81 1.26-2.69 3.82-4.31 6-4.91 6.63-11.65 15.74-15.6 24.22l-4.56 10.26c-2.48 5.59-5.48 12.59-7.12 13.75-2.23 1.29-13 3.26-19.43 4.47l-11.51 2.26c-6.3 1.43-14.36 4.73-20.83 7.4-2.91 1.2-6.4 2.64-7.65 3-1.66-.06-6.79-1.74-10.24-2.84a122.66 122.66 0 00-14.68-4.1c-4.06-.74-4.88-.89-4.88-3.26 0-.59.05-1.34.14-2.27v-.85c0-6.42-5.16-12.85-16.16-20.2-4.92-3.27-12.94-10.88-13.5-17.38v-.66c0-5.35 5.29-11.36 9.57-16.22l3.59-4.21a13.44 13.44 0 003-8.45c0-.47-.13-.89-.17-1.34l11.28.7a5.911 5.911 0 10.73-11.8l-20.93-1.31a6 6 0 00-6.25 5.92 6.08 6.08 0 001.67 4.13c.21.23 1.78 1.9 1.78 3.5a2.1 2.1 0 01-.46 1.34l-3.16 3.68c-5.34 6.07-12.55 14.23-12.55 24 0 .56 0 1.15.09 1.71 1.23 14.17 16.95 25 18.71 26.22 10.54 7 10.89 10.33 10.92 10.37-.08.87-.11 1.76-.11 2.61 0 6.9 2.43 13.17 14.52 15.36a112.9 112.9 0 0113.16 3.73c8.2 2.64 12.63 4 16.21 3.21 1.94-.43 4.85-1.62 9.8-3.66 6.09-2.51 13.65-5.6 19-6.8l11-2.18c12.17-2.25 19.79-3.77 23.38-5.93 4.82-2.89 7.62-9.39 11.88-19.21l4.42-10c3.43-7.38 9.77-15.92 14.37-22.17 4.79-6.44 6.17-8.39 6.59-10.72a8.4 8.4 0 00.12-1.66c0-2-.47-5-1.39-10.6m36.9-264.45c-17.77 6.38-39.75 18.35-55.06 27.29-18.9 11-41.21 22.74-54.23 28.47-14.77 6.52-37.33 13.69-41.52 13.63a5.92 5.92 0 00-.12 11.84c8 .08 34.6-9.43 46.41-14.63 13.39-5.91 36.17-17.86 55.42-29.12 21.35-12.41 39.7-21.55 53.08-26.34 15.11-5.45 31.58-10.65 51.32-9.53 20.75 1.18 27.46 3.9 35.15 7.07 8.17 3.33 20.75 10.94 20.88 11a5.913 5.913 0 106.12-10.12c-.53-.32-13.5-8.16-22.47-11.86-9.5-3.89-17.9-6.72-39-7.92-21.94-1.23-40.37 4.62-56 10.21M59.78 518.41l-6.16 22.16-31.41-21 .06-.25zm19.26 68.43l6.69-23.94-16.93-12.23 9.26-33.17 20.7-1.33 7.2-25.82-97.89 9.4-8.1 28.88zm45.32-99.18c2.78-4.08 5.59-12.65 6.35-17.12 1.17-7.13 1.86-14.65-10.4-23.24L54.8 402.57l14-20 71.52 49c16.15 11.31 22.81 26.68 10.5 44.66-2.57 3.74-5.93 8.68-5.93 8.68l-20.58 2.81m73.25-154.52l-18.59 13.46-11.47-36 .21-.16zm-27.59 65.52l20.13-14.58-5.61-20.09 27.91-20.18 17 11.86L251.19 340l-82.45-53.64L144.47 304zM291.49 276.24l-36.16-35.96 27.71-6.78 22.15 25.71 8.14-33.13 26.04-6.37-15.69 48.65 40.07 39.86-28.35 6.93-25.28-28.58-9.05 37-26.96 6.6zm255.31 659.3l-.1.05 3.2 31.45-4.71 2.11-20.92-23.52-.08.03 12.27 27.4-6.01 2.67-14.68-32.83 9.86-4.44 18.45 21.17.08-.03-3.38-27.9 9.64-4.29 14.64 32.83-6 2.71zM583.54 941.7a14.43 14.43 0 007.62-2.19c2.41-1.56 3.78-4.28 1.82-7.33-1.36-2.16-3.23-2.33-6.89-2.1l-3.84.22c-4.06.25-7.5-.91-10-4.84-3.45-5.45-.77-11.1 4.32-14.33a24 24 0 017.06-2.93l2.68 4.84a16.23 16.23 0 00-6.52 2.3c-2.82 1.74-3.3 4.14-2 6.23 1.47 2.28 3.53 2.17 5.84 2l4.43-.24c4.84-.26 7.77.6 10.43 4.87 3.93 6.19 1.4 11.93-4.39 15.59-3 1.93-5.68 3-7.79 3l-2.81-5.17M607.19 896.61l-6.3 5.02-3.3-4.12 17.74-14.09 3.26 4.11-6.25 4.98 19.12 24.03-5.13 4.11zm20.7-24.55l13.46-13.32 3.69 3.71-8.7 8.71 6.7 6.79 8.27-8.2 3.69 3.75-8.25 8.17 7.48 7.57 9.09-9.07 3.73 3.76-13.79 13.67zM486.78 975.06l.28-17.52h.1l8.85 15-9.23 2.59m16.7 9.59l6.59-1.83-20.84-31.56-6.94 2-2 37.88 6.39-1.76.16-9 11.92-3.45zm166.67-135l-8.29-6.72 1.69-2.09c2.32-2.91 4.49-3.95 7.69-1.38 2.81 2.29 2.8 5.27.59 8zm11.73 17.88l4.13-5.18-12.04-9.74.95-1.15c1.52-1.9 3.28-2.66 6.07-1.55l11.35 4.52 4.37-5.46-13.63-4.92c-3.33-1.21-4.75-.43-5.72.49l-.15-.09c2-3.53 1.42-7.77-2.22-10.72-5.15-4.13-10.09-2.56-14.1 2.43l-7 8.77zm4.2-57.75l1.18-1.88c3.9-6.34 9.94-6.53 16.67-2.39s9.24 9.64 5.33 15.94l-1.13 1.91zm22.89 21.75l4.93-8c5.25-8.52 4-17.76-6.28-24.09-10.12-6.26-18.45-4.36-24.34 5.19l-4.93 8zm14-53l-13.21-11.49v-.1l17.21 2.9zm18.09-6.57l2.83-6.18-37.54-4.44-3 6.57 27.7 26 2.76-6-6.84-5.98 5.13-11.26zM731.46 707.46l-.05.11 26.09 17.85-1.42 4.95-31.47.78-.03.11 28.85 8.32-1.85 6.32-34.56-9.98 2.98-10.38 28.08-.44.05-.09-23.52-15.45 2.91-10.09 34.56 9.98-1.82 6.34z"/></g><path d="M52.3 622.2C52.3 811.78 206.55 966 396.14 966a347.91 347.91 0 0061.26-5.44l-.53-3a344.06 344.06 0 01-60.73 5.44C208.22 963 55.32 810.11 55.32 622.2h-3m343.82-340.81c187.91 0 340.83 152.89 340.83 340.81a346.44 346.44 0 01-5.2 59.76l3 .53a344.73 344.73 0 005.2-60.29c0-189.59-154.24-343.85-343.81-343.85v3" fill="#e4003c"/><path d="M29.56 622.2c0 202.12 164.45 366.56 366.57 366.56a368.52 368.52 0 0065.34-5.76l-2.5-13.82a356.86 356.86 0 01-62.88 5.59c-194.41 0-352.56-158.18-352.56-352.57h-14m366.61-352.57c194.4 0 352.55 158.16 352.55 352.58a357 357 0 01-5.39 61.9l13.76 2.44a369.33 369.33 0 005.63-64.34c0-202.14-164.43-366.59-366.55-366.59v14" fill="#e4003c"/><path d="M18.32 622.2c0 208.32 169.49 377.8 377.82 377.8a380.46 380.46 0 0067.27-6l-.51-3a379.73 379.73 0 01-66.76 5.9c-206.68 0-374.78-168.1-374.78-374.76h-3m377.78-374.73c206.64 0 374.77 168.12 374.77 374.79a378.26 378.26 0 01-5.75 65.8l3 .54a379.6 379.6 0 005.81-66.34c0-208.33-169.49-377.8-377.8-377.8v3" fill="#e4003c"/><path d="M569.61 380.69l-1.4 65a6 6 0 002.62 5c.13.09 15 10.21 22.91 21.72 7.71 11.22 9.61 24.54 9.64 24.68a5.92 5.92 0 0011.78-.8 7 7 0 000-.8c-.12-.64-2.26-16.14-11.69-29.78-7.09-10.36-18.28-19.2-23.33-22.93.08-4.2.66-31.63.94-45.62 42.49 17.84 64.74 54.5 64.74 108.65 0 77.62-47.52 131.82-115.57 131.82-61.78 0-82.89-51.42-96.84-85.43l-4.7-11.16c-4.62-10.38-11.47-17.36-20.39-20.72-16.82-6.33-35.9 2.48-43.08 5.8a5.9 5.9 0 104.95 10.71c5.94-2.75 21.76-10.05 34-5.47 5.94 2.25 10.43 7 13.78 14.48l4.55 10.84c14.25 34.7 38.08 92.75 107.77 92.75 75 0 127.37-59.05 127.37-143.62 0-65.38-30.88-108.43-88-125.14" fill="#1d1d1b"/></svg>