<svg id="Layer_1" data-name="Layer 1" xmlns="http://www.w3.org/2000/svg" viewBox="0 0 1000 585.78"><defs><style>.cls-1,.cls-2{fill:#1c2a61;}.cls-2{fill-rule:evenodd;}</style></defs><title>eredivisie-logo</title><path class="cls-1" d="M370.81,284.82S328.1,331.1,328.1,401.51C328.1,504.58,412.67,584,511.86,584c70.91,0,116.37-41.41,116.37-41.41L598.65,513S566,543.79,511.7,543.79c-79.85,0-140.25-67.38-140.25-142,0-52.86,29.31-87,29.31-87l-29.95-29.94Z" transform="translate(-11.78 -219.31)"/><path class="cls-1" d="M652.6,518.46s42.7-46.29,42.7-116.69c0-103.08-84.57-182.46-183.76-182.46-70.91,0-116.37,41.41-116.37,41.41l29.58,29.58s32.65-30.81,86.95-30.81c79.85,0,140.25,67.37,140.25,142,0,52.87-29.3,87-29.3,87l30,30Z" transform="translate(-11.78 -219.31)"/><path class="cls-1" d="M574.14,488.5S549,508,511.7,508c-57.54,0-107.8-46.49-107.8-106.66C403.9,345.2,449.85,295,512,295c57.81,0,107.7,46.25,107.7,106.41a142.39,142.39,0,0,1-1.28,16.82H504L469.72,384H575.34c-5.3-24.25-30.3-50.13-63.14-50.13-37,0-66.5,30.45-66.5,67.67,0,35.39,27.67,67.74,66.05,67.74,21.65,0,33.64-9.73,33.64-9.73l28.75,29Z" transform="translate(-11.78 -219.31)"/><path class="cls-1" d="M70.43,714.39c14.41,0,22.27,9.54,23.66,20.86H44.18c2.49-13.23,13-20.86,26.25-20.86m.7-26.49c-37.3,0-59.35,26.23-59.35,58.42s22.8,57.85,59.75,57.85c27.23,0,47.33-14.68,53.19-35H90.85s-3.68,8.38-18.41,8.38c-15.92,0-24.68-8.36-28.06-20h80.95a97.91,97.91,0,0,0,.7-12.82c0-35.15-24.24-56.9-54.9-56.9" transform="translate(-11.78 -219.31)"/><path class="cls-1" d="M141.21,801.63V690.24h32.22V703c8.68-7.73,19.38-14.55,39.16-14.55v30.63c-31.15.79-39.16,12.06-39.16,25v57.63Z" transform="translate(-11.78 -219.31)"/><path class="cls-1" d="M404.62,715.4c13.3,0,21,6.07,26.08,12.72V764c-3.58,5.14-11.42,12.81-26,12.81-17,0-28.94-14-28.94-30.8,0-18.17,13.16-30.57,28.82-30.57m26.08-78.94v60.35s-11.69-8.92-31.38-8.92c-32.36,0-55.62,27.09-55.62,57.94,0,32.46,24.28,58.16,56,58.16,19.27,0,31-8.83,31-8.83v6.46h32.22V636.46Z" transform="translate(-11.78 -219.31)"/><polygon class="cls-2" points="509.43 470.93 477.22 470.93 477.22 582.32 509.43 582.32 509.43 470.93 509.43 470.93"/><polygon class="cls-1" points="521.7 470.93 555.74 470.93 584.13 540.53 612.6 470.93 646.77 470.93 598.6 582.32 569.76 582.32 521.7 470.93 521.7 470.93"/><polygon class="cls-2" points="692.72 470.93 660.5 470.93 660.5 582.32 692.72 582.32 692.72 470.93 692.72 470.93"/><polygon class="cls-2" points="867.89 470.93 835.67 470.93 835.67 582.32 867.89 582.32 867.89 470.93 867.89 470.93"/><path class="cls-1" d="M275,714.39c14.41,0,22.27,9.54,23.67,20.86H248.71c2.5-13.23,13-20.86,26.25-20.86m.71-26.49c-37.31,0-59.36,26.23-59.36,58.42s22.81,57.85,59.76,57.85c27.22,0,47.32-14.68,53.18-35H295.38s-3.68,8.38-18.41,8.38c-15.92,0-24.68-8.36-28.06-20h81a97.91,97.91,0,0,0,.7-12.82c0-35.15-24.24-56.9-54.89-56.9" transform="translate(-11.78 -219.31)"/><path class="cls-1" d="M956.18,714.39c14.41,0,22.27,9.54,23.67,20.86H929.94c2.49-13.23,13-20.86,26.24-20.86m.71-26.49c-37.3,0-59.35,26.23-59.35,58.42s22.8,57.85,59.75,57.85c27.22,0,47.32-14.68,53.18-35H976.6s-3.68,8.38-18.4,8.38c-15.93,0-24.68-8.36-28.07-20h81a99.31,99.31,0,0,0,.69-12.82c0-35.15-24.23-56.9-54.89-56.9" transform="translate(-11.78 -219.31)"/><path class="cls-1" d="M724.27,763.06c2,29.1,23.11,42,52.48,42,31,0,50.17-14,50.17-37.74,0-25.88-22.89-30.77-40-33.74-12-1.8-27.25-2.33-27.25-12.58,0-5.59,5.47-9.57,16.55-9.57,12.16,0,20.09,5.18,20.46,13.91l29.53-.19c-1.15-21.36-17.74-37.94-50.18-37.94-29.55,0-47.78,14.51-47.78,36.62,0,21.63,15.48,29.45,31.53,32.88l15.67,2.66c10,1.53,20.38,3,20.38,10.84,0,4.85-5.89,9.58-18.94,9.58-13.69,0-21.55-5.48-23.15-16.49l-29.5-.27Z" transform="translate(-11.78 -219.31)"/></svg>