<svg viewBox="0 0 764 1000" xmlns="http://www.w3.org/2000/svg"><path d="M712.78 150.28c.67 0 1.33 0 2 .1a19.34 19.34 0 0117.38 19.11v613.07C731.52 846.4 644 863.8 564.09 887c-66.74 19.34-137.31 44.57-182 104.09-39.91-60.09-122.38-84.48-191.47-107.24-48.16-15.86-105.14-28.49-136-55l658.21-678.6z" fill="#fff" fill-rule="evenodd"/><path d="M54.57 828.88c-14-12-22.71-26.94-22.71-46.32V169.49a19.34 19.34 0 0119.36-19.21h661.56z" fill="#e6393a" fill-rule="evenodd"/><path d="M51.22 145.09h661.56a24.54 24.54 0 0117.32 7.17 24.21 24.21 0 017.23 17.23V782.6c-.6 61.33-73.37 81.7-147.7 102.5-8.19 2.29-16.41 4.59-24.1 6.82-33.08 9.58-67.1 20.62-98.36 36.63-30.94 15.84-59.15 36.56-80.95 65.59l-4.4 5.86-4.05-6.1C341 938.51 265.94 914 200.13 892.42L189 888.78c-10.13-3.34-20.83-6.58-31.59-9.84-64.28-19.49-130.74-39.64-130.74-96.38V169.49a24.21 24.21 0 017.23-17.23 24.54 24.54 0 0117.32-7.17zm661.56 10.38H51.22a14.22 14.22 0 00-10 4.12 14 14 0 00-4.14 9.9v613.07c0 49.05 62.7 68.06 123.36 86.45 10.73 3.25 21.4 6.48 31.83 9.92l11.09 3.64c65.13 21.31 139.06 45.51 179 99.77 22.21-27.57 50-47.58 80.16-63C494.35 903 529 891.74 562.65 882c8.33-2.42 16.28-4.64 24.22-6.86 70.52-19.74 139.56-39.06 140.08-92.61v-613a13.93 13.93 0 00-4.15-9.9 14.2 14.2 0 00-10-4.12z" fill="#1d1d1b"/><path d="M5.19 348.53h753.62V482.4H5.19z" fill="#fff" fill-rule="evenodd"/><path d="M5.19 343.34H764v144.25H0V343.34zm748.43 10.38H10.38v123.49h743.24z" fill="#1d1d1b"/><path d="M388.22 5.19C463 5.19 524 66.16 524 140.92s-61 135.72-135.78 135.72-135.73-61-135.73-135.72 61-135.73 135.73-135.73z" fill="#fff" fill-rule="evenodd"/><path d="M522.47 105.35c1.8 1.87 3.6 3.74-.13 7.33s-5.53 1.72-7.33-.15c-18.92-19.67-39.14-34.34-60.72-43.74a150.23 150.23 0 00-68.72-12.25c-2.59.14-5.19.27-5.45-4.92s2.33-5.32 4.92-5.45a160.28 160.28 0 0173.38 13.14c22.86 10 44.18 25.39 64.05 46zm-2.66 79c1 2.4 2 4.8-2.82 6.77s-5.76-.43-6.75-2.83c-7.51-18.34-13.11-27.09-20.45-30.63s-17.88-2.46-34.65-.87l-3.17.3-1.7-2.69c-9.53-15.16-15.23-22.54-22.57-25.06-7.55-2.59-18.38-.74-37.81 2.64-2.56.45-5.11.9-6-4.21s1.68-5.56 4.24-6c21.1-3.68 32.88-5.68 42.91-2.24 9.7 3.33 16.35 11.16 26.26 26.67 16.72-1.59 27.56-2.4 37 2.13 10 4.82 16.94 15.09 25.52 36zM360.53 5.28c1-2.42 1.89-4.83 6.71-3s3.88 4.3 2.94 6.72c-.5 1.27-1.13 2.76-1.8 4.32-2.41 5.69-5.3 12.49-4.21 14.88 1.48 3.24 6.6 5.78 11.41 8.17 7.53 3.73 14.56 7.22 14.79 15.21.16 5.52-5.94 10.24-12.64 15.43-5.74 4.45-12.1 9.37-12.14 12-.31 18.5 8.62 26.65 18.07 35.28 3.25 3 6.56 6 9.71 9.5l1.63 1.91-.34 2.39q-.48 3.25-1.24 6.33c-3.4 13.68-10.95 24-20.23 30.52A43.66 43.66 0 01342 172.8a38.14 38.14 0 01-3.89-.76 43 43 0 01-7.59-2.67c-18.16-8.33-30.43-28.9-36.85-52.22-6.28-22.78-7-48.45-2.26-67.69a70.22 70.22 0 014.2-12.23c1.08-2.36 2.16-4.71 6.86-2.57s3.62 4.51 2.54 6.87a59.74 59.74 0 00-3.54 10.4c-4.39 17.61-3.63 41.32 2.21 62.5 5.68 20.64 16.11 38.64 31.14 45.54a31.9 31.9 0 005.76 2 26.19 26.19 0 002.88.56 33.3 33.3 0 0023.77-6.07c7.37-5.19 13.38-13.46 16.14-24.53.23-.94.45-1.91.63-2.91-2.35-2.45-4.85-4.73-7.3-7-11.25-10.27-21.86-20-21.48-43.11.12-7.64 8.57-14.17 16.2-20.08 4.49-3.48 8.59-6.65 8.58-7-.05-1.78-4.36-3.92-9-6.21-6.41-3.18-13.22-6.56-16.23-13.16s.86-15.62 4.09-23.22c.59-1.39 1.15-2.72 1.67-4zM303.88 251c-2.6 0-5.19 0-5.19-5.2s2.59-5.18 5.19-5.18c38.89.11 70.71-6.92 95.13-21.83 24.18-14.75 41.28-37.39 51-68.64.77-2.47 1.54-5 6.48-3.41s4.18 4 3.41 6.49c-10.51 33.76-29.12 58.3-55.5 74.4-26.15 16-59.76 23.48-100.53 23.37zm-40.17-52.15c-2.53-.58-5-1.17-3.9-6.21s3.68-4.47 6.21-3.89c11.34 2.61 20.88.83 28.9-4.64 8.41-5.74 15.41-15.54 21.26-28.64 1.06-2.37 2.12-4.74 6.84-2.63s3.67 4.48 2.61 6.85c-6.64 14.84-14.81 26.1-24.87 33-10.45 7.13-22.69 9.49-37.05 6.19zM388.22 0a141.18 141.18 0 11-99.56 41.35A140.52 140.52 0 01388.22 0zm92.23 48.69a130.16 130.16 0 1038.31 92.23 130.13 130.13 0 00-38.31-92.23z" fill="#1d1d1b"/><g fill-rule="evenodd"><path d="M426.48 746.41h-24.77v22.29h-9v-22.29h-24.44v22.29H359v-22.29h-24.78v24.46h13.62v43.65h-13.62v13.62h92.26v-13.62h-13.62v-43.65h13.62zm-55.73 47.37H390v20.74h-19.2v-20.74z" fill="#1d1d1b"/><path d="M156.66 771.8l4.86 15.13h15.73l-12.73 9.36 4.86 15.13-12.72-9.35-12.72 9.35 4.86-15.13-12.73-9.36h15.73zm60.06-.31l4.86 15.13h15.73l-12.72 9.36 4.86 15.14-12.73-9.36-12.72 9.36 4.86-15.14-12.73-9.36h15.73zm61.35.31l4.86 15.13h15.73l-12.72 9.36 4.86 15.13-12.73-9.35-12.72 9.35 4.86-15.13-12.72-9.36h15.72zm205.47 0l4.86 15.13h15.73l-12.72 9.36 4.86 15.13-12.73-9.35-12.72 9.35 4.86-15.13-12.73-9.36h15.73zm60.07-.31l4.86 15.13h15.72l-12.72 9.36 4.86 15.14-12.72-9.36-12.73 9.36 4.86-15.14-12.72-9.36h15.73zm61.35.31l4.86 15.13h15.73l-12.73 9.36 4.86 15.13-12.72-9.35-12.73 9.35 4.86-15.13-12.72-9.36h15.73z" fill="#e6393a"/><path d="M177.25 375H152a12.88 12.88 0 00-12.85 12.85v52.32A12.88 12.88 0 00152 453.06h25.23l12.93.08-.08-28.51-17.49-.05v12.52H160v-45.9h11.89l.11 8.8h18.11v-25zM328.18 375.2h25.08l18.42 34.83 18.42-34.83h24.77v16.1h-4.96l-.01 45.96 4.97.01v16.26h-25.54l-.02-40.99-17.79 31.39-18.67-32.55-.06 42.15h-24.61v-16.26h5.26V391.3h-5.26zm107.74-.31H461l18.42 34.83 18.42-34.83h24.77v16.1h-4.96l-.01 45.96 4.97.01v16.26h-25.54l-.02-40.99-17.79 31.39-18.67-32.55-.06 42.15h-24.61v-16.26h5.26v-45.97h-5.26zm186.02.15h25.07l21.21 43.35v-43.35h24.77v16.1h-4.95l-.02 45.96 4.97.02v16.25h-25.54l-20.84-42.14-.06 42.14h-24.61v-16.25h5.26v-45.98h-5.26zM63.01 437.43h4.95v-46.44h-4.95V375.2h56.96v24.61l-18.31-.06.05-8.76H89.79V406h15.94v14.09H89.79v17.34h5.1v15.79H63.01zM249.8 375.2h56.96v24.61l-18.31-.06.05-8.76h-11.92V406h15.94v14.09h-15.94v17.49h11.61l-.05-8.76 18.31-.06v24.61h-56.96v-15.79h5.26v-46.59h-4.95zm293.24 78.17H600v-24.61l-18.31.06.05 8.76h-11.61v-17.49h15.94V406h-15.94v-15.01h11.92l-.05 8.76 18.31.06V375.2h-56.96v15.79h4.95v46.59h-5.26zm-.77 106.35h23.37v-10.68h-4.33v-39.63h-13.93l-9.91 8.98 4.8 7.92 5.26-5.29.04 28.03-5.3-.01zM585.61 509.56h17.19a9 9 0 019 9v32.05a9 9 0 01-9 9h-17.19a9 9 0 01-9-9v-6.35h13.54l-.15 5h8.07l.08-9.21c-4.09 0-8.17.12-12.26 0-7.12-.16-9.28-2.79-9.28-7.9v-13.61a9 9 0 019-9z" fill="#1d1d1b"/><path d="M590.41 519.78h7.74v10.53h-7.74z" fill="#fff"/><path d="M618.46 559.72v-7l20.75-20.66.05-12.45h-8.18v9.76h-12.65v-11.29a8.55 8.55 0 018.52-8.52h18.26c4.69 0 7 3.84 7 8.52v15.84l-13.74 15.52h15.29v10.26H618.5zM661 509.56h33.4V520h-20.58v5.22h13c4.4 0 7.64 2.55 7.64 6.49v20.07a8.07 8.07 0 01-8.05 8h-17.36a8.07 8.07 0 01-8-8v-9.56h12.28v7.18l8.18.06v-12.84H661z" fill="#1d1d1b"/></g></svg>