<svg viewBox="0 0 1000 1000" xmlns="http://www.w3.org/2000/svg"><path d="M500 1000c133.55 0 259.11-52 353.55-146.45S1000 633.55 1000 500s-52-259.11-146.45-353.55S633.55 0 500 0C224.3 0 0 224.3 0 500c0 133.55 52 259.11 146.45 353.55S366.45 1000 500 1000zM98.62 500a401.38 401.38 0 01685.2-283.82A398.76 398.76 0 01901.38 500c0 221.32-180.06 401.38-401.38 401.38A401.37 401.37 0 0198.62 500z" fill="#008e5b"/><path d="M706.6 357.55l-185.6-113c-15.06-8.22-31.5-6.16-39.72 0L295.69 358.92c-11 11-8.22 26.71-8.22 26.71v113h-76V369.88c0-28.77 15.06-41.78 25.34-54.11l226-139.71c39-20.54 67.8-4.11 76.7 1.37l225.3 134.23c19.18 13 29.45 30.14 29.45 52v91.77c0 24-21.23 30.14-32.87 30.14H314.86v-76.66h394.48c9.59 0 10.27-11 10.27-11v-22.6c0-12.97-13.01-17.76-13.01-17.76zm0 282.16s13-4.79 13-17.81v-22.6s-.68-10.95-10.27-10.95H314.86v-76.71h446.53c11.64 0 32.87 6.17 32.87 30.14v91.77c0 21.91-10.27 39-29.45 52.05L539.49 819.83c-8.9 5.48-37.66 21.91-76.7 1.37l-226-139.71c-10.28-12.33-25.34-25.34-25.34-54.11V498.63h76v113s-3.43 16.44 8.22 26.71l185.61 114.37c8.22 6.17 24.66 8.22 39.72 0z" fill="#008e5b"/><path d="M149.66 721.49l35.7 47-13.19 10-19.7-25.9-8.87 6.74 19.1 25.12-13.19 10-19.1-25.12-19.55 14.86-16-21zM184 861.28a75.52 75.52 0 01-15.5-11.22c-16.41-15.94-21.18-37.35-4.07-55 16.08-16.55 37.84-11.5 53.68 3.9 5.24 5.08 7.73 8.74 11.93 14.61l-12.64 13a44.26 44.26 0 00-7.69-11c-8.07-7.84-18.34-9.43-26.18-1.37-8.24 8.49-6.78 18.3 1.07 25.93a43.14 43.14 0 0012.12 8.05zm104.73 68.07a96 96 0 01-26.56-11c-19.83-11.42-29.71-31-17.45-52.28 11.52-20 33.86-20.43 53-9.4 11.19 6.45 16.08 10.4 21 15.07l-9.26 16.06c-2.16-3.75-7.34-8.78-13.75-12.47-11.36-6.55-22.18-5.16-28.44 5.69-4.72 8.2-5.53 17.3 3.61 22.57a17.41 17.41 0 005.17 2.29l9.18-15.88 19.65 11.32zm39.85-54.14l40.18 14.41c15.49 5.56 23.32 13.81 18.86 26.24-3.56 9.93-11.57 12.71-21.65 11.61l-.07.19a16.55 16.55 0 018.46 10.89c1.34 8.23-2.53 18.15-2.19 25.39l-25.89-9.28c.55-5 3.89-15.26 3.25-19.89-.42-3.5-2.79-4.77-5.86-5.87l-5.56-2-7.89 22-24.87-8.9zm13.6 36.79l6.5 2.33c5.1 1.83 10.31 3.07 12.68-3.52 2.09-5.84-2.34-8.37-7.35-10.17l-6.87-2.46zm81.39 63c-23.74-3.88-35.71-18.12-31.93-41.28 3.72-22.77 19.65-32.86 43.4-29s35.96 18.61 32.22 41.38c-3.79 23.16-19.95 32.81-43.69 28.9zm2.67-16.35c10.31 1.68 12.48-9.75 13.77-17 .93-6.34 2.29-18.91-7.64-20.53-9.63-1.57-12.45 10.75-13.48 17.08-1.19 7.31-1.99 18.97 7.35 20.49zm51.06-46.31l39.53-1 13.94 48.17h.2L529.74 911l22.67-.58 1.75 68.8-38.84 1-14.67-49.54h-.2l1.27 49.87-22.67.58zm109.44-8.75l11.32 67.86L572 975.8l-11.32-67.87zm8.86-.35l37.68-11.94 26.77 42.39.19-.06-14.65-46.23 21.62-6.84L688 946.15l-37 11.72-27.84-43.5-.19.06L638 962l-21.61 6.85zm168.49.76a96.13 96.13 0 01-23.33 16.81c-20.15 10.84-42 8.94-53.64-12.69-10.94-20.33.44-39.55 19.9-50 11.38-6.13 17.32-8.2 23.89-9.94l8.78 16.33c-4.33-.14-11.33 1.62-17.85 5.12-11.55 6.22-16.06 16.15-10.13 27.18 4.49 8.34 11.8 13.81 21.09 8.81a17.15 17.15 0 004.68-3.18l-8.7-16.16 20-10.75zM739 841.17l47.14-36.57 10.15 13.09-26.69 20.73 6 7.71 25.56-19.82 10.15 13.09-25.55 19.82 5.74 7.41 27.27-21.16 10.15 13.09-47.68 37zm52.55-40.69l26.55-29.3 44.49 23.15.13-.15-36-32.57L842 744.8l51 46.2-26.08 28.79-46-23.57-.13.15 37 33.5-15.24 16.83z" fill="#fff"/></svg>