<svg viewBox="0 0 820.03 1000" xmlns="http://www.w3.org/2000/svg"><g fill-rule="evenodd"><path d="M820.02 5.68C514.77-28.24.02 81.5.02 557.84c0 365.16 253.37 441.46 425 441.46 157.63 0 369.12-159.62 369.12-429-.04-239.4-95.81-261.3 25.88-564.62z" fill="#fff"/><path d="M506.95 719.23c-83 59.89-176.38 36.3-226.08-19.4-51.53-57.78-42.93-172.42-39.75-201.76a195.44 195.44 0 00-37.38 115.16c0 108.44 88.22 196.66 196.66 196.66a195.91 195.91 0 00135.17-54l-28.62-36.64z" fill="#b2b2b2"/><path d="M607.02 411a45.87 45.87 0 01-18-.88 5.69 5.69 0 01-.82-.29l-1.21.88a.73.73 0 01.07.19c.11.42 4.14 15.51 17.21 37.17h23.11a29.75 29.75 0 014.86-11.86zm44.44 93.87v-22.35a29.66 29.66 0 01-11.72-4.83l-7.72 7.68a273.38 273.38 0 0019.4 19.5zm107.07-230.58a608.81 608.81 0 00-71.53-16l-1.65 3.84a66 66 0 007.18 9.79 12.17 12.17 0 013.48 8.91c0 3.5-1.14 8-4.46 13.69l-1.53 2.4c-1.4 3.79-11.69 31.59-18.4 49.23A108 108 0 01710.25 547c23.39 13.18 51 25.31 83.68 35.26q.13-5.93.14-11.92c0-139.68-32.58-205.36-35.57-296zM632.31 470.3a29.78 29.78 0 01-4.93-11.74h-16.42c4.08 6 8.78 12.32 14.22 18.87zm19.15-88.12c-8.28 9.92-19.53 20.28-32.86 25.64l21 21a29.64 29.64 0 0111.88-4.95v-41.69z" fill="#ffe500"/><path d="M661.93 423.85a29.72 29.72 0 0111.88 4.95l38.47-38.47a83.55 83.55 0 00-50.35-20.94zm50.17 92.29l-38.45-38.45a29.74 29.74 0 01-11.72 4.83V514c7.25 6 15.16 12 23.8 17.85a83.94 83.94 0 0026.37-15.66zM465.11 272.57c-.3-.49-.58-1-.87-1.47l-88.38 110.76c.09 2.51.23 6.88.23 11.86a130.25 130.25 0 01-.6 13.92 200.58 200.58 0 0150.87.14c12.52-72.21 36.33-129.53 38.75-135.22zM681.08 470.3l38.44 38.44a83.57 83.57 0 0020.92-50.18h-54.42a29.63 29.63 0 01-4.93 11.74zm38.6-72.55l-38.48 38.48a29.54 29.54 0 014.82 11.86h54.42a83.58 83.58 0 00-20.79-50.34z" fill="#ffe500"/><path d="M654.25 103l4.39-.07c-.3-.49-.63-1-.9-1.46-1.15.52-2.31 1-3.49 1.53z" fill="#fff"/><path d="M713.85 191.59l-4.55 11.55c-5.29 13.54-13.15 33.63-22.3 55.13a608.81 608.81 0 0171.53 16c-1.39-41.89 3.57-89.15 21-151.49a28 28 0 00-8.18-5.88c-5-2.28-7.71-1.71-12.71-.67l-6.38 1.14c-8.14 1.06-14.38.23-21.6-.73l-1.61-.21c-7.7-1-7.7-1-12.48 3.39l-2.55 2.35c-11.74 10.62-26.25 20.7-44.86 14.93a29.37 29.37 0 01-6.83-3.14 16.49 16.49 0 01-4.39 2.87 42.37 42.37 0 01-11.71 3.45 48 48 0 01-13.85.22c-4.34 3.54-18.39 11.88-46.71 1.82-.23 3.72-.49 8-.63 10.34 9.72 5.34 40.89 22.66 51.28 31a39.26 39.26 0 016.34 7.14c28.76-35.42 61.94-64.89 104.85-60.15a5.24 5.24 0 013 9.06c-.25.23-25.2 23.47-36.6 51.91zm-314.89 87.32c26-42 51.54-83.39 51.63-83.52 1.25-1.79 31.19-43.63 58.47-32.72a5.29 5.29 0 012.21 1.67l1.49 1.94c7.87-4.76 18-13.74 25.25-20.49l-7.74.35a5.25 5.25 0 01-5.23-3.68 137.57 137.57 0 01-5.19-30c-245.89 32-469.37 150.11-469.37 452.29 0 77.12 14.77 142.64 39.63 198.07l59.67-39.41c-16.22-35.22-25.53-76.14-25.53-122.55 0-157.8 118.33-271.67 274.71-322zM775.68 107.4a37 37 0 017 4.28c.48-1.61.92-3.19 1.41-4.82q-5.94-.44-11.91-.82a30.81 30.81 0 013.51 1.35zm-82.22-4.4q-10.14-.12-20.31-.1a21.53 21.53 0 006.9 2.79c2.58.55 8.67 1.21 13.41-2.69z" fill="#006a52"/><path d="M657.67 114.36c4.27 5.73 8 10.68 14.56 12.73 12.79 4 23.13-2.2 34.72-12.69l2.47-2.26c7.76-7.15 9.33-7.61 21-6.07l1.61.21c7 .93 12.09 1.6 18.86.72l5.61-1c1.19-.25 2.37-.48 3.56-.68-18.62-1.07-37.5-1.82-56.54-2.19a5.27 5.27 0 01-.91 5.66c-5.89 6.47-15.12 9.14-24.68 7.12A30.23 30.23 0 01658.64 103l-4.39.07c-1.52.65-3.06 1.26-4.63 1.81a68.06 68.06 0 018 9.51z" fill="#006a52"/><path d="M574.32 802.33c-11.93-12.79-32.43-38-32.31-38.15a206.3 206.3 0 01-141.61 56.18c-114.22 0-207.14-92.92-207.14-207.13 0-73.92 38.94-138.87 97.35-175.53a5.22 5.22 0 01.59-1.27c1.38-2.12 34.56-50.71 53.79-70.21 2.85-4.6 28.61-46.28 54-87.31-156.38 50.3-274.71 164.17-274.71 322 0 180.94 141.12 278.71 284.77 278.71 41.72 0 121.59-21.75 165.3-77.26z" fill="#ffe500"/><path d="M764.75 453.15a108.06 108.06 0 00-93.16-107c6.71-17.64 17-45.44 18.4-49.23l1.56-2.42c3.32-5.69 4.46-10.19 4.46-13.69a12.17 12.17 0 00-3.48-8.91 66 66 0 01-7.18-9.79c9.86-22.93 18.35-44.63 23.95-59l4.55-11.55c11.4-28.44 36.35-51.68 36.6-51.91a5.24 5.24 0 00-3-9.06c-42.91-4.74-76.09 24.73-104.85 60.15a39.26 39.26 0 00-6.34-7.14c-10.39-8.31-41.56-25.63-51.28-31 .14-2.33.4-6.62.63-10.34 28.32 10.06 42.37 1.72 46.71-1.82a48 48 0 0013.85-.22 42.37 42.37 0 0011.71-3.45 16.49 16.49 0 004.39-2.87 29.37 29.37 0 006.83 3.14c18.61 5.77 33.12-4.31 44.86-14.93l2.54-2.33c4.78-4.4 4.78-4.4 12.48-3.39l1.61.21c7.22 1 13.46 1.79 21.6.73l6.38-1.14c5-1 7.75-1.61 12.71.67a28 28 0 018.18 5.88c1-3.65 2.09-7.37 3.19-11.12a37 37 0 00-7-4.28c-8.1-3.72-13.5-2.6-19.22-1.41l-5.61 1c-6.77.88-11.84.21-18.86-.72l-1.61-.21c-11.63-1.54-13.2-1.08-21 6.07l-2.47 2.26c-11.59 10.49-21.93 16.67-34.72 12.69-6.61-2.05-10.29-7-14.56-12.73a68.06 68.06 0 00-8-9.51c2.78-1 5.49-2.13 8.12-3.34 3.78 7 11.3 12.52 20.15 14.39 9.56 2 18.79-.65 24.68-7.12a5.24 5.24 0 00-7.75-7c-4.85 5.33-11.94 4.52-14.77 3.92-5.57-1.18-10.4-4.51-12.82-8.63a89 89 0 019-3.66c8.68-2.86 14.12-1.48 22.36.6l5.64 1.38c14.38 3.29 19.13-.43 26.13-8 19.83.89 39.41 2.18 58.61 3.83 8.3-25.87 18.51-54.15 31.07-85.47C514.77-28.24.02 81.5.02 557.84c0 96.83 17.84 173.31 47.22 233.48l30.13-19.82C50.2 714.2 33.94 645.71 33.94 564.34c0-315.28 233.85-437.91 486.33-469.55-2.67 23.12 4.36 46.29 4.79 47.67a5.25 5.25 0 005.23 3.68l7.74-.35c-7.21 6.75-17.38 15.73-25.25 20.49l-1.49-1.94a5.29 5.29 0 00-2.21-1.67c-27.28-10.91-57.22 30.93-58.47 32.72-.18.26-99.84 161.51-105.6 170.83-19.23 19.5-52.41 68.09-53.79 70.21a5.22 5.22 0 00-.59 1.27c-58.41 36.66-97.35 101.61-97.35 175.53 0 114.21 92.92 207.13 207.14 207.13a206.3 206.3 0 00141.6-56.18c-2.13-2.73-4.28-5.54-6.44-8.39v.05a195.9 195.9 0 01-135.2 54c-108.44 0-196.66-88.22-196.66-196.66s88.22-196.67 196.66-196.67a196.14 196.14 0 0124.26 1.56 476.85 476.85 0 00-5.91 72.45 212.88 212.88 0 003.94 39.14l-63.8 30.64c-4.49 18-6.73 65.84-6.73 65.84l68.88 40.46c10.15-2.65 26-20.89 37.32-35.42l-.12-.23c-.23-.47-.18-.4.07.11 2.71-3.36 5.25-6.57 7.43-9.42-21.52-45.14-36.47-91.35-36.47-131.07 0-91.92 32.73-181.75 42.78-207.16a5.243 5.243 0 008.6-6c-5.76-8.64-19.25-28.86-18.14-46.64.7-11.07 25.3-34.8 43.59-49.82.25 19.39 3.17 63.85 23.83 85.41a38.37 38.37 0 0028.62 12.37 30.46 30.46 0 0022.49-9.25c9.26-9.41 12.84-24 14.24-34.59l7.73 8.73c-15.39 20.61-30.06 38.11-43.89 43.84-18.05 7.49-33 5.29-37.6 4.31a29.14 29.14 0 00-16.3-3.61c-25.5 2.1-42.56 39.31-38.83 84.72s26.65 79.32 52.17 77.23c9-.74 16.86-5.82 23.19-14A197.47 197.47 0 00577.88 417c6.57 21.05 47.17 125.85 215.66 176.07.16-3.59.3-7.19.39-10.83-32.65-10-60.29-22.08-83.68-35.26a108 108 0 0054.5-93.84zm-300.51-182c.29.5.57 1 .87 1.47-2.42 5.69-26.23 63-38.75 135.22a200.58 200.58 0 00-50.87-.14 130.25 130.25 0 00.6-13.92c0-5-.14-9.35-.23-11.86l88.38-110.82zm255.28 237.59l-38.44-38.44a29.63 29.63 0 004.94-11.74h54.43a83.57 83.57 0 01-20.92 50.18zm21-60.65h-54.5a29.54 29.54 0 00-4.85-11.86l38.48-38.48a83.58 83.58 0 0120.79 50.34zm-78.54-78.7a83.55 83.55 0 0150.35 20.94l-38.52 38.47a29.72 29.72 0 00-11.88-4.95v-54.46zm-74.96 41.53a.73.73 0 00-.07-.19l1.21-.88a5.69 5.69 0 00.82.29 45.87 45.87 0 0018 .88l25.22 25.21a29.75 29.75 0 00-4.86 11.86h-23.11c-13.07-21.66-17.1-36.75-17.21-37.17zm23.94 47.64h16.42a29.78 29.78 0 004.93 11.74l-7.13 7.13a248.162 248.162 0 01-14.22-18.87zm40.5 46.31a273.38 273.38 0 01-19.4-19.5l7.68-7.68a29.66 29.66 0 0011.72 4.83zm0-81a29.64 29.64 0 00-11.88 4.95l-21-21c13.33-5.36 24.58-15.72 32.86-25.64v41.67zM661.93 514v-31.48a29.74 29.74 0 0011.72-4.83l38.45 38.45a83.94 83.94 0 01-26.37 15.66 314.484 314.484 0 01-23.8-17.85z" fill="#1d1d1b"/><path d="M316.25 659.86c-20.21-7.48-54.62-30.67-54.62-30.67-4.84 4.29-20.46 42.11-28.89 63.13a186 186 0 0051.28 65.11c23.8-9.32 52.48-33.22 52.48-33.22-9-13.47-20.2-64.35-20.2-64.35zm174.32 47.89C461.39 710 430.02 698 430.02 698c-13.47 21-43.39 49.38-43.39 49.38 3.69 10.5 28.07 50.62 28.07 50.62 29.79-2.28 67.85-15.06 81.82-26.25a316.55 316.55 0 00-6-64zM328.21 525.93s12.73-42.64 10.48-64.34c0 0-14.91-4.74-32-8.3a186.29 186.29 0 00-57.8 53.15c1 20.89 3.44 44.9 8.95 53.16 0 0 65.85-25.43 70.33-33.67zM60.06 816.47l90.32-59.78 21.41 32.34-21.32 14.12-9.28-14.02-13.06 8.64 8.68 13.12L115.49 825l-8.68-13.11-34.62 22.91zM195.95 811.67c16.16 15.37 2.09 42.83-16.12 62s-44.94 34.59-61.1 19.22-2.09-42.83 16.12-62 44.93-34.59 61.1-19.22zm-58.41 61.42c6 5.72 21.39-10 26-14.88s19.56-21.05 13.55-26.76-21.39 10-26.05 14.88-19.56 21-13.55 26.76zm51.48 69.41l12.6-45-.33.14c-2.63 4.62-5.16 9.3-7.88 13.87l-14.76 24.81-18.89-11.24L215.09 832l18.24 10.85c16.39 9.76 24.42 23.23 9.81 47.79-6.1 10.25-14.87 17.41-24.72 16.89l-9 47.14zm20.58-55.45c5 3 11.14-1.23 14.74-7.28 4.84-8.15 3.2-13.81-2.21-16.53l-13.66 23 1.13.85zM235.59 964.97l28.57-76.74-11.31-4.21 9.23-24.77 43.72 16.28-9.23 24.77-11.81-4.39-28.58 76.73zM367.07 888.29l-13.58 69.51c-2.51 12.83-9.66 38.22-34.62 33.34s-22-31.09-19.52-43.92l13.58-69.51 21.57 4.21-13.05 66.84c-.56 2.82-1.38 6.46-1.29 9.4.05 3.09 1 5.62 3.95 6.19s4.88-1.39 6-4.1a48.71 48.71 0 002.31-9.25l13.08-67 21.57 4.22zm9.3 1.05l20.89.89 14.76 65.91.23-.28c-.33-12.52-1.42-24.94-.88-37.42l1.17-27.56 21.1.9-4.62 108.22-21.09-.9-13.7-63.1-.23.27c.1 10.22.64 20.31.21 30.5l-1.35 31.72-21.1-.9 4.61-108.22zm119.36 100.29l-4.79-13.19-14.36 3.41 1.43 14-22 5.22-6-109.89 26.08-6.18 41.77 101.42-22.13 5.24zm-12.6-35l-8.11-23.87c-2.19-6.42-4.2-13-6.28-19.48l-.21.05c.93 6.72 2 13.56 2.71 20.32l2.87 25.16 9-2.13zm54.17-18.49c5.53 3.85 13.06 6.62 18 3.93 2.65-1.44 4.5-5.24 2.23-9.4a10.19 10.19 0 00-4.4-4.47 20.09 20.09 0 00-5.22-1.9c-5.91-1.85-11.22-3.69-16.15-6.89a39 39 0 01-13-14.53c-6-11.09-11.77-34.17 4.68-43.15a28.1 28.1 0 0116.34-2.73l15.77 28.88c-4.89-3.56-12.49-6.45-16.93-4-2.27 1.24-3.84 4.88-1.84 8.53a10.69 10.69 0 004.78 4.27 42.23 42.23 0 005.63 2c6.13 1.56 11.27 3.33 15.79 6.44s8.59 7.42 12.52 14.6c9.63 17.66 8.07 36.84-5.36 44.17a34.26 34.26 0 01-16.6 4l-16.24-29.76zM608.13 936.79l-63.77-87.55 17.77-12.95 63.77 87.56zm40.66-31.9l-56.04-59.71-8.8 8.26-18.09-19.27 34.02-31.92 18.09 19.27-9.19 8.62 56.04 59.71zm50.92-54l-65.53-49.09-7.24 9.65-21.15-15.84 27.97-37.34 21.15 15.85-7.55 10.09 65.53 49.09zM744.55 781.22l-13-5.22-7 13 11.37 8.26-10.79 19.88-85.9-68.8 12.79-23.6 103.42 36.5-10.84 20zm-34.46-13.91l-23.22-9.91c-6.25-2.65-12.51-5.56-18.7-8.31l-.11.19c5.63 3.79 11.43 7.55 17 11.53l20.66 14.64 4.42-8.14zm63.31-56.69L726.76 708l.2.29c5.08 1.57 10.2 3 15.24 4.7l27.42 9.07-6.9 20.86L659.87 709l6.67-20.15c6-18.11 17.41-28.86 44.55-19.89 11.32 3.74 20.2 10.76 21.82 20.49l48-1.39-7.48 22.61zm-58.58-8.13c1.82-5.53-3.61-10.61-10.29-12.82-9-3-14.17-.15-15.66 5.71l25.37 8.39zm-37.08-49.31l2.6-17.48c3.68-24.72 26.41-35 58.81-30.13 49.44 7.37 50.52 31.38 48.55 44.6l-2.83 19-107.13-16zm84.51-9.63c1.33-9.94-14.89-14.1-25-15.6-11.65-1.73-28.11-2.44-29.58 7.47l54.56 8.13z" fill="#1d1d1b"/><path d="M641.78 287.44l-31.68-35.8c-16.19 21.57-31.13 38.93-47 45.5a79.72 79.72 0 01-28 6.15c11.61 13.86 20.05 36.09 22.2 62.1a149.05 149.05 0 01.47 15.41c40.14-16.74 60.26-57.87 83.94-93.36z" fill="#fff"/><path d="M641.78 287.44c-23.68 35.49-43.8 76.62-83.94 93.36-.32 15.07-3 28.77-7.53 39.94a215.19 215.19 0 0066.06-51.16c.72-.84 1.42-1.71 2.13-2.58 11.8-21.4 22.88-50.37 29.69-72.32z" fill="#b2b2b2"/><path d="M648.78 199.88c4.66 7.37 10.16 16.85 16.57 28.09 13.15-23.33 30-42.92 49.08-60.36a187.31 187.31 0 0120.26-26.75c-33.51 2-61.24 28.29-85.91 59z" fill="#fff"/><path d="M665.35 228c.67 1.19 1.35 2.38 2 3.61 3.8 6.69 7.65 13.45 11.25 19.55 8.54-20.22 15.88-39 20.9-51.81l4.58-11.63a130.71 130.71 0 0110.3-20.08c-19 17.44-35.93 37-49.08 60.36zM540.48 335c-5.47-15.79-13.67-27.94-22.72-33.35l-.85-.24a5.24 5.24 0 01-2.11-1.29 18.15 18.15 0 00-8.72-1.51c-16 1.31-28.1 25.51-29.56 56 17.39-15.73 41.32-20 64-19.65z" fill="#b2b2b2"/><path d="M540.48 335c-22.64-.38-46.57 3.92-64 19.65a137.17 137.17 0 00.31 17.37c3.15 38.23 21.86 69.21 40.86 67.65 17.12-1.41 29.7-28.89 29.7-62.31 0-3.64-.15-7.35-.46-11.11a128.61 128.61 0 00-6.41-31.25zm89.26-143.19c5.49 4.4 18.29 26.88 28.56 44.95 11.13 19.56 20.73 36.46 26.83 42.55 1 1 .37 4.77-2.63 9.92l-1.47 2.3a8.09 8.09 0 00-.68 1.26c-.2.55-20.18 54.6-23.65 62.7-2.63 6.13-23.46 40.18-50.5 44.95 27.05-22.12 50.06-96.14 52.88-105.5a5.22 5.22 0 00-1.09-5l-63.13-71.34a5.24 5.24 0 00-9.16 3.56c0 .27.27 27.4-12.15 40a20.07 20.07 0 01-15 6.14 27.88 27.88 0 01-21.05-9.14c-19.76-20.61-21-68.76-20.92-83 13.71-7.71 33.5-27.28 37.28-31.08l11-.49a5.24 5.24 0 10-.47-10.46l-30.37 1.36a129.54 129.54 0 01-3.89-30c0-9.81 1.52-20.12 6.17-28.55a101.71 101.71 0 0011.35 3c1 15.41 5.86 44.49 27.77 57.71l-1.07 17.65a5.24 5.24 0 002.73 4.92c.41.22 41.28 22.45 52.67 31.55z" fill="#fff"/><path d="M653.54 127.31a32.49 32.49 0 01-8.9 2.61c-6.37 1-11.37.65-16.21-1-5.72-1.92-9.15-5.7-13.49-10.5l-.7-.78c-4.41-4.9-10.45-11.62-20.43-9.46a5.257 5.257 0 102.21 10.28c3.66-.79 6 1.29 10.43 6.23l.73.8c3.29 3.64 6.69 7.35 11.26 10.21-6.22 1.55-16.59 1.8-32.47-4.44-20.81-8.17-26.25-34.19-27.63-49.41 7.63 1.09 13.51 1.44 14.17 1.48l8.94-.06c4.91-.21 8.78-.38 14 1.55s7.89 4.87 11 8.29a45.81 45.81 0 009.07 8.13 36.49 36.49 0 0017.87 6.17 4.87 4.87 0 001.07.46c6.75 1.95 10.47 6.95 14.78 12.74 1.54 2.08 3.18 4.24 5 6.32-.21.12-.44.24-.73.38z" fill="#fff"/><path d="M533.64 64.67c-2.25-1.09-3.79-2.21-4.23-3.31a2.73 2.73 0 01.2-2.57c3.27-6.38 20.4-13.42 31.49-16.06s18.73 1.25 27.57 5.74c7.55 3.83 16.13 10.6 26.35 10.53a5.24 5.24 0 00-.08-10.48c-4.92 0-10.06-4.08-14.34-5.92 9.94-2 21.16 4.17 34.34 14.08 19.89 15 36.48 10.7 55.27-.3l.74-.44c18.24-10.69 25.07-14.69 44.43-10.94l3.21.63c7.56 1.5 16.12 3.21 24.7 2.17 5.47-.67 10.14-2.59 14.65-4.44a55.39 55.39 0 019.74-3.25 9.6 9.6 0 011.42.71c-1.81 3.35-13.42 10.12-18.88 11.36-9.77 2.21-20.88.69-31.63-.77l-5.44-.73c-15.85-2-22.21 0-35.87 7.84l-7 4.43c-7.12 4.73-16 11.87-22.19 10.73a5.24 5.24 0 10-1.9 10.3 17.29 17.29 0 004.82.17 141 141 0 00-13.23 5.77c-13 6.24-23.25 11.16-36.58 2.56a36.39 36.39 0 01-7.01-6.48c-3.54-3.85-7.55-8.22-15.1-11-7.2-2.67-12.74-2.43-18.1-2.19 0 0-17.62-1.5-22.22-2.21-19.88-3.06-25.13-5.93-25.13-5.93zm-81.62 165.48c-.66 10.57 2.67 21.38 7 30.76l-92.57 115.94a5.28 5.28 0 00-1.14 3.52c.29 6.14.68 20.89-.63 28.86a205.39 205.39 0 00-53.73 17.19c11.68-16.42 30.07-41.42 41.92-53.29a4.62 4.62 0 00.75-.95l105.7-171c6.52-9.19 25.94-31.07 41.69-29.58-13.3 10.74-47.86 40.34-49 58.57z" fill="#fff"/></g></svg>