<svg id="heracles" xmlns="http://www.w3.org/2000/svg" viewBox="0 0 715.51 1000"><defs><style>.cls-1{fill:#010101}.cls-2{fill:#fff}</style></defs><path class="cls-1" d="M164.74 12h694.58a3.68 3.68 0 013.68 3.68 2.44 2.44 0 010 .27L869.71 487c1.51 106.07-36.27 202.69-100.36 290.11-63.91 87.19-154 165.19-257.35 234.27a3.66 3.66 0 01-4.15 0C404.48 945.45 309.61 862.07 244.23 766.8c-56.77-82.73-91.32-174.44-89.94-271.47l6.79-479.69a3.67 3.67 0 013.66-3.64z" transform="translate(-154.25 -12)"/><path class="cls-2" d="M855.71 19.36H168.36l-6.75 476.05c-1.35 95.39 32.72 185.69 88.69 267.25 64.39 93.84 157.76 176.1 259.6 241.34 101.85-68.3 190.57-145.28 253.53-231.16 63.19-86.19 100.44-181.35 99-285.68l-6.72-467.8z" transform="translate(-154.25 -12)"/><path d="M414.85 671.39c64.26-23.4 110-84.76 110-156.83 0-75.47-50.46-139.28-119.52-160l-2.13-71h-94.88l-2.14 71.86c-67.6 21.58-116.84 84.71-116.84 159.14a166.93 166.93 0 00107.3 155.86l-7 234.13q-53.27-37.23-100.89-88.64l.29-92.57 3.18-126.9a181.19 181.19 0 014.61-172.67l5.28-203.12h-80.36L105.92 714.2c-46.41-61.57-76.55-148-73.57-261.33L43.44 31.41h624.62l11.1 421.43c3 113.3-27.16 199.76-73.58 261.33l-15.83-493.52h-80.33l5.15 198.08A182.79 182.79 0 01519.33 602l3.16 121.34.28 92.57q-47.68 51.29-100.95 88.64l-7-233.13z" fill-rule="evenodd" stroke="#010101" stroke-linecap="round" stroke-linejoin="round" stroke-width="3.58" fill="#010101"/><path class="cls-1" d="M511.34 373.85a153.09 153.09 0 11-108.46 44.73 153.24 153.24 0 01108.46-44.73zm103.29 49.93a144.92 144.92 0 1042.76 102.78 145.95 145.95 0 00-42.76-102.78z" transform="translate(-154.25 -12)"/><path class="cls-2" d="M220.7 202.32V81.41h18.23v51.69h23V81.41h18.23v120.91H262v-54h-23v54zm134.11-17.17v17.17h-51V81.41h51v15.9h-34v35.79h29.89v16.26h-29.9v35.79zm21.85 17.17V81.41h30.85a28.43 28.43 0 0128.82 28.64v11.24q0 16.67-14.38 25.54l18.63 55.49H422l-16.69-51.87h-11.1v51.87zm39.16-70.88a11.24 11.24 0 002.31-4.52 23 23 0 00.65-5.63V110a12.9 12.9 0 00-3.14-9.06q-3.15-3.48-8.87-3.47h-12.56v37.78h12.38a12.27 12.27 0 009.23-3.83zm33.7 70.88l25.75-120.91h17.07l27.49 120.91h-18.91l-4.95-26h-22.76l-4.95 26zm26.58-42.11h16.61l-8.31-43-8.3 43zm113.4 11.57a63.93 63.93 0 01-.65 9.84 24.37 24.37 0 01-3.74 8.95 27.6 27.6 0 01-9.71 8.77 26.47 26.47 0 01-13.54 3.88 32.89 32.89 0 01-15-3.43 23.71 23.71 0 01-10-8.68 29.78 29.78 0 01-4-9.67 51.87 51.87 0 01-.84-9.66V109.6a36.57 36.57 0 011-9 27 27 0 014.39-8.67 27.86 27.86 0 019.44-8 26.11 26.11 0 0112.79-3.35q12.89 0 21.38 8.23t8.5 20.87v6.51h-17.76v-6.57a12.73 12.73 0 00-2.83-8.49c-1.9-2.26-4.7-3.38-8.38-3.38a10 10 0 00-8 3.35 12.62 12.62 0 00-2.83 8.43v62.29c0 1.57 0 3.14.09 4.7s.88 3.59 2.49 6 4.39 3.61 8.44 3.61c4.3 0 7.07-1.05 8.34-3.16a18.53 18.53 0 002.31-4.7 19.42 19.42 0 00.37-4.25v-6.22h17.74v4zm68.39 29.64H607.1V80.5h17v103.75h33.8v17.17zm62.6-16.27v17.17h-54.68V81.41h54.68v15.9H684v35.79h32v16.26h-32v35.79zm30.12-13a34.06 34.06 0 00.29 5.15c.19 1.14 1.15 2.89 2.91 5.24s4.92 3.52 9.56 3.52a16.86 16.86 0 007.16-1.53 11.23 11.23 0 004.83-4 10.08 10.08 0 001.63-5.06c.07-1.75.1-2.92.1-3.52v-8.5a37.6 37.6 0 00-.29-5.42 7.64 7.64 0 00-2.3-3.89 18.91 18.91 0 00-5.76-3.79q-3.74-1.73-13-5a37.53 37.53 0 01-15.64-10.21q-6.33-7-6.33-19.07v-5.42a30.18 30.18 0 0130.5-30.19q13.24 0 22.16 8.77a28.87 28.87 0 018.93 21.42v5.42h-18.27v-5.42a21.6 21.6 0 00-.38-4.34c-.26-1.21-1.28-2.95-3.08-5.24s-4.79-3.44-9-3.44a12.09 12.09 0 00-9.12 3.71 12.94 12.94 0 00-3.54 9.31v5.42a30.63 30.63 0 00.28 5 8.12 8.12 0 002 3.52 14 14 0 005 3.44q3.25 1.44 12.56 4.61A41.8 41.8 0 01788.22 143q7.1 7.14 7.1 19.43v9.76a39.62 39.62 0 01-1.25 10.48q-1.25 4.51-7.77 12.56t-22.45 8q-16.5 0-24-10.21t-7.48-20.87v-4.35h18.22v4.34zM460.79 277.69v-36.18l-7.43 4.58v-6.42l7.43-4.51h7.43v42.53zm18.78-21.49a4.48 4.48 0 01-.67-1.69 17.3 17.3 0 01-.12-2.38v-8.64a5.61 5.61 0 01.59-2.48 19.72 19.72 0 012.74-3.69q2.14-2.48 7.7-2.48 5.25 0 8.26 2.89a9 9 0 013 6.59v6.94a11.24 11.24 0 01-1.25 5L490 277.69h-8.45l8.68-18.25a10.32 10.32 0 01-3.13.7 9.36 9.36 0 01-4.49-1.11 7.08 7.08 0 01-3-2.83zM490 240.88a3.66 3.66 0 00-2.84 1 3.4 3.4 0 00-1 2.45v6.91a3.46 3.46 0 001 2.59 4.08 4.08 0 003 1 3.16 3.16 0 002.57-1 3.89 3.89 0 00.84-2.62v-6.91a3.65 3.65 0 00-.84-2.52 3.55 3.55 0 00-2.8-1zm25.15 36.87q-8.22-1.28-9.55-7.82v-27.34a8.5 8.5 0 015.4-6.67 18.15 18.15 0 0110-.7 20.07 20.07 0 014.53 3 8.07 8.07 0 012.35 4.41v27.17c-.73 4.12-3.44 6.74-8.14 7.89h-4.61zm.78-6.1q3.43 0 4.38-2.48v-25.62a9.15 9.15 0 00-1-1.91q-2.26-1.39-3.83-.6a4.71 4.71 0 00-2.27 2.51V269a3.53 3.53 0 002.74 2.61zm38.41-3.75v1.76a11 11 0 01-.27 1.49 9.66 9.66 0 01-4.15 5 12.85 12.85 0 01-7 1.91 11.85 11.85 0 01-5.87-1.53 8.85 8.85 0 01-3.6-3.15 14.11 14.11 0 01-1.13-2.6 11.26 11.26 0 01-.28-2.83v-2.48h7.44v3.49a3.85 3.85 0 00.82 1.85 3.21 3.21 0 002.81 1.11 3.46 3.46 0 002.9-1.11 4.54 4.54 0 00.86-2.83v-6.55a2.52 2.52 0 00-.94-2.23 4.54 4.54 0 00-1.84-.76 14.49 14.49 0 00-1.92-.13h-1.33v-5.34h1.33c3.13 0 4.7-1.17 4.7-3.54v-5.06a5 5 0 00-.12-1.29 3.75 3.75 0 00-.94-1.26 3.34 3.34 0 00-2.54-.86 4 4 0 00-2.9.94 3.37 3.37 0 00-.93 2.46v3.08H532v-3.11a8.48 8.48 0 013.17-6.71 12.06 12.06 0 018.1-2.7 12.8 12.8 0 015.33 1.08 10 10 0 013.75 2.67 8.75 8.75 0 011.61 2.83 9.61 9.61 0 01.39 2.77v5q0 4.13-4.46 6.29a10.13 10.13 0 013.48 2.83 6.73 6.73 0 011 3.85v5.72z" transform="translate(-154.25 -12)"/><path class="cls-1" d="M494.83 590c10.19 3.6 21.9 9.16 32.87 12.12 2.52 6.65-.26 15.1 8.36 19.37 2.65 1.41 13 .66 20 3 .54 2.33 4.8 11.41 5.52 13.7.84 2.62 2.28 5.12 2.95 7.78.49 2 3 4.7 2 6.25-5.35 1.74-17 2.83-25.54 5.43a4.77 4.77 0 01-.88.29l-13.08.48c-3.08.11-11.68-.42-14.93-.49-2.39 0-22-1.58-22.47-1.49a152.64 152.64 0 012.59-16c.45-5.29 0-17 .23-19.38.46-3.93 1.82-13.91 2.38-16.3.34-1.43-.05-2.91.26-4.3.41-1.85-.35-8.57-.26-10.45zM568 572c.59.16 1.47-1.27 2.06-1.11.55-.16 1.14-.33 1.69-.45l1.65-1c.38-.12.76-.25 1.18-.37a9.19 9.19 0 004.3-1.64c1.22-.78 2.83-.57 4.13-1.15a3.72 3.72 0 001.27-1.76 4.13 4.13 0 00-1.23-2.62 8.46 8.46 0 00-6.56-.3c-4.37 1.88-10.06 6.07-8.49 10.38zm15.52-30.56c2.07-.37 3.91-1.64 6-1.89a2.38 2.38 0 012.4 1.68 8.22 8.22 0 01-1.09 5.53c-.42.78-1.27 1.42-1.48 2.3a4.21 4.21 0 00.42 3 31.05 31.05 0 012.79 7.21c3 11.84.66 7.94.67 16.87 0 1.68-.42 3.6.68 5 1.74 2.22 4.17 3.91 6 6.06.73.85 1.87 1.57 2 2.67.88 8.38 3.9 11.8 7 19 1.43 3.36 1.91 3.59-1.27 7.05-1.21 1.32-10.18 3.22-12.87 4-.45.13-13.83 3.81-14.2 3.84-1.45.08-2.52-1.34-3.72-2.09-19-11.84-30.69-18.65-50.65-31.3-.22-.14-.78-.1-1-.21-6.91-3.25-13.81-6.64-20.88-9.58-2.41-1-5.19-1.56-6.83-3.69 1.22-.74 2.6-1.85 2.06-3.44a22.4 22.4 0 01-1-4.71c-.09-.86.69-1.59 1.18-2.29s1.05-1.73 1.61-2.58c1.76-2.68 3.39-5.39 5.14-8.07.65-1 1-2.32 2.24-2.79a9.25 9.25 0 017.55.45 8.17 8.17 0 005.65.9c.23 0 8.17 1 8.46 1.06 1.27.29 2.82 2.66 3.43 4.14s1 3.37 2.49 4.31a2.25 2.25 0 001.39.49c2-.31 2.88-2.41 3.17-4.22.09-.57.34-1.27.88-1.31.83-.07 1.52.76 1.86 1.47 1 2.18.31 4.92 1.9 6.88a5.38 5.38 0 004.3 2.22c.66-.05 1.07-.76 1.6-1.15.14-.11.53-.34.59-.53a7.93 7.93 0 00.26-4.26 17.29 17.29 0 01-.3-5 3 3 0 01.93-1.68 3.28 3.28 0 011.43-1c2.11-.6 3.47 1.29 5.7 1.31 2.65 0 4.64 2.41 7.21 2.86.28 0 .79-.36 1-.53 2-2 3.91-4.07 6-5.94 1.89-1.66 5.35-1.28 6.79-3.32 1.24-1.75-1.94-2.92-2.95-4.38a5 5 0 01-1-3.44c0-.26.42-.83.71-.86 1.89-.22 3.83.25 5.7-.08zm-61.71-10.61c.57-.16 10.92.57 15.61 2.17a43.05 43.05 0 004.43 1.19c1.64.36 11 3.54 11.39 3.56a1.86 1.86 0 011.3.37 4 4 0 011.18 2c.08.45-.36.89-.67 1.23a6.47 6.47 0 01-3 2c-2.11.54-3.7-1.91-6.41-1.8-4.21.17-8.54-.59-12.61.41-2.11.52-4.13 1.58-6.37 1.43s-4.58.36-6.83 0a2.28 2.28 0 01-1.69-1.63c-.59-1.93 1-3.5 1.52-5.21a46.07 46.07 0 012.19-5.69zm-33.27-12.62c6.31 3.3 16.7 6.86 23.74 8.73-.25 1-18.91 25.9-20.06 27.46-2.63 3.56-2.68 5.69-3 10.77-.3 4.31-4.36 25.63-5.06 31.25-.9 7.27-1.45 19.84-3.72 29.08-1.66 6.78-5.17 18.21-7.72 25.2.62.2-7.54-4.6-11.74-8.37a4.33 4.33 0 00-5.4-.37 6 6 0 01-4 1.77c-2.6-.13-18.15-12.4-20.41-13.93 4.65-7 8.53-11.92 10.93-19.75 2.57-4.13 6.83-6.88 10.37-10.16 2.73-2.2 5.35-4 1.6-10.65a4.56 4.56 0 00-2-2.37c.75.18 15.63-39.07 17.75-45.27 5-8 13.65-15.54 18.74-23.39zm-26.28-12.62c2.47 1.73 13.61 6.06 17.42 8.07-2.79 2.72-14.85 12.4-19.15 14.75-1.26 2.13-2.06 4.43-3.25 6.56-10.47 22.79-33.49 61.81-39.68 80.86-4.84-8.32-14.9-19-20.51-27.12-.76-.78.26-1.6.64-2.25 2-2.09 3.71-4.47 5.56-6.68 1.12-6.93 2.12-15 3.63-21.71 4.68-2.39 27.27-25.8 33.41-31.38 7.05-6.41 14.35-16 21.93-21.1zm128.47 1.52c1.88-.43 3.3-1.73 5.15-2.17.89-.21 2.22-.18 2.57.61.63 1.44.08 3.22-.8 4.63a9.85 9.85 0 00-1.52 2.79c-.73 3.09-2.6 6.33-1.43 9.42.34.9 1.44 1.27 2 2 .9 1.31.78 3.59-.72 4.34a3.56 3.56 0 01-2.53.33 2 2 0 01-1.14-2.09 10.81 10.81 0 00.3-3.81c-.27-1.14-.68-2.24-1-3.36-.1-.37-.57-.66-.59-1-.15-2.09.27-4.2 0-6.23-.12-.84-1-1.37-1.44-2.09-.66-1.18-.36-3.05 1.14-3.4zm-36.86-4a16.83 16.83 0 016.49-2 23.79 23.79 0 016.33 1.07 13.75 13.75 0 013.37 1.22 12.7 12.7 0 004.26 1.64c2.76.43 5.25 2.41 5.44 5 .07.87-.73 1.63-.88 2.46a8.5 8.5 0 01-4 5.94c-1.94 1.12-3.84 2.48-6.07 2.7-2.69.27-3.76-2.89-5.74-4.26a4.36 4.36 0 00-1.68-.78c-.92-.15-1.8.33-2.75.33s-2-.93-2.95-1.43c-.16-.08-.38-.46-.59-.49-2.22-.34-4.25.56-6.49.69-1.42.08-2.51 2.42-3.88 1.85s-1.64-2.39-2-3.73a3.62 3.62 0 01.72-3c2-3 3.41-5.63 7.89-6.35a10.51 10.51 0 002.57-.94zm-107.47-44c3.14 2.85 11.66 15.18 14.81 19.54-.66 2-1.12 17-1.14 19.13-7.64 4.05-16.6 7.54-24.21 11.55a15.66 15.66 0 00-4.6 3.73c-5.58 7.16-17.48 15.83-24.34 23.53-8.06 9.06-11.78 9.45-20.83 16.54-1.12 0 3.47-22.43 4.13-25.57-1.25-.51-9.1-8.52-10.46-9.87-.09-2.83.55-5.61.42-8.44a24.57 24.57 0 003.25-2.33c-.41-.73-1.08-9.84-1.44-10.82-.8-2.21 1-4.17 3-4.63.82-.18 3.94-1.42 5-1.59 1.7-.28 3.41.2 5.14.24s3.5-1.14 4.77-2.41c5-5.1 13-10.67 16.91-14.83 1.89-2 26.6-12.69 29.61-13.77zm166.75-7.64c2.36 1.39 3.93 3.72 5.63 6.94 1.35 2.57 1.81 7.71 1.59 10.58-.36 4.48-3.82 8.2-5.58 12.36-1 2.41-.64 5.47-2 7.72-1.47 2.45-3.32 5.15-6.38 6.18.14-4.63.82-7.1-.39-11.58-.9-3.29-5.73-3.56-5.58-10.43.09-4.18 4.5-6.28 6.37-10 1.75-3.52 2.89-13.77 6.33-11.73zm-143.52 16.86c3.55 8.73 1.88 19.66 5.63 28.31 1.46 3.38 5.3 3.09 8.45 5.12 2.84 1.84 6.44 4.37 9.85 4.1 8.7-.7 18.24-.31 25-2.05s4.62-13.76 10.56-17.06c6.73-3.74 16.28 1.66 23.22-1.71 4.7-2.27 3.45-8.88 8.1-11.25 2.53-1.3 3.62 2.4 4.22 5.11 1 4.45-1 10.18 0 13.31 1.28 4 4.92-7.13 8.45-9.55 3.15-2.17 7.35-2.31 10.91-3.76 3.72-1.51 8.23-2.18 10.91-5.11 1.55-1.71 1.05-4.79 0-6.83-1.26-2.45-4.19-3.68-6.34-5.46-1.84-1.52-5.06-2.15-5.63-4.43-.69-2.76-.09-5.47 2.82-5.8s.33 5.12 3.17 5.12 2.73-4.84 3.16-7.51c.3-1.83 3.78-2.62.71-5.46-1.91-1.76 4 1.69 4.92 4.09.81 2.21-2.87 4.14-2.81 6.49s2.86 3.24 3.17 6.82c.17 2 3.62-2.3 4.57-4.09a14.17 14.17 0 001.76-7.85c-.34-3.37-.79-6.43-3.52-8.53s-6.9-1.18-10.2-2.05c-3.71-1-6.81-3.67-10.56-4.43-6.46-1.31-12.76-1.31-19.36-1.37-5.77-.05-11.92 2-17.6 1-4.7-.81-6.2-5.7-10.91-6.49-18.32-3.07-27.37 2.65-33.78.69-2.5-.7-4.5-2.7-6.7-4.07-4.92-3-5.15-8.08-14.43-8.19-6.69-.07-12.2 6.06-16.19 11.26-2.81 3.68-1.65 8.73-1.76 13.31-.13 5.76-1.37 11.8 1.06 17.06 1.87 4 7.47 7.14 9.15 11.26zm-78.13 9.21c5.63-3.53 12.47-6 18.3-9.21 7-3.85 13.23-7.44 20.41-10.92 5.26-2.55 12.46-2.76 16.19-7.17 3.43-4.05 2.35-12.62 3.52-17.74-5 2.62-10.65 4.15-15.84 6.49-8 3.58-15.94 7.59-24.28 10.23-3.25 1-6.8 2.73-10.21 3.07.59 3.41 2.63 6.88 1.76 10.24-.81 3.13-4.22 5-6.33 7.5-1.18 2.5-2.35 5-3.52 7.51zm18.65-36.17l40.12-18.08c3.4-4.21 5.67-9.58 10.21-12.62a33 33 0 0117.24-5.8c5.34-.11 10.56 2.44 15.14 5.11 2.51 1.47 3.52 4.55 5.28 6.83l23.93 1.36c-4.46-4.66-7.69-10.82-13.38-14-4.3-2.39-9.89-.87-14.78-1.7-6.5-1.11-12.75-4.26-19.35-4.1a56.9 56.9 0 00-21.47 5.12 82 82 0 00-20.41 13.65c-8.3 7.32-15 16.15-22.53 24.22zm63.71-9.12c-.56-.93-.59-2.56.28-3.24 1.08-.85 2.82-.59 4.18-.27 2.18.51 4.63 1.09 6.13 2.7a7.18 7.18 0 011.95 5.95c-.6 3-1.92 6.62-4.73 8.1-1.73.91-4.37-1.18-5-3-.82-2.25 2-4.72 1.39-7-.45-1.67-3.28-1.74-4.18-3.24zM512 439c-1-.56-.34-2.58.56-3.25 1.78-1.31 4.22-1.46 6.41-1.89 3.31-.65 6.73-2 10-1.35 2.73.57 5.68 2.35 6.69 4.87.7 1.72-1.2 3.82-2.78 4.86a8.6 8.6 0 01-5.86.81c-2.3-.36-4.16-2.1-6.41-2.7-2.81-.76-6.12.08-8.64-1.35z" transform="translate(-154.25 -12)"/><path d="M510.68 861l21.93 57.89-21.93 57.4-24.12-57.4L510.68 861zm-32.6-84.63L500 834.29l-21.94 57.4-24.06-57.4 24.11-57.88zm66.64 0l21.94 57.88-21.94 57.4-24.11-57.4 24.11-57.88z" transform="translate(-154.25 -12)" fill="#12a9de" fill-rule="evenodd"/></svg>