<svg viewBox="0 0 809.03 1000" xmlns="http://www.w3.org/2000/svg"><path d="M0 0v602.15C0 821.66 181.51 1000 404.51 1000s404.51-178.34 404.51-397.55l-.2.19c0-.73.2-1.36.2-2.16V0H.02z" fill="#fff"/><path d="M427.51 354.06h115.85v38.74H427.51v146.05a131 131 0 01-22.33 2 129.43 129.43 0 01-23.67-2.27V392.8H267.02l.06-38.74h114.43V238.8H24.67V571h138.84V455.15l38.74.1V571h146.08a130.47 130.47 0 012 22.32A128.58 128.58 0 01348.1 617H202.27v114.5h-38.74V617H24.99c7.52 192.12 163.08 346.94 357.92 357.7V833.47H267.03l.06-38.77h115.82V648.65a126.31 126.31 0 0122.32-2 128.59 128.59 0 0123.59 2.23V794.7h114.52v38.77H428.82v141.07c194-12.06 348.45-167 355.26-358.92H646.87V731.5h-38.74V615.62H462.04a130.2 130.2 0 01-2-22.32 128.84 128.84 0 012.23-23.59h145.86V455.15l38.74.1v114.46h137.48V238.79H427.51v115.26z" fill="#6cc2ee"/><g fill="#265aa7"><path d="M495.88 683.17a134.4 134.4 0 00-67-34.32v145.82h114.48c-.1-40.47-15.29-77.08-39.84-103.82q-4-3.69-7.64-7.68m-67.05 150.31v141.07a384.83 384.83 0 00114.49-24.89V833.48zm-161.79 0v116.64a384.47 384.47 0 00115.88 24.59V833.48zM306.87 691c-24.49 26.71-39.67 63.32-39.77 103.72h115.82v-146a133.58 133.58 0 00-68.31 34.46c-2.46 2.75-5.05 5.31-7.74 7.84"/><path d="M314.61 683.17A134 134 0 00348.1 617H202.27v114.51c40.89-.09 77.86-15.58 104.63-40.53 2.66-2.56 5.25-5.12 7.71-7.81M163.51 617H24.99a365.76 365.76 0 0023.05 114.49h115.47zm0-161.81H24.67v115.88h138.84zm139.77 37.34c-26.45-23-61.94-37.21-101-37.27V571h146.05a133.34 133.34 0 00-30.26-63.55 143.16 143.16 0 01-14.79-15"/><path d="M318.07 507.55a133.37 133.37 0 0063.49 31V392.8H267.03c.11 38.44 13.83 73.46 36.25 99.73a145.69 145.69 0 0014.79 15m63.49-268.69H267.1v115.22h114.46zm161.8 0H427.51v115.22h115.85zM427.51 538.85a133.75 133.75 0 0064.75-31.3 142 142 0 0114.72-14.92c22.45-26.34 36.21-61.36 36.34-99.83H427.51z"/><path d="M492.26 507.55a133.24 133.24 0 00-30 62.16h145.85V455.16c-39.14.13-74.69 14.32-101.13 37.47a142 142 0 00-14.72 14.92m154.62 62.16H784.4V455.26H646.88zm0 161.8h114.09a366.26 366.26 0 0023.13-115.88H646.88zM462.06 615.63a133.45 133.45 0 0033.82 67.54c2.43 2.66 5 5.22 7.64 7.71 26.74 25 63.76 40.47 104.62 40.6V615.63z"/></g><path d="M24.67 238.84h759.69V24.71H24.67z" fill="#e73234"/><path d="M86.33 123.26h6.42c9.35 0 11.57-7.35 11.57-15.69 0-9.6-2.49-16.91-12-16.91h-6zM62.91 69h36.26c24.69 0 29.42 22.34 29.42 37.83 0 22.3-8.52 38-31.94 38H86.33v48.64H62.91zm71.91 0h57.61v23.71h-34.18v24.92h32.08v23.71h-32.08v28.4h35.71v23.72h-59.14zm111.43 43.26c0-18.11-1.68-26.12-9.49-26.12-9.34 0-10.17 11.13-10.17 43.72 0 37 1 46.56 10.73 46.56 8.66 0 9.64-12.37 9.76-31.73h22.6v4.36c0 26.83-6 46.89-35 46.89-30 0-32.34-28.07-32.34-65.54 0-31.89 1.38-63.79 34.59-63.79 20.64 0 31.94 11.13 31.94 40.41v5.24zm51.82 59.63l33.75-79.15h-31.1V69h58v20.59l-34.21 80.18h34.19v23.72h-60.63zM364.91 69h23.42l8.64 80h.27l10.36-80h21.73l11.18 80h.26l8.37-80h22.59l-17.28 124.49h-25.94l-10.33-79.86h-.27l-9.47 79.86h-26zm147.6 107.42c9.5 0 10.86-11 10.86-45.15s-1.41-45.13-10.86-45.13c-9.17 0-10.6 11-10.6 45.13s1.43 45.15 10.6 45.15m.16 19.52c-30.86 0-35.05-25.13-35.05-64.67s4.19-64.7 35.05-64.7c33.19 0 35 30.2 35 64.7s-1.83 64.67-35 64.67M559.83 69h23.46v100.77h33.89v23.72h-57.35zm64.59 0h23.42v100.77h33.92v23.72h-57.34zM689 69h57.58v23.71h-34.15v24.92h32.08v23.71h-32.1v28.4h35.72v23.72H689z" fill="#fff"/></svg>