<svg viewBox="0 0 915.08 1000" xmlns="http://www.w3.org/2000/svg"><path d="M75.25 512.36C-32.46 250.42 7.08 0 7.08 0H908s39.54 250.42-68.17 512.36C700.66 850.93 457.54 1000 457.54 1000S214.42 850.93 75.25 512.36z" fill="#ffe700"/><path d="M149.17 607.7l1.05 2c120.19 225.16 307.32 355.61 307.32 355.61s187.13-130.45 307.32-355.63l1.1-2.07H588.64l-.16.24a780.26 780.26 0 01-130.94 148.33 780 780 0 01-131.1-148.57H150.12z" fill="#1d1d1b"/><path d="M475.09 842.84a13 13 0 00-6.2 2.87c-2.46 2.18-3.39 4.77-1.75 6.62 1.13 1.27 2.28 1.49 4.59.7l3.45-1.24c3.89-1.4 6.67-1.08 8.75 1.26 3.9 4.39 2.94 10.67-2.64 15.62a18 18 0 01-9.2 4.43l-.95-4.21a14.89 14.89 0 008-3.57c2.59-2.3 3.39-5.36 1.68-7.29-1.35-1.51-2.7-1.71-5.4-.78l-3.25 1.13c-3.65 1.26-6.2 1-8.39-1.43-3.28-3.7-2.7-9.57 2.76-14.42a15.71 15.71 0 017.61-3.82zm5.3-17.84a3.65 3.65 0 11.2-5.12 3.59 3.59 0 01-.2 5.12zm18.15 27l-3.87 3.58-14.27-24 3.43-4.29zm11.28-38.82l11 17.67-3.63 3.5-10-16a15.16 15.16 0 00-1.65-2.35 2.16 2.16 0 00-3.49-.07c-1.5 1.45-2.73 4.84-2.21 10.2l9.7 15.57-3.59 3.47-10.41-16.85a20.21 20.21 0 00-2.5-3.38 9 9 0 00-2.18-1.71l2-4.77a9 9 0 012.84 2 11.21 11.21 0 011.36 1.81 13.36 13.36 0 013.66-11.07 5.1 5.1 0 017.76.14 11.51 11.51 0 011.34 1.84zm27.84-12.33a24.93 24.93 0 002.91 3.77 4.91 4.91 0 003.08 1.56l-1.55 4.56a6 6 0 01-4.21-1.9l-.51-.5a11 11 0 01-2.93 9.65c-3.77 3.84-7.92 3.3-12.23-.93a21.9 21.9 0 01-6.59-15 13.87 13.87 0 013.75-9.47 12.4 12.4 0 014.7-3.38c0-.12-1.58-2.39-2.29-3.47L516.6 778l4.05-2.95zm-15.42-5.21a8.6 8.6 0 00-2.11 6.15c.26 3.57 3.15 8.86 5.93 11.59 2.35 2.3 4.45 2.59 6.18.83 2-2 2.89-5.62 1.68-10L526.48 793a8.15 8.15 0 00-4.24 2.64zm24.92-24.48a12.9 12.9 0 00-5.9 3.44c-2.24 2.41-2.92 5.07-1.11 6.75 1.24 1.16 2.41 1.27 4.63.26l3.32-1.55c3.74-1.76 6.54-1.71 8.83.42 4.29 4 3.94 10.34-1.15 15.81a18 18 0 01-8.74 5.28l-1.35-4.11a14.81 14.81 0 007.61-4.31c2.36-2.53 2.87-5.65 1-7.41-1.49-1.39-2.85-1.45-5.44-.27l-3.14 1.43c-3.51 1.6-6.07 1.61-8.48-.63-3.62-3.36-3.6-9.26 1.38-14.61a15.75 15.75 0 017.21-4.53zm33.55-9.91l3.28-3.77 2.52 3.37-10.05 11.54-2.49-3.4 3.46-4-11-14.61a49.2 49.2 0 01-2.29 8.41l-2.87-1.56 2.27-12.69 2.49-2.85zm22.62-16.72a39.43 39.43 0 01-4.46 19.4l-3.79-.51c4.42-8.17 5.17-18.88 1.88-25.39a12.25 12.25 0 01-3 7.42c-3.15 3.8-8.77 4-13 .55a14.5 14.5 0 01-1.69-20.58c4-4.86 9.77-5.16 14.88-.92s8.84 11.41 9.18 20.03zm-21.6-15.91c-3 3.63-2 9 2.52 12.7 2.95 2.46 5.92 2.49 7.91.09a12.71 12.71 0 002.52-7.26 19.23 19.23 0 00-4.34-5.59c-3.04-2.56-6.43-2.56-8.61.06zm40.09-15.53a14.8 14.8 0 01-3.18 10c-4 5.1-8.86 5.55-13.92 1.6-4-3.14-7.63-8.6-8.23-13.45a14.39 14.39 0 013.05-10.77c4-5.1 9-5.57 14.12-1.59 4.31 3.35 7.88 9.2 8.16 14.21zm-19.63-9.46a7.48 7.48 0 00-1.54 6.17c.65 3.71 4.49 8.51 7.43 10.81 3.29 2.57 5.7 2.15 7.93-.7a7.37 7.37 0 001.66-5.87c-.59-3.8-3.92-8.28-7.63-11.18-3.21-2.5-5.65-2.05-7.85.77zm28.62-16.45a7 7 0 019-.51c6.1 4.49 6.66 14.92-1.44 25.92a18 18 0 01-2.03 2.41l-3.22-1.83a24.91 24.91 0 002-2.39c2.8-3.8 4.75-8 4.71-11.59-.05-3.17-1.36-6.38-3.44-7.91a4.68 4.68 0 00-5.73-.27c-1.17.85-2 1.87-3.91 4.48l-.68.93-2.53-2.91a10.38 10.38 0 00.83-1c1.59-2.16 3.05-4.15 3.42-5.86a6.85 6.85 0 00-2.61-6.82c-2.08-1.53-4.37-.9-6.26 1.66-1.69 2.3-2.58 5.73-2.8 9.45l-3.5-.33c.2-5.09 1.34-9.51 3.91-13 3.21-4.38 7.85-5.4 11.25-2.9s4.83 7.52 3.03 12.47z" fill="#ffe700"/><path d="M585.32 158.02h-85.33V35.85h85.3l.24.02v31.82h-53.96v11.64h45.81v30.81h-45.81v13.97h53.96v33.91zm72.84 0h31.06V35.85h-31.06v58.24l-30.57-58.24h-31.57v122.17h31.57V96.5zm41.23 0V35.85H732v87.49h46.85v34.68zm-343.57-57.03h22.78v22.6h-22.78zm-79.77-65.14h-34.52l33.43 122.17h37.14l33.43-122.17h-34.52l-17.48 72.56zm-212.34 0H29.2l33.42 122.17h37.15L133.2 35.85H98.68L81.2 108.41zm106.15 0h-34.51l33.42 122.17h37.15l33.43-122.17h-34.52l-17.48 72.56zm255.12 0h-34.51l33.42 122.17h37.15l33.43-122.17h-34.52l-17.48 72.56zM833.28 160.33c-30.91 0-53.13-26.23-53.13-63.83s19.87-63.82 53.13-63.82 53.13 26.22 53.13 63.82-22.22 63.83-53.13 63.83zm0-31a17.76 17.76 0 0013.43-6c5.44-5.87 7.13-11.49 7.13-26.31 0-15.16-1-21.1-5.94-27-3.47-4.18-9.91-5.35-14.62-5.35-4.7 0-11.15 1.17-14.62 5.35-4.89 5.91-5.94 11.85-5.94 27 0 14.82 1.69 20.44 7.13 26.31a17.75 17.75 0 0013.43 6z" fill="#1d1d1b"/><path d="M584.07 358.19a126.53 126.53 0 11-126.53-126.53 126.53 126.53 0 01126.53 126.53z" fill="#fff"/><path d="M375.84 354.99l15.53 55.91-20.02 20.71-22.43-38.31 1.03-43.14zm-13.46-48.31l20.01-38.66 39-20.01 8.63 25.53-40.03 42.45zm53.14 139.77l13.46 24.15h57.11l13.46-24.15-42.01-11.74zm123.72-91.46l-15.53 55.91 20.02 20.71 22.43-38.31-1.04-43.14zm13.46-48.31l-20.02-38.66-38.99-20.01-8.63 25.53 40.03 42.45zm-60.4 60.39l-12.76-47.63h-44l-12.77 47.63 34.77 24.85z" fill="#1d1d1b"/><path d="M433.54 233.94a126.56 126.56 0 000 248.5v96.18H134.26l-.29-.57C53.81 415.67 33.77 274.87 32.8 188.3h149.09s11.13 102.81 45.9 209.49c30.37 93.21 66.95 165.65 66.95 165.65V188.28h138.8v45.29zm48.07 248.74v95.94h299.21l.28-.57c80.17-162.38 100.21-303.18 101.18-389.75H733.19s-11.13 102.81-45.9 209.49c-30.37 93.18-67 165.65-67 165.65V188.28H481.54v45.64a126.56 126.56 0 010 248.5z" fill="#1d1d1b"/></svg>