<svg xmlns="http://www.w3.org/2000/svg" xmlns:xlink="http://www.w3.org/1999/xlink" viewBox="0 0 600 300"><clipPath id="cp"><path d="M0 0v75h350v75h-50zm300 0H150v200H0v-50z"/></clipPath><path fill="#00247d" d="M0 0h600v300H0z"/><path d="M0 0l300 150m0-150L0 150" stroke="#fff" stroke-width="30"/><path d="M0 0l300 150m0-150L0 150" stroke="#cf142b" stroke-width="20" clip-path="url(#cp)"/><path d="M150 0v200M0 75h350" stroke="#fff" stroke-width="50"/><path d="M150 0v200M0 75h350" stroke="#cf142b" stroke-width="30"/><path d="M300 0v150H0v150h600V0z" fill="#00247d"/><g transform="translate(450 150)"><g id="s1" transform="translate(0 -102)" fill="#fff"><g id="c"><path id="t" d="M0-22.5V0h12" transform="rotate(18 0 -22.5)"/><use xlink:href="#t" transform="scale(-1 1)"/></g><use xlink:href="#c" transform="rotate(72)"/><use xlink:href="#c" transform="rotate(144)"/><use xlink:href="#c" transform="rotate(216)"/><use xlink:href="#c" transform="rotate(288)"/></g><g id="s7"><use xlink:href="#s1" transform="rotate(24)"/><use xlink:href="#s1" transform="rotate(48)"/><use xlink:href="#s1" transform="rotate(72)"/><use xlink:href="#s1" transform="rotate(96)"/><use xlink:href="#s1" transform="rotate(120)"/><use xlink:href="#s1" transform="rotate(144)"/><use xlink:href="#s1" transform="rotate(168)"/></g><use xlink:href="#s7" transform="rotate(168)"/></g></svg>