<svg xmlns="http://www.w3.org/2000/svg" xmlns:xlink="http://www.w3.org/1999/xlink" viewBox="0 0 1200 600"><defs><clipPath id="Canton"><path d="M0 0h600v300H0z"/></clipPath><clipPath id="Diagonals"><path d="M0 0l300 150H0zm300 0h300L300 150zm0 150h300v150zm0 0v150H0z"/></clipPath><g id="Pentagram"><g id="Arm"><path d="M0 0v.5L1 0z" transform="translate(0 -.325)"/><path d="M0 0v-.5L1 0z" transform="rotate(-36 .5 -.162)"/></g><use xlink:href="#Arm" transform="scale(-1 1)"/><use xlink:href="#Arm" transform="rotate(72 0 0)"/><use xlink:href="#Arm" transform="rotate(-72 0 0)"/><use xlink:href="#Arm" transform="scale(-1 1) rotate(72)"/></g></defs><path fill="#00247d" d="M0 0h1200v600H0z"/><g id="Flag_of_the_United_Kingdom"><path id="Saint_Andrews_Cross" stroke="#fff" d="M0 0l600 300M0 300L600 0" stroke-width="60" clip-path="url(#Canton)"/><path id="Saint_Patricks_Cross" stroke="#cc142b" d="M0 0l600 300M0 300L600 0" stroke-width="40" clip-path="url(#Diagonals)"/><g id="Saint_Georges_Cross"><path stroke="#fff" d="M300 0v300M0 150h600" stroke-width="100" clip-path="url(#Canton)"/><path stroke="#cc142b" d="M300 0v300M0 150h600" stroke-width="60" clip-path="url(#Canton)"/></g></g><g id="Southern_Cross"><g id="Gamma_Crucis"><use xlink:href="#Pentagram" fill="#fff" transform="matrix(45.4 0 0 45.4 900 120)"/><use xlink:href="#Pentagram" fill="#cc142b" transform="matrix(30 0 0 30 900 120)"/></g><g transform="rotate(82 900 240)"><g id="Delta_Crucis"><use xlink:href="#Pentagram" fill="#fff" transform="rotate(-82 519.022 -457.666) scale(40.4)"/><use xlink:href="#Pentagram" fill="#cc142b" transform="rotate(-82 519.022 -457.666) scale(25)"/></g><g id="Beta_Crucis"><use xlink:href="#Pentagram" fill="#fff" transform="rotate(-82 668.57 -327.666) scale(45.4)"/><use xlink:href="#Pentagram" fill="#cc142b" transform="rotate(-82 668.57 -327.666) scale(30)"/></g></g><g id="Alpha_Crucis"><use xlink:href="#Pentagram" fill="#fff" transform="matrix(50.4 0 0 50.4 900 480)"/><use xlink:href="#Pentagram" fill="#cc142b" transform="matrix(35 0 0 35 900 480)"/></g></g></svg>