<svg id="almere-city-fc" xmlns="http://www.w3.org/2000/svg" viewBox="0 0 1000 1000"><defs><style>.cls-2{fill-rule:evenodd}.cls-2,.cls-3{fill:#fff}</style></defs><path d="M512 12c276.14 0 500 223.86 500 500s-223.86 500-500 500S12 788.14 12 512 235.86 12 512 12z" transform="translate(-12 -12)" fill-rule="evenodd" fill="#e21e26"/><path class="cls-2" d="M512 25.45c268.72 0 486.55 217.83 486.55 486.55S780.72 998.55 512 998.55 25.45 780.72 25.45 512 243.28 25.45 512 25.45zm0 31.93c251.08 0 454.62 203.54 454.62 454.62S763.08 966.62 512 966.62 57.38 763.08 57.38 512 260.92 57.38 512 57.38z" transform="translate(-12 -12)"/><path class="cls-2" d="M512 193.51c175.9 0 318.49 142.59 318.49 318.49S687.9 830.49 512 830.49 193.51 687.9 193.51 512 336.1 193.51 512 193.51zm-189.3 83.61c17.81 10.67 39.2 24.17 55.05 37.9 32.44 28.13 62.91 58.59 95.33 84.61 18.44 14.81 63.53 32.07 101.38 32.63 26 .38 56.87-7.1 85.2-16.6 47.63-16 90.93-37 112.48-56.49C719.7 270.1 622.84 210.32 512 210.32a300.38 300.38 0 00-189.3 66.8zm472.5 130.69c-38.11 26.49-72.26 47.19-117.41 59.71 31.83 17 53 33.4 66.18 53 19.3 28.69 20.27 64.75 14.78 100-57.76-12-107.76-9.91-150.5-1.36-30 6-66.83 32.32-102.31 74.17-25.07 29.56-41.21 68.67-58.94 113.3a302.71 302.71 0 0065 7c166.61 0 301.68-135.07 301.68-301.68a301.08 301.08 0 00-18.48-104.14zM380.62 784.12C413.4 717.93 432 675.6 456.83 647.74c20.64-23.19 58.78-53.93 104.21-70.06 48.33-17.16 111.43-11.68 138.59-10.3 5.86-56.05-90.55-69.06-108.78-72-21.57-3.52-45.33-3.86-68.56-6.95C436.56 477 380.94 404.21 350.92 379.1c-24.68-20.64-50.93-38-79-49.83-38.63 50.73-61.6 88.43-61.6 182.73s69 223.48 170.3 272.12z" transform="translate(-12 -12)"/><path class="cls-3" d="M209.48 313.22l23.16 5.9 8.36-13.35-82-20.44-9.92 15.87 54.5 64.42 8-12.84L196 334.85l13.52-21.63zM187.82 327l-13.5-15.75c-1.11-1.26-2.27-2.52-3.5-3.81l-3.69-3.77c-1.23-1.25-2.42-2.46-3.53-3.61l.13-.21 7.29 2.33c2.56.81 5.08 1.54 7.6 2.2l20.13 5.12-10.93 17.5z" transform="translate(-12 -12)"/><path class="cls-3" d="M245.17 275.74l33.13-34.3-8.83-8.53-22.94 23.75-48.97-47.29-10.19 10.55 57.8 55.82z"/><path class="cls-3" d="M365.64 206.06l12.43-7.06-43.73-67.57-16.59 9.42 6.25 33.47c.66 3.24 1.36 6.49 2.13 9.73s1.53 6.43 2.34 9.55 1.61 6.13 2.43 9l-.31.18q-4.65-5.12-9.74-10.31t-10.47-10.3l-25.08-22.91-16.79 9.54 35 72.52 11.92-6.77-14.41-29c-1.64-3.29-3.37-6.7-5.16-10.21s-3.57-7-5.37-10.41-3.49-6.72-5.13-9.83l.21-.12c2.27 2.55 4.66 5.14 7.13 7.76s5 5.23 7.59 7.81 5.16 5.1 7.76 7.58l26.29 24.56 9.85-5.6-7-36c-.64-3.54-1.32-7.11-2.07-10.68s-1.51-7.12-2.33-10.61-1.65-6.9-2.5-10.17l.31-.17q2.64 4.77 5.65 9.75c2 3.31 4 6.59 6 9.83s4 6.34 5.82 9.28l17.55 27.74z" transform="translate(-12 -12)"/><path class="cls-3" d="M424.41 120.31l-29.17 8.12-5.56-19.98 30.89-8.61-3.23-11.6-45.02 12.55 21.56 77.4 46.75-13.02-3.24-11.6-32.61 9.09-6.34-22.74 29.17-8.13-3.2-11.48z"/><path class="cls-3" d="M471.72 173.1l15.21-.1-.23-33h7.73a18.43 18.43 0 017.28 1.36 11 11 0 014.83 4.36 27.3 27.3 0 013.07 8.25c1.24 5 2.33 9.12 3.31 12.31a46.27 46.27 0 002.44 6.61l15.83-.11a22.49 22.49 0 01-1.41-3.39c-.51-1.48-1.06-3.21-1.62-5.21s-1.17-4.15-1.79-6.49-1.26-4.76-2-7.28a30.4 30.4 0 00-4.47-9.82 15.41 15.41 0 00-7.36-5.6v-.36a25.27 25.27 0 005.68-2.87 23.7 23.7 0 004.83-4.41 19.94 19.94 0 004.56-13 22.33 22.33 0 00-2-9.21 18.67 18.67 0 00-5.39-6.84 26.57 26.57 0 00-10.57-4.86A66.42 66.42 0 00494.33 92c-3 0-5.86.12-8.66.28s-5.46.37-7.94.65-4.65.56-6.58.89l.57 79.28zm14.72-69.24a22.09 22.09 0 013.46-.52q2.37-.23 6-.26a25.15 25.15 0 018.71 1.31 11.92 11.92 0 015.73 4.22 12.37 12.37 0 012.11 7.24 12.12 12.12 0 01-2 7 13.28 13.28 0 01-5.78 4.65 22.91 22.91 0 01-8.95 1.71l-9.1.06-.18-25.39z" transform="translate(-12 -12)"/><path class="cls-3" d="M594.57 125.27l-29.62-6.29 4.31-20.29 31.37 6.66 2.5-11.77-45.71-9.72-16.71 78.6 47.46 10.09 2.51-11.78-33.12-7.04 4.91-23.09 29.62 6.3 2.48-11.67z"/><path class="cls-3" d="M714.19 219.75a25.72 25.72 0 01-4.71-.81 47.45 47.45 0 01-10.71-4.32 30.61 30.61 0 01-11.46-10.47 23.52 23.52 0 01-3.52-13.4 33.71 33.71 0 014.52-15.06 36.62 36.62 0 018-10.15 25.32 25.32 0 019.6-5.27 24.59 24.59 0 0110.51-.6 32.21 32.21 0 0110.79 3.81 42.28 42.28 0 017.38 5.13 36 36 0 014.89 5.21l8.48-8.66a22.78 22.78 0 00-2.94-3.47 47.31 47.31 0 00-5.1-4.42 64 64 0 00-7.33-4.72 49.3 49.3 0 00-16.34-5.74 39.33 39.33 0 00-15.95.75 37.6 37.6 0 00-14.3 7.31 50.37 50.37 0 00-17.08 29.91 34.89 34.89 0 008.25 28.47 48.79 48.79 0 0013.62 10.85 74.85 74.85 0 008.05 3.84 51.34 51.34 0 006.82 2.28 24.6 24.6 0 005 .8l3.52-11.27z" transform="translate(-12 -12)"/><path class="cls-3" d="M765.26 174.28l-52.72 60.65 11.07 9.62 52.72-60.65-11.07-9.62zm-10.16 101.7l9.62 11.07 51.38-44.66 15.17 17.45 9.27-8.05-39.81-45.8-9.27 8.05 15.02 17.28-51.38 44.66z"/><path class="cls-3" d="M818.76 367l29.62-16.41 53.61.81-8-14.49-22.72 1.55c-3.21.21-6.21.44-9 .7s-5.62.55-8.34.89l-.11-.2q1.85-2.26 3.57-4.42c1.13-1.44 2.26-2.93 3.41-4.46s2.36-3.16 3.64-4.92l13.36-18.44-8.1-14.6L841 337.9l-29.3 16.25 7.1 12.82z" transform="translate(-12 -12)"/><path class="cls-3" d="M210 787.02l7.03 6.8 15.79-16.36 14.18 13.7 5.57-5.78-14.17-13.69 10.26-10.64 15.21 14.69 5.58-5.77-22.24-21.48L210 787.02z"/><path class="cls-3" d="M308.11 803.23a25.84 25.84 0 00-9.58-4.41 23.44 23.44 0 00-9.9 0 26.18 26.18 0 00-9.43 4.12A34.06 34.06 0 00271 811a33.53 33.53 0 00-5 9.83 25.22 25.22 0 00-1 9.87 22.05 22.05 0 002.92 9.15 25.15 25.15 0 007.07 7.67 27.73 27.73 0 009.4 4.5 22.88 22.88 0 009.81.34 25.06 25.06 0 009.53-4 35 35 0 008.61-8.56 33 33 0 004.92-9.62 25.42 25.42 0 001.1-9.83 22.28 22.28 0 00-2.95-9.24 25.89 25.89 0 00-7.26-7.86zm-4.82 6.23a12.62 12.62 0 015.28 8.78 17.06 17.06 0 01-.16 5.27 23.29 23.29 0 01-1.7 5.38 29.31 29.31 0 01-3 5.14 30.29 30.29 0 01-5.4 5.77 20.07 20.07 0 01-6 3.44 13.68 13.68 0 01-6.24.7 13 13 0 01-6-2.46 13.27 13.27 0 01-4.19-4.92 13.88 13.88 0 01-1.33-6.13 19.73 19.73 0 011.31-6.73 28.1 28.1 0 013.67-6.77 30.47 30.47 0 015.35-5.74 20.47 20.47 0 016-3.49 13.67 13.67 0 016.3-.73 13.07 13.07 0 016.11 2.49zm53.56 24.4a25.89 25.89 0 00-10.11-3 23.44 23.44 0 00-9.8 1.34 26.39 26.39 0 00-8.76 5.4 35.35 35.35 0 00-10.56 19.56 25.56 25.56 0 00.32 9.93 22 22 0 004.17 8.66 25.1 25.1 0 008.07 6.61 27.77 27.77 0 009.93 3.16 22.93 22.93 0 009.77-1 25.15 25.15 0 008.88-5.3 35.34 35.34 0 007.33-9.68 33.12 33.12 0 003.53-10.21 25.4 25.4 0 00-.28-9.89 22.06 22.06 0 00-4.21-8.73 25.94 25.94 0 00-8.28-6.78zm-3.91 6.84a12.59 12.59 0 016.45 8 17 17 0 01.58 5.24 23.36 23.36 0 01-.94 5.57 29.19 29.19 0 01-2.25 5.5 30 30 0 01-4.55 6.47 20 20 0 01-5.5 4.24 13.71 13.71 0 01-6.08 1.57 13.13 13.13 0 01-6.29-1.6 13.32 13.32 0 01-4.83-4.3 13.78 13.78 0 01-2.17-5.88 19.53 19.53 0 01.36-6.84 27.84 27.84 0 012.7-7.22 29.91 29.91 0 014.5-6.43 20.49 20.49 0 015.49-4.3 13.75 13.75 0 016.13-1.6 13 13 0 016.4 1.62z" transform="translate(-12 -12)"/><path class="cls-3" d="M365.77 891.09l9.24 3.18 14.78-42.91 14.58 5.02 2.66-7.74-38.25-13.17-2.66 7.74 14.43 4.96-14.78 42.92z"/><path class="cls-3" d="M416.58 916.07q1.79.58 4.74 1.32c2 .5 4.28 1 6.95 1.47a50 50 0 0012.21.87 18.13 18.13 0 008.23-2.35 14 14 0 004.51-4 14.42 14.42 0 002.5-6 13.52 13.52 0 000-5.08 12.58 12.58 0 00-1.68-4.23 13.83 13.83 0 00-2.92-3.32 16 16 0 00-3.72-2.32v-.16a15.46 15.46 0 005.31-2 11.94 11.94 0 003.65-3.44 11.41 11.41 0 001.83-4.47 12.28 12.28 0 000-4.23 11.07 11.07 0 00-1.32-3.65 11.22 11.22 0 00-2.46-2.95 15.63 15.63 0 00-3.57-2.67 24.71 24.71 0 00-4.7-1.94 58.22 58.22 0 00-6.24-1.42c-1.81-.32-3.61-.58-5.37-.8s-3.42-.37-4.95-.47-2.81-.13-3.88-.1l-9.15 51.89zm17.57-43.79a13.84 13.84 0 012.11.08c.9.09 2 .25 3.43.49a16.33 16.33 0 015.14 1.7 7.1 7.1 0 013 3 7.34 7.34 0 01-1.42 8 8.15 8.15 0 01-4 2 15.21 15.21 0 01-5.83 0l-4.93-.87 2.54-14.4zm-3.79 21.45l4.78.84a20.93 20.93 0 014.6 1.31 12.23 12.23 0 013.52 2.19 7.58 7.58 0 012.09 3.13 8.23 8.23 0 01.25 4.09 8.76 8.76 0 01-1.68 4 7.6 7.6 0 01-3 2.29 11.87 11.87 0 01-4 .86 20.68 20.68 0 01-4.52-.31c-1.09-.2-2.06-.38-2.88-.57s-1.55-.38-2.16-.56l3-17.22zm66.46 17.33l3.86 15.46 10.47.68-13.9-54.58-12.46-.81-20.6 52.34 10.08.66 5.58-14.81 17 1.1zm-14.91-8.38l5-12.89c.39-1 .76-2.13 1.13-3.26l1.05-3.36c.34-1.12.68-2.2 1-3.21h.16c.29 1.58.61 3.26.93 5s.71 3.47 1.12 5.16l3.35 13.43-13.73-.89z" transform="translate(-12 -12)"/><path class="cls-3" d="M517.23 914.6l31.67-2.77-.71-8.15-21.93 1.92-3.96-45.21-9.74.85 4.67 53.36zm47.31-5.25l31.31-5.52-1.42-8.07-21.68 3.83-7.88-44.7-9.63 1.7 9.3 52.76z"/><path class="cls-3" d="M677.81 881.41a18.33 18.33 0 01-2.39 2.1 29.63 29.63 0 01-3.16 2 30.16 30.16 0 01-3.58 1.71 20.37 20.37 0 01-10.23 1.55A15.72 15.72 0 01650 885a22.3 22.3 0 01-5.9-8.66 24.38 24.38 0 01-1.89-8.42 16.86 16.86 0 011.3-7.18 16.28 16.28 0 014.1-5.7 21.35 21.35 0 016.5-4 28.93 28.93 0 015.75-1.67 25 25 0 014.75-.34l-.93-8a15.24 15.24 0 00-3 .07 31 31 0 00-4.42.78 43.78 43.78 0 00-5.53 1.82 32.9 32.9 0 00-9.82 6.06 26.21 26.21 0 00-6.31 8.57 25.17 25.17 0 00-2.23 10.51 33.5 33.5 0 008.33 21.39 23.29 23.29 0 0018.21 7.67 32.6 32.6 0 0011.34-2.5 53 53 0 005.36-2.56 34.18 34.18 0 004-2.58 16 16 0 002.51-2.26l-4.36-6.55z" transform="translate(-12 -12)"/><path class="cls-3" d="M687.68 867.7l26.95-16.85-4.34-6.94-18.66 11.67-24.06-38.48-8.29 5.18 28.4 45.42z"/><path class="cls-3" d="M704.52 812.08l18 24.82a36.67 36.67 0 007.53 7.91 19.18 19.18 0 007.67 3.54 16.43 16.43 0 007.69-.36 24.37 24.37 0 007.61-3.87 26 26 0 006.27-6.29 17.48 17.48 0 002.92-7.47 19.57 19.57 0 00-.85-8.54 34.25 34.25 0 00-5.06-9.56l-18-24.75-7.91 5.74 18.36 25.27a24 24 0 014 7.78 10.38 10.38 0 01-.16 6.37 10.73 10.73 0 01-3.94 4.89 10 10 0 01-5.64 2.07 10.55 10.55 0 01-6.06-1.85 23.86 23.86 0 01-6.19-6.18l-18.36-25.27-7.91 5.75zm79.3 4.8q1.47-1.18 3.71-3.25c1.5-1.37 3.17-3 5-5a50 50 0 007.47-9.73 18.16 18.16 0 002.54-8.17 14 14 0 00-.84-6 14.54 14.54 0 00-3.66-5.39 13.45 13.45 0 00-4.25-2.76 12.41 12.41 0 00-4.46-.93 14.12 14.12 0 00-4.38.63 15.66 15.66 0 00-4 1.84l-.12-.11a15.4 15.4 0 001.27-5.52 12 12 0 00-.88-4.94 11.32 11.32 0 00-2.74-4 12.25 12.25 0 00-3.52-2.35 11.25 11.25 0 00-7.58-.46 16.06 16.06 0 00-4.2 1.52 24.27 24.27 0 00-4.2 2.88 55.64 55.64 0 00-4.6 4.43c-1.27 1.34-2.47 2.69-3.62 4.05s-2.19 2.65-3.11 3.88-1.65 2.28-2.22 3.19l38.37 36.12zm-27-38.72a14.57 14.57 0 011.22-1.72c.57-.7 1.33-1.57 2.3-2.6a16.32 16.32 0 014.24-3.36 7.08 7.08 0 014.11-.86 7.37 7.37 0 015.92 5.59 8.14 8.14 0 01-.5 4.47 15.28 15.28 0 01-3.21 4.86l-3.44 3.65-10.64-10zm15.85 14.93l3.33-3.53a22 22 0 013.61-3.13 12.26 12.26 0 013.77-1.74 7.6 7.6 0 013.76 0 8.22 8.22 0 013.56 2 8.58 8.58 0 012.38 3.57 7.55 7.55 0 01.25 3.8 11.68 11.68 0 01-1.47 3.8 20.72 20.72 0 01-2.74 3.61c-.76.81-1.44 1.51-2 2.1s-1.17 1.09-1.66 1.5l-12.74-12z" transform="translate(-12 -12)"/></svg>