<svg viewBox="0 0 1000 1000" xmlns="http://www.w3.org/2000/svg"><path d="M0 500c0 276.14 223.86 500 500 500s500-223.86 500-500S776.15 0 500 0 0 223.86 0 500" fill="#fff"/><path d="M288.03 395.45a11.63 11.63 0 0113.82 8.9s2.17 10.08 4.1 19l114.53-24.62c-1.83-2.92-4-6.19-6.48-9.65-17.91-25.13-52.64-60.85-99.91-50.7-34.32 7.37-49.82 39.38-54.29 50.67-1 2.41-1.41 3.87-1.43 3.95a11.64 11.64 0 01-17.47 6.46l-16.06-10.41-37.32-24.2a11.63 11.63 0 01-5-7.29l-12.88-59.42a11.62 11.62 0 018.91-13.82l26.35-5.66c-2.59-12-6.51-30.28-6.51-30.28a12.07 12.07 0 01-.26-2.45 11.62 11.62 0 0117.96-9.75l47.33 30.58 89.67-19.27c4.4-6.82 29.35-45.41 29.35-45.41a11.59 11.59 0 0112.31-5l65.92 14.88a106.28 106.28 0 002.36-23.26c0-20.47-4.79-50.38-23.74-88.51-179.28 27-320 171.71-340.91 352.91a67.83 67.83 0 008.93-1.71c9.89-2.64 16.75-8.62 24.7-15.54 9.23-8 19.68-17.15 36-21.5 29.35-7.83 78.72 2.26 80.8 2.7a11.58 11.58 0 019 8.91l23.88-5.17-2.6-11.53a11.62 11.62 0 018.94-13.81zm307.06-267.27a11.6 11.6 0 0118.13 1.79s24 37.46 31.09 48.44l48.94-13.91a11.65 11.65 0 0114.81 11.18v.51s-1.45 32.51-2 46l57.71 11.29a11.61 11.61 0 019.32 11.4 11.83 11.83 0 01-.75 4.14s-12.63 33.16-17.11 44.94l41.49 30.54a11.62 11.62 0 012.8 15.79s-25.51 38.24-32.43 48.69a.25.25 0 000 .07c1.7 2.29 3.6 4.87 5.35 7.24q8.37-3.86 16.83-7.24a318 318 0 0192.72-22.07c-54.67-157-203.4-270-378.73-271.36 16 18.86 31.77 45.31 43.69 82.42z" fill="#8cadd2"/><path d="M296.23 849.2l3.15-5.47c5.3-9.47 68.63-122.21 69.89-124.47 53.8-100.42 143.43-210.27 176.1-245 37.05-39.39 35.91-75.19 35.84-76.69v-.92a63.24 63.24 0 00-2.2-12.27 93.94 93.94 0 00-1.2 2.52 22.72 22.72 0 01-33.13 10.09l-15.76-10.19c-1.12 18.95-5.85 35.47-14.66 49.11-16.49 25.51-40.29 31.26-42.94 31.83l-49.23 10.56c-34.09 7.34-42.5 22.06-42.83 22.68l.42-.93a32.57 32.57 0 01-1.8 3.41l-17.34 26.84a22.67 22.67 0 01-31.34 6.73l-23.9-15.44-16.93 26.21a22.67 22.67 0 01-41.2-7.57s-4.68-21.91-9.68-45.23c-6.4 3.56-12.59 10.37-14.92 23.3a22.66 22.66 0 11-44.61-8c2.5-13.9 7.37-25 13.61-33.77a151.18 151.18 0 00-12.18 12.29c-11.27 12.34-24.05 26.34-51.39 32.14a91.93 91.93 0 01-30 1.45 15.67 15.67 0 01-1.67-.17h.06c7.33 139.51 86.1 260.25 199.84 326.96zm585.76-482.22c8.49-.69 17-1 25.49-1C849.62 199.79 687.09 85.16 503.09 95.43l.17.19c175.33 1.39 324.06 114.33 378.73 271.36z" fill="#3460a9"/><path d="M125.71 510.13c23.87-5.06 34.88-17.12 45.53-28.77 13.34-14.6 28.45-31.15 77.59-41.6a11.61 11.61 0 00-.05-22.73c-2.08-.44-51.45-10.53-80.8-2.7-16.34 4.35-26.79 13.46-36 21.5-8 6.92-14.81 12.9-24.7 15.54-23.9 6.37-58.72-1.24-59.07-1.32a11.61 11.61 0 00-12.79 16.77c10.29 19.43 42.43 53.48 90.29 43.31zm-12.47-36.3c15.11-4 25.14-12.77 34-20.48 8.37-7.3 15.61-13.61 26.73-16.58 5.13-1.36 11.52-1.9 18.24-2.05-18.88 10-29.19 21.19-38.12 31-9.65 10.58-16.63 18.21-33.2 21.73-20.32 4.27-35.8-2.37-46.6-10.65 12.34.7 26.48.35 38.95-2.97zm40.73-71.93c15.05-8.09 26.09-1.26 27.3-.46a11.69 11.69 0 0016.09-3 11.54 11.54 0 00-2.74-16c-.94-.68-23.33-16.24-51.66-1-16.69 9-30.18 6.69-40.07-6.83a11.628 11.628 0 10-18.74 13.77c16.81 22.93 42.94 28 69.82 13.52zM353.2 71.38c52.14 42.68 63.44 107.45 63.55 108.09a11.62 11.62 0 0022.93-3.76c-.49-3-12.64-73.91-71.76-122.32a11.626 11.626 0 00-14.72 18zm60.46 177.3a11.62 11.62 0 10-5 22.68l11.35 2.52 2.41 11.2a11.63 11.63 0 0013.67 8.94l40.72-8.56a11.62 11.62 0 00.13-22.72z" fill="#010101"/><path d="M182.52 357.56a11.63 11.63 0 005 7.29l37.32 24.2 16.06 10.41a11.64 11.64 0 0017.47-6.46c0-.08.47-1.54 1.43-3.95 4.47-11.29 20-43.3 54.29-50.67 47.24-10.15 81.92 25.57 99.88 50.67 2.48 3.46 4.65 6.73 6.48 9.65l-114.5 24.62c-1.93-8.89-4.1-19-4.1-19a11.645 11.645 0 00-22.76 4.94l6.56 30.31a11.63 11.63 0 0013.8 8.9l141.35-30.38a11.62 11.62 0 008.06-16.33c-.41-.87-2.75-5.72-6.95-12.71-16.53-27.55-61.94-88.6-132.71-73.39-38.76 8.34-58.71 38.48-67.45 56.66l-37.58-24.36c-1.36-6.29-6.48-29.95-9.39-43.37l26.32-5.65a11.61 11.61 0 009.17-11.36 11.09 11.09 0 00-.26-2.43s-1.67-7.84-3.05-14.23l27.81 18a11.65 11.65 0 008.74 1.6l99.08-21.29a11.65 11.65 0 007.32-5.05l27.55-42.64L465.9 237a11.61 11.61 0 0013-6.25c.61-1.26 7.42-15.9 7.42-42.21 0-24.59-6.23-59.49-28.71-103 23.13 15.22 54.42 47.91 72.5 118a11.62 11.62 0 0019.61 5.16l51.8-53.71c9.6 15 27.8 43.34 27.8 43.34a11.61 11.61 0 0013 4.89l41.77-11.96c-.73 16.34-1.78 39.9-1.78 39.9v.52a11.62 11.62 0 009.4 11.39l54 10.57c-5.63 14.8-15.35 40.32-15.35 40.32a11.65 11.65 0 004 13.48l39.7 29.2-30.79 46.25a11.7 11.7 0 00-2 6.16v.27a11.62 11.62 0 002.28 6.9l7.85 10.66q-10.92 5.94-21.66 12.71c-58.8 37.17-110.76 92.56-142.55 152-41.3 77.18-46.93 141.77-47.16 144.48a11.623 11.623 0 0023.17 1.89c0-.62 5.6-62.74 44.48-135.4 29.94-56 79-108.18 134.47-143.28 41.92-26.49 106.56-55.07 184.64-49.2-12 13.73-25.82 34.28-28 57.83-.21 2.19-.31 4.38-.31 6.55 0 17 6.37 33 19 47.38a11.62 11.62 0 1017.5-15.29c-10-11.41-14.24-23.32-13-36.41 2.92-31.89 37.25-59.38 37.59-59.65a11.48 11.48 0 001.48-1.39 11.63 11.63 0 00-6.81-19.2c-55.11-8.94-111.13-2.3-164.85 19.2q-8.46 3.38-16.83 7.24c-1.75-2.37-3.65-5-5.35-7.24a.25.25 0 010-.07c6.95-10.45 32.42-48.69 32.42-48.69a11.62 11.62 0 00-2.8-15.79l-41.64-30.59c4.48-11.78 17.11-44.94 17.11-44.94a11.83 11.83 0 00.75-4.14 11.61 11.61 0 00-9.39-11.4l-57.71-11.29c.6-13.49 2-46 2-46v-.51a11.65 11.65 0 00-14.81-11.18l-48.87 13.88c-7-11-31.09-48.44-31.09-48.44a11.6 11.6 0 00-18.09-1.76l-48.1 49.86c-37.2-115.79-111.7-128-115-128.49a11.63 11.63 0 00-13.29 11.51 11.52 11.52 0 001.8 6.32c34.75 54 42.48 95.31 42.48 121.34a106.28 106.28 0 01-2.36 23.26L394.7 197.1a11.59 11.59 0 00-12.31 5s-24.95 38.57-29.3 45.39l-89.66 19.27-47.34-30.58a11.62 11.62 0 00-18 9.75 12.07 12.07 0 00.26 2.45s3.92 18.26 6.51 30.28l-26.35 5.66a11.64 11.64 0 00-8.91 13.82z" fill="#010101"/><path d="M958.7 532.76c-198.07-76.14-303.71 26.8-308.11 31.22a11.62 11.62 0 0016.44 16.4c.25-.25 25.06-24.52 72.07-39.75 40-13 104.12-21.55 188.93 6-20.28 15.89-40.24 41.75-40.24 75.85a101.08 101.08 0 007.61 37.46 11.62 11.62 0 1021.59-8.56c-25.46-64 39.72-95.92 42.51-97.24a11.63 11.63 0 00-.8-21.35z" fill="#010101"/><path d="M672.99 618.38a11.616 11.616 0 003.28 23c.38 0 14.09-1.75 36.11.71-.63.94-1.23 1.91-1.88 2.85-70 101.73-200.66 136.9-310.11 90.46 10.93-20.38 23-41.85 36.57-62.81a183.65 183.65 0 0071.24 10.91 11.638 11.638 0 00-1.11-23.25 160.67 160.67 0 01-56.9-7.75c18.65-27.66 38.25-54.49 56.59-78.32 8.62 3.83 27.38 10.84 49.31 11.12a11.62 11.62 0 10.3-23.23 104.93 104.93 0 01-34.73-6.92c19.67-24.78 37-45 48.65-57.4a195 195 0 0012.84-15.11c8.93 3.59 23.14 8.12 37.64 7.89a11.62 11.62 0 10-.36-23.23c-8.56.13-17.36-2.16-24.07-4.51 19.93-35 19.26-63.25 19.07-67-.09-3.44-1.36-28.15-18.5-53.75 12-10.3 27.38-17 45.35-11.17 44.86 14.56 34 73.48 33.5 76a11.62 11.62 0 0022.8 4.5c5.58-28.14 2.5-85.81-49.12-102.59-45.92-14.92-80.59 22.71-97.12 52.35l-43.51-28.12a11.61 11.61 0 00-17.66 12.19c16.65 77.47-25.42 88.6-27.23 89l-49.05 10.59c-48.33 10.39-63.15 34.56-66.19 40.66l-10.61 16.48-33.18-21.43a11.6 11.6 0 00-16 3.45l-14 21.67-8.5-39.46a11.6 11.6 0 00-10.59-9.15c-19.47-1.28-58.5 8.61-66.88 55.24a11.61 11.61 0 1022.76 4.13c4.8-26.69 22.89-33.77 34-35.59 3.05 14.22 12.28 57.15 12.28 57.15a11.62 11.62 0 0021.11 3.85l22.93-35.47 33.18 21.43a11.61 11.61 0 0016.06-3.45l17.33-26.83a14.93 14.93 0 00.83-1.52c.39-.81 9.91-19.75 50.35-28.44L469 456.93c2.2-.48 21.91-5.25 36-27 8.91-13.78 13.37-31 13.37-51.31 0-3.91-.41-8.11-.74-12.26l33.07 21.37a11.63 11.63 0 0017-5.19 137.05 137.05 0 0113.12-22.48c11 19 11.43 36.17 11.43 36.37a5.88 5.88 0 000 .6c.09 1.68 1.88 41.54-38.83 84.82-32.39 34.44-120.65 143.77-173.91 243.3L309.2 856.51C188.52 791.51 103.99 667 96.36 522.23h-.17c-2.33 150.15 78.56 284.15 201.67 355.49 203.63 108.96 455.82 36.66 571.66-160.77 4.49 4.09 9 8.33 13.44 12.86a11.63 11.63 0 0016.55-16.33c-109.17-110.62-221.79-95.82-226.52-95.1z" fill="#010101"/><path d="M399 831.38c-7.67 35.68 6.41 38.58 17.49 41l5.76 1.24 3.27-15.24c-8.38-1.8-13-3.79-8.86-23.19s9.23-19.3 17.61-17.5l3.27-15.2-5.77-1.25c-11.08-2.38-25.11-5.52-32.77 30.15m76.16 33.31l2.09-41.49c6.51.58 8.76 3 7.85 21.18s-3.4 20.38-9.94 20.31m3.74-57h-.87l-16.31-.82-3.63 72.57 16.32.82h.88c11.32.58 25.67 1.41 27.49-35s-12.55-37.03-23.88-37.6zm218.77.29c-4 2.56-5.12 1.58-15.88-14.59s-11.2-17.52-7.29-20.23c4-2.56 5.07-1.64 15.84 14.54s11.24 17.56 7.33 20.28m7.42-30.07c-20.05-30.15-28.17-26.21-39.11-19l-.64.42-.63.43c-10.89 7.3-17.67 13.26 2.39 43.4s28.18 26.22 39.11 19l.64-.42.64-.43c10.86-7.3 17.6-13.26-2.4-43.4zm-57.48 56.51l-6.2-13.49c1.5-1.35 6.51-5 10.1 2.83s-.48 9.42-3.9 10.66m-9.29-37.44c3.07 6.67-1.68 8.34-3.71 9.1l-4.9-10.71c2.16-1.58 6.22-3.62 8.61 1.61zm13 8.9s6.38-3.56-.23-18c-7.64-16.66-22.12-7.92-22.12-7.92l-5.23 2.41-1.69.77-13.17 6 30.33 66.11 15.64-7.17c15.64-7.18 18.17-15 11.11-30.33s-14.64-11.87-14.64-11.87zM400.81 808.56l5.54-14.6-29.89-11.33-5.54 14.6-4 10.56-16.26 42.85 15.27 5.78 10.72-28.25 13.85 5.25 5.53-14.59-13.84-5.26 4.01-10.56zM539.9 821.6l-1.17-15.56-31.87 2.4 1.18 15.56.84 11.28 1.18 15.55 2.28 30.14 31.87-2.41-1.18-15.56-15.58 1.18-1.1-14.57 14.76-1.12-1.18-15.56-14.75 1.11-.86-11.27zm31.67-21.75l7.24 33.89-1.71.37-18.06-31.58-15.97 3.41 15.2 71.13 14.6-3.12-7.3-34.13 1.47-.31 18.35 31.76.09-.02 15.88-3.39-15.2-71.13zM733.99 779.54c2.72-2.28 3.11-4.34 1.09-6.74-2.93-3.49-8.2-2.37-15.64-2.87-8.29-.58-13.88-3.3-18.9-9.28q-13.2-15.71 4.24-30.41a35 35 0 019-4.75l11.31 13.49c-5 2.08-7.51 3.39-9.45 5-2.33 2-2.66 4.09-1 6.11 2.41 2.86 8.24 2.08 18.09 2.94 7.42.65 11.8 3.19 16.23 8.47 9.58 11.4 9 21.14-2.4 30.72-8 6.7-12.62 7-13.84 7.06l-11.41-13.59s8.31-2.53 12.63-6.16m9.71-34.58c27.66 23.8 36.93 12.83 44.33 4.24l3.85-4.48-11.74-10.14c-5.6 6.49-9.57 9.62-24.61-3.32s-12.58-17.33-6.99-23.87l-11.79-10.15-3.85 4.47c-7.39 8.6-16.86 19.4 10.8 43.21M755.18 673.55l22.02 15.47-3.95 5.62-22.01-15.48-9.39 13.36 59.49 41.84 9.4-13.36-24.73-17.38 3.95-5.61 24.72 17.37 9.4-13.36-59.5-41.82z" fill="#fff"/><path d="M305.95 649.91a107.93 107.93 0 00-24.56-32 108.29 108.29 0 00-127.36-26.49l-.08.05a108.29 108.29 0 00-26.66 178.39 108.43 108.43 0 00178.66-120z" fill="#010101"/><path d="M189.83 797.54h.15zm-88.4-86.86a100.57 100.57 0 0115.75-78.44 62.42 62.42 0 00-4.69 26.33 47.62 47.62 0 0015 70.77c2.41 8.36 15.42 45.42 59.69 60.29a101.06 101.06 0 01-85.75-78.95z" fill="#fff"/><path d="M144.98 666.89a46.07 46.07 0 0024.11-13.88 45.21 45.21 0 0051.36-10.63 39.62 39.62 0 0112.33 57.74 45.18 45.18 0 00-51.23 11.26 45.21 45.21 0 00-51.36 10.66 39.6 39.6 0 01-12.35-57.74 46 46 0 0027.14 2.59z" fill="#fff"/><path d="M157.58 598.12a101.48 101.48 0 0121.41-7.17c3.32-.71 6.64-1.24 10-1.62-27.36 17.84-25.69 50-24.79 58a38.34 38.34 0 01-44.19 9.76c-.31-7.91 1.37-36.97 37.57-58.97z" fill="#fff"/><path d="M207.44 588.99a100.87 100.87 0 0133.84 8.59c-21.32 8.61-24.6 32.27-25.09 38.41a38.38 38.38 0 01-44.62 10c-1.02-8.79-2.71-44.77 35.87-57z" fill="#fff"/><path d="M264.83 612.38c43.73 63.63 18.48 107.17 13.74 114.28-23.3 7-36.49-14.75-39.94-21.5a47.57 47.57 0 00-14.83-69.78c.67-7 4.58-28.81 27.27-32.79a102.28 102.28 0 0113.76 9.79z" fill="#fff"/><path d="M287.09 740.51a28.1 28.1 0 01-2.35-9.57c4.18-6.48 22.83-39.51 5-87.58a100.66 100.66 0 01-2.65 97.15zm-36.11 36.14a100.61 100.61 0 01-29.35 11.48c-67.1-2.88-83.92-50.23-86.74-60.27a38.37 38.37 0 0144.62-9.28c3.58 9.19 23.77 55.27 71.47 58.07z" fill="#fff"/><path d="M262.32 768.94c-50.63 4.54-71.46-41.83-75.51-52.34a38.4 38.4 0 0144.61-9c6 12.76 22.08 32.25 46 27.14a.83.83 0 00.15 0 31 31 0 004.93 12.92 101.06 101.06 0 01-20.18 21.28z" fill="#fff"/></svg>