<svg id="go-ahead-eagles" xmlns="http://www.w3.org/2000/svg" viewBox="0 0 855.73 1000"><defs><style>.cls-3{fill-rule:evenodd}.cls-3,.cls-4{fill:#231f20}</style></defs><path d="M157.67 197.14l-38.72-94L200.52 68l26.21 59.46 97.54-22.78L312.71 43 418.8 23.25l13.89 66.69L556.6 89l13.83-63.83 108.16 14.91-14.15 66.25 105.88 18.84 21.59-60.72 83.81 30-32.62 86.89q-1.56 4.11-3.2 8.21c-225.47-61.42-452.49-71.72-682.23 7.59zm643.66 93.47c-19.75 92.11-25.18 194.85-5.08 287.2q2.32 10.73 5.15 21.32c11.66 43.81 28.41 82.13 54.26 119.64l.55.8 3.74 9.49c-106.61 42.25-214.15 57.41-334.06 60.86-125.7 3.61-250.87-19.46-356.66-53.77l3.26-7.95.09-.19c17.94-38.16 31-81.46 39.91-122.63 22.28-103.26 12.82-202.52-21.85-301.81l-.06-.17v-.14c208.19-73.1 411-65.87 610.79-12.65zm96.32 538.16v7.33c-2.23 31.39-11 55.79-33.17 78.39-2.35 2.39-4.78 4.71-7.25 7-54.71 50.07-133.23 28.57-199.7 30.04a216.51 216.51 0 00-27.61 2.47 299.25 299.25 0 00-64.85 18c-16.12 6.41-33.1 14.49-47.54 24.16l-4.92 3.29-4.79-3.45c-39.89-28.74-87.51-40.47-136.14-39.62a227.53 227.53 0 00-22.88 1.69c-13.43 1.6-26.72 4-40 6.47-5.53 1-11.08 2-16.64 2.88A91.82 91.82 0 01279 968.7a149.34 149.34 0 01-36.71-4.25c-59.55-14.7-95.73-63.91-115.52-119.18l-1.1-3.07 1.22-3c121.74 41.17 263.67 73.67 410.11 67.49 125.65-5.3 258.06-43.16 360.68-77.92z" transform="translate(-84.05 -11.62)" fill-rule="evenodd" fill="#fac720"/><path d="M506.67 454.12c159.41 0 288.68 74.9 288.68 167.26S666.08 788.63 506.67 788.63 218 713.74 218 621.38s129.26-167.26 288.67-167.26z" transform="translate(-84.05 -11.62)" fill="#e52b2c" fill-rule="evenodd"/><path class="cls-3" d="M145.35 193.51L106 97.81l99.73-42.94 26.86 61 80.08-18.77L301 35l125.6-23.38 14.21 68.25L548.52 79l14.09-65 128 17.67-14.22 66.62 87.34 15.54 22.11-62.19L888.66 88.5l-36 96q9.57 3.56 19 7.39l18.22 7.38-54.44 114.25-16.23-6.7q-5-2.08-10.18-4.06C791.3 390.84 787 488.09 806 575.69q2.28 10.48 5 20.86c11.37 42.7 27.63 80 52.83 116.54l1.21 1.75.76 1.94 3.23-1.13 15.31-5.41 55.37 109-17.53 8q-7.18 3.29-14.56 6.47v2.35l-.06.72c-2.77 39.16-15 65.77-43.64 92a126.78 126.78 0 01-43.34 25.94c-52.59 18.84-108.74 5.57-162.92 6.77-43 1-99.1 19.1-134.65 42.92l-10.69 7.16-10.32-7.47c-38.09-27.44-83.69-38.55-130.11-37.73A213.42 213.42 0 00350 968c-13.22 1.58-26.31 4-39.41 6.37-9.82 1.8-21.57 4.29-31.5 4.35-82.51.5-135.42-56.62-161.72-130.06L115 842l.13-.32q-7.25-3.11-14.35-6.34l-16.7-7.65 51.32-114.6 16.25 6q6 2.22 12 4.4c17.55-37.42 30.37-79.91 39.08-120.26C224 504.7 215.75 410 184 315.19q-6.59 3.17-12.79 6.67L153.4 332 101 212.79l16.69-7.55q13.56-6.15 27.62-11.73zM848.18 722.9c-27.26-39.73-43.51-78.42-55-121.58-27.53-103.39-19.83-216.45-1.73-305-93.74-32.24-205.84-41.3-302.6-38.11a1198.36 1198.36 0 00-126.48 11.07c-36.27 5.08-72.79 11.79-108.19 21.25a469.26 469.26 0 00-53.12 17.17c33.14 98.16 42 196.32 19.76 299.44-8.82 40.96-22.54 85.66-39.66 122.62 45.88 16 92.78 29.55 140.51 38.36 42.29 7.8 83.59 11.16 126.49 12.56 21.41.7 42.82 1 64.23 1.63 63 1.79 125.72-5.11 187.37-18 50.37-10.51 99.74-24.91 148.42-41.45zm40.46 118.76c-116.48 46.76-261.52 74-382.4 72.46C388 912.59 251.75 894.62 138 850.91c30.31 76.85 83 109.63 141 109.29 15.63-.1 57.28-11.73 92.57-12.35 49.39-.86 99 10.79 141.26 41.22 28.46-19.05 87.88-44.79 144.55-46 65.11-1.44 142.45 19.49 194.16-27.85 18.32-16.77 33.14-35.73 37.14-73.52zm-780.18-23.21c119.26 54.63 273.14 75.54 398 77.15 121.9 1.58 283.78-28.26 408.07-85.17l-39.28-77.32c-106.42 37.57-230.35 71.49-363.38 67.71-107.53-3.05-190.58 1.1-366.67-64.33l-36.74 82zm726.72-640.22l29.54-78.65-67.65-24.25-21.15 59.47-121.64-21.64 14.08-65.91-91.28-12.6-13.6 62.79-137.7 1.07-13.61-65.37-89.52 16.7 11.48 61.26-112.34 26.24-25.65-58.2L130 107.61l32.64 79.27c68.71-25.33 144.06-41.49 214.93-50a980.55 980.55 0 01104.17-7.06c119.19-1.54 240.28 9.55 353.43 48.41zM125.36 222.1C221.81 178.46 357.11 150 482 148.33 603.88 146.76 738.73 158 864.71 209l-38.43 80.7c-97.14-40.11-223.61-53.75-338.06-50-107.51 3.55-253.93 25.09-326.11 66l-36.75-83.6z" transform="translate(-84.05 -11.62)"/><path class="cls-4" d="M199.42 262.78a25.56 25.56 0 01-4.61 9 18.33 18.33 0 01-7 4.73q-9.63 3.93-18.34-.34c-5.8-2.84-10.19-7.91-13.14-15.16s-3.37-14-1.18-20 6.6-10.36 13.22-13.05q8.64-3.51 15.79-1.6a17.91 17.91 0 0111.12 8.75l-9.66 3.89a9.65 9.65 0 00-5.79-4 13.16 13.16 0 00-7.8 1 11.72 11.72 0 00-7.36 7.92c-1 3.72-.56 8.05 1.47 13s4.76 8.45 8.2 10.35a12.44 12.44 0 0011.16.41A11.92 11.92 0 00192 262a12.72 12.72 0 00.78-8.81l-10.43 4.24-3.19-7.86 19-7.75 10.12 24.89-6.34 2.58-2.51-6.47zm483.01-36.02a25.49 25.49 0 01-8.5 5.41 18.42 18.42 0 01-8.44.55q-10.29-1.47-15.66-9.55t-3.69-19.72q1.7-11.76 9.08-17.88t18-4.59q9.24 1.32 14.44 6.59a17.92 17.92 0 015.19 13.16l-10.31-1.49a9.67 9.67 0 00-3-6.38 13.13 13.13 0 00-7.24-3.08 11.72 11.72 0 00-10.3 3.12q-4.17 4-5.32 12c-.76 5.34-.15 9.7 1.86 13.08a12.41 12.41 0 009.43 6 11.9 11.9 0 008.45-1.68 12.63 12.63 0 005.12-7.2l-11.14-1.6 1.21-8.41 20.33 2.91-3.83 26.59-6.77-1 1.09-6.85zm-465.02 10.41q2.26 7.88 7 11.23t11 1.55q6.36-1.81 8.63-7.19t0-13.24q-2.25-7.86-7-11.22c-3.19-2.23-6.89-2.73-11.13-1.52s-7 3.59-8.53 7.15-1.51 8 0 13.24zm-10 2.87q-3.32-11.55 1-20.14t15-11.66q10.68-3.06 19 1.92T254 226.67q3.3 11.54-1.08 20.15t-15.02 11.67q-10.69 3.08-18.93-1.92T207.41 240zm92.53-37.65l-2.71 22 13.49-2.62-10.78-19.38zm-7.7-8.6l11.55-2.24 27 45.19-10.5 2-5.29-9.31-18.83 3.66-1.26 10.61-10.53 2.05 7.84-52zm157.99-10.2L444.56 205l13.73-.77-8.06-20.66zm-6.47-9.59l11.75-.66 20.6 48.43-10.68.6-3.93-10-19.15 1.07-2.68 10.35-10.71.6 14.8-50.39zM622 186l-8.91 20.3 13.68 1.36L622 186zm-4.91-10.45l11.7 1.16 12.87 51-10.66-.98-2.34-10.46-19.09-1.9-4.25 9.81-10.67-1.06 22.42-47.53z" transform="translate(-84.05 -11.62)"/><path class="cls-4" d="M252.94 223.87l-6.82-48.66 10.08-1.41 2.54 18.13 20.07-2.81-2.54-18.14 10.08-1.41 6.82 48.66-10.08 1.41-3.02-21.57-20.08 2.81 3.03 21.57-10.08 1.42zm49.87-6.97l-4.65-49.51 35.96-3.38.81 8.61-25.91 2.43.99 10.55 23.7-2.22.79 8.47-23.69 2.22 1.19 12.74 27.13-2.55.85 9.15-37.17 3.49zm164.09-7.63l2.48-49.67 36.08 1.8-.43 8.63-25.99-1.29-.53 10.58 23.77 1.19-.43 8.5-23.77-1.19-.63 12.78 27.2 1.36-.45 9.17-37.3-1.86zm187.75 23.22l12.33-48.18 34.99 8.95-2.14 8.38-25.21-6.45-2.63 10.27 23.05 5.9-2.11 8.24-23.05-5.9-3.17 12.39 26.39 6.75-2.27 8.9-36.18-9.25z"/><path class="cls-4" d="M491.43 213l8.2-.14q7.13-.14 10.24-3.92c2.09-2.51 3.08-6.57 3-12.14s-1.16-9.63-3.18-12.19-5.14-3.83-9.35-3.76l-9.45.17.56 32zm-9.86 9.14l-.87-49.69 19.47-.34q11.43-.2 17.16 5.88t5.95 18.62a32.51 32.51 0 01-1.87 12 20 20 0 01-5.88 8.47 18.45 18.45 0 01-6.68 3.51 42.43 42.43 0 01-10.58 1.21l-16.7.29z" transform="translate(-84.05 -11.62)"/><path class="cls-4" d="M612.64 223.98l9.52-48.96 10.08 1.96-7.76 39.92 23.9 4.64-1.76 9.05-33.98-6.61z"/><path class="cls-4" d="M785.77 240.43l9.63 2.94a8.45 8.45 0 001.42 6.75c1.37 1.79 3.72 3.2 7 4.21q4.25 1.3 6.87.45a5.34 5.34 0 003.52-3.82c.88-2.88-2.53-6.51-10.21-10.93l-.27-.15c-.21-.11-.51-.29-.93-.54-4.13-2.32-7-4.36-8.46-6.14a10.87 10.87 0 01-2.52-5.51 15.23 15.23 0 01.65-6.82q2.12-6.92 8-9.17t14.7.47q8.31 2.54 11.79 7.89t1.56 12.59l-9.37-2.87a7.18 7.18 0 00-1-6q-1.85-2.53-6.24-3.88a10.43 10.43 0 00-6.37-.31 5.16 5.16 0 00-3.38 3.62c-.77 2.52 1.35 5.21 6.36 8.11 1.35.79 2.42 1.4 3.17 1.85 3.18 1.93 5.43 3.38 6.72 4.3a23.42 23.42 0 013.29 2.81 11.23 11.23 0 013 5.59 13.68 13.68 0 01-.49 6.8q-2.26 7.41-8.5 9.95c-4.16 1.69-9.25 1.63-15.31-.23s-10.22-4.64-12.76-8.44-3.17-8.3-1.86-13.48zM294.62 848.42l9.56 2q8.31 1.74 12.93-1.84c3.09-2.36 5.31-6.82 6.68-13.32s1.19-11.48-.48-15-4.95-5.81-9.87-6.84l-11-2.3-7.81 37.3zm-13.88 8l12.14-57.95 22.7 4.75Q328.92 806 334 814.59t2 23.21a38.49 38.49 0 01-5.35 13.51 23.89 23.89 0 01-9.06 8.28 22.3 22.3 0 01-8.71 2.31 50.68 50.68 0 01-12.6-1.39l-19.48-4.08z" transform="translate(-84.05 -11.62)"/><path class="cls-4" d="M265.52 855.58l6.05-58.95 42.81 4.39-1.05 10.24-30.84-3.16-1.29 12.57 28.21 2.89-1.04 10.08-28.21-2.89-1.55 15.16 32.29 3.32-1.11 10.88-44.27-4.53zm123.5 11.36l1.24-59.25 43.03.9-.22 10.3-31-.65-.26 12.63 28.35.6-.21 10.13-28.35-.6-.32 15.25 32.46.67-.23 10.95-44.49-.93zm185.07-9.86l-8.67-58.62 42.57-6.3 1.51 10.19-30.68 4.54 1.85 12.5 28.06-4.15 1.48 10.02-28.06 4.15 2.23 15.08 32.12-4.75 1.6 10.83-44.01 6.51zm-233.4 6.04l-16.18-60.56 13.48.96 9.41 45.11 15.96-43.3 13.32.94-24.35 57.68-11.64-.83zm109.04 4.99l-2.01-59.22 12.75-.44 25.43 39.88-1.39-40.69 12.03-.41 2.01 59.22-12.58.43-25.6-39.87 1.38 40.69-12.02.41zm82.04-5.24l-5.05-48.41-17.49 1.83-1.1-10.54 46.98-4.89 1.1 10.53-17.36 1.81 5.04 48.41-12.12 1.26z"/><path class="cls-4" d="M726.64 823l13.67-3.38q4.44-1.11 6.09-3.43c1.09-1.55 1.32-3.6.68-6.2a7.51 7.51 0 00-3.41-5.07c-1.66-.94-3.85-1.07-6.52-.41L722.94 808l3.7 15zm-3.77 34.67l-14-56.51 27.41-6.78q9.24-2.28 14.67.57t7.44 11a16.44 16.44 0 010 9.17 11.19 11.19 0 01-5.07 6.25 9.68 9.68 0 016.24 2.7q2.22 2.31 3.85 7.93l1.88 6.61s0 .13.06.23c.9 3.35 2.14 5.23 3.7 5.59l.43 1.73-12.76 3.15a11.48 11.48 0 01-1.65-2.7 27.51 27.51 0 01-1.42-4.07l-1.65-5.95c-1-3.46-2.24-5.67-3.73-6.59s-3.8-1-6.89-.26l-12.32 3 5.43 22-11.63 2.88z" transform="translate(-84.05 -11.62)"/><path d="M471.09 379.07c-8.74-1-11.65-8.88-10-16.35 4.82 4.1 7.79 7.58 12.07 3.1.49-5.76-1.05-8.85 5.43-14.66a17.82 17.82 0 0111-4.06c.07-7.16 7.89-11.15 14-11.56a32.21 32.21 0 0119 4c2.74 1.51 7.85 5.12 10.77 5.66 5.12.78 6.68-1.38 8.23-5.35 6.86 3.84 6.22 11.2 0 16.2a38 38 0 0011.27 10.45l-1 5.79c-2.19-.1-5.67.91-7.69 1.45 1.73 4.9 1.4 11 2.13 15.87a25.08 25.08 0 00.52 2.49c-.12-4 .22-7 2.61-10.25 3.35-4.57 8.36-8.35 13-11.46 11.57-7.68 24-18.24 32.43-29.81 10.57-14.49 14.08-22.15 19.91-46.67 12.63 10.5 17.13 34.83 13.21 50 13.38-13.47 20.1-25.61 26.33-43.32l6.6-1.33c11.43 17.91 9.86 51.36-9.4 77.73A110 110 0 00700 338.63c12.88 35.14-13.74 67.79-43.88 86.82 26.24 2.33 44.1-3.84 60.39-9.64-6.67 34.89-35.72 47.46-68.7 51.55 19.25 18 37.93 25.09 62.84 25.69-16.91 28.41-56.08 25.86-84.85 16.23 15.6 20.42 45.6 41.39 68.87 46.67-15.23 15.81-41.9 15-61.32 8.67-14.47-4.76-28.7-13.19-38.26-22.31 6.12 13.58 17.18 26.05 21.1 31.06-30.86 5.76-62.53-27.57-76.85-55.4-3.63 7.2-4.07 12.65-.44 18.37 3.75 5.91 12.35 7.26 18.73 9.1l1.25 1.61a23.34 23.34 0 00-5.75 4.1c-2.13 2.29.46 4.31 3.39 6.76a349.51 349.51 0 0044.72 32.2 166.45 166.45 0 01-30.45 9.68c17.56 19.53 27.32 42.29 27.32 67.21-.21 62.27-43.38 98.38-95.21 98.38-58.41-.63-99.41-50.51-96.69-98.53-.69-27.26 10.7-50.75 30.21-68.39-10-2.33-18.13-4.49-28.47-9.25 14.35-9 36.85-23.32 46.3-34.69 1.48-1.77 2-3.81.82-5.36l-.63-5.39c10.3-1.67 19.23-5.9 14.16-26.37-4 6.51-6.65 8.9-11.58 14.69-13.61 16-40.28 37.94-61.62 41.5l-1-7.77c8.75-9.4 12.47-12.06 18.39-23.38-25.39 21.09-59.48 29-92.31 18.17v-8.38c18.22-7.2 43.72-23.92 64.14-44.18-37.11 11.11-68.16.6-82.48-20.23 24.4-2.05 44.55-9.27 61.87-21-29.91-5.14-60.83-19-67.19-51.75l6.54-3.73c17.43 10.16 32.71 14.52 56 14-31.57-17.51-50.21-51.12-47.41-84.26l7.13-2c10.63 15.21 20.79 24.52 38.39 32.52-8.72-16.82-14.75-51.9-2.28-73.62l8.6 2.67c4.31 21.1 9 37.32 25.12 53.23-3.46-16.31-6-52 12.21-61.42 2 15.33 8.81 33.48 18.3 46.15A188.65 188.65 0 00432 353.08c7.17 7.8 15 13.19 23.78 18.88 5.77 3.72 13.45 8.35 16.31 14.87a15.89 15.89 0 011.31 7 15.38 15.38 0 01-.64 4l4 2.17a34.08 34.08 0 01-2.8-11.86c0-4.63-1.35-5.88-2.89-9.06zm78.45 22.31l-1.23-2.63a5.8 5.8 0 01-3.4 2.41c2.47 6.92 5.39 10.61 10.52 14.5-2 1.69-7.78 3.72-12.2 2.57 3.8 5.7 8.52 9 11.31 14.64 4.63-.88 7.55-1.58 12.38-1.42a51.3 51.3 0 0111 1.71c4.85-2.43 7-11.1 1.21-15-5.42-3.66-10.54-4.95-16.7-6.91a19.83 19.83 0 01-12.21-8.69q-.36-.57-.69-1.17zm-80.88 2.27c-2.82 3.56-5.52 3.88-10.44 5.45-2.36.75-4.73 1.43-7.11 2.13-4.72 1.38-10.87 3.11-14.95 5.87-2.75 1.85-3.79 4.22-4 7.49-.09 1.7 2.08 5.71 3.55 7.91 8.7-2.49 14.41-2.59 22.74.6 7.2-4.36 10-14.27 14.43-21.36-2.11-1.82-4.61-4.22-4.25-8.09z" transform="translate(-84.05 -11.62)" fill="#fff" fill-rule="evenodd"/><path class="cls-3" d="M540.25 371.66c2.94.48 5.86-1.83 10.2-1.64-5.53-3.47-10.42-11.81-12.36-14.63 4-2.19 6.67-6.17 5.11-11.1-3 4.06-6.23 5.72-10.28 5.09-6.66-1.19-14.81-11.37-28.13-9.87-3.37.38-7.88 2.22-10.34 5.8-1.87 2.71-1.61 4.9 1.87 7.32 2.2 1.53 5.3 3.42 7.27 6.51 3.44 5.37 4.65 11.89 3.4 16.93a9.37 9.37 0 01-6.87 7.1c-.08 7.36-6.65 10.32-10.34 10.92a16.38 16.38 0 01-10.78-1.85c.56 6.06 4 8.21 6.54 9.83-1.11 1.05-6.19 6-12.46-.32-.56 5.27 2.47 8.37 7.29 9.19-5.91 9-12.36 22.26-19.85 25.76-8.31-3.52-15.14-2.53-26-1.58-1.84-2.29-5-7.93-4.85-10.67.22-4.2 1.76-7.2 5.06-9.42 5.6-3.79 14.86-5.81 22.7-8.31 8.61-2.75 13.2-6.09 13.42-13 .47-15.36-21.49-18-40.74-39-13.64-14.84-23.62-25.12-27.37-54-8 4.75-13.25 25.23-4.43 58.71-16-13.33-29.36-33.49-34.64-59.35-12.2 19.72-10.81 54.13 5.28 79.41-18-6.2-34.58-19.71-47.51-38.23-3.49 41.13 18 67.93 50 85.32-17.18 6.7-38.44 3.44-64.63-11.82 4.9 25.16 25.17 44.24 69.48 50.26-12.53 9.64-36.88 22.17-62.08 26 14.77 16.57 43.65 24.12 86.79 7.81-20.65 24.11-47.78 42.4-75.18 57 32.48 10.69 68.46 2.55 100.94-28.93-5.63 16.11-16.24 29.09-28.08 41.82 23.84-4 55.77-31.37 72.22-61 4.54 11.27 6.55 22.11 1.86 29.49-2.34 3.69-7.56 7.51-15 7.84l.29 2.7a2.83 2.83 0 012.93 4c-3.13 9.5-29.48 26.81-42.84 35.18a152.19 152.19 0 0029.28 7.67c-21.61 16.61-35.51 42.66-34.77 72 1.35 50.12 40.43 90.4 90.22 90.4s89.75-39.4 89.75-90.39c0-25.56-11.78-52.47-31.15-70.09a124.47 124.47 0 0030.36-8.69c-13.36-8.37-41.4-29.26-44.74-34.76-1.84-3 2.76-5.07 3.67-4.94l-1-2.05c-6.09-1.82-11.68-4.9-14-8.58-4.69-7.39-1.41-17.81 3.13-29.07 18.56 39.16 47.74 63.18 69.69 61.24-11.84-12.72-19.71-27.19-25.34-43.29 28.89 32.53 67.61 49.33 100.73 30.41-26.55-8.92-59.6-35.66-71-55.12 43.15 16.31 72.66 10.87 87.43-5.7-30.06-2.75-47.87-16.33-61.66-30.2C683 460.56 702 446.13 706.93 421c-15.63 7.87-52.52 11.13-61.67 6.33 31.39-18 57.34-49.25 49-81.51-12.94 18.48-34.37 33.48-54.06 38.18 25.17-29.5 25.29-62.85 13.09-82.57-10.14 28.81-19.92 43.7-34.64 55.75 10.51-29 2.73-47.62-4.64-54.69-6.7 25.9-15.42 38.71-29.06 53.54-14.44 15.7-27.91 19.64-33.54 27.31-1.88 2.56-2.25 4.85-2.13 8.69.22 4.58 3.33 14.25 13.84 16.79 7.84 2.5 11.82 3.46 17.42 7.25 3.3 2.23 4.2 5.65 4.43 9.85.15 2.73-2.59 7.33-6.33 9.82-4.07-.36-8.23-1.69-11.8-1.8-5.31-.17-9.91.84-14.9 1.79a5.42 5.42 0 01-.48-.26c-2.9-6.63-6.52-9.41-9.13-12.25-2-2.21-4.93-4.88-3.45-8.6 3.66 1.66 6.15 2 10.56 1.17-4.82-4.74-8.64-9.93-7.82-17.85a9.85 9.85 0 005.49 1.06 22.36 22.36 0 01-3.32-9c-1-6.7-.23-13.89-3.54-18.34zm-21.44-19.43c.44.16 1-.48.74-.85-2.75-3.6-9.21-6.81-15.9-6.46-3.08.17-7.57 2.08-5.91 6.14.52 1.27 2.58 2.25 4 2.28.86 0 1.19-.61 1.87-1 3.14-1.84 7.72-2.74 15.2-.1zm-68.16 240.06a6.57 6.57 0 011.82-5.86c5.92-5.41 17.36-11.65 24.63-14.73 0-6.67 7.08-11.23 11.73-10.93-1.73 4.51-.71 8.06-.32 12.25 6 0 5.09 2.41 9.85 2.68l-.2 2c-12.66.7-24.73 2.14-35.59 7.52a90.83 90.83 0 00-11.92 7.08zm59.37-15l.07-3.11c4.52-.6 4.45-1.75 9.73-2.53.6-3 3.94-5.2 0-11.51 5.18-.62 12 3.62 11 9.76 8 5 19.34 11.54 25.26 17 1.66 1.67 1.77 4.21 1.32 6.16a77.29 77.29 0 00-14.79-9.34c-9.81-4.7-20.45-6.36-32.58-6.38zm15.76 59.09c1.23-4.72 3.94-10.6 5.39-15.1-.21-2.61-4.44-2.15-4.65-1.16-1.2 3.51-1.89 6.81-3 10.34-.52 1.61-1.31 3.27-2 5-2.1 5.44-1.8 7.79-6.8 7.89-9.63.2-19.34 1-28.92 5.66-3.83 7.93-5.86 22.77-5.33 32.52l-28.29 14.17a50.78 50.78 0 01-9.18-6.48c-4-3.4-7.78-5-10.24-8.71a20 20 0 01-2.71-9.18c-.38-5.52-.28-12.77 1.19-18.62-.28-1.84-3-.54-3.23-.79-1.29 1-3 10.12-2.62 18a103.54 103.54 0 001.48 12.33c-.86 5.58-1.56 9.74-3.61 14.83a91.41 91.41 0 01-6.06-30.6c-.09-3.36.55-27.75 12.48-40.53.83 5.52 1 14.5 1.65 18.71 6.94-7 20.86-21.87 31.22-13.63 4.36 3.47 9.67 8.41 13.2 11.29a40.32 40.32 0 003.48 2.22c.93.62 4.26-1.35 2.4-2.93-7.74-6.58-12.88-10.65-15.74-13.54-2.23-2.25-3-3.95-3.1-4.49a30.92 30.92 0 012.35-19.63c2.06-4.35 12.94-11.24 30-12 2.31-.1-.14-4.24-1.27-4.36-14.22 0-27 9.27-28.35 9.16-3.23-.26-5.75-.85-9.65-1.4 10.75-8.65 29.06-15.06 47-15.06 5.26 0 9.75 1.09 14.72 2a28.33 28.33 0 01-8 6.64c9.92 5.77 14.29 10 20.3 22.4 6.88-1.16 23.87-2.48 27.27 0a9 9 0 012.15 2.4c2.29 3 5.79 8.14 6.34 8.9.82 1.22 3.75-1.12 2.49-2.87-1.43-2-4-5.67-5.49-8-1.31-2-1.08-4.79 0-5.19.65-.23 1.55.83 2.8 2.18A82.13 82.13 0 01586.4 649a12.56 12.56 0 01-6.66-3.36c-2.36 9.81-5.31 20.09-11.62 29.35a176.65 176.65 0 013.38 31c2.58.06 5-.29 7.55-.4A84.31 84.31 0 01550.71 738c.42-2.74 1.38-5.37 2.36-6.22.73-.64 2.71-2.41 4.33-4 2.37-2.3 5.1-5 7.07-7.23a24.45 24.45 0 003.7-5.32c1.24-3.54-3.69-2.23-3.76-2.11-1.52 2.33-8.84 10.14-12.6 13.43-3.26 2.84-3.24 2.93-7.66 3.79-4.94 1-19.26.52-19.72-1.89l-5.11-21.14c-.52-2.17-5-1-4.81 0 1.56 7.22 4.3 15.68 4.67 22.52-2.43 3.55-21.07 15.16-24.68 17.57a47.05 47.05 0 013.53 4.84A83.73 83.73 0 01468 745c-2.4-1.08-13.75-6.7-18.51-13.82 4.69-.69 5.67-1 7.35.35a57.59 57.59 0 004.39 3.91c4.94 3.46 9.3 5.45 13.87 6.24 1.64.42 1.15-4.08.27-4.09-2.77-.52-6.74-2.3-10.8-4.93-4.59-3-6.91-9.63-8-14.68s-2.32-11.63-2.08-18.17l28.64-15.09a77.1 77.1 0 0029.44 16c11.25-6.76 19.09-14 24.57-22.23 1.63-2.43 4-2.28 8.06-1.53a117.47 117.47 0 0014.47 1.59c1.05.21 1.69-4.44.21-4.65a84.53 84.53 0 01-21.88-3.7 60.52 60.52 0 00-12-21.5c-4.11-4.77-1.82-6.36-.27-12.32zm-44.59-81.7l10.24-12.5a37.9 37.9 0 005.5 5.4 49.07 49.07 0 017.18-6.14 92.62 92.62 0 017.08 7.52c2.91-1.26 4.94-4 7.29-6.68l8.87 14.62c-3-1.73-7-4.26-9.68-4.25-1.63 0-4.22 2.24-9 5.1-1.69-4.76-3.17-8.72-4.86-11.23a53.74 53.74 0 00-4.65 11.13c-3.14-2-7.55-5.41-8.9-5.46-2.81-.1-5.75 1.63-9.05 2.49zm46-18c-.81-1.71-1.07-1-1 .91.22 5.6 2.56 13.27 5.67 16.93s8.34 5.9 12.31 3.93c-6.72-5.29-13.52-14.43-17-21.77zm-45.9 2.8c1-1.59 1.08-.88.86 1-.54 4.83-3.46 12.59-6.77 16.08-3.05 3.2-8.27 5.38-13.2 2.64 7.35-4.36 14.71-12.93 19.11-19.75zm67.81-34.16c4.9 1 14.1 1.61 21.67-1.86a10.72 10.72 0 01-8.75 11.68c-6.18.93-12.67-2.53-12.92-9.82zm28.31-4.49a23.1 23.1 0 0016-12.41c2.9 4.81 2.18 10.36-1.63 13.64-2.63 2.26-10.14 4.2-14.35-1.23zm20.95-19c5.07-2.3 10.26-7.13 12.32-15.9 4.71 3.82 4.29 9.8 1.54 14-1.9 2.91-8.31 5.94-13.86 1.89zm14-24.75c3.38-3.24 7.37-10 8.38-19.33 5.52 2.51 6.47 8.93 4.86 13.7-1.11 3.29-5.51 8.22-13.24 5.63zm9.06-29.79c1.36-4.09 1-12.55-1.63-18.65 7.24-.15 9.69 5 9.93 9.18.2 3.48-1.59 9.43-8.3 9.47zm-5.6-27.29c-1.44-5-6.93-11.11-14.05-13.56 5.65-4.57 11.56-3.13 14.58-.26a9.93 9.93 0 01-.53 13.82zm-21.7-17.78a19.13 19.13 0 00-16.34-7c3.49-6.36 8.68-6.08 12.88-4.69 2.85.94 6.19 4.8 3.46 11.74zm17.54-6.47a36.34 36.34 0 0110.59 9.12c8.31-7.37 18.86-22.05 17.85-37.35-6.6 13.08-19.32 23.35-28.44 28.23zM571.2 519c-4.67 1.16-10.25 1.56-13.19.16 3.23 11.45 10.31 18.47 21.65 25.12-4.1-8.45-8.36-15.2-8.46-25.28zm28.22-15.76c-3 4.11-6.79 7.4-10.92 8.53 9.57 8.73 21.54 21.5 40 22.85-12.6-8.53-23.63-19.45-29.06-31.38zm23.19-30.1a18.89 18.89 0 01-7.84 12.59c11.65 7.21 38.82 15.31 50.83 11.78-16.16-4.53-32.43-14.06-43-24.37zm9.6-31.92c.83 2.14 1 6.4-.59 10.31 11.27 1 30.86-1.32 38.3-9.56a157.65 157.65 0 01-37.71-.75zm-1.68-38.44c1.89 4.17 3.52 8.45 2.79 12.68 12-5 28.27-17.69 32.3-30.73-11.9 10.13-22.13 16-35.09 18.05zm-40.28-37.84a16.46 16.46 0 0110.09 5.58c7.65-9.84 12.8-21.25 11.11-33.85a66.42 66.42 0 01-21.2 28.27zM461.48 505.47c-5.31 1.66-14.57 1.69-21.46-3.52a10.72 10.72 0 007.83 12.32c6.08 1.41 12.82-1.55 13.63-8.8zm-28.49-4a20 20 0 01-15-13.57 10.6 10.6 0 00.52 14.77c2.45 2.46 9.87 3.9 14.48-1.2zM411.13 478c-5.07-2.3-10.26-7.13-12.32-15.9-4.71 3.82-4.29 9.8-1.54 14 1.9 2.91 8.31 5.94 13.86 1.89zm-13.83-25c-2.89-3.67-5.9-10.91-5.6-20.31-5.82 1.72-7.66 7.94-6.73 12.89.64 3.42 4.31 8.92 12.33 7.42zm-6.88-28.44c-1.36-4.09-1-12.54 1.63-18.64-7.24-.16-9.69 5-9.92 9.18-.2 3.47 1.59 9.42 8.29 9.46zm7.09-26.87c1.44-5 6.93-11.11 14.05-13.56-5.65-4.57-11.56-3.13-14.58-.26a9.93 9.93 0 00.53 13.82zm21.41-19a19.16 19.16 0 0117-5.28c-2.8-6.69-8.08-8.14-12.25-6.66-3.42 1.22-6.73 4.75-4.76 11.94zm-18.7-3.3a36.33 36.33 0 00-11.41 8.06c-7.57-8.13-16.24-23.71-13.77-38.84 5.31 13.64 16.57 25.05 25.18 30.78zm36 144.78c4.42 1.88 12.22 1.83 15.35.92-5 10.79-13.38 18.27-25.64 23 5.39-7.69 8.59-14 10.29-23.94zm-24.81-17.95c3 4.11 7 8.23 11.13 9.37-9.57 8.73-20.91 19.8-38.08 19.26 12.6-8.54 21.51-17.55 26.95-28.63zm-22.56-30.1c.48 6.26 5.31 10.27 9.32 12.58-11.65 7.21-32.28 11.51-44.29 8 15.32-4.52 25.46-11.1 35-20.56zm-9.39-32.35a17.47 17.47 0 002.49 12.22c-11.26 1-27.06-2.59-34.5-10.84 18.19 1.87 25 .45 32-1.38zm2.49-38.17c-2.19 4-3.57 9.06-3.16 13.32C367.2 409 355.14 397 352.34 386.3c11.47 8.9 16.81 12.23 29.58 15.24zm41.12-38a25 25 0 00-10.56 4.65c-6.72-10.49-11.26-22.14-8.44-34.54 4.27 13.94 11.49 22.78 19 29.89z" transform="translate(-84.05 -11.62)"/><path class="cls-3" d="M498 373.52c.66-2.6-2-6.4-4-7.95-2.24-1.77-5.18-1.73-7.86-1.26a8.48 8.48 0 00-4 1.95l-2.6 2.11-.25-3.34c-.67-9.1 5.5-14 14.19-12.52 8.32 1.45 12.33 11.76 11.87 19.32-.38 6.31-5.87 10.06-11.59 11.3-5 1.08-10.38-1-11.3-6.55l-.45-2.71 2.64.74a19.6 19.6 0 004.88.61 23.66 23.66 0 005.75-.6 7.57 7.57 0 002.68-1.1zm1.66.57c-.68 2.4-9.69 3.79-15.44 2.2.82 4.92 5.65 5.89 9.21 5.12 5.79-1.24 9.92-4.81 10.21-9.68.43-7.14-3.37-16.27-10.42-17.49-6.38-1.1-12.81 1.58-12.14 10.66a9.93 9.93 0 014.79-2.31c3.23-.57 6.59-.49 9.25 1.61 3.17 2.49 5.37 7 4.54 9.89z" transform="translate(-84.05 -11.62)"/><path class="cls-3" d="M493.86 373.3a11.4 11.4 0 00-8.66-3.92c-5.27.31-7.71 3.56-12.15 3.61a10.06 10.06 0 01-7.92-3.18c2 4.31 4.38 6.38 7.92 6.78 4.6.51 8.05-3.6 12.57-4.56 2.15-.45 6.06.6 8.24 1.27z" transform="translate(-84.05 -11.62)"/></svg>