<svg viewBox="0 0 1000 489.86" xmlns="http://www.w3.org/2000/svg"><path d="M956.72 125.63L59.61 388.31a233.64 233.64 0 01-49-143.32c0-129.2 105.13-234.42 234.33-234.42h510.08c85.72-.04 160.78 46.27 201.7 115.06z" fill="#db1f26"/><path d="M244.95 479.31h510.14c129.26 0 234.4-105.14 234.4-234.37a232.75 232.75 0 00-32.78-119.37l-897 262.66c42.92 55.34 110 91.08 185.31 91.08" fill="#fff"/><path d="M10.54 244.94c0-129.25 105.17-234.42 234.41-234.42h510.14c129.26 0 234.4 105.17 234.4 234.42s-105.17 234.37-234.4 234.37H244.95c-129.24 0-234.41-105.14-234.41-234.37M244.95 0C109.89 0 0 109.86 0 244.94s109.89 244.91 245 244.91h510.09c135.08 0 244.94-109.88 244.94-244.91S890.14 0 755.09 0z" fill="#1b171b"/><path d="M592.57 201.41c-.7 1.5-21.91 45-35.38 72.82-10.64-22.46-28-59.08-36.55-77h69.74c3.85 0 2.9 2.66 2.19 4.18m-220.24 85.1c3.57-8.7 11.46-28 16.78-41a26316.1 26316.1 0 0016.78 41zm470.76 92.1l-30.7-64.84c-6.22-12.75-16.87-19.75-30-19.75h-71.21c-2.6 0-3.72-2-2.77-4l9.94-21.07 24.96-52.64a43.48 43.48 0 004.51-19.13c0-9.88-3.47-17.57-5.15-21.33-.31-.64-42.89-86.14-42.89-86.14-7.44-14.9-22.08-24.15-38.2-24.15H346.46c-11.58 0-21.93 6-28.42 16.36-.27.47-146.5 298.35-146.5 298.35-7.11 14.18-2.91 24.87.24 30 6.43 10.46 17.68 14.2 26.09 14.2h82.98c22.6 0 31.1-15.77 35.57-24.1 11.31-19.87 12.73-22.51 13.94-24.35.9-1.41 2.65-1.78 6.13-1.78h106.3c3.45 0 5.22.37 6.12 1.78 1.21 1.84 2.63 4.48 14 24.35 4.47 8.33 13 24.1 35.59 24.1h316.06a31 31 0 0026.14-14.75c6-9.5 6.89-21.4 2.43-31.12" fill="#1b171b"/><path d="M420.92 297.09a1.24 1.24 0 01-1.05.65h-61.53a1.26 1.26 0 01-1-.62 1.86 1.86 0 01-.17-1.61l30.76-78a1.35 1.35 0 011.21-.92 1.31 1.31 0 011.19.92l30.78 78a1.78 1.78 0 01-.16 1.58m-20.86-83.47a11.78 11.78 0 00-22 0l-30.76 78a12.32 12.32 0 001.12 11.22 11.75 11.75 0 009.88 5.4h61.53a11.75 11.75 0 009.91-5.43 12.29 12.29 0 001.11-11.15zM818.4 395.68a4.8 4.8 0 01-4.19 2.45c-4.77.08-95.48.08-269.63 0v-.17c-5.27 0-8.7-4.55-9.94-6.53-3.65-5.82-4.37-13.31-1.79-18.62L562.79 311l.17-.1-.07-.12 49.68-102.47c3.7-8 3.43-16.56-.71-23a19.89 19.89 0 00-17.22-9.16h-95.69l-40-84.2h202.6a16.23 16.23 0 0114.45 9.23c13.81 27.53 40.46 80.71 42.39 85 2.38 5.34 4.43 11.22.86 19.28-4.58 10.33-31.12 66.12-34 72-5.89 11.75-7.35 22.42-2 31 3.9 6.33 11 11.77 19.66 11.77l79.53.15c2.36 0 4.06.31 6.21 4.8l30.56 64.47a7.09 7.09 0 01-.77 6m-314.45-209h90.69a9.47 9.47 0 018.34 4.25c2.18 3.45 2.22 8.22.08 12.84l-46.01 94.84zm10.83 211.46h-16.31c-4.86 0-6.89 0-12.66-10.71l-15-25.62c-5.42-8.71-15.91-13.9-28-13.9H336.5c-12.12 0-22.6 5.19-28.07 13.9l-14.94 25.64c-5.77 10.71-7.78 10.71-12.63 10.71l-82.88-.15c-1.52 0-3.22-.69-3.73-1.55a1.59 1.59 0 01-.23-.89 8 8 0 011-3.37c4.94-9.74 139.84-285 145.59-296.74a6.87 6.87 0 015.81-3.5h100.89l103.9 218.83-27.87 57.47c-4.15 8.59-3.2 19.89 2.38 28.83.24.4.59.7.84 1.09zm314-12.92l-30.73-64.65c-3.59-7.31-8.57-10.7-15.71-10.7l-79.53-.15c-4.38 0-8.93-3.3-10.68-6.79-2.88-5.68-1.69-12.35 2.51-20.73 2.95-5.89 29.61-62 34.23-72.42 5.75-13 1.24-23-.88-27.86-2.53-5.61-40.94-82.17-42.58-85.43a26.73 26.73 0 00-23.89-15.06h-315.1c-6 0-11.46 3.25-15 8.9-1.66 3.35-140.88 287.44-145.78 297.08-3.5 6.89-2.14 11.73-.4 14.58 3 4.85 8.71 6.56 12.7 6.56l82.9.14c11.24 0 15.86-5 21.92-16.24l14.62-25c3.5-5.6 10.65-8.92 19.1-8.92h106.3c8.46 0 15.62 3.32 19.12 8.92l14.61 25c6.07 11.22 10.68 16.24 21.94 16.24h16.31c193.68.09 294.51.09 299.62 0a15.33 15.33 0 0012.9-7.35c3.1-5 3.67-11.27 1.43-16.09" fill="#fff"/></svg>