<svg viewBox="0 0 925.62 1000" xmlns="http://www.w3.org/2000/svg"><path d="M910.82 211.2l-160-199.07h-576l-160 199.07c29.06 9.4 99.48 93.67 64.75 162.38-49.41 97.73-63.75 143-57.15 190.46 9.52 68.39 107.72 153.34 133.33 175.83 5.93 5.21 21 17.26 48.81 39.18 88.33 69.76 258.25 208.81 258.25 208.81.94-.77 169.89-139.05 258.24-208.81 27.78-21.92 42.88-34 48.81-39.18 25.61-22.49 123.81-107.44 133.35-175.83 6.6-47.47-7.73-92.73-57.15-190.46-34.73-68.71 35.69-152.98 64.76-162.38z" fill="#00539f" fill-rule="evenodd"/><path d="M73.19 558.87c.58 5.9 5.4 19 14.23 33.18 8.71 14.31 20.88 30.06 33.94 44.64 26.32 29.65 55.45 55.05 68.22 66.26 1.57 1.39 6.69 5.62 14.42 11.81 7.79 6.25 18.47 14.71 32.31 25.62 65.14 51.43 172.9 139.13 226.49 182.87 52.91-43.18 160.87-131 226.51-182.89 13.83-10.89 24.5-19.35 32.3-25.6 7.73-6.19 12.84-10.42 14.42-11.81 12.77-11.21 41.86-36.57 68.31-66.38 13-14.46 25.13-30.21 33.84-44.52 8.83-14.2 13.66-27.28 14.22-33.18v-.35a102.36 102.36 0 001-13.68v-1.15c0-12.94-2.63-28.27-10.77-51.42-8.13-23.14-21.83-53.47-42.39-94a141 141 0 01-15-63.77v-1.12c.57-43.37 18-80.5 38.12-108.84a214.42 214.42 0 0115.68-19.16L726.26 64.94H199.34L86.57 205.38a215.32 215.32 0 0115.61 19.24c20.26 28.48 37.76 66 38.08 109.76l-.58 13.23a140 140 0 01-14.42 50.71c-20.53 40.51-34.23 70.83-42.36 94-8.17 23.25-10.76 38.61-10.77 51.57v.36a103.7 103.7 0 001 14.33v-.14l.06.49z" fill="#231f20"/><path d="M726.26 64.94H199.34L86.57 205.38a215.32 215.32 0 0115.61 19.24c20.26 28.48 37.76 66 38.08 109.76l-.59 13.23a139.78 139.78 0 01-14.41 50.71c-20.53 40.51-34.23 70.83-42.36 94s-10.76 38.61-10.77 51.57v.36a103.7 103.7 0 001 14.33v-.14l.06.49c.58 5.9 5.4 19 14.23 33.18s20.88 30.06 33.94 44.64c26.32 29.65 55.44 55.05 68.22 66.26.89.78 2.94 2.51 5.92 4.94l580.74-580.79z" fill="#fff"/><path d="M204 714.76c7.79 6.25 18.47 14.71 32.31 25.62 65.14 51.43 172.9 139.13 226.49 182.87 52.91-43.18 160.87-131 226.51-182.89 13.83-10.89 24.5-19.35 32.3-25.6s12.84-10.42 14.42-11.81c12.77-11.21 41.86-36.57 68.31-66.38 13-14.46 25.13-30.21 33.84-44.52s13.66-27.28 14.22-33.18v-.35a102.36 102.36 0 001-13.68v-1.15c0-12.94-2.63-28.27-10.77-51.42s-21.83-53.47-42.39-94a141 141 0 01-15-63.77v-1.12c.57-43.37 18-80.5 38.12-108.84a214.42 214.42 0 0115.68-19.16l-62.81-78.19-580.73 580.7c2.3 1.88 5.13 4.18 8.5 6.87z" fill="#ed1b2f" fill-rule="evenodd"/><path d="M847.33 331.55c-.25-27.08 12.81-55.51 28.46-76.42s20.83-29.48 49.84-43.64l-4.31-5.57L755.97 0H169.64L4.31 205.91 0 211.48c29.01 14.16 49.89 43.64 49.89 43.64 15.65 20.91 28.71 49.34 28.46 76.42a78.53 78.53 0 01-8.38 35.84C27.89 450.73 10.25 497.24 10.16 541.3a165 165 0 001.62 22.9c5.63 38.46 33.83 77.37 63.25 110.75 29.48 33.21 60.86 60.43 73.63 71.65 6.43 5.64 21.4 17.57 49.25 39.54 88.42 69.81 264.9 213.86 264.9 213.86S639.28 856 727.7 786.14c27.85-22 42.82-33.9 49.25-39.54 12.81-11.27 44.15-38.44 73.63-71.65 29.42-33.38 57.62-72.29 63.25-110.75a165 165 0 001.62-22.9c-.09-44.06-17.74-90.57-59.81-173.89a78.53 78.53 0 01-8.31-35.86zm45.26 232.57c-3.91 29.93-29.58 67.67-58.05 99.48-28.4 32-59 58.53-71.75 69.78-5.44 4.78-20.66 17-48.38 38.81-78.17 61.72-217.79 175.73-250.24 202.26l-1.36 1.12-2.68-2.19c-36.9-30.16-172.74-141-248.93-201.19-27.72-21.86-42.94-34-48.38-38.81-12.79-11.25-43.36-37.8-71.76-69.78-28.46-31.81-54.13-69.55-58-99.48a143.36 143.36 0 01-1.41-19.92c-.1-37.61 15.57-81.41 57.51-164.22a100.41 100.41 0 0010.62-45.54c-.08-32.23-13.7-62.81-30.5-86.24a151.81 151.81 0 00-27-29.17 92.93 92.93 0 00-12-8.28L179.89 24.43h565.8l149.66 186.32a92.93 92.93 0 00-12 8.28 152.16 152.16 0 00-27 29.17c-16.79 23.43-30.41 54-30.49 86.24a100.41 100.41 0 0010.63 45.54C878.43 462.79 894.1 506.59 894 544.2a143.36 143.36 0 01-1.41 19.92z" fill="#fff"/><path d="M120.441 655.666L727.563 48.544 868.3 189.28 261.177 796.402z" fill="#00539f"/><path d="M152.15 666.99c3.61-3 7.32-5.92 10.64-9.22s6.21-7 9.23-10.63l40.48 40.56c7.84 7.84 19.28 19.79 27.87 26 8.18 5.79 13.66 9.17 23.42 9.39a28.7 28.7 0 0021.23-8.94c12.34-12.27 14.11-23.77 6.36-40.77-3.88-8.65-20.13-24.91-27.11-31.91l-43.21-43.27a45.35 45.35 0 005.74-4.84 47.87 47.87 0 004.88-5.74l50.73 50.76c15.86 16.66 30.81 31.37 27.29 55.42-1.6 12.7-8.75 23.85-17.48 32.59-16.05 16-38.83 27.91-62.27 14.24a101.37 101.37 0 01-19.64-15.4zm236.3-40.38c-3.61 3-7.35 5.9-10.68 9.2s-6.2 7.07-9.21 10.67l-87.67-87.81a241 241 0 00-22.66 26.62 65.73 65.73 0 00-5.48-6.82 61.91 61.91 0 00-6.65-5.31L314.37 505a70.14 70.14 0 005.31 6.66 64.11 64.11 0 006.81 5.46c-8.82 6.84-17.65 13.64-25.73 21.71zm-61.34-134.32l28.25-28.19c6.22-6.22 15.6-16.17 24.33-18.59 11.82-3.26 22.2-.8 31.89 8.91 14 14 14.45 31.17 5 46.36 21 6.4 42.3 11.34 63.51 16.67l14 3.69c-4.26 3.67-8.66 7.22-12.77 11.33s-7.54 8.36-11.23 12.62l-45.7-14.23c-5.84-1.87-16.09-4.73-24.43-7.24l-.93.93 45.75 45.83c-3.61 3-7.34 5.89-10.67 9.23s-6.2 7-9.22 10.63zm65.78 26.09c15.36-12.46 15.13-26.49.43-41.19a55.32 55.32 0 00-7.77-6.46c-14-9.74-22.76 1.33-30.83 9.39zm66.12-157.77a69.26 69.26 0 005.46 6.81 71.19 71.19 0 006.79 5.47 246.38 246.38 0 00-32.63 28.56l30.66 30.71 13.79-13.78a160.27 160.27 0 0015-17.57 67.13 67.13 0 005.46 6.8 65.14 65.14 0 006.8 5.48 158.12 158.12 0 00-17.6 15l-13.79 13.76 36.22 36.27c13.36-13.66 21.67-23.36 28.64-32.58a67.14 67.14 0 005.43 6.8 71 71 0 006.81 5.48l-50.52 50.42-97.04-97.21zm169.13-6.38l9.34 15.15c-3.55 12.37-11.24 23.48-20.12 32.35-28.37 28.31-68.66 30.9-97.88 1.64-37.21-37.25-30.31-78.06-1.42-106.91 8.76-8.73 21.79-16.89 34-20 3.65 6 7.72 11.69 11.63 17.74l-1.8 1.89c-12.6-2.81-26.51.24-35.13 8.84-22 22-8.22 53.53 12.75 74.52 24.37 24.4 52.62 30.42 73 10 8.21-8.2 13.18-22.3 13-34.4zm-63.88-98.71c3.58-3 7.35-5.9 10.65-9.22s6.19-7 9.22-10.62l38.63 38.7c7-6.46 14.23-12.79 21-19.54s13.09-13.92 19.58-20.95l-38.62-38.7c3.56-3 7.32-5.9 10.65-9.21s6.18-7 9.2-10.64l97.79 97.93c-3.6 3-7.33 5.91-10.65 9.21s-6.21 7.05-9.23 10.66l-47.76-47.85c-7 6.48-14.23 12.8-21 19.55s-13.08 13.93-19.56 20.95l47.73 47.81c-3.62 3-7.35 5.9-10.67 9.21s-6.2 7.05-9.2 10.65zm236.68-40.77c-3.6 3-7.33 5.9-10.65 9.21s-6.2 7-9.23 10.64l-87.65-87.79a239.72 239.72 0 00-22.68 26.62 65.56 65.56 0 00-5.46-6.8 65.78 65.78 0 00-6.63-5.33l68.25-68.16a63.42 63.42 0 005.31 6.65 64 64 0 006.79 5.47c-8.83 6.82-17.65 13.63-25.71 21.7z" fill="#fff"/><path d="M298.68 338.08c-7.77-.62-15.54-1.55-23.31-1.55s-15.52.93-23.29 1.55V125h118.35c-.63 4.36-1.55 9-1.55 13.36s.92 9 1.55 13.36a562.8 562.8 0 00-71.75-4.34v66.77h32.92c12.11 0 24.54-1.24 37.58-2.78-.62 4.34-1.55 9-1.55 13.35s.93 9 1.55 13.35c-13-1.23-25.47-2.79-37.89-2.79h-32.61z" fill="#ed1b2f"/><path d="M697.03 683.02l-6.28 24.54c-17.11 8.83-37.36 12.27-56.48 12.27-61 0-107.22-37.66-107.22-96.12 0-74.45 51.34-108.33 113.51-108.33 18.82 0 41.65 4.85 58.18 14-2.57 9.69-4.28 19.39-6.56 29.36h-4c-10.55-15.39-28.8-26.22-47.34-26.22-47.34 0-66.45 45.34-66.45 87.26 0 48.77 24 83 67.87 83 17.69 0 38.22-9.14 51.06-21.39z" fill="#fff"/></svg>