<svg id="jong-psv" xmlns="http://www.w3.org/2000/svg" viewBox="0 0 1000 697.18"><defs><style>.cls-1{fill:#fff}.cls-4{fill:#231f20}</style></defs><path class="cls-1" d="M511.81 860.21c-275.64 0-499.9-156.37-499.9-348.58S236.18 163 511.83 163s500.08 156.37 500.08 348.58-224.34 348.6-500.1 348.6" transform="translate(-11.91 -163.03)"/><path class="cls-1" d="M27 511.62C27 327.31 244.14 177.9 512 177.9s485.25 149.39 485.25 333.71S779.9 845.34 512 845.34 27 695.83 27 511.62" transform="translate(-11.91 -163.03)"/><path d="M103.33 511.63a165.08 165.08 0 002.89 30.6H917.5a163 163 0 00.36-59.27h-812a164.94 164.94 0 00-2.54 28.67m27.12 92.23c13 21.26 30.34 41.16 51.36 59.27H842c21-18.11 38.35-38 51.33-59.27H130.44m-1.19-182.53h765.26c-12.63-21.23-29.58-41.13-50.2-59.27H179.47c-20.62 18.14-37.58 38-50.22 59.27M283.3 724.76c65.22 27.77 143.87 44 228.51 44s163.42-16.22 228.65-44H283.3m461.86-424.33c-66.13-29-146.54-46-233.33-46s-167 17-233.18 46h466.51" transform="translate(-11.91 -163.03)" fill="#ed1c24"/><path d="M26.79 511.62c0-184.32 217.14-333.72 485-333.72S997 327.29 997 511.61 779.69 845.34 511.81 845.34s-485-149.51-485-333.72m485 257.09c225.83 0 408.55-115.18 408.55-257.1s-182.72-257.2-408.53-257.2c-225.55 0-408.46 115.17-408.46 257.21s182.91 257.1 408.44 257.09" transform="translate(-11.91 -163.03)" fill="#bb9753"/><path class="cls-1" d="M188.26 665.78c59.1-42.1 99.66-103.78 117.79-193.24 18.6-91.73 8.75-180.14 3.36-215.33l675.32 237.43-793.48 170.6m98.84-434.33L321 241.16a16.05 16.05 0 001.68-7 16.46 16.46 0 00-32.59-3.21" transform="translate(-11.91 -163.03)"/><path class="cls-1" d="M142.33 560.88l13.7 4.21L300.38 76.97l-13.99-4.32-144.06 488.23z"/><path class="cls-4" d="M625.86 248.67l-19.58 32.9h16.4l-30.26 46.26-4.37-79.16h-34.63l8.23 132.05h35.77l77.91-132.05h-49.47z"/><path class="cls-4" d="M458.88 454.11c5.59-26.26-11-42.42-39.82-42.42H361l-16 29.88h18.1l-30 102.18h34.5l13.19-42.42c13.8 0 25.17-.12 34.41-2.53 32.53-8.07 40.42-29.15 43.68-44.69m-35.24 2.05c-3 13-13 14.09-19 14.09h-15.8l8.28-29.25h12.45c7 0 17.32 2.3 14.07 15.2" transform="translate(-11.91 -163.03)"/><path class="cls-4" d="M536.77 415.9c-43.16-31.27-92.24 30.24-63.22 57.49 4.78 4.48 7.3 5.74 16.62 11.2 16 9.4 7.09 24.21-5.33 27.07a20.71 20.71 0 01-15-2.44c-6.83-4.08-10.53-8.25-13.11-15L433.12 518c52.22 68.49 138.17-15.2 89.84-49.83-4.85-3.63-29.35-12.93-19.57-25.86 8.52-11.59 29.23 2.3 40.32 7.6l18.13-29.1L540.25 410l-3.48 5.91" transform="translate(-11.91 -163.03)"/><path class="cls-1" d="M366 773.22l-17.9-4.54-12.2-3.47c-3.29-.89-5.48-1.62-5.51-1.63a5.07 5.07 0 00-1.55-.24 5.43 5.43 0 00-5.15 3.84c-.64 2-.72 5.25 1.33 6.12l2.16.72s2.29.75 5.65 1.69l12.43 3.53c9.11 2.31 18.21 4.6 18.23 4.6a6.58 6.58 0 014.91 7.87 6.67 6.67 0 01-6.49 5.14 7 7 0 01-1.46-.16l-18.6-4.69-12.73-3.63c-3.42-.93-5.71-1.69-5.74-1.7l-.85-.28v.08a7.72 7.72 0 00-.83-.06 5.45 5.45 0 00-5.21 3.81 5.54 5.54 0 003.68 6.89s2.38.78 5.88 1.76 8.24 2.33 12.95 3.68l19 4.79a18.28 18.28 0 004 .45 17.38 17.38 0 0017.12-13.72c1.91-9.46-4-18.82-13.07-20.83m-72.28-22.33c-.09 0-8.7-3.27-17-6.92-4.37-1.78-8.66-3.77-11.52-5.11l-5.25-2.41a5.43 5.43 0 00-2.18-.46 5.53 5.53 0 00-4.95 3.12 5.41 5.41 0 00-.25 4.26 5.13 5.13 0 001.94 2.52l-.07.06 6.17 2.84c2.89 1.35 7.27 3.38 11.79 5.23 8.5 3.71 17.31 7 17.39 7.06a6.68 6.68 0 013.77 8.55 6.48 6.48 0 01-6.1 4.22 6.63 6.63 0 01-2.43-.46c-.09 0-9.1-3.43-17.83-7.24-4.59-1.88-9.09-4-12.09-5.36l-5.48-2.53a5.66 5.66 0 00-2.36-.51 5.46 5.46 0 00-5 3.06 5.31 5.31 0 00-.23 4.19 5.48 5.48 0 002.92 3.13l5.57 2.58c4.73 2.22 8.78 4 12.36 5.48 8.9 3.89 18.11 7.36 18.19 7.4a17.43 17.43 0 006.44 1.24 17.22 17.22 0 0016.32-11.55 17.8 17.8 0 00-10.14-22.39m-67.84-32.37l-4.91-2.91c-2.94-1.66-6.7-4.08-10.63-6.62-3.79-2.36-7.58-4.87-10.42-6.91l-4.68-3.25a5.37 5.37 0 00-3-.91 5.55 5.55 0 00-4.47 2.29 5.46 5.46 0 00-1 4.16 5.06 5.06 0 00.92 2.18l1.23 1.2 4.79 3.32c2.85 2 6.76 4.65 10.71 7.12s7.86 5 10.94 6.79l5 3a6.77 6.77 0 012.41 9 6.49 6.49 0 01-9 2.41l-5.2-3.08c-3.21-1.82-7.49-4.57-11.26-7-4.06-2.54-8.08-5.21-11.05-7.34l-5.14-3.56a5.84 5.84 0 00-3.09-.89 5.43 5.43 0 00-4.43 2.21 5.29 5.29 0 00-1 4.08 5.52 5.52 0 002.34 3.63l5.08 3.53c3.11 2.22 7.25 5 11.35 7.53s8.27 5.32 11.55 7.19l5.31 3.13a17.47 17.47 0 008.93 2.47 17.08 17.08 0 0015.2-9.08 17.8 17.8 0 00-6.49-23.67m-64.75-47.13c-1.56-1.43-3.41-3.22-5.36-5.11l-3.58-3.45c-2.13-2-4.15-4.19-5.93-6.09-.95-1-1.84-2-2.65-2.8-2.32-2.35-3.73-4.07-3.76-4.11a5.52 5.52 0 00-7.52-.34 5.4 5.4 0 00-.65 7.59c.06.07 1.51 1.84 3.94 4.32.85.87 1.76 1.85 2.75 2.9 1.85 2 3.94 4.18 6.13 6.31l3.67 3.52c2 2 3.95 3.83 5.59 5.32l4.36 3.85a6.76 6.76 0 01.55 9.34 6.39 6.39 0 01-4.87 2.25 6.68 6.68 0 01-4.43-1.71l-4.54-4c-1.74-1.6-3.82-3.6-6-5.73-1.19-1.14-2.41-2.33-3.63-3.49-2.28-2.22-4.48-4.55-6.42-6.61-1-1.08-2-2.1-2.85-3-2.5-2.56-4-4.44-4.07-4.47a5.65 5.65 0 00-4.24-1.94 5.4 5.4 0 00-3.54 1.31 5.23 5.23 0 00-1.81 3.63 5.85 5.85 0 001.26 4.06l.15.19s1.65 2 4.26 4.66c.89.91 1.85 1.94 2.89 3 2 2.15 4.31 4.58 6.69 6.89 1.23 1.17 2.45 2.35 3.63 3.5 2.3 2.22 4.48 4.33 6.32 6l4.65 4.12a17.31 17.31 0 0011.68 4.66 16.87 16.87 0 0013.34-6.38 18 18 0 00-1.78-24.4zm-44.22-51.19l-3-4.7c-2-2.92-4.33-7.1-6.18-10.44-1.81-3-3.39-6.24-4.66-8.83l-2.71-5.46a13.8 13.8 0 01-.6-1.33 5.08 5.08 0 00-4.75-3 5.93 5.93 0 00-2.26.46 5.41 5.41 0 00-3 7 13.47 13.47 0 00.68 1.51l2.81 5.55c1.35 2.76 3 6.19 5 9.42 1.92 3.47 4.39 7.84 6.49 10.94l3.09 4.87a6.65 6.65 0 01-1.76 9.09 6.53 6.53 0 01-9.23-1.78l-3.29-5.17c-2.25-3.34-5-8.18-6.84-11.54-2.05-3.46-3.86-7.13-5.3-10.08l-.9-1.82c-.82-1.65-3.56-7-3.56-7-1.57-2.48-4.29-2.39-6.31-1.54a5.27 5.27 0 00-2.89 3.1 6.05 6.05 0 00.14 4.37 17.22 17.22 0 00.75 1.66l3 6.1c1.51 3.08 3.39 6.9 5.52 10.49 3 5.48 5.31 9.31 7.14 12l3.42 5.36a17.92 17.92 0 0014.72 8 16.24 16.24 0 0010-3.45c7.51-5.81 9.51-16.56 4.48-23.93m-41.35-44.32a19 19 0 0010.29-8.5 17.16 17.16 0 001.9-12.48l-1.21-5.33c-.6-2.24-1-5.08-1.52-8.09-.18-1.19-.38-2.42-.58-3.65a77.27 77.27 0 01-1-8c-.12-1.39-.23-2.69-.37-3.84a40.5 40.5 0 01-.34-5.34l-.07-.67a5.38 5.38 0 00-5.54-4.25 5.37 5.37 0 00-3.86 1.68 5.14 5.14 0 00-1.42 3.7 49 49 0 00.37 5.8c.16 1.19.26 2.54.39 4a81.79 81.79 0 001 8.56q.31 1.88.6 3.72c.51 3.23 1 6.29 1.63 8.71l1.26 5.58a6.72 6.72 0 01-4.72 8 6.36 6.36 0 01-1.74.24 6.42 6.42 0 01-6.35-5l-1.36-6c-.69-2.65-1.23-6-1.79-9.62-.2-1.21-.39-2.43-.59-3.65-.6-3.17-.87-6.4-1.12-9.25-.13-1.5-.24-2.91-.4-4.17a51.87 51.87 0 01-.39-6.08 5.6 5.6 0 00-5.63-5.48 5.14 5.14 0 00-3.66 1.64 6 6 0 00-1.62 4.32 55.33 55.33 0 00.42 6.51c.15 1.29.27 2.72.4 4.24.27 3 .56 6.49 1.19 9.87.21 1.23.4 2.45.59 3.66.61 3.84 1.18 7.47 1.92 10.33l1.42 6.26a17.8 17.8 0 008.47 11.41 15.9 15.9 0 008.05 2.17 16.71 16.71 0 005.35-.88m-10.11-77.01h1c9.27 0 17.25-6.5 18.16-14.76l1-5.32c.23-1.07.45-2.27.68-3.56a68.75 68.75 0 011.83-8.11c.46-1.58.87-3.18 1.27-4.71.67-2.52 1.29-4.9 2-6.8l2-6c.71-2.41-1.14-4.87-3.63-5.81a5.38 5.38 0 00-2-.37 5.19 5.19 0 00-4.91 3.43l-1.84 5.4c-.74 2.08-1.42 4.66-2.14 7.4-.41 1.55-.83 3.17-1.29 4.76a71.86 71.86 0 00-2 8.78c-.24 1.29-.46 2.5-.7 3.6l-1.1 5.67a6.5 6.5 0 01-7.26 5.52 6.4 6.4 0 01-4.31-2.4 6.9 6.9 0 01-1.45-5.14l1.14-6c.26-1.17.49-2.46.75-3.83a83.34 83.34 0 012.1-9.36c.46-1.64.9-3.3 1.32-4.91.8-3 1.54-5.82 2.33-8.06l2-5.81a5.7 5.7 0 00-3.24-7.19 5.14 5.14 0 00-1.82-.33 5.69 5.69 0 00-5.25 3.91L58 444.92c-.85 2.41-1.65 5.43-2.49 8.62-.43 1.65-.88 3.34-1.35 5a90.39 90.39 0 00-2.25 10c-.25 1.41-.49 2.72-.75 3.92l-1.22 6.38A18.86 18.86 0 0054 493.19a15.91 15.91 0 0011.43 5.69m19.66-75.07a19 19 0 008 1.76 17.29 17.29 0 0015.33-8.67l3.52-5.9c1.58-2.66 3.55-6 5.82-9.13 4.77-7.34 11-15.43 11-15.43 1.28-2.27.27-4.82-1.72-6.43a5.42 5.42 0 00-3.41-1.23 5.18 5.18 0 00-4.11 2c-.06.07-5.88 7.34-10.86 15-2.43 3.35-4.51 6.88-6.19 9.71l-3.58 6a6.82 6.82 0 01-8.88 2.58 6.58 6.58 0 01-3.26-4 6.31 6.31 0 01.63-5l3.74-6.27c1.78-3 4-6.76 6.56-10.31 5.26-8.08 11.35-15.68 11.41-15.75l.36-.46a5.66 5.66 0 00-1.17-7.34 5.15 5.15 0 00-3.27-1.15 5.72 5.72 0 00-4.51 2.25c-.06.08-6.38 8-11.86 16.39-2.7 3.75-5 7.71-6.92 10.89l-3.81 6.4a18.22 18.22 0 00-1.45 14.44 16.11 16.11 0 008.62 9.72m56.16-59.64a16.43 16.43 0 0012-4.9c.06-.06 6.63-6.25 13.21-12.24l9.53-8c2.51-2.18 4.36-3.49 4.4-3.52a5.36 5.36 0 00.83-7.5 5.44 5.44 0 00-4.36-2.17 5.27 5.27 0 00-3.2 1.07c-.08.05-2 1.39-4.59 3.68l-9.82 8.26c-6.81 6.18-13.57 12.59-13.66 12.67a6.7 6.7 0 01-9.21 0 6.4 6.4 0 01-2-4.57 6.8 6.8 0 011.93-4.87c.07-.06 7.12-6.75 14.21-13.17l10.2-8.59c2.7-2.33 4.65-3.74 4.68-3.75l.27-.2a5.5 5.5 0 00.82-7.48 5.35 5.35 0 00-4.3-2.09 5.78 5.78 0 00-3.51 1.18c-.08.06-2.07 1.48-4.88 3.92l-10.48 8.83c-7.32 6.62-14.58 13.51-14.68 13.6a18.28 18.28 0 00-5.31 13.39 16.39 16.39 0 005.46 11.72 18.63 18.63 0 0012.46 4.77m61.05-48.21a18 18 0 009.31-2.61l4.83-3c3-2 7.34-4.48 10.77-6.41 7.75-4.62 15.92-8.77 16-8.81l.36-.18a5.49 5.49 0 00-3-10.06 5.28 5.28 0 00-2.43.59c-.08 0-8.46 4.3-16.42 9-3.49 2-7.9 4.5-11.07 6.59l-4.93 3.12a6.56 6.56 0 01-3.46 1 6.8 6.8 0 01-5.68-3 6.34 6.34 0 01-.93-4.86 6.6 6.6 0 013-4.22l5.12-3.23c3.32-2.19 8.08-4.91 11.38-6.78 8.19-4.86 16.79-9.24 16.87-9.28l.36-.21a5.55 5.55 0 002.06-7.2 5.39 5.39 0 00-4.84-2.92 5.74 5.74 0 00-2.63.64c-.09.05-8.89 4.53-17.28 9.51-3.7 2.09-8.36 4.77-11.69 7l-5.21 3.29a17.21 17.21 0 00-5.16 24.52 17.8 17.8 0 0014.68 7.65m107.01-61.11l-.38.12c-.09 0-9 3-17.65 6.41-8.74 3.17-17.34 7-17.41 7a6.36 6.36 0 01-2.51.51 6.74 6.74 0 01-6.15-4 6.37 6.37 0 01-.1-5 6.57 6.57 0 013.61-3.69c.09 0 8.89-3.94 17.84-7.19 8.84-3.51 18-6.53 18.06-6.56l.45-.15a5.53 5.53 0 003.05-6.77 5.45 5.45 0 00-5.2-3.69 5.71 5.71 0 00-1.83.3c-.09 0-9.42 3.12-18.43 6.69-9.13 3.32-18.14 7.31-18.21 7.35a17.24 17.24 0 00-9.17 23.25A18 18 0 00271.47 280a17.57 17.57 0 006.66-1.31c.08 0 8.48-3.77 17-6.88 8.43-3.36 17.19-6.23 17.28-6.27a5.47 5.47 0 00-3.14-10.45M384.14 235l-.76.08s-2.38.38-5.79 1.19L365 239.1c-3.91.82-7.8 1.85-10.92 2.67l-7.32 1.92a6.86 6.86 0 01-1.63.2 6.76 6.76 0 01-6.47-4.92 6.39 6.39 0 01.61-4.93 6.55 6.55 0 014.07-3.1l7.61-2c3.16-.83 7.09-1.87 11-2.69l12.91-2.9c3.44-.81 5.81-1.2 5.86-1.2a5.45 5.45 0 00-1.09-10.81 6 6 0 00-1 .09s-2.47.4-6 1.24l-13.1 2.94c-4.08.85-8.14 1.92-11.41 2.78l-7.56 2a17 17 0 00-10.8 8.21 17.34 17.34 0 00-1.55 13.51 17.77 17.77 0 0017.07 12.67 18.12 18.12 0 004.32-.53l7.33-1.92c3-.8 6.78-1.78 10.56-2.57l12.39-2.76c3.3-.78 5.58-1.15 5.63-1.15a5.41 5.41 0 004.19-6.36 5.49 5.49 0 00-5.56-4.44m37.24 4.44a17.21 17.21 0 002.5-.19l18.41-2.19c2.95-.4 6-.64 8.62-.84 1.45-.11 2.81-.22 4-.34l6.38-.54a5.51 5.51 0 004.31-5.79 5.38 5.38 0 00-5.77-5l-5.86.5c-1.21.12-2.56.22-4 .34-2.73.21-5.83.45-8.88.86l-18.69 2.22a6.53 6.53 0 01-7.4-5.53 6.67 6.67 0 015.62-7.54l19.08-2.28c3.09-.41 6.22-.66 9-.87 1.5-.12 2.9-.23 4.15-.35l6-.51a5.59 5.59 0 005.09-5.9 5.44 5.44 0 00-5.94-5l-6.08.51c-1.24.13-2.62.23-4.1.35-2.84.23-6.07.48-9.26.91l-19.38 2.3a18 18 0 00-11.92 7.22 16.9 16.9 0 00-3 12.81 17.77 17.77 0 0017.17 14.89m120.8-10.84a5.48 5.48 0 00-5.13-5.69s-2.41-.16-5.9-.19l-12.92-.21c-4.73-.14-9.44-.1-13 0l-6 .1a6.7 6.7 0 01-6.61-6.49 6.43 6.43 0 011.78-4.67 6.57 6.57 0 014.69-2l6-.1c3.6-.11 8.38-.15 13.18 0l13.21.22c3.54 0 5.94.19 6 .19h.25a5.45 5.45 0 005.48-5.19 5.56 5.56 0 00-5.3-5.74s-2.49-.16-6.11-.19l-13.38-.22c-4.89-.14-9.78-.1-13.43 0l-6.08.1a17.22 17.22 0 00-12.45 5.39 17 17 0 00-4.7 12.65 17.78 17.78 0 0017.83 17l5.8-.09c3.46-.1 8.07-.15 12.72 0l12.75.22c3.4 0 5.72.17 5.75.18h.26a5.37 5.37 0 005.31-5.2m75.45-22.18l-6.24-1c-3.51-.55-8.32-1.3-13.09-1.81l-13.3-1.57c-3.6-.46-6.07-.63-6.08-.63-9.93-.83-18.52 6.48-19.16 16s6.43 18.12 15.78 18.9c0 0 2.33.16 5.73.6L594 238.6c4.43.45 8.75 1.13 12.22 1.67l6.07.94a6.81 6.81 0 00.78 0 5.53 5.53 0 005.36-4.63 5.4 5.4 0 00-.95-4.07 5.29 5.29 0 00-2.94-2l-6.39-1c-3.43-.54-8.12-1.27-12.8-1.76l-12.82-1.53c-3.49-.44-5.87-.6-5.88-.6a6.39 6.39 0 01-4.41-2.31 6.58 6.58 0 01-1.51-4.82 6.66 6.66 0 016.64-6 5.83 5.83 0 01.59 0s2.43.16 5.94.61l13.1 1.57c4.65.48 9.36 1.22 12.8 1.75l6.2 1a5.56 5.56 0 006.32-4.54 5.35 5.35 0 00-.94-4 5.65 5.65 0 00-3.7-2.24m32.81 41.81l5.64 1.27c3 .63 7.28 1.67 12.31 3L680.7 256l7 1.86c2.34.64 4.47-1.61 5.17-3.92a5.43 5.43 0 00-3.12-6.61l-6.12-1.85-12.48-3.26c-5.23-1.41-9.46-2.45-12.57-3.09l-5.72-1.29a6.68 6.68 0 01-5-7.89 6.53 6.53 0 016.39-5.16 6.79 6.79 0 011.48.17l5.88 1.32c3.12.65 7.43 1.71 12.81 3.14 4.64 1.23 9.3 2.44 12.77 3.35l5.76 1.72a5.62 5.62 0 006.85-3.65A5.53 5.53 0 00696 224l-5.89-1.76-13-3.39c-3.67-1-8.92-2.35-13.08-3.22l-5.94-1.33a17.73 17.73 0 00-4-.47 17.25 17.25 0 00-17 14 17.77 17.77 0 0013.34 20.68m72.63 21.21l5.38 2c1.09.43 2.3.89 3.62 1.38 2.51.93 5.37 2 8.13 3.24l11.65 4.94c3.13 1.28 5.17 2.31 5.22 2.33a5.06 5.06 0 002.17.49 5.52 5.52 0 004-9.18l-1.65-1.24s-2.15-1.09-5.38-2.41l-11.85-5c-2.84-1.27-5.75-2.35-8.32-3.31-1.34-.5-2.59-1-3.72-1.42l-5.46-2.08A6.7 6.7 0 01723 251a6.5 6.5 0 016.12-4.36 6.32 6.32 0 012.35.44l5.62 2.14c1.12.45 2.39.93 3.73 1.43 2.65 1 5.66 2.11 8.58 3.41l12.2 5.18c3.28 1.35 5.44 2.44 5.48 2.46a5.63 5.63 0 002.35.52 5.45 5.45 0 004.94-3.13 5.56 5.56 0 00-2.74-7.33s-2.26-1.14-5.64-2.52L753.53 244c-3-1.33-6-2.48-8.76-3.49-1.37-.51-2.66-1-3.81-1.45l-5.73-2.19a17.35 17.35 0 00-22.62 10.65 17.76 17.76 0 0010.45 22.22m68.41 31.32l5 2.85c.66.38 1.37.79 2.13 1.21 2.66 1.53 5.69 3.25 8.65 5.2L817.8 317l4.69 3.24a5.08 5.08 0 002.91.9 5.57 5.57 0 004.53-2.39 5.45 5.45 0 00.91-4.09 5.29 5.29 0 00-2.2-3.44l-4.82-3.33L813 301c-3.08-2-6.21-3.81-9-5.38l-7.17-4.11a6.71 6.71 0 01-2.55-9 6.49 6.49 0 015.74-3.44 6.41 6.41 0 013.25.89l7.42 4.25c2.83 1.62 6 3.45 9.19 5.52l11.22 7.07 5.15 3.55a5.54 5.54 0 007.5-1.43 5.36 5.36 0 00.87-4 5.68 5.68 0 00-2.39-3.69l-5.12-3.53-11.48-7.24c-3.31-2.18-6.81-4.17-9.61-5.77l-7.42-4.25a17.33 17.33 0 00-24 7 17.81 17.81 0 006.9 23.53M857.23 347c1.62 1.38 3.5 3.14 5.49 5 1.18 1.1 2.4 2.24 3.64 3.37 3 2.66 5.75 5.53 8 7.83l4.74 4.89a5.39 5.39 0 003.79 1.54 5.55 5.55 0 003.75-1.46 5.49 5.49 0 001.84-3.91 5 5 0 00-1.45-3.68l-4.68-4.83c-2.35-2.45-5.28-5.49-8.47-8.34-1.28-1.16-2.54-2.34-3.76-3.48-2.05-1.93-4-3.75-5.68-5.19L860 335a6.69 6.69 0 01-.78-9.29 6.4 6.4 0 015-2.37 6.82 6.82 0 014.33 1.59l4.63 3.91c1.75 1.5 3.82 3.44 6 5.48 1.23 1.16 2.51 2.35 3.8 3.54 3.28 2.92 6.32 6.08 8.77 8.61l6.06 6a5.72 5.72 0 006.69-.51 5.28 5.28 0 001.75-3.82 5.46 5.46 0 00-1.61-4l-5-5.18c-2.55-2.64-5.72-5.94-9.15-9-1.27-1.17-2.54-2.36-3.77-3.51-2.3-2.15-4.49-4.19-6.35-5.78l-4.75-4a17.45 17.45 0 00-11.43-4.31 16.84 16.84 0 00-13.6 6.64 18 18 0 002.31 24.37zM900 384.65a17.65 17.65 0 002.85 12.47l6.31 9.26 3.34 5.59c2.11 3.5 4.5 7.46 5.95 10.55l2.52 4.9a5.26 5.26 0 004.75 2.76 5.87 5.87 0 002.48-.55 5.32 5.32 0 002.83-3.08 5.16 5.16 0 00-.28-4l-2.62-5.1c-1.48-3.14-3.8-7-6.26-11.08l-3.49-5.86-6.58-9.65a6.83 6.83 0 011.53-9.18 6.5 6.5 0 013.92-1.3 6.35 6.35 0 015.32 2.85l6.93 10.19 3.69 6.16c2.47 4.08 5 8.34 6.6 11.68l4 7.07c1.17 1.82 4.18 2 6.21 1a5.09 5.09 0 002.69-3 5.84 5.84 0 00-.36-4.53l-2.9-5.65c-1.69-3.55-4.33-8-6.91-12.24l-3.84-6.41-7.2-10.5a17.31 17.31 0 00-11.91-7.44 16.66 16.66 0 00-13 3.52 18.32 18.32 0 00-6.64 11.6m45.69 55.57a18.62 18.62 0 00-10 8.88 17.83 17.83 0 00-1.42 12.55l1.43 5.29a82.18 82.18 0 012 8.9c.17.9.34 1.81.52 2.71s.3 1.59.46 2.37c.27 1.35.53 2.64.69 3.88l1.26 11a5.47 5.47 0 005.45 4.63h.37a5.72 5.72 0 004-2 4.63 4.63 0 001.05-3.6l-.65-5.68c-.18-1.49-.37-3.2-.58-5l-.1-.82c-.18-1.39-.47-2.84-.76-4.24-.15-.8-.32-1.6-.46-2.42l-.52-2.74a92.79 92.79 0 00-2.16-9.61l-1.51-5.53a6.63 6.63 0 01.69-4.93 6.54 6.54 0 013.81-3.21 6.65 6.65 0 015.08.43 6.57 6.57 0 013.12 4.09l1.61 6a98.72 98.72 0 012.34 10.44l.52 2.7c.15.86.32 1.72.49 2.57.31 1.57.61 3.06.8 4.5l1.43 12.41c.47 3.13 2.92 5.41 5.86 5.2a5.44 5.44 0 003.82-2 5.51 5.51 0 001.2-4.23l-1.5-13c-.21-1.58-.54-3.23-.86-4.84-.17-.87-.35-1.75-.5-2.64l-.5-2.57a112.36 112.36 0 00-2.51-11.3l-1.68-6.18a17.16 17.16 0 00-8.88-11.08 16.43 16.43 0 00-13.44-.81m13.11 76.33h-.5a18.42 18.42 0 00-12 4.47c-2.55 2.25-5.68 6-6.09 11.05a42.87 42.87 0 01-.7 5.3c-.21 1.14-.41 2.43-.61 3.8a73.51 73.51 0 01-1.48 7.95c-.26 1.1-.51 2.21-.75 3.29-.69 3.1-1.35 6-2.11 8.32l-1.79 6.12h.1a5.51 5.51 0 003.78 5.68 5.66 5.66 0 001.82.31 5 5 0 005-3.62l1.61-5.48c.82-2.48 1.52-5.62 2.27-8.94.25-1.11.5-2.23.75-3.33a83.74 83.74 0 001.6-8.54c.21-1.41.4-2.73.63-3.9a49 49 0 00.75-5.73 6.73 6.73 0 017.2-5.81 6.23 6.23 0 014.36 2.23 6.88 6.88 0 011.55 5.13 53.4 53.4 0 01-.79 6c-.24 1.24-.45 2.65-.67 4.14a90.86 90.86 0 01-1.71 9.16c-.24 1-.47 2.09-.71 3.13-.83 3.72-1.61 7.22-2.51 10l-1.7 5.86a5.69 5.69 0 003.46 7 5.12 5.12 0 001.68.29 5.54 5.54 0 005.29-4.12l1.81-6.14c.95-2.92 1.79-6.65 2.68-10.61.23-1 .48-2.11.71-3.16.85-3.35 1.37-6.77 1.82-9.78.23-1.51.44-2.94.68-4.21a60.49 60.49 0 00.85-6.44c.46-5.37-1-10.22-4-13.64a16.55 16.55 0 00-12.23-5.81m-16.93 75.73a18.32 18.32 0 00-13.23-.45 16.37 16.37 0 00-9.79 8.2s-.22.49-.66 1.28l-2 3.48c-.42.73-.86 1.52-1.33 2.36-1.4 2.51-3 5.35-4.85 8.1l-.46.73c-2.26 3.56-4.39 6.91-6.27 9.41l-3.78 5.57c-1.35 2.41-.18 4.85 1.83 6.38a5.55 5.55 0 003.38 1.16 5 5 0 004.16-2.13l3.34-4.69c2-2.6 4.18-6.1 6.53-9.8l.52-.81c2-2.92 3.64-5.93 5.13-8.59.48-.84.92-1.64 1.35-2.37l2.06-3.63c.49-.89.73-1.43.73-1.44a6.41 6.41 0 015.82-3.51 6.76 6.76 0 013 .68 6.29 6.29 0 013.27 3.68 6.84 6.84 0 01-.38 5.33s-.25.55-.74 1.44l-2.18 3.85c-.45.78-.92 1.62-1.41 2.51-1.58 2.8-3.37 6-5.43 9.05-2.56 4-5.21 8.24-7.4 11.16l-3.55 5a5.68 5.68 0 001 7.75 5.24 5.24 0 003.22 1.09 5.57 5.57 0 004.56-2.4l3.66-5.13c2.26-3 5-7.33 7.63-11.48l.09-.15c2.21-3.3 4.12-6.72 5.82-9.73.45-.82.9-1.6 1.31-2.32l2.26-4c.55-1 .83-1.58.83-1.58a18.73 18.73 0 001.19-14.05 16.75 16.75 0 00-9.25-9.91m-53.66 61.12a17.31 17.31 0 00-12.48 5.16s-1.51 1.69-3.89 4l-8.47 8.11-9.77 8.68-4.38 3.59a5.5 5.5 0 003.61 9.61 5.2 5.2 0 003.32-1.18l4.53-3.7 9.61-8.49 9.22-8.84c2.52-2.41 4-4.12 4.09-4.17a6.36 6.36 0 014.68-2 6.79 6.79 0 014.61 1.8 6.37 6.37 0 012.06 4.49 6.74 6.74 0 01-1.9 4.9s-1.64 1.83-4.22 4.3l-9.62 9.18-10 8.82-4.68 3.85a5.56 5.56 0 00-.89 7.74 5.33 5.33 0 004.19 2 5.76 5.76 0 003.63-1.3l4.83-4 10.28-9.1 9.93-9.49c2.68-2.58 4.39-4.48 4.39-4.48a17.45 17.45 0 005.09-13.04 16.5 16.5 0 00-5.83-12 18.46 18.46 0 00-11.94-4.42M827.81 703a16.48 16.48 0 00-9.38 2.86l-4.79 3.06c-.89.55-1.86 1.18-2.89 1.85-2.34 1.5-5 3.22-7.74 4.78-1.53.89-3 1.78-4.48 2.64-2.33 1.38-4.52 2.68-6.37 3.69l-5 2.73a5.46 5.46 0 00-2 7.34 5.38 5.38 0 004.76 2.9 5.46 5.46 0 002.53-.64l5.14-2.79c2-1.08 4.31-2.47 6.78-3.94l4.32-2.55c2.87-1.63 5.63-3.41 8-5 1-.67 2-1.29 2.89-1.85l4.93-3.15a6.41 6.41 0 013.62-1.11 6.65 6.65 0 015.46 2.87 6.52 6.52 0 011.05 4.92 6.72 6.72 0 01-2.83 4.32l-5.08 3.25c-.93.57-1.93 1.22-3 1.91-2.5 1.61-5.33 3.43-8.26 5.1-1.46.84-2.9 1.7-4.3 2.53-2.62 1.55-5.1 3-7.16 4.15l-5.64 3.08a5.58 5.58 0 00-2 7.24 5.39 5.39 0 004.79 2.84 5.72 5.72 0 002.73-.7l5.41-2.94c2.13-1.16 4.67-2.68 7.36-4.27l4.36-2.58c3.07-1.74 6-3.64 8.62-5.32l2.94-1.88 5.22-3.33a18.06 18.06 0 007.71-11.89 16.63 16.63 0 00-3-12.71 18.36 18.36 0 00-14.7-7.47m-68.4 37.2a16.27 16.27 0 00-6.87 1.49l-16.94 7.11-11.81 4.55c-3.17 1.23-5.36 1.93-5.4 1.94a5.42 5.42 0 00-3.2 6.91 5.51 5.51 0 006 3.6v.07l.86-.28s2.29-.74 5.55-2l10.86-4.18 18.54-7.72a6.29 6.29 0 012.67-.58 6.65 6.65 0 016 3.85 6.47 6.47 0 01.18 5 6.69 6.69 0 01-3.51 3.8c-.08 0-8.95 3.85-17.75 7.44l-12.36 4.77c-3.31 1.27-5.6 2-5.64 2a5.44 5.44 0 001.8 10.6 5.41 5.41 0 001.87-.32s2.39-.77 5.79-2.08l12.59-4.85c9-3.67 18-7.56 18.13-7.6a18 18 0 009.54-10.32 16.78 16.78 0 00-.75-13.09 18.12 18.12 0 00-16.1-10.14M686 766.41a17.71 17.71 0 00-4.57.61l-5.55 1.57c-2.06.59-4.58 1.22-7.26 1.88l-5 1.27c-3.6 1-7.74 1.93-12.33 2.91l-5.65 1.24a5.49 5.49 0 00-4.07 6.49 5.43 5.43 0 006.37 4.19l5.73-1.27c4.82-1 9-2 12.6-2.95l4.7-1.19c2.87-.72 5.6-1.4 7.82-2l5.64-1.59a6.21 6.21 0 011.75-.24 6.72 6.72 0 016.39 4.8 6.39 6.39 0 01-.54 4.95 6.58 6.58 0 01-4 3.19l-5.78 1.64c-2.26.63-5 1.33-8 2.06l-4.82 1.21c-3.8 1-8.12 2-12.85 3l-5.87 1.3a5.59 5.59 0 00-4.26 6.52 5.44 5.44 0 005.34 4.29 5.56 5.56 0 001.22-.13l6-1.32c5-1.06 9.25-2.07 13.1-3.08l5-1.28c2.94-.73 5.71-1.42 8-2.06l5.87-1.66a17.35 17.35 0 0010.76-8.49 17 17 0 001.26-13.38 17.8 17.8 0 00-17-12.48m-113.87 17.46c1.36 16.07 2 23.24 3.55 40.41 3.11-.35 4.69-.52 7.81-.89-1.69-17.21-2.4-24.27-3.86-40.26-3 .31-4.51.46-7.5.74m-12.01 2.9a7.45 7.45 0 00-5.43-1.8c-3.06.25-4.61.35-7.67.55a7.51 7.51 0 00-5.19 2.55 7 7 0 00-2 5.21c.14 2.71.21 4.06.37 6.84a7.9 7.9 0 008.18 7.2c3.2-.21 4.8-.33 8-.59.36 4.54.47 6.68.72 11.13-3.2.28-4.81.41-8 .64-.07-1.32-.09-2-.17-3.25-3 .21-4.55.31-7.59.49l.15 3.31a7 7 0 002.6 5.15 7.55 7.55 0 005.64 1.93c3.14-.25 4.71-.39 7.84-.66a7.89 7.89 0 005.34-2.78 7.41 7.41 0 002-5.51c-.65-10.07-1.36-15.74-2.08-25.57a6.65 6.65 0 00-2.67-4.84m-12.29 12.85c-.17-2.78-.25-4.1-.4-6.78 3.13-.22 4.7-.33 7.8-.6.18 2.67.26 4 .48 6.77-3.14.26-4.73.39-7.88.61m65.92 3.26a5.71 5.71 0 00-1.32-3.21c-.69-.74-1.57-1.79-2.53-2.76.64-1.22 1.19-2.31 1.64-3.24a6.39 6.39 0 00.43-3.49c-.19-1.75-.29-2.6-.44-4.28a6.2 6.2 0 00-2.77-4.51 7.33 7.33 0 00-5.47-1.37c-3.07.47-4.61.69-7.67 1.13a7.79 7.79 0 00-5.06 2.9 6.85 6.85 0 00-1.81 5.23c.11 1.15.17 1.71.28 2.88 3-.39 4.52-.6 7.53-1-.12-1.16-.17-1.73-.28-2.87 3.09-.44 4.63-.67 7.73-1.13.25 2.56.36 3.82.71 6.62-3.29.5-5 .75-8.26 1.22.36 3 .68 5 1.08 7.93l8.3-1.18c.64 4.5.81 6.49 1.26 10.83-3.16.46-4.71.71-7.86 1.13-.13-1.26-.2-1.9-.32-3.14-3.06.42-4.61.62-7.69 1 .12 1.28.18 1.93.29 3.21a6.92 6.92 0 002.81 4.92 7.33 7.33 0 005.66 1.57c3.18-.45 4.77-.66 7.93-1.13a7.75 7.75 0 005.1-3.15 7.63 7.63 0 001.73-5.59c-.37-3.44-.54-5-1-8.5m-167.07-20.52s-3.68-.58-3.76 2.67c-.13 6.69-.35 10-.69 16.79 0 0-.74 4.16 3.49 4.55 6 .54 9 .8 15 1.27-.18 3.76-.27 5.5-.47 9.17-7.71-.63-11.56-1-19.21-1.73-.3 2.84-.43 4.27-.82 7.4 9.38.94 14.12 1.36 23.6 2.08A3.46 3.46 0 00468 821c.33-6.85.54-10.27.62-17 0-3.28-3.7-3.45-3.7-3.45-6-.44-9-.7-15-1.22.14-3.88.21-5.81.31-9.66 7.38.63 11.05.9 18.45 1.36v-7.08c-8.82-.51-13.21-.82-22-1.61m-40.09 36.44c10 1.22 15.1 1.82 25.46 2.93.44-3.16.59-4.59.91-7.41-7.16-.75-10.7-1.14-17.75-1.95.5-3.77.7-5.49 1.11-9.47 5.52.57 8.28.86 13.81 1.41.29-2.95.39-4.5.6-7.34-5.47-.57-8.21-.87-13.67-1.46.33-3.68.51-5.52.78-9.18 6.86.86 10.29 1.25 17.19 2 .13-2.82.19-4.2.23-7-9.77-1-14.65-1.66-24.36-3.07-1.74 16.37-2.08 23-4.31 40.61m116.94-32.46c.6 16.28.89 23.79 1.57 40.5 3-.1 4.6-.14 7.81-.28-.76-16.78-1.1-24.16-1.78-40.37-3 .08-4.55.1-7.6.15m-20.72-1.19c-10.57-.13-15.83-.29-26.33-.79 0 2.87.07 4.28.09 7.15 3.8.18 5.69.28 9.49.43.22 13.42.3 19.93.1 34 3.14.15 4.72.21 7.86.33 0-14-.19-20.62-.48-34.1 3.79.12 5.69.16 9.48.2-.07-2.89-.12-4.35-.21-7.25" transform="translate(-11.91 -163.03)"/><path class="cls-4" d="M309.51 255.43l4.39-14.83 7.92 2.63.34-.62a17.75 17.75 0 002.22-8.49c0-.57 0-1.13-.09-1.69v-.36c-.06-.52-.13-1-.23-1.54v-.06a17.86 17.86 0 00-10.69-13h-.11a18.18 18.18 0 00-24.92 13.91l-.12.71 8.58 2.85L152.13 725l17 5.2 18.42-62.43L988 495.66l2.91-.65-681.4-239.58m-19.42-24.52a16.41 16.41 0 0116.17-13.15 15.44 15.44 0 011.67.08l.71.91c4 5.1 2.89 11-.08 18.28zm8.21 4.76l6.08 1.88-144.87 488-5.27-1.62zm9.84 24.41c8.35 55.8 37.24 293.89-119.25 403.05zm-119.88 405.7c59.1-42.1 99.66-103.78 117.79-193.24 18.6-91.73 8.75-180.14 3.36-215.33l675.32 237.43z" transform="translate(-11.91 -163.03)"/></svg>