<svg id="Layer_1" data-name="Layer 1" xmlns="http://www.w3.org/2000/svg" viewBox="0 0 1000 961.81"><defs><style>.cls-1,.cls-4{fill:#dc0c24;}.cls-1,.cls-2,.cls-5,.cls-6{fill-rule:evenodd;}.cls-2,.cls-7{fill:#fff;}.cls-3{fill:none;stroke:#000;stroke-linecap:round;stroke-linejoin:round;stroke-width:8.78px;}.cls-6{fill:#979797;}</style></defs><title>keuken-kampioen-divisie-logo</title><path class="cls-1" d="M755.86,31.65H267.7s-79.62,2.53-103.28,82.19S24.12,546.65,24.12,546.65-21,629.23,61.33,690.56,450.63,974,450.63,974s23,19.42,61.15,19.42S572.94,974,572.94,974s307-222.15,389.3-283.48,37.2-143.91,37.2-143.91S882.81,193.5,859.15,113.84,755.86,31.65,755.86,31.65Z" transform="translate(-11.78 -31.65)"/><path class="cls-2" d="M423.49,584a88.36,88.36,0,1,1,176.72,0H975.27c3,16.15,1.2,33.05-6.24,47.35-9.89,19-28.15,31.36-45.58,44.22C809.83,759.43,695.73,841.74,581.21,924.7l-29.79,21.57-.69.58s-1.38,1-2.46,1.65c-20.31,12.57-48,13.15-69.34,2.06a56.81,56.81,0,0,1-6.79-4.29l-4.39-3.18-9.88-7.15C333.75,846.05,209.41,756.74,86.28,665.36,74.83,656.85,63.86,647.27,56.55,635c-9.18-15.41-11.3-33.66-8.13-51Z" transform="translate(-11.78 -31.65)"/><line class="cls-3" x1="379.44" y1="804.6" x2="619.9" y2="804.6"/><path class="cls-4" d="M332.38,672.09a2.47,2.47,0,0,0-2.59,2.2l-3.5,19.07a76.9,76.9,0,0,0-9.14-.77c-19.63,0-29.9,7.93-33.39,28.21l-1.47,8.6a33.39,33.39,0,0,0-.45,5.73c0,13.12,8.46,22.48,23.58,22.48a115.56,115.56,0,0,0,24.48-2.86c3.16-.66,3.73-1.44,4.06-3.2l14-77.26c.34-1.65-.45-2.2-2-2.2Zm-8.68,35.82-6.21,34.38a67.15,67.15,0,0,1-9.36.66c-6.21,0-8.24-2.64-8.24-7.71a41.39,41.39,0,0,1,.56-5.84l1.47-8.6c1.58-9,4.4-13.44,12.64-13.44a83.38,83.38,0,0,1,9.14.55Z" transform="translate(-11.78 -31.65)"/><path class="cls-4" d="M393.54,693.47H379.77a2.73,2.73,0,0,0-2.59,2.2l-10.61,58.75a1.69,1.69,0,0,0,1.8,2.2h13.77a2.38,2.38,0,0,0,2.71-2.2l10.6-58.75a1.73,1.73,0,0,0-1.91-2.2Z" transform="translate(-11.78 -31.65)"/><path class="cls-4" d="M485.38,695a1.53,1.53,0,0,0-1.58-1.54H468.34a3.45,3.45,0,0,0-2.82,2.31L448,739c-.68,1.65-1.35,2.31-2.14,2.31s-1.24-.66-1.36-2.31l-1.92-43.21c-.11-1.32-.79-2.31-1.91-2.31H426.37a2.24,2.24,0,0,0-2.15,2.31V696l5.08,50c1,9.81,7.45,11.57,14.1,11.57s14-1.76,18.51-11.57l23.24-50a3.23,3.23,0,0,0,.23-1Z" transform="translate(-11.78 -31.65)"/><path class="cls-4" d="M530.39,693.47H516.63a2.75,2.75,0,0,0-2.6,2.2l-10.6,58.75a1.69,1.69,0,0,0,1.8,2.2H519a2.38,2.38,0,0,0,2.71-2.2l10.6-58.75a1.73,1.73,0,0,0-1.92-2.2Z" transform="translate(-11.78 -31.65)"/><path class="cls-4" d="M608.24,697.11a2,2,0,0,0-1.69-2,75.68,75.68,0,0,0-19.63-2.53c-13.54,0-26.4,4.41-26.4,19.84a15.32,15.32,0,0,0,7.33,13.11l13.2,8.27c2.48,1.54,3.39,3,3.39,4.41,0,4.62-3.61,4.95-7.45,4.95a175.75,175.75,0,0,1-19-1.54h-.34a2.46,2.46,0,0,0-2.6,2.1l-1.69,8.92v.55a2,2,0,0,0,1.69,2,85,85,0,0,0,20.09,2.42c14.55,0,27.86-5.62,27.86-21.6,0-4.3-1.91-9.26-8.91-13.66l-12.52-7.83c-1.81-1.1-2.71-2.09-2.71-3.42,0-3.74,3.27-3.85,6.2-3.85h.46a178,178,0,0,1,18.5,1.43h.34a2.29,2.29,0,0,0,2.25-2.1l1.58-8.92v-.55Z" transform="translate(-11.78 -31.65)"/><path class="cls-4" d="M658,693.47H644.24a2.74,2.74,0,0,0-2.6,2.2L631,754.42a1.7,1.7,0,0,0,1.81,2.2h13.77a2.37,2.37,0,0,0,2.7-2.2l10.61-58.75a1.74,1.74,0,0,0-1.92-2.2Z" transform="translate(-11.78 -31.65)"/><path class="cls-4" d="M743.52,715.62c0-12.89-8-23-23.24-23-18.5,0-30.35,9.81-33.73,29l-1.36,7.72a41.41,41.41,0,0,0-.56,6.17c0,15.32,11.51,22.15,23.69,22.15A94.71,94.71,0,0,0,732,755c2-.44,2.49-1.21,2.83-3l1.57-8.37c.23-1.55-.33-1.88-2.14-1.77-4.62.33-14.78,1-21.89,1s-10-2-10-7.71a36.84,36.84,0,0,1,.45-4.52H739a2.88,2.88,0,0,0,2.82-2.64l1.13-6.4a36.22,36.22,0,0,0,.56-6Zm-17-.88a26.54,26.54,0,0,1-.57,4.85H704.71c1.69-7.61,5.3-12.67,13-12.67,6.31,0,8.8,2.75,8.8,7.82Z" transform="translate(-11.78 -31.65)"/><path class="cls-5" d="M458.35,557.34s-5.33,6-6.53,17.24a59.15,59.15,0,0,0,1.86,21.17s2,9.48,4.67,15.51,8.74,12.66,15.14,13.24c0,0-7.46-9.15-6.16-19.12a27.25,27.25,0,0,1-12.11-13s-4.4-16,2.19-26.31a29.1,29.1,0,0,1,.94-8.68Z" transform="translate(-11.78 -31.65)"/><path class="cls-5" d="M483.82,569l-12.74-13.24s3.95-13.91,12.74-19.92,24.51-3.88,24.51-3.9a15.92,15.92,0,0,1,12.86-5.79c8.22.38,22.57,10.68,22.57,10.68v6.6l-1.88,4.15a119.81,119.81,0,0,0-20.69-2.62,70,70,0,0,0-13.8,19.58s8.3,11.81,12.83,23.16a94.51,94.51,0,0,1-15.7,19.42s-14.93-5.56-23.36-11.75c0,0-1.18-14.07,2.66-26.37Z" transform="translate(-11.78 -31.65)"/><path class="cls-5" d="M498,636.18s9.41-4.61,13.83-8.62a47.15,47.15,0,0,0,12.37,1.72,43.46,43.46,0,0,0,12.06-1.72,49.88,49.88,0,0,0,15.31-16.88,43.16,43.16,0,0,0-5.14-20.54s7.43-10.43,9.4-19.42a21.32,21.32,0,0,1,12.51,8.52s1.71,13.16-3.13,23.54A47.85,47.85,0,0,1,555.78,624c-7.87,9.87-19.57,13.25-19.57,13.25a43.79,43.79,0,0,1-22.28,6.4c-12.76,0-16-7.43-16-7.43Z" transform="translate(-11.78 -31.65)"/><path class="cls-6" d="M529.23,561.65a58,58,0,0,0,3.93-10,52.37,52.37,0,0,1,4.77,11.23s9,4.2,11.6,6a45.87,45.87,0,0,1-10.25,3s-2.72,7.47-4.75,11.5c0,0-2.62-8.2-4.23-11.5,0,0-2.58-2.39-12.31-6.62a66.36,66.36,0,0,1,11.24-3.56Z" transform="translate(-11.78 -31.65)"/><path class="cls-7" d="M255.21,281.94h24.63V244.42l9.3-12.11,27.07,49.63h28.88l-38.17-66L343.29,167H312.63l-24.8,38.2c-2.61,4.09-5.22,8.18-7.66,12.62h-.33V167H255.21V281.94Z" transform="translate(-11.78 -31.65)"/><path class="cls-7" d="M422.15,248.52a63.83,63.83,0,0,0,.82-10.24c0-20.63-9.79-41.61-35.56-41.61-27.73,0-40.29,23.37-40.29,44.51,0,26.1,15.5,42.47,42.57,42.47,10.77,0,20.72-1.71,28.88-5.29L415.3,260.8a63.29,63.29,0,0,1-22,3.58c-11.58,0-21.86-5.12-22.51-15.86Zm-51.54-17.74c.65-6.82,4.89-16.88,15.33-16.88,11.42,0,14,10.57,14,16.88Z" transform="translate(-11.78 -31.65)"/><path class="cls-7" d="M513,198.55H488.22v49.63a14.39,14.39,0,0,1-1,5.62,13.24,13.24,0,0,1-12.4,9c-8.81,0-12.56-7.33-12.56-19.44V198.55H437.49v48.94c0,25.76,11.74,36.33,28.05,36.33,14.36,0,21.86-8.53,25-13.64H491l1.14,11.76h21.53c-.32-7-.65-15.86-.65-26.77V198.55Z" transform="translate(-11.78 -31.65)"/><path class="cls-7" d="M557.7,160.86H532.91V281.94H557.7V255.85l6.2-8.19,19.41,34.28h30.51l-32.63-49.63,28.55-33.76H579.89l-16.15,25.07A111.63,111.63,0,0,0,558,233.68h-.33V160.86Z" transform="translate(-11.78 -31.65)"/><path class="cls-7" d="M689.43,248.52a63.83,63.83,0,0,0,.82-10.24c0-20.63-9.79-41.61-35.56-41.61-27.73,0-40.29,23.37-40.29,44.51,0,26.1,15.49,42.47,42.57,42.47,10.77,0,20.72-1.71,28.87-5.29l-3.26-17.56a63.29,63.29,0,0,1-22,3.58c-11.58,0-21.86-5.12-22.51-15.86Zm-51.54-17.74c.65-6.82,4.89-16.88,15.33-16.88,11.42,0,14,10.57,14,16.88Z" transform="translate(-11.78 -31.65)"/><path class="cls-7" d="M705.09,281.94h24.79V233.85a19.52,19.52,0,0,1,.82-6.48c1.79-4.78,5.87-9.72,12.72-9.72,9,0,12.56,7.33,12.56,18.08v46.21h24.8V232.66c0-24.56-12.24-36-28.55-36a28.4,28.4,0,0,0-24.63,13.48h-.49L726,198.55H704.44c.32,7.5.65,16.2.65,26.6v56.79Z" transform="translate(-11.78 -31.65)"/><path class="cls-7" d="M155.18,416.32h24.63V378.8l9.3-12.11,27.08,49.63h28.88l-38.18-66,36.38-48.95H212.6l-24.79,38.2c-2.61,4.1-5.22,8.19-7.67,12.62h-.33V301.37H155.18v115Z" transform="translate(-11.78 -31.65)"/><path class="cls-7" d="M320.92,367c0-19.78-8.32-36.16-34.91-36.16-14.52,0-25.45,4.27-31,7.51l4.57,16.71a43.36,43.36,0,0,1,22-6.31c12.23,0,14.52,6.31,14.52,10.92v1c-28.23,0-46.82,10.23-46.82,31.89,0,13.3,9.62,25.58,25.77,25.58,9.46,0,17.62-3.58,22.84-10.23h.49l1.47,8.36h22.35c-1-4.61-1.31-12.28-1.31-20.13V367Zm-24,18.93a19.16,19.16,0,0,1-.49,4.43A13.77,13.77,0,0,1,283.57,400c-5.55,0-9.79-3.25-9.79-9.9,0-9.89,10.11-13.13,23.16-13.13v9Z" transform="translate(-11.78 -31.65)"/><path class="cls-7" d="M340.66,416.32h24.15V367.71a18.41,18.41,0,0,1,1-6.65c1.47-4.09,5.22-9.21,11.59-9.21,8,0,11.58,7.16,11.58,17.57v46.9h24.14V367.54a28.42,28.42,0,0,1,.82-6.65c1.79-4.95,5.71-9,11.58-9,8,0,11.75,7,11.75,19.1v45.37h24.14V367.2c0-25.07-11.58-36.33-26.92-36.33a29.36,29.36,0,0,0-15.17,4.1,35.5,35.5,0,0,0-10.44,10.23h-.33c-3.42-8.7-11.41-14.33-21.85-14.33a27.39,27.39,0,0,0-24.15,13.31H362l-1-11.26H340c.33,7.51.65,16.2.65,26.61v56.79Z" transform="translate(-11.78 -31.65)"/><path class="cls-7" d="M481,450.08h24.79V408.64h.33c3.59,5.46,11.09,9.55,20.72,9.55,17.78,0,36.21-14.32,36.21-44.68,0-26.6-15.66-42.46-33.11-42.46-11.59,0-20.72,4.77-26.59,13.47H503l-1.14-11.6H480.3c.33,7.85.66,17.06.66,28v89.19Zm24.79-81a20.75,20.75,0,0,1,.49-4.61c1.63-7.67,7.83-13.13,14.85-13.13,11.09,0,16.8,10.06,16.8,23.36,0,14.16-6.36,23.54-17.13,23.54-7.18,0-12.89-5.29-14.52-12.28a27.92,27.92,0,0,1-.49-5.46V369.08Z" transform="translate(-11.78 -31.65)"/><path class="cls-7" d="M603.3,416.32v-83.4H578.51v83.4ZM591.07,296.77c-8,0-13.21,5.62-13.21,13,0,7.16,5,13,12.88,13,8.32,0,13.38-5.8,13.38-13-.16-7.34-5.06-13-13-13Z" transform="translate(-11.78 -31.65)"/><path class="cls-7" d="M661.38,330.87c-25.77,0-42.74,17.23-42.74,44.35,0,26.94,17.94,43,41.27,43,21.37,0,42.09-14,42.09-44.51,0-25.24-16.31-42.81-40.62-42.81Zm-.81,18.59c11.25,0,15.82,12.62,15.82,24.9,0,15.18-6,25.24-15.82,25.24-10.61,0-16.32-10.74-16.32-25.07,0-12.27,4.57-25.07,16.32-25.07Z" transform="translate(-11.78 -31.65)"/><path class="cls-7" d="M788.31,382.89a63.79,63.79,0,0,0,.82-10.23c0-20.64-9.79-41.61-35.56-41.61-27.74,0-40.3,23.36-40.3,44.51,0,26.09,15.5,42.46,42.58,42.46,10.77,0,20.72-1.7,28.87-5.28l-3.26-17.57a63.05,63.05,0,0,1-22,3.58c-11.58,0-21.86-5.12-22.51-15.86Zm-51.55-17.74c.66-6.82,4.9-16.88,15.34-16.88,11.42,0,14,10.57,14,16.88Z" transform="translate(-11.78 -31.65)"/><path class="cls-7" d="M804,416.32h24.8v-48.1a19.3,19.3,0,0,1,.82-6.48c1.79-4.77,5.87-9.72,12.72-9.72,9,0,12.56,7.34,12.56,18.08v46.22h24.8V367c0-24.56-12.24-36-28.55-36a28.38,28.38,0,0,0-24.63,13.47H826l-1.14-11.6H803.32c.33,7.51.65,16.2.65,26.61v56.79Z" transform="translate(-11.78 -31.65)"/></svg>