<svg viewBox="0 0 699.19 1000" xmlns="http://www.w3.org/2000/svg"><path d="M677.59 0H0v824.77c0 59.61 48.65 108.13 108.44 108.15h143.91c28.45.56 62.28 18.34 78.77 41.42l.95 1.31 17.52 24.35 17.53-24.34.9-1.25c16.54-23.15 50.38-40.93 78.83-41.49h143.9c59.79 0 108.43-48.54 108.44-108.14V0z" fill="#fff"/><path d="M21.59 21.6v803.17a86.72 86.72 0 0086.85 86.55h144.1c36.14.62 76.14 22.49 96.14 50.47l.89 1.24.9-1.24c20-28 60.07-49.85 96.17-50.47h144.11a86.71 86.71 0 0086.84-86.55V21.6z" fill="#ee3436"/><path d="M155.11 756.25c12.5-1.53 13.51-6.09 13.51-18.07v-57.4c0-12-1-16.37-13.51-17.9v-10.3h45.57l23.8 76.48 26.2-76.48h43.89v10c-12.5 1.52-13.34 6.09-13.34 18.06v57.74c0 12 .84 16.54 13.34 18.07v10h-50.48v-10.2c12.65-1.36 13.68-5.92 13.68-18.07v-70.06l-33.27 98.26h-11.48l-30.73-98.1v70.1c0 12 1 16.54 13.51 18.07v10h-40.69zm168.99-74.29c-3.89-10.64-6.25-17.38-17.39-19.41v-10h49.46v10h-1c-8.1 0-11.65 1.86-11.65 6.76 0 1.5.68 3.36 1.51 5.89l24 67.37 23.13-61.12c1.34-3.54 3-6.92 3-11 0-4.22-4.23-7.26-12.33-7.93v-10H422v10c-10.8 3.71-13.85 13.16-19.08 26.33l-30.9 79h-15.85l-32.07-85.94m122.05.05c-3.87-10.64-6.23-17.38-17.38-19.41v-10h49.47v10h-1c-8.1 0-11.65 1.86-11.65 6.76 0 1.5.67 3.36 1.52 5.89l24 67.37 23.14-61.12c1.35-3.54 3-6.92 3-11 0-4.22-4.22-7.26-12.33-7.93v-10h39.16v10c-10.81 3.71-13.85 13.16-19.07 26.33l-30.91 79h-15.86l-32.09-85.94M157.29 822.44c3.37-.41 3.64-1.65 3.64-4.88v-15.47c0-3.24-.27-4.41-3.64-4.82v-2.78h12.29L176 815.1l7.05-20.61h11.83v2.69c-3.37.4-3.59 1.63-3.59 4.86v15.57c0 3.23.22 4.46 3.59 4.87v2.68h-13.6v-2.72c3.42-.37 3.69-1.6 3.69-4.88v-18.89l-9 26.49h-3.1l-8.28-26.44v18.89c0 3.23.27 4.46 3.64 4.87v2.68h-11v-2.72m67.14-11.74l-4.28-11.32-4.64 11.34h8.92m-20.76 11.74c2.46-.37 3.37-1.51 4.37-3.83l10.48-24.12h5.46l10.19 24.76c.82 2 1.77 2.87 4.14 2.91v3h-14.06v-2.7h.64c2 0 3.09-.59 3.09-1.78a4.64 4.64 0 00-.37-1.54l-2-5.28h-11.38l-1.78 4.41a5.73 5.73 0 00-.54 1.91c0 1.42 1 1.83 3.42 2.28v2.68h-11.66zm61.94-11.76l-4.28-11.32-4.59 11.32h8.92m-20.76 11.74c2.46-.37 3.38-1.51 4.38-3.83l10.46-24.12h5.46l10.2 24.76c.82 2 1.77 2.87 4.14 2.91v3h-14.11v-2.68h.64c2.05 0 3.09-.59 3.09-1.78a4.85 4.85 0 00-.36-1.54l-2.06-5.28h-11.32l-1.77 4.41a5.57 5.57 0 00-.55 1.91c0 1.42 1 1.83 3.41 2.28v2.68h-11.66zm46.84 2.72l-3.27-11.15 2.59-.82c2.72 6 7.32 9.29 12.19 9.29 4 0 6.42-2 6.42-5a4 4 0 00-1.13-2.81c-1.69-1.74-4.51-2-8.38-3.06-6.82-1.82-10.29-3.63-10.29-8.56 0-5.23 4.42-9.24 10.43-9.24a17.33 17.33 0 017.6 2.05l.72-1.37h2.33l2.73 9-2.46.78c-3.05-4.75-6.51-7.12-10.47-7.12-3.1 0-5.1 1.74-5.1 4a3.35 3.35 0 001.1 2.54c1.54 1.42 3.86 1.56 6.69 2.28 4.59 1.18 7.51 2.15 8.77 3.1a7.54 7.54 0 013.29 6.27c0 5.74-5.1 10.48-12.38 10.48a16.2 16.2 0 01-8.2-2.37l-.73 1.68h-2.45m41.68-2.69c3.42-.41 3.64-1.65 3.64-4.88v-17c0-2-.13-2.91-1.36-2.91-2.56 0-5.78 2.14-8.11 6.29l-2.41-.74 3.05-8.69h23.9l3.06 8.69-2.42.74c-2.32-4.15-5.56-6.29-8-6.29-1.37 0-1.45.91-1.45 2.91v17.07c0 3.32.44 4.51 3.68 4.87v2.68h-13.58v-2.72m44.46-14.08c5.79 0 8.34-1.42 8.34-5.46 0-3.59-2.29-5.23-7-5.23-3.42 0-4.37.63-4.37 3.27v7.33c1.09.09 2.09.09 3 .09m-13 14.07c3.36-.41 3.64-1.65 3.64-4.88v-15.48c0-3.24-.28-4.41-3.64-4.82v-2.78h15.11c4.15 0 7.15.18 9.37 1.49a7.09 7.09 0 013.56 6.42c0 4.29-2.51 7.16-7.42 8.44l4.73 6.59c1.5 2.05 2.64 4.05 6 5.05v2.68h-8.19l-9.68-13.69h-3.49v6.14c0 3.23.26 4.46 3.64 4.87v2.68h-13.61zm39.89-.01c3.36-.41 3.59-1.65 3.59-4.88v-15.47c0-3.24-.23-4.41-3.59-4.82v-2.78h13.56v2.69c-3.36.4-3.64 1.63-3.64 4.86v15.57c0 3.23.28 4.46 3.64 4.87v2.68h-13.56zm53.47-4.47c-3.59 5.47-7.64 7.93-13.52 7.93a15.08 15.08 0 01-15.38-15.52 17.28 17.28 0 014.32-11.89 14.86 14.86 0 0110.65-4.68 14.62 14.62 0 017.51 2.27l1.06-1.59h2.28l3 10.47-2.78.82c-3-5.79-6.19-8.6-10.29-8.6-5.41 0-8.79 4.5-8.79 12.88 0 8 3.6 12.56 9.21 12.56 4.19 0 7.5-2.14 10.42-6.6l2.36 2m11.14 4.42c3.38-.41 3.64-1.65 3.64-4.88v-15.47c0-3.24-.26-4.41-3.64-4.82v-2.78h13.61v2.69c-3.37.4-3.64 1.63-3.64 4.86v4.7h13.48v-4.7c0-3.23-.28-4.46-3.65-4.86v-2.69h13.61v2.78c-3.37.41-3.65 1.58-3.65 4.82v15.47c0 3.23.28 4.47 3.65 4.88v2.72h-13.61v-2.68c3.37-.41 3.65-1.64 3.65-4.87v-7.83h-13.48v7.83c0 3.23.27 4.46 3.64 4.87v2.68h-13.61zm51.43 0c3.41-.41 3.64-1.65 3.64-4.88v-17c0-2-.14-2.91-1.37-2.91-2.54 0-5.78 2.14-8.1 6.29l-2.41-.74 3-8.69h23.9l3 8.69-2.4.74c-2.33-4.15-5.56-6.29-8-6.29-1.37 0-1.47.91-1.47 2.91v17.07c0 3.32.47 4.51 3.7 4.87v2.68h-13.49v-2.72M184.43 578.34l155.22-213.71-134.93 43.8zM88.76 268.75l251.46 81.64-83.45-114.88zm173.51-38.33l83.54 115.01V80.88zm252.49 347.92L359.54 364.63l134.93 43.8zm95.68-309.59l-251.46 81.64 83.46-114.88zM281.36 458.1v83.24l3.52-1.63v-86.46zm47.99-66.03v127.11l3.52-1.63V387.23zm-71.99 99.04v61.32l3.52-1.62v-64.55zm12.02-16.52v72.29l3.51-1.62v-75.51zm-24.01 33.01v50.37l3.51-1.62v-53.58zm59.99-82.52v105.17l3.52-1.62V420.24zm-95.99 132.04v17.48l3.52-1.63v-20.7zm-11.98 16.49v6.53l3.51-1.63v-9.73zm23.99-32.99v28.43l3.52-1.62v-31.65zm11.99-16.51v39.39l3.52-1.61v-42.63zm84-115.53v116.14l3.51-1.63V403.74zm-24 33v94.22l3.51-1.62v-97.43zm48.47-66.7V513.4l3.51-1.62V370.05zM224.9 394.07v-73.15l-3.52-1.14v75.44zm-75.51-97.63v47.91l3.51 3.79v-50.56zm87.51 93.73v-65.36l-3.52-1.14v67.64zm-99.51-97.62v38.86l3.51 3.79v-41.51zm24.01 7.78v56.95l3.51 3.79v-59.61zm51.49 97.65v-80.96l-3.52-1.13v83.23zM113.4 284.77v20.77l3.52 3.79V285.9zm-11.99-3.89v11.73l3.51 3.78v-14.38zm-12.01-3.89v2.68l3.52 3.79v-5.33zm83.99 27.23v65.99l3.52 3.79v-68.64zm27.51 8.92l-3.51-1.14v84.1l3.51 3.78zm-75.5-24.48v29.82l3.51 3.79V289.8zm123.49 97.6V328.7l-3.51-1.14v59.85zm11.99-3.9v-49.78l-3.52-1.14v52.06zm36-11.72v-26.39l-3.51-1.13v28.67zm-12 3.91v-34.18l-3.52-1.14v36.47zm23.99-7.81v-18.59l-3.51-1.14v20.87zm-35.98 11.71v-41.97l-3.51-1.14v44.26zm59.98-19.52v-3l-3.52-1.15v5.29zm-147.49-50.82v75.04l3.52 3.79v-77.7zm135.49 54.72v-10.8l-3.52-1.14v13.09zm36.49-274.82l-3.52-6.3v263.07l3.52-4.83zm12 235.42V109.48l-3.51-6.29v225.08zm12-16.52V130.95l-3.52-6.28v187.08zm47.99-66.06v-23.98l-3.53-6.3v35.13zm-23.99 33.03v-99.96l-3.52-6.3v111.11zm-12.01 16.52V152.43l-3.51-6.28v149.09zm24-33.04v-61.97l-3.52-6.3v73.11zm-27.51 162.22v108.83l3.51 1.62V424.42zm-12-16.5v119.79l3.52 1.63V407.91zm35.99 49.51v86.91l3.53 1.62v-83.69zm23.99 33.01v64.97l3.53 1.64v-61.77zm-83.98-115.54v141.72l3.52 1.63V374.9zm119.97 165.05v32.1l3.52 1.62v-28.88zm24 43.18l3.52 1.64v-6.96l-3.52-4.84zm-12-26.67v21.13l3.53 1.63v-17.91zm-83.98-115.53v97.87l3.52 1.63v-94.66zm47.98 66.02v54.01l3.52 1.63v-50.8zm12.02 16.5v43.05l3.52 1.64v-39.84zm-36.01-49.52v75.95l3.53 1.62v-72.72zm-59.97-82.52v130.76l3.51 1.62V391.41zm99.5 4.59v-67.34l-3.52 1.14v65.05zm23.99 7.81v-82.93l-3.53 1.15v80.64zm-12.01-3.9v-75.14l-3.52 1.15v72.84zm-63.5-54.55v33.88l3.53 1.14v-36.16zm83.98-27.23v87.1l3.52-3.79v-84.45zm24-7.77v69l3.52-3.78v-66.36zm-11.99 3.88v78.05l3.52-3.78v-75.41zm-56.48 77.85v-59.54l-3.51 1.14v57.26zm116.46-97.3v32.83l3.52-3.79v-30.18zm-11.99 3.89v41.87l3.52-3.79V292.7zm35.98-11.66v14.73l3.53-3.79v-12.08zm-59.99 19.45v59.96l3.51-3.79v-57.32zm48-15.57v23.79l3.52-3.8v-21.13zm-140.45 97.29V331.6l-3.53 1.15v49.45zm-51.51-35.05v18.29l3.51 1.13v-20.56zm215.95-70.01v5.69l3.51-3.79v-3.04zm-59.99 19.45v50.9l3.53-3.78v-48.27zm-143.97 46.68v26.07l3.52 1.14v-28.36zm-35.98 11.66v2.69l3.51 1.15v-4.98zm59.97 22.21l3.53 1.15v-43.95l-3.53 1.14zm-47.98-26.1v10.49l3.52 1.14v-12.77z" fill="#fff"/></svg>