<svg id="nac-breda" xmlns="http://www.w3.org/2000/svg" viewBox="0 0 903.24 1000"><defs><style>.cls-1{fill:#ffe500}.cls-2{fill:#010101}</style></defs><path class="cls-1" d="M511.86 1011.62a16.21 16.21 0 01-11.89-5.27c-.19-.21-.38-.45-.57-.67-5.11-3.71-21.13-13.37-24.46-15.23-37.85-19.12-81.89-25.43-128.5-32.11-58-8.31-118-16.9-166.18-52.36C107.05 852 62.25 765.64 60.44 674.82 59.34 619.44 73.26 571.24 88 520.21l3.12-10.84c28.63-99.76 37.09-236.86-25-322.45-.32-.43-.6-.88-.88-1.34-1.33-2.3-2.19-3.61-2.31-3.79A16.17 16.17 0 0165 161.52L185.9 40.77a16.18 16.18 0 019.89-4.77 17 17 0 011.58-.07 16.11 16.11 0 0110.7 4.07 221.78 221.78 0 00132.65 43.58c58.76 0 118.44-25.11 159.68-67.13a16.13 16.13 0 0123 0c41.23 42 100.9 67.13 159.67 67.13A221.78 221.78 0 00815.74 40a16.08 16.08 0 0110.68-4c.54 0 1.06 0 1.6.07a16.26 16.26 0 019.9 4.74c2.59 2.6 119.68 119.57 120.88 120.75a16.15 16.15 0 012.07 20.3c-.13.15-1 1.46-2.3 3.76-.27.46-.56.91-.87 1.34-62.13 85.59-53.68 222.69-25 322.45l3.12 10.84c14.73 51 28.66 99.23 27.58 154.61C961.54 765.64 916.76 852 843.55 906c-48.15 35.46-108.15 44-166.17 52.36-46.72 6.69-90.86 13-128.7 32.21-2.75 1.52-19.1 11.38-24.27 15.13-.2.25-.43.5-.65.74a16.15 16.15 0 01-11.85 5.2h-.05" transform="translate(-60.29 -11.62)"/><path class="cls-2" d="M917.18 513.82c-29.67-103.41-38-246.09 27.46-336.33 1.51-2.59 2.48-4.11 2.8-4.54-1.2-1.18-118.34-118.18-121-120.85a12 12 0 01-1.11.89A237.72 237.72 0 01683.1 99.71c-63 0-127-26.91-171.17-72-44.19 45.05-108.19 72-171.19 72A237.74 237.74 0 01198.53 53c-.39-.28-.83-.53-1.19-.83-2.57 2.57-120.15 120-121 120.7.14.22 1.19 1.8 2.82 4.6 65.52 90.28 57.14 232.93 27.47 336.36l-3.14 10.87c-14.39 49.8-28 96.85-26.94 149.79C78.3 760.35 120.65 842 189.85 893c44.88 33 102.83 41.36 158.92 49.39 47.94 6.87 93.23 13.36 133.46 33.61a6.71 6.71 0 01.6.31c3.7 2.08 20.16 12 26.05 16.27a13.57 13.57 0 013 2.87h.06l-.05.06a16 16 0 013.07-2.91c6-4.34 22.82-14.49 25.91-16.2a4.53 4.53 0 01.54-.27c40.23-20.4 85.64-26.9 133.72-33.79 56-8 114-16.34 158.87-49.39 69.21-51 111.56-132.64 113.27-218.51 1.06-52.94-12.53-100-26.93-149.81l-3.15-10.85" transform="translate(-60.29 -11.62)"/><path class="cls-1" d="M212.88 888a160.63 160.63 0 01-13.46-8.84 262.88 262.88 0 01-81.72-99.85l707-707c22.75 22.71 79.55 79.47 102 101.88z" transform="translate(-60.29 -11.62)"/><path class="cls-2" d="M303.76 635.07c-2.78-2.57-2.79-4.09-1.7-6.55l1.57-2.3 1.66-1.66a1.76 1.76 0 00.52-1.25 1.81 1.81 0 00-.51-1.27l-1.5-1.48a1.76 1.76 0 00-2.49 0l-20.17 20.16a1.72 1.72 0 00-.51 1.24 1.78 1.78 0 00.51 1.25l1.49 1.5a1.76 1.76 0 002.51 0l2.3-2.2.89-.5a1.08 1.08 0 00.32-.24l.39-.15a5.55 5.55 0 012.1-.48c.89 0 2.17.26 4.27 2.38l33 32.61-74.17-7.58a1.73 1.73 0 00-1.42.51l-25.46 25.46a1.76 1.76 0 00-.51 1.23 1.87 1.87 0 00.51 1.27l1.51 1.48a1.77 1.77 0 002.49 0l2.4-2.3.91-.5a1.44 1.44 0 00.32-.23l.42-.19c2.56-1.13 3.88-.72 6.43 1.83l57.39 57.19c2.69 2.68 2.67 4.37 1.76 6.43a1.35 1.35 0 01-.19.32 1.51 1.51 0 00-.24.42l-2.95 3.53a1.78 1.78 0 00-.52 1.26 1.75 1.75 0 00.52 1.24l1.5 1.5a1.77 1.77 0 001.24.53 1.79 1.79 0 001.25-.53l20.47-20.46a1.76 1.76 0 00.5-1.26 1.7 1.7 0 00-.5-1.22l-1.51-1.5a1.73 1.73 0 00-2.48 0l-3.25 2.7c-.23.11-.43.25-.69.4-2.5 1-4 .6-6.45-1.81l-44.4-44.4 95.16 9.77a1.81 1.81 0 001.44-.5l8.67-8.7a1.69 1.69 0 00.53-1.22 1.8 1.8 0 00-.53-1.27l-64.8-64.42m435.06-346.55a1.78 1.78 0 00-2.41-.79l-1.71.89a1.82 1.82 0 00-.89 2c.24.74.48 1.51.73 2.29s.42 1.35.58 1.94c2.54 10.29 1.54 19.16-3 26.39-5.79 9.5-14.47 14.73-24.44 14.73-13 0-26.81-8.68-38.94-24.46-5.56-7.27-8.37-12.61-9.65-18.49a25.07 25.07 0 014.45-21.78c5.32-6.73 14.26-10.37 23.84-9.79a35.26 35.26 0 018.41 1.53 35.64 35.64 0 019.4 4.27 1.76 1.76 0 002.23-.23l1.39-1.39a1.76 1.76 0 00-.05-2.55l-25.07-22.66a1.74 1.74 0 00-2.42.06l-1.6 1.6a1.74 1.74 0 00-.34 2 5 5 0 00.42.7c.08.11.12.17.11.11a3.87 3.87 0 01-.89 4.45 3.2 3.2 0 01-1.23.77l-6 3a67.56 67.56 0 00-9.71 6c-24.51 18.12-32 47.86-18.27 72.35 10.16 17.91 27.33 28.59 46 28.59a53 53 0 0028.18-8.41c21.67-13.65 30.58-34.59 23.82-56a45.32 45.32 0 00-2.91-7.27M504 558.35a3.39 3.39 0 01-1.4.36c-.36 0-1.29 0-2.64-3.22l-8-19.37 23.19-23.18 19.45 7.92c2.27.95 3 1.71 3.16 2.17.06.18.26.65-.36 2.05l-2.75 3.1-.7.5a1.78 1.78 0 00-.72 1.29 1.68 1.68 0 00.52 1.4l1.5 1.49a1.76 1.76 0 002.48 0L572.54 498a1.77 1.77 0 00.08-2.41l-1.4-1.59a1.84 1.84 0 00-1.27-.62 1.78 1.78 0 00-1.3.53l-2.24 2.28a6 6 0 01-2.38.71c-1.75.17-3.45-.13-6.27-1.19l-92.9-37.43a1.78 1.78 0 00-1.9.4l-10.68 10.68a1.77 1.77 0 00-.4 1.9l37.41 92.88 1 2.68.29.75a3.63 3.63 0 01.09.67 6.76 6.76 0 01-1.17 4.85l-1.61 1.77-.7.5a1.73 1.73 0 00-.73 1.29 1.8 1.8 0 00.51 1.39l1.5 1.5a1.77 1.77 0 001.25.52 1.75 1.75 0 001.24-.52l21-21a1.77 1.77 0 000-2.5l-1.49-1.49a1.71 1.71 0 00-1.37-.53 1.75 1.75 0 00-1.29.72l-2.67 2.89-1.13.65m-16.81-33.87l-10.82-26.82 26.9 10.75zm-75.73 99.05a13.63 13.63 0 11-13.67 13.68 13.77 13.77 0 0113.67-13.68m199.32-195.79a13.61 13.61 0 11-13.67 13.67 13.76 13.76 0 0113.67-13.67M796 242.46a13.61 13.61 0 11-13.68 13.67A13.75 13.75 0 01796 242.46" transform="translate(-60.29 -11.62)"/></svg>