<svg viewBox="0 0 1000 982.91" xmlns="http://www.w3.org/2000/svg"><path d="M50.62 4.09l3.56 17.12c3.68 17.63 8 44.95 8 59.72a39.47 39.47 0 01-.45 6.67l-5.3 28.94L39.3 94.9l-8 36.68a356.53 356.53 0 00-6.52 48.95L7.3 166.46l-4.32 31c-.2 1.46-4.92 35.93-2.06 58.55 2 15.86 4.65 28.63 22.18 60.49 5.14 9.35 11.21 18 17.62 27.18 5.55 7.92 11.26 16.08 16.75 25.24a338.38 338.38 0 0124.14 49.52l.39 1c9.47 23.51 6.9 124.53 1.5 185.36-2.13 24-7 53.82-11.7 82.66-5.41 33.24-10.1 61.94-10.1 78.51 0 32.92 21.06 72.41 49 91.87 18.68 13 65.44 23.13 134.63 37 32.67 6.57 63.53 12.78 82.2 18.44 61 18.51 135.85 47.92 163.37 64.22l9 5.35 1.95-1.07 7.23-4.28c27.56-16.24 102.38-45.66 163.41-64.16 18.66-5.66 49.52-11.87 82.2-18.44 69.19-13.92 115.94-24 134.63-37 27.92-19.46 49-59 49-91.87 0-16.55-4.67-45.2-10.08-78.38-4.72-29-9.58-58.77-11.71-82.79-5.4-60.83-8-161.85 1.49-185.36l.39-.95a338.88 338.88 0 0124.15-49.54c5.47-9.13 11.19-17.3 16.72-25.19 6.44-9.22 12.51-17.88 17.65-27.23 17.53-31.85 20.16-44.63 22.17-60.49 2.89-22.74-1.85-57.1-2.05-58.55l-4.32-31s-12.18 9.81-17.49 14.07a355.56 355.56 0 00-6.52-48.95l-8-36.68-17.15 21.55-5.26-28.94a38.32 38.32 0 01-.46-6.67c0-14.77 4.29-42.09 8-59.72L950.31 0H814.93l-12 15.26c-3.69 3.82-73.11 72.27-302.72 73.39-229.85-1.12-299.27-69.57-303-73.39-.23-.28-12-15.26-12-15.26H49.83z" fill="#231f20"/><path d="M500 92.24h-.14c-232.17-1.14-302.23-71.3-305.37-74.59L183.37 3.56H54.09l3.56 16.92c4.1 19.66 9.76 55.45 7.53 67.76l-6.67 36.67-17.33-21.92-6.4 29.35a341.42 341.42 0 00-6.8 55.33l-18-14.51-3.45 24.83c-.2 1.43-4.86 35.43-2.05 57.61 2 15.46 4.53 27.93 21.76 59.23 5.06 9.18 11.07 17.78 17.44 26.88 5.57 7.95 11.32 16.18 16.87 25.42a342.72 342.72 0 0124.4 50l.38 1c9.8 24.34 7.31 124.24 1.74 187-2.14 24.1-7 54-11.73 82.92-5.39 33.09-10 61.66-10 77.94 0 31.86 20.4 70.1 47.45 89 18.12 12.63 64.54 22.64 133.3 36.47 32.77 6.6 63.73 12.83 82.53 18.53 61.25 18.57 136.42 48.14 164.15 64.56l7.24 4.28h.14l7.23-4.28c27.74-16.42 102.91-46 164.16-64.56 18.8-5.7 49.75-11.93 82.53-18.53 68.75-13.83 115.18-23.84 133.3-36.47 27-18.86 47.45-57.1 47.45-89 0-16.28-4.66-44.85-10.06-77.94-4.71-28.92-9.59-58.82-11.72-82.92-5.57-62.75-8.06-162.65 1.74-187l.38-1a341.65 341.65 0 0124.4-50c5.54-9.24 11.3-17.47 16.87-25.42 6.36-9.1 12.38-17.7 17.44-26.88 17.22-31.3 19.8-43.77 21.76-59.23 2.81-22.18-1.85-56.18-2.05-57.61l-3.49-24.83-18 14.51a341.42 341.42 0 00-6.8-55.33l-6.4-29.35-17.34 21.92-6.67-36.67c-2.24-12.31 3.43-48.1 7.52-67.76l3.57-16.92H816.63l-11.12 14.09c-3.14 3.29-73.2 73.45-305.37 74.59z" fill="#fff"/><path d="M499.93 106.45c-245.84-1.2-314.92-78.03-316.26-79.61l-7.24-9.18-104.85-.02s11.16 53.48 7.59 73.14c0 0 13.85-17.49 12.06-57.21h77.39l2.67 3.38c.66.85 69.42 84.17 328.64 85.44 259.23-1.27 328-84.59 328.65-85.44l2.67-3.38h77.39c-1.79 39.72 12.06 57.21 12.06 57.21-3.61-19.66 7.59-73.14 7.59-73.14l-104.86.06-7.24 9.14c-1.33 1.58-70.39 78.41-316.26 79.61z" fill="#231f20"/><path d="M499.93 957.06c-19.22-12-97.19-55.26-163.92-74.09-56.62-16-188.47-34.71-209.33-52.23s-33.84-43-33.84-65.59c0-24.24 18.41-100.28 23-160.44 2.62-34.33 9.58-146.24-4.21-196.79-11-40.37-52.81-88.23-66.45-116.16-17.66-36.21-14.91-66.6-14.91-66.6l36.45 26.73c-15.39-37.26-9.32-82.62-9.32-82.62 4.46 4.46 12.47 16.94 32.4 38.48-8.45-36.55-9.34-53.77-3.24-80.6 3.62 6.51 15.39 45.77 64 64.4 0 0-14.58 10.53-21.06 22.27s-15.41 53.02-15.41 53.02l31.59-8.91s40.9-.41 56.7 9.31 17.41 32.81 16.6 40.09-2.83 32-59.13 8.91c0 0 13.77 22.68 37.67 22.68 20.27 0 35.33-15.34 35.33-39.38s-13.32-37.36-24.33-44-55.9-14.48-75.88-8.4c0 0 2.32-20.56 8.11-27.23s14.77-21.72 41.7-21.14 77.71 21.86 99.34 28.09a125.06 125.06 0 00-19.09-17.02s29.27-5.49 37.65-13.9c-13.23 2.67-38.23 6.37-61.11-.87 0 0 8.4-10.72 11.87-15.93s15.62-20.85 33-20.85c16.8 0 38.23 7.52 47.5 13.61s24 17.37 40.83 23.75 42 9.84 51.56 7.53c0 0-13.62 16.21-33 24 0 0 15.06 15.93 17.67 26.07l-20.86.87s11.59 15.93 12.46 24.62c0 0-19.41 2.89-27.81 6.66 0 0 37 20 48.08 33.88-1.4-11.2-9.79-22.23-16.8-29.25 0 0 9.56-.58 14.48-.29 0 0-6.95-18-10.42-23.75 0 0 11-2 19.69-.58 0 0-12.45-29.83-18.54-35.91 0 0 31.28-16.8 53.29-48.37 0 0-29.54 10.43-50.68 10.43a88.16 88.16 0 01-44-12.16c-6.08-3.77-31-22.59-44.6-27.52s-37.65-12.45-59.08-2.6-26.94 34.46-44 41.7c0 0-50.1-.29-85.43-23.75S93.33 99.67 95.98 72.3c-8.39 8.39-27.82 59.61-26.41 89.43l-20.9-26.37s-11.3 51.84-4.35 83.7l-23.75-19.11s-4.63 33.3-2 53.87c1.8 14.18 4 24.9 20.11 54.15 9 16.29 21.88 31.57 34.05 51.85a361.13 361.13 0 0125.77 53c12.33 30.61 7.31 141.75 2.72 193.56s-21.75 130.77-21.75 159.6 19.6 62.12 41.36 77.3c27.58 19.22 160.86 37.56 211.83 53.06 62.05 18.82 138.08 48.64 167.27 65.93 29.2-17.29 105.23-47.11 167.27-65.93 51-15.46 184.26-33.84 211.83-53.06 21.77-15.18 41.36-48.47 41.36-77.3s-17.13-107.79-21.72-159.6-9.58-162.95 2.71-193.54a362.58 362.58 0 0125.78-53c12.16-20.28 25.08-35.56 34-51.85 16.11-29.25 18.32-40 20.12-54.15 2.6-20.57-2-53.87-2-53.87l-23.75 19.11c6.95-31.86-4.34-83.7-4.34-83.7l-20.86 26.36c1.42-29.82-18-81-26.4-89.43 2.65 27.37-3.14 71.47-38.47 94.93s-85.44 23.75-85.44 23.75c-17.09-7.24-22.59-31.86-44-41.7s-45.47-2.32-59.08 2.6-38.52 23.75-44.6 27.52a88.2 88.2 0 01-44 12.16c-21.14 0-50.68-10.43-50.68-10.43 22 31.57 53.29 48.37 53.29 48.37-6.08 6.08-18.54 35.91-18.54 35.91 8.69-1.44 19.7.58 19.7.58-3.48 5.79-10.43 23.75-10.43 23.75 4.93-.29 14.48.29 14.48.29-7 7-15.39 18.05-16.79 29.25 11.11-13.85 48.07-33.88 48.07-33.88-8.39-3.77-27.8-6.66-27.8-6.66.87-8.69 12.45-24.62 12.45-24.62l-20.85-.87c2.61-10.14 17.67-26.07 17.67-26.07-19.41-7.82-33-24-33-24 9.56 2.31 34.75-1.16 51.55-7.53s31.51-17.72 40.78-23.82 30.7-13.61 47.5-13.61c17.4 0 29.54 15.64 33 20.85s11.88 15.93 11.88 15.93c-22.88 7.24-47.88 3.54-61.11.87 8.37 8.41 37.65 13.9 37.65 13.9a125.62 125.62 0 00-19.07 17.06c21.63-6.23 72.41-27.51 99.34-28.09s35.91 14.48 41.71 21.14 8.1 27.23 8.1 27.23c-20-6.08-64.87 1.74-75.87 8.4s-24.33 20-24.33 44 15.06 39.38 35.33 39.38c23.89 0 37.66-22.68 37.66-22.68-56.29 23.09-58.32-1.62-59.13-8.91s.81-30.37 16.61-40.09 56.7-9.31 56.7-9.31l31.55 8.93s-8.91-41.31-15.4-53.06-21-22.27-21-22.27c48.59-18.63 60.37-57.89 64-64.4 6.09 26.83 5.21 44.05-3.25 80.6 19.94-21.54 27.95-34 32.4-38.48 0 0 6.08 45.36-9.31 82.62l36.45-26.73s2.75 30.39-14.92 66.6c-13.63 27.93-55.44 75.79-66.45 116.16-13.78 50.55-6.83 162.46-4.2 196.79 4.59 60.16 23 136.2 23 160.44 0 22.56-12.95 48-33.84 65.59s-152.7 36.25-209.32 52.23c-66.83 18.91-144.76 62.18-163.99 74.13z" fill="#231f20"/><path d="M357.09 197.55a234.78 234.78 0 01-24.34-15.1l-5.59-3.78c-7.65-5-27.37-12.28-43-12.28-14.05 0-24.32 14.35-26.24 17.23-1.15 1.73-2.8 4-4.5 6.28 13.21 2 28.61 1.39 45.34-2l26.33-5.32-19 19.06c-5.45 5.49-16.36 9.56-25.83 12.29 2.57 2.42 5.16 4.86 7.54 7.46l19.46 21.32-27.73-8c-6.3-1.81-14.68-4.75-24.38-8.16-23.13-8.11-54.81-19.22-72.88-19.61-20.1-.43-27.69 8.92-33.24 15.76l-2.14 2.58c-1.49 1.71-3.07 6.53-4.31 12 23.91-2 59.08 4.62 70.15 11.32 10.55 6.38 28.26 21.5 28.26 51 0 28-17.88 47.53-43.48 47.53-28.16 0-44-25.51-44.63-26.6l-12.79-21.17 22.9 9.39c29.75 12.19 40.41 9.09 43.61 7.19s3.89-5.45 4.33-9.46c.68-6.1-1.09-25.07-12.77-32.26-10.94-6.73-39.74-8.12-51.29-8.11l-43.58 12.28 2.86-13.23c.93-4.35 9.36-42.84 16.22-55.27 3.38-6.13 8.51-11.79 13.12-16.2a111.72 111.72 0 01-44.56-40.19c-.08 1.71-.17 3.41-.17 5.14 0 12.87 2.26 26.81 7 47.27l6.91 29.87s-34.58-33.87-38.38-38.32c0 0 .76 32.09 8 51.32l11.1 26.88s-35.59-21.47-44-27.62a149.56 149.56 0 009.82 36.24c4.11 10 22.29 37.52 23.9 39.89 17.36 25.59 37 54.58 44.4 81.61 6.59 24.15 8.6 61.31 8.6 97.64 0 42.48-2.75 83.81-4.13 101.91-2.52 33-9.23 71.2-14.62 101.87-4.49 25.52-8.36 47.56-8.36 57.95a57 57 0 001.23 11.55c39.62-24.52 119.18-61.67 254.86-78.36z" fill="#ed1c24"/><path d="M106.23 50.47l-2.14 22.6c-.36 3.67-.55 7.47-.55 11.37 0 27.12 9.17 58.57 35.41 76 29 19.26 69.55 22 78.94 22.33 5.52-2.86 9.95-8.63 15-15.37 6.81-9.14 14.53-19.51 27.63-25.53 23.2-10.66 48.36-3.76 65.26 2.35 8.9 3.22 21.16 11.13 31.38 18.12v-41.5C206.09 97.39 163.79 42.45 163.79 42.45h-56.34z" fill="#ed1c24"/><path d="M610.4 272.35c6.5 1.27 14.72 3.16 20 5.48v-74.66h-.14a154.26 154.26 0 01-33.43 7.87 71.87 71.87 0 0015.05 8.53l11.08 4.47-8.2 8.68a122.7 122.7 0 00-10.45 12.86l23.23 1-8.93 12.3a104.55 104.55 0 00-8.21 13.47zM403 211.09a154.82 154.82 0 01-33.38-7.85v74.51c5.32-2.28 13.42-4.15 19.85-5.4a103.52 103.52 0 00-8.25-13.45l-8.93-12.3 23.23-1a124 124 0 00-10.43-12.83l-8.21-8.69 11.08-4.46a71.62 71.62 0 0015.04-8.53z" fill="#009b69"/><path d="M371.83 172.46a79.68 79.68 0 0039.73 10.94c19.47 0 47.69-9.86 48-10l23.87-8.41-14.47 20.75c-16.36 23.46-37.29 39-48.4 46.21 5.86 10 12.21 24.84 14.48 30.27l5.65 13.62-14.54-2.42a35.65 35.65 0 00-6-.4c2.72 6.28 5.2 12.63 5.63 13.75l4.58 11.82-9.69-.57c3.77 5.87 7 12.81 7.91 20.22l3.61 28.6-18-22.43c-8-10-33.94-25.41-44.56-31.25v403.68a1239.74 1239.74 0 01130.31-7.18 1234.48 1234.48 0 01130.5 7.21V293.02c-10.49 5.76-36.7 21.33-44.75 31.35l-18 22.43 3.56-28.54c.93-7.41 4.14-14.35 7.91-20.22l-9.68.57 4.61-11.77c.44-1.12 2.91-7.47 5.63-13.75a35.72 35.72 0 00-6 .4l-14.54 2.35 5.68-13.6c2.27-5.43 8.61-20.22 14.48-30.27-11.11-7.23-32-22.75-48.4-46.21l-14.47-20.72 23.86 8.4c.28.1 28.5 10 48 10a79.69 79.69 0 0039.76-10.98l2.39-1.63V122.7c-37.05 5.14-80.25 8.39-130.5 8.62-50.16-.23-93.3-3.47-130.31-8.59v48.22z" fill="#009b69"/><path d="M642.75 197.55a234.78 234.78 0 0024.34-15.1l5.6-3.78c7.64-5 27.36-12.28 43-12.28 14 0 24.32 14.35 26.24 17.23 1.15 1.73 2.8 4 4.5 6.28-13.2 2-28.61 1.39-45.34-2l-26.35-5.33 19 19.06c5.46 5.49 16.37 9.56 25.83 12.29-2.57 2.42-5.16 4.86-7.54 7.46l-19.47 21.32 27.75-8c6.29-1.81 14.67-4.75 24.38-8.16 23.12-8.11 54.8-19.22 72.87-19.61 20.1-.43 27.69 8.92 33.24 15.76l2.15 2.58c1.48 1.71 3.06 6.53 4.3 12-23.9-2-59.08 4.62-70.15 11.32-10.55 6.38-28.25 21.5-28.25 51 0 28 17.87 47.53 43.47 47.53 28.16 0 44-25.51 44.63-26.6l12.85-21.15-22.9 9.39c-29.81 12.18-40.43 9.08-43.63 7.18s-3.89-5.45-4.33-9.46c-.68-6.1 1.09-25.07 12.77-32.26 10.94-6.73 39.74-8.12 51.29-8.11l43.55 12.28-2.85-13.23c-.94-4.35-9.37-42.84-16.23-55.27-3.37-6.13-8.5-11.79-13.12-16.2a111.72 111.72 0 0044.56-40.19c.08 1.71.16 3.41.16 5.14 0 12.87-2.25 26.81-7 47.27l-6.91 29.87s34.62-33.87 38.37-38.32c0 0-.76 32.09-8 51.32l-11.1 26.88s35.59-21.47 44-27.62a149.79 149.79 0 01-9.81 36.24c-4.12 10-22.3 37.52-23.91 39.89-17.36 25.59-37 54.58-44.4 81.61-6.59 24.15-8.6 61.31-8.6 97.64 0 42.48 2.75 83.81 4.13 101.91 2.52 33 9.23 71.2 14.62 101.87 4.49 25.52 8.36 47.56 8.36 57.95a57 57 0 01-1.23 11.55c-39.63-24.52-119.19-61.67-254.87-78.36V197.55z" fill="#231f20"/><path d="M892.5 42.45h-56.41s-42.27 54.9-193.11 78.4v41.35c10.18-7 22.34-14.79 31.19-18 16.9-6.11 42-13 65.25-2.35 13.11 6 20.83 16.39 27.64 25.53 5 6.74 9.45 12.51 15 15.37 9.39-.37 49.94-3.07 78.94-22.33 26.25-17.42 35.41-48.86 35.41-76 0-3.89-.19-7.7-.55-11.37l-2.18-22.6zM605.85 611.51v-4.77h-9.27l-.23 1a7 7 0 01-4.25 5.39c-2.16 1-6.1 1.41-12.07 1.41H464.21V555.6h48.38l12.5 1.24a6.48 6.48 0 01.64.34 8.51 8.51 0 01.9 2.22l.24.95h2.22a10.55 10.55 0 01.85 2.25h7.27v-52.37h-.75v-5h-9.57l-.23 1c-.69 3-2 4.83-4 5.63-1.48.66-4.73 1.42-12.07 1.42h-46.38v-52.95h110.8l12.54 1.51c.25.1.45.25.68.36a7.79 7.79 0 01.86 2l.26.93h2a9.75 9.75 0 011 2.51h7.27v-52.68h-.75v-3.51h-1.26v-1.25h-8.26l-.23 1c-.64 2.79-2.08 4.71-4.16 5.58l-12.24 1.47H392.01v8.69l1.17.08c.76.05 1.41.12 2.09.19v2.07c6.14.64 10.48 1.46 13.19 2.75a10.58 10.58 0 011.1 5.27v198.3c0 2.34-.43 5.47-2.51 7s-6.8 2.56-12.63 3l-1.15.09v8.68h3.26v2.47h185.5l12.54 1.5c.16.07.3.19.46.26a14.24 14.24 0 011.36 2.9l.28.85h2a11.42 11.42 0 01.9 2.51h7.27v-53.35zm242.91 14.33l-1.78-2 .63-.59.89-.84-.81-.91-43.11-48.66-.55-.61-.77.25-6.27 2-1.45.46.73 1.34a17.37 17.37 0 011.85 8.67c0 6.94-5.21 13.4-15.93 19.73s-23.22 9.6-37 9.6c-22.83 0-40.73-7.17-54.74-21.92-10.49-10.88-17.08-24.52-19.67-40.52a104.93 104.93 0 01-.76-12.73q0-84.24 79-84.23c13.53 0 25.57 3 35.85 9a53.06 53.06 0 016.43 4.48c3.88 4 5.84 8.39 5.85 13l-.5 4.16 1.25.14-.49 1.16 2.9 1.22-.15 1.38 4.51 1.76 33.81-53.34-1.75-1.57.8-1.27.6-.93-.86-.71-2.76-2.25-.68-.57-.76.47c-4.16 2.54-7.74 3.82-10.63 3.82-.46 0-2.39-.24-7.91-3.34l-15.09-7.55a124.31 124.31 0 00-53.21-11.42 152.18 152.18 0 00-48.28 7.59 123.38 123.38 0 00-41.76 22.53c-26.92 22.39-40.57 53.67-40.57 93a123.56 123.56 0 008.36 45.33 115.43 115.43 0 0024.34 37.77c.77.79 1.57 1.53 2.36 2.29l.54.59c22.81 23.32 53.15 35.1 90.75 35.1 26.57 0 49.13-5.27 67.43-15.8l16.3-10.52c4.51-3.26 8-5 10.27-5a9.82 9.82 0 015.87 2.15l.59.64.13-.12a19.47 19.47 0 011.94 1.85zm-476.3-193c1.5-1.5 4.51-2.76 8.77-3.51v-6h-.75v-5h-72.2v8.51l1 .19c.81.14 1.54.29 2.22.45v1.82a23.09 23.09 0 016.87 2.09 12.11 12.11 0 011.16 5.94v135.51c-4.91-10.75-20.57-35.35-47.6-74.79-30.88-45-40.72-60.59-43.7-65.87a2.54 2.54 0 011.55-1.61l7.52-1.26v-6h-1v-5h-87v8.53l1 .21c.84.18 1.59.37 2.27.58v1.7a18.21 18.21 0 015.27 1.81 12.59 12.59 0 011.25 6.22v198.29c0 3.18-.78 5.78-2.14 7.14-1.62 1.38-4.62 2.49-8.6 3.16l-1.05.17v8.59h3.26v2.25h69.7v-6c-.27-.05-.5-.12-.76-.17v-4.65l-1-.19c-4.72-.83-6.88-2.18-7.86-3.16a5.31 5.31 0 01-1-1.74c-.05-.61-.11-1.21-.11-1.89v-152.1c7.88 16.63 26.21 45.3 55.88 87.4l31.84 44.87c11.69 16.74 13.52 20.72 13.56 21.59a3.56 3.56 0 01-2.24 3.34l-6.6 1.71-.93.25v8.49h3.5v2.25h74.71v-6c-.27-.07-.5-.15-.75-.23v-4.55l-1-.2c-4.17-.84-5.72-1.86-6.29-2.57h-.05a5.19 5.19 0 01-1-1.8c-.06-.74-.12-1.48-.12-2.33V440.84c-.09-3.74.67-6.24 2.42-8z" fill="#231f20"/><path d="M593.09 653.5c-2.45-1.09-6.84-1.63-13.09-1.63H395.77v-3.88c5.77-.54 10.27-1.72 12.73-3.35 2.39-1.8 3.59-4.8 3.59-9.07v-198.3c0-4.61-1.32-7.67-3.9-9.11l.16.1c-2.43-1.88-7.09-3.11-13.81-3.67v-3.86H572.9l12.54-1.51h.16l.16-.07a9.51 9.51 0 005.44-6.42h5.12v49.88h-5.17a9.47 9.47 0 00-5.39-5.67l-.17-.07h-.17l-12.54-1.25H460.95v60.18h49.64c6.24 0 10.63-.55 13-1.62s4.2-3.19 5.16-6.41h5.11v50.07h-5.13a8.63 8.63 0 00-5.18-5.68c-2.72-1.08-6.86-1.59-13-1.59h-49.6V617h119.08c6.42 0 10.56-.51 13-1.61a9.21 9.21 0 005.4-6.16h4.87v50.64h-4.93c-1.16-3.03-2.83-5.16-5.28-6.37zm240.63-32.94c-2.56 0-6 1.54-11 5l-16.27 10.77c-17.43 10.16-39.82 15.34-66.5 15.34-37.07 0-67.31-11.69-89.85-34.72a113.16 113.16 0 01-23.8-37 121 121 0 01-8.18-44.4c0-38.52 13.34-69.15 39.66-91a120.93 120.93 0 0140.94-22.08 150 150 0 0147.5-7.46 121.72 121.72 0 0152.11 11.16l15 7.51c4.28 2.41 7.35 3.64 9.09 3.64 3.16 0 6.92-1.29 11.14-3.76l1.24 1-32.67 51.56-2.92-1.23.39-3.32v-.15c0-8.41-5.44-15.86-16.17-22.14s-22.49-9.44-36.2-9.44c-53.22 0-80.21 28.84-80.21 85.73 0 24 7.28 43.65 21.66 58.53 14.3 15.05 33.33 22.69 56.55 22.69 14.2 0 27.07-3.35 38.24-10 11.55-6.83 17.16-14 17.16-21.89a21 21 0 00-1.53-8.51l4.14-1.32 41.77 47.11-2.49 2.34c-2.72-2.57-5.74-3.96-8.8-3.96zm-464.4-192.11c-1.74 1.74-2.63 4.74-2.63 8.91v198.29c0 4.48.88 7.64 2.61 9.39 1.14 1.37 3.29 2.38 6.67 3.15v4h-72.45v-4l5.83-1.52h.13l.12-.06a6.08 6.08 0 003.7-5.63c0-1.54-1.7-5.39-14-23l-31.85-44.88c-32.66-46.33-51.56-76.35-57.77-91.75l-.31-.79h-3.1v155.09c0 4.17.88 7.17 2.62 8.91s4.42 2.85 8.16 3.63v4h-67.2v-4c3.94-.77 7-2 8.84-3.57 1.92-1.92 2.94-5.08 2.94-9V437.36c0-4.18-.88-7.17-2.62-8.91-1.4-1.64-3.59-2.76-7.15-3.62v-4h82v4l-6.26 1.01h-.13l-.12.05a3.94 3.94 0 00-2.79 3.92c0 1.06 0 3.53 45.34 69.66 30.36 44.29 46.74 70.48 48.71 77.83l.24.93h3.24V437.36c0-4.35-1-7.28-2.94-9l.13.14c-1.47-1.73-4.05-2.86-8.47-3.73v-4h67.18v4c-4.34.87-6.98 1.98-8.67 3.68z" fill="#fff"/><path d="M225.09 766.77c2 0 3 .75 3 2.75v38.32c0 2-1 2.76-3 2.76v1.5h17.54v-1.5c-2 0-3-.76-3-2.76V779.3h.25l24.53 27.54a4.54 4.54 0 011.51 2.5c0 .75-.5 1-1.51 1.26v1.5h18.3v-1.5c-1.75 0-2.75-.76-2.75-2.76v-38.32c0-2 1-2.75 2.75-2.75v-1.51h-17v1.51c1.75 0 2.76.75 2.76 2.75v27.83h-.26l-20.8-24.57c-2.26-2.5-3.26-4-3.26-4.51 0-.75.75-1.25 2-1.5v-1.51h-21.06zm100.49 0v-1.51h-18.8v1.51c2 0 3 .75 3 2.75v38.32c0 2-1 2.76-3 2.76v1.5h18.8v-1.5c-2 0-3-.76-3-2.76v-38.32c-.01-2 1-2.75 3-2.75zm57.16 0v-1.51h-18.8v1.51c1.75 0 2.75.75 2.75 2.75v30.84c0 3.26-2.75 4.76-8.27 4.76a12.25 12.25 0 01-6.27-1.5 8.14 8.14 0 01-3.25-4.52l-1.51-.5-5 11.28 1.25.25 2.51-1 4.76 1.75a31.16 31.16 0 0010 1.76c5.76 0 10.28-1 13.54-3.26a11.13 11.13 0 005-9.52v-30.34c.03-2 1.28-2.75 3.29-2.75zm44.12 0v-1.51h-22.31v1.51c2 0 3 .75 3 2.75v38.32c0 2-.76 2.76-2.26 2.76v1.5h15.3v-1.5c-1.75 0-2.51-.76-2.51-2.76v-32.8h.26c2.25 5 5.51 11.53 9.52 18.8l10.53 18.3h2l21.55-37.61h.26v33.31c0 2-1 2.76-2.76 2.76v1.5h17v-1.5c-2 0-3-.76-3-2.76v-38.32c0-2 1-2.75 3-2.75v-1.51h-22.26v1.51l2 1.25a9.36 9.36 0 01-1.76 4.51l-14 23.57h-.25l-13.29-23.57-2-4.51c-.03-.5.72-1 1.98-1.25zm87.99 17.29v-11.28h26.82c2.26 0 3.51.75 3.76 2.76h2v-12.29h-2c-.25 1.26-1.5 2-3.76 2h-42.36v1.51c1.75 0 2.75.75 2.75 2.75v38.33c0 2-1 2.76-2.75 2.76v1.5h42.36c2.26 0 3.51.5 3.76 1.75h2v-12.01h-2c-.25 1.76-1.5 2.76-3.76 2.76h-26.82v-13h16c2.26 0 3.51.76 4 2.51h2v-12.27h-2c-.5 1.5-1.75 2.25-4 2.25zm68.94-6.52c3.5-3.76 8.27-5.51 14-5.51a34.66 34.66 0 0110.78 1.75c2.51 1.26 4 2.51 4 3.76l-.26 1.51 1.76.5 9.28-11.28-1.51-1a3.57 3.57 0 01-3 1.5l-6.26-2a49.54 49.54 0 00-15-2.26c-9.27 0-16.79 2.26-22.56 7a21.38 21.38 0 00-8.27 17.3c0 6.51 2.76 12.28 8.52 16.79 6 4.77 13.29 7 22.06 7 6.52 0 12.29-.75 17.55-2.76a25.64 25.64 0 009.78-5.26v-.74c-1.25-.25-2-.76-2-1.51v-11.25c0-1 .76-1.5 2-1.75v-1.49h-23.83c-1.75 0-2.75-.5-3-1.75h-2v10.25h2a3 3 0 013-1.5h10.53v7.52a26.27 26.27 0 01-12 2.76c-6 0-11-1.5-14.79-4.76a13.78 13.78 0 01-5.52-11.28 15.94 15.94 0 014.74-11.54zm64.17-12.28v1.51c1.76 0 2.76.75 2.76 2.75v38.32c0 2-1 2.76-2.76 2.76v1.5h42.37c2.25 0 3.51.5 3.76 1.75h2.25v-12.01h-2.25c-.25 1.76-1.51 2.76-3.76 2.76h-26.82v-13h16c2.25 0 3.51.76 4 2.51h2v-12.27h-2c-.5 1.5-1.76 2.25-4 2.25h-16v-11.31h26.82c2.25 0 3.51.75 3.76 2.76h2.25v-12.29h-2.25c-.25 1.26-1.51 2-3.76 2zm83.48 14.04h.25l24.57 27.54 1.5 2.5c0 .75-.25 1-1.25 1.26v1.5h18.3v-1.5c-2 0-3-.76-3-2.76v-38.32c0-2 1-2.75 3-2.75v-1.51h-17.3v1.51c2 0 2.76.75 2.76 2.75v27.83l-21.06-24.57c-2-2.5-3.26-4-3-4.51 0-.75.51-1.25 2-1.5v-1.51H716.9v1.51c2 0 3.26.75 3.26 2.75v38.32c0 2-1.26 2.76-3.26 2.76v1.5h17.8v-1.5c-2.26 0-3.26-.76-3.26-2.76zm-366.25 62.59l-1.5-.75-3.51-.5c-3.76 0-5.77 1.5-5.77 4.76 0 2 1.76 3.51 5 4.26 3.25 1 4.76 2 4.76 3.26 0 1.76-1.26 2.76-4 2.76-2.51 0-4-1-4-2.76h-.26l-2 3.51.5.25.5-.5 1.51.75 3.76.75c4 0 6.26-1.75 6.26-5 0-2.25-1.75-3.76-5-4.76-3.26-.75-5-1.75-5-2.76 0-1.75 1.25-2.51 3.76-2.51s3.76.76 3.76 2l.5.25 1.5-3-.25-.25zm21.06-.75c.75 0 1 .5 1 1.25v13.54c0 .75-.25 1-1 1.25v.25h4.26v-.25c-.5-.25-1-.5-1-1.25v-13.54a1.14 1.14 0 011-1.25v-.25h-4.26zm29.33 0v-.25h-4.76v.25c.5 0 .75.5.75 1.25v13.54l-.75 1.25v.25h3.5v-.25l-.75-1.25v-12.28l7.52 13-.75.5v.25h4v-.25l-.75-1.25v-14.26l.75-.5v-.25h-3.75v.25c.5 0 .75.5.75 1.25v10.28l-6.26-11zm40.86 1.25l-.5.25a6.66 6.66 0 00-5.27-2 6 6 0 00-5.26 2.51c-1.5 1.5-2 3.51-2 6 0 5.52 2.51 8.52 7.52 8.52a7.24 7.24 0 005.27-2.25l.5.25.5-.25-2.26-3-.5.25.25.75-1.25 1.26a3.77 3.77 0 01-2.76 1c-3.26 0-5-2.26-5-6.52 0-4.51 1.75-6.52 5-6.52l2.76.76 1 1.25v.5l.25.25 2-2.76zm19.55-1.5v.25c.25 0 .5.5.5 1.25v13.54a1.47 1.47 0 01-.5 1.25v.25h10.53a1.48 1.48 0 011.26.51h.25v-3.26h-.25l-1.26.75H479v-5.52h5.26c.76 0 1 .25 1 .75h.5v-3.5h-.5c0 .5-.25.75-1 .75H479v-5.27h7.27c.75 0 1 .26 1.25 1h.26v-3.5h-.26l-1 .75zm58.41 2.01v3h.25l.75-.75 1.26-.5v11.28l-.75 1.25v.25h3.76v-.25l-.76-1.25v-13.54l.76-1.25v-.25h-3.76v.25l.75.75c0 1-.25 1.26-1.26 1.26a.92.92 0 01-.75-.25zm40.86 5.76c0-5.26-2-8-6.26-8-3.76 0-5.77 2-5.77 5.52s1.76 5.26 5.26 5.26a6.32 6.32 0 004.52-2c0 4.26-1.51 6.52-4.52 6.52-1.75 0-2.5-.75-2.5-2v-.26l-.5-.25-2 2.76.25.25.25-.25 1.51.75 3 .75a5.84 5.84 0 004.77-2.25 11.44 11.44 0 001.99-6.8zm-6.26-6c2.5 0 3.51 1 3.51 3.52 0 2.25-1 3.5-3.51 3.5a3.17 3.17 0 01-3.51-3.5c0-2.53 1.25-3.54 3.51-3.54zm36.85.24a6.31 6.31 0 00-5-2.26 6 6 0 00-5 2.26 10.27 10.27 0 00-1.76 6.26 9.09 9.09 0 001.76 6 5.57 5.57 0 005 2.5 5.87 5.87 0 005-2.5 10.74 10.74 0 001.75-6 12.28 12.28 0 00-1.75-6.26zm-.75 6.26c0 4.26-1.51 6.52-4.27 6.52-3 0-4.51-2.26-4.51-6.52 0-4.51 1.5-6.52 4.51-6.52 2.76 0 4.26 2.01 4.26 6.52zm27.32-8.52a6.31 6.31 0 00-5 2.26 12.28 12.28 0 00-1.75 6.26 10.74 10.74 0 001.75 6 5.87 5.87 0 005 2.5 5.56 5.56 0 005-2.5 9 9 0 001.76-6 10.2 10.2 0 00-1.76-6.26 6 6 0 00-5-2.26zm0 15c-2.76 0-4.26-2.26-4.26-6.52 0-4.51 1.5-6.52 4.26-6.52 3 0 4.51 2 4.51 6.52 0 4.3-1.5 6.56-4.51 6.56z" fill="#231f20"/></svg>