<svg viewBox="0 0 608.23 1000" xmlns="http://www.w3.org/2000/svg"><linearGradient id="a" gradientUnits="userSpaceOnUse" x1="149.79" x2="696.62" y1="461.67" y2="548.49"><stop offset="0" stop-color="#dfa86d"/><stop offset="1" stop-color="#f3cd85"/></linearGradient><g fill-rule="evenodd"><path d="M241.23 117.06c57.44-18 118.37-29.6 179.65-35.18V11.4h179.88v70.69c63.08 5.68 126.47 17.19 184.36 34.75 20 69.42 32.56 134.41 32 214.82-.56 80.67-18.68 165-64.11 244.78-47.09 82.68-110.76 142.64-192.35 190.09 18.81 3.09 38.22 5.29 57.35 5.23 37.75-.13 80.44-17.54 101.48-29.26v248.27c-36.15 17.34-65.24 19.5-97.63 20.5-28.57.89-57.54-2.9-88.23-9.21-44.23-9.06-90.41-21.5-135.91-20.06-32.94 1-60.49 9.33-91.61 26.36V763.59c30.73-13.69 64.89-19.38 98.89-19.9l.05-15.68c-61.6-48.5-106.64-102.14-138.27-162.71-31.95-61.18-50.21-129.44-56.33-206.64-6.01-75.9 5.84-168.09 30.78-241.6z" fill="url(#a)" transform="translate(-208.91 -11.4)"/><path d="M39.3 112.78C15.81 184.15 4.5 272.17 10.4 346.56c5.63 71.13 22.18 139.73 55.34 203.23s79.73 115.62 135.89 159.81l3.4 2.68-.09 28.73-8.72.13c-30.61.46-61.7 5.22-90.14 16.88v224.36c26.24-12.66 52.09-19.71 82.45-20.66 46.7-1.47 92.61 10.92 138 20.25 28.31 5.81 57.21 9.93 86.18 9 33-1 58.94-3.84 89-17.3V745.6c-28.06 13.29-63.31 23.5-92.57 23.61-19.69.06-39.41-2.16-58.82-5.35l-24.4-4 21.37-12.44c80.25-46.66 143-105.8 189.11-186.81 42.08-73.88 62.36-155.64 62.94-240.44a674 674 0 00-15-146.5c-4.38-20.56-9.61-40.92-15.34-61.15-57.67-17.1-118.09-27.62-177.95-33l-8.08-.73V8.88H220.85V78.6l-8.08.74c-58.6 5.32-117.18 16.13-173.47 33.44z" fill="#fff"/><path d="M120.03 766.67c27.18-10.83 58.95-15.34 96.14-13v14.39c-27.64-1.8-55.71.11-81.76 8.7v166.5a197.47 197.47 0 0153.25-9c49-1.54 96.77 11 144.39 20.8 47.08 9.68 93.11 14.68 139-.69V787.74c-20.56 6.73-41.69 9.49-63 9.43-32.78-.1-66.06-6.46-98.55-13.3v-14.75c60.18 12.63 121 23.83 176-2v197.29c-53.61 21.19-106.58 14.94-156.28 4.72-42.37-8.71-92.71-22-141-20.51-23.6.74-45.28 5.67-68.09 15.16z" fill="#212929"/><path d="M558.09 121.74q-19.53-5.64-39.53-10.33v452.73c1.8-3 3.58-6.06 5.33-9.15 41-72.13 61.74-152 62.31-234.87a668.45 668.45 0 00-14.7-144c-3.88-18.25-8.43-36.36-13.41-54.34zM458.75 99.6c-22.1-3.61-44.37-6.42-66.65-8.48v192.15a131.67 131.67 0 01-.01 200.33v219.8a490.39 490.39 0 0066.65-59.41V99.6zm-243.54-9.08c-22.51 2-45 4.82-67.28 8.52V645.7c20.77 22.13 43.5 41.79 67.28 60.56V483.44a131.65 131.65 0 010-200v-193zM88.15 111.17q-20.13 4.88-39.9 10.8c-21.77 69-32.13 152.08-26.48 223.69 5.49 69.5 21.62 136.79 53.91 198.84q5.94 11.42 12.47 22.33z" fill="#df242b"/><path d="M232.2 19.14h137.96v36.92h-47.87v181.07h-42.48V56.06H232.2zM329.61 533.6c34.09 18.2 46.1 43.08 45.45 76.22s-17.97 63.78-51.16 74.78l-39-.63v94.69c-9.18-1.93-18.27-3.77-27.24-5.39q-6.7-1.21-13.55-2.23V533.6zm-13.52 35.88h-31.23v80.35h30c12.19-10.38 18.57-27.36 17.95-42.08-.56-12.15-3.37-25.84-16.72-38.27zm-12.35-301.52c61.92 0 112.46 48.21 115.22 108.68-21.44-35.23-51.3-65.7-94.9-69a118.15 118.15 0 00-22.64.56 19.48 19.48 0 01-9.54-10.71c-3.69-10.76 3.08-22.09 10.9-29.5zm114.28 129.33c-11.14-21-25.25-42-43.14-57-15.08-12.63-32-20.22-51.65-21.71a106.39 106.39 0 00-19.71.42c-7.2 4.28-12.86 10.48-15.61 18.51a33.08 33.08 0 00.39 22.23 32 32 0 0013.93 16.61 41.64 41.64 0 0126.71-7.67 42.72 42.72 0 0126.32 11.56 54.4 54.4 0 0115 25.38 27.68 27.68 0 0115-1.91c11.33 1.83 19.67 10.64 25.54 20.59a111.75 111.75 0 007.24-27zm-13.18 39.39a116.31 116.31 0 01-152.77 47c23.09-.41 46.84-3.88 67.45-13.11a98.27 98.27 0 0043-36.51 60.13 60.13 0 007.53-16l1.14-.66c16.18-9.44 27.35 5.57 33.61 19.29zm-171 35.71a116.11 116.11 0 01-20.3-19.63c11.37.43 22.78-2.44 30.37-11.24a28.57 28.57 0 006.48-14 49 49 0 0035-2.76c11-5.22 20.43-14.79 23.25-26.9a31.62 31.62 0 00.33-12.81 30.61 30.61 0 0119.31-5.43 31.72 31.72 0 0119.55 8.65c6.51 6 10.5 14.18 12.51 22.74-.62 5.89-3.85 12.2-7 17.06a87.24 87.24 0 01-38.3 32.43c-24.59 11-54.43 13.14-81.23 11.85zm-28.9-31.79c10.58 2.2 23.51 1.92 30.59-6.3a19.09 19.09 0 004.33-12.86A53.08 53.08 0 01228.99 407a98.34 98.34 0 01-10.32-55.49c2.23-22.5 11-44.87 22.16-65.13-31.57 20.33-52.44 55.49-52.44 95.46a112.23 112.23 0 0016.55 58.76zm54.39-163.93c-14.24 22.55-27.09 49.31-29.72 75.93a87.33 87.33 0 009.14 49.34 39.18 39.18 0 0011.83 14.1 38 38 0 0030.05-1.16c7.92-3.76 15.21-10.68 17.26-19.46a20.55 20.55 0 00.12-8.83 42.9 42.9 0 01-20-23 43.61 43.61 0 0113-49.18 29.11 29.11 0 01-9.55-13.39c-3.85-11.2-.53-22.57 5.9-31.94a116 116 0 00-28.03 7.63zm-32.48 523.25c12.8 1.46 23 13.44 23 26.1v57c0 12.91-10.36 22.28-23 20.84s-23-13.44-23-26.1v-57c0-12.9 10.36-22.28 23-20.83zm0 16.07c-4-.46-7 2.75-7 6.6v57c0 3.78 3.06 7.74 7 8.19a6.35 6.35 0 007-6.6v-57c-.04-3.79-3.09-7.75-7-8.19zm173.94 79.27v15.16c0 12.95-9.31 21-20.69 19.67s-20.69-12.41-20.69-25.13v-10.48l15.8 1.83v10.29c0 3.79 1.38 7 4.89 7.36s4.7-2.38 4.7-6.25V897.6c0-3.71 0-6.78-3.07-9.4l-12.85-11c-5.27-4.5-9.76-10.51-9.76-19v-13.32c0-13 10-20.48 21.27-19.17s20.49 11.11 20.49 23.82v11.54l-15.84-1v-10.89c0-3.8-1.37-7-4.85-7.35s-5 2.35-5 6.2v11a8.21 8.21 0 003.21 6.91l13.13 11.36c4.03 3.57 9.26 8.56 9.26 17.96zm-75.37-10.48v15.17c0 12.95-9.31 20-20.69 17.55s-20.64-14.52-20.64-27.23v-10.49l15.8 3.45v10.27c0 3.8 1.38 7.09 4.89 7.86s4.7-1.9 4.7-5.76v-10.12c0-3.71 0-6.79-3.07-9.72l-12.85-12.27c-5.27-5-9.76-11.51-9.76-20v-13.3c0-13 10-19.47 21.27-17a26.69 26.69 0 0120.5 25.92v11.74l-15.85-3.45v-10.3c0-3.8-1.37-7.09-4.85-7.85s-5 1.84-5 5.69v11a9.18 9.18 0 003.21 7.24l13.01 12.74c4.11 3.94 9.33 9.47 9.33 18.86z" fill="#212929"/></g></svg>