<svg viewBox="0 0 1000 489.86" xmlns="http://www.w3.org/2000/svg"><path d="M956.7 125.62L59.59 388.26a233.55 233.55 0 01-49.04-143.33c0-129.21 105.13-234.42 234.33-234.42H755c85.72.02 160.77 46.32 201.7 115.11z" fill="#db0c24"/><path d="M245 479.32h510.1c129.26 0 234.41-105.15 234.41-234.37a232.73 232.73 0 00-32.78-119.37L59.63 388.23c42.93 55.34 110 91.09 185.32 91.09" fill="#fff"/><path d="M10.53 244.93C10.53 115.69 115.7 10.52 245 10.52h510.1c129.26 0 234.41 105.17 234.41 234.43s-105.2 234.37-234.46 234.37H245c-129.3 0-234.47-105.15-234.47-234.39M245 0C109.88 0 0 109.87 0 244.93s109.88 244.93 245 244.93h510.1c135.09 0 245-109.89 245-244.91S890.24 0 755.1 0z" fill="#1b181c"/><path d="M592.57 201.41c-.71 1.5-21.91 45-35.38 72.82-10.65-22.46-28-59.07-36.56-77h69.75c3.84 0 2.89 2.66 2.19 4.18m-220.24 85.1c3.56-8.7 11.45-28 16.77-41 5.34 13.05 13.22 32.34 16.78 41zm470.8 92.11c0-.07-30.75-64.85-30.75-64.85-6.22-12.75-16.86-19.75-30-19.75h-71.21c-2.61 0-3.72-2-2.78-4l9.94-21.08 24.93-52.66a43.51 43.51 0 004.51-19.13c0-9.89-3.48-17.58-5.15-21.34l-42.84-86.08c-7.44-14.9-22.08-24.14-38.21-24.14H346.45c-11.57 0-21.92 5.95-28.42 16.35-.26.47-146.5 298.36-146.5 298.36-7.12 14.18-2.91 24.88.23 30 6.43 10.47 17.68 14.2 26.1 14.2h82.97c22.6 0 31.1-15.78 35.57-24.11 11.31-19.87 12.74-22.5 13.95-24.35.89-1.41 2.65-1.78 6.13-1.78H442.8c3.45 0 5.22.37 6.11 1.78 1.22 1.85 2.64 4.48 14 24.35 4.47 8.33 13 24.11 35.59 24.11h316.05a31 31 0 0026.15-14.77c6-9.5 6.89-21.4 2.43-31.11" fill="#1b181c"/><path d="M420.91 297.1a1.25 1.25 0 01-1.05.64h-61.52a1.26 1.26 0 01-1-.62 1.86 1.86 0 01-.18-1.61l30.77-78a1.34 1.34 0 011.2-.92 1.3 1.3 0 011.19.92l30.79 78a1.84 1.84 0 01-.17 1.59m-20.79-83.48a11.78 11.78 0 00-22 0l-30.77 78a12.37 12.37 0 001.12 11.21 11.75 11.75 0 009.89 5.41h61.52a11.72 11.72 0 009.91-5.44 12.26 12.26 0 001.11-11.15zm418.24 182.07a4.8 4.8 0 01-4.18 2.44c-4.77.08-95.48.08-269.63 0v-.16c-5.27 0-8.7-4.56-9.94-6.54-3.65-5.81-4.38-13.31-1.79-18.62L562.78 311l.18-.1-.07-.12 49.68-102.49c3.7-8 3.42-16.55-.71-23a19.9 19.9 0 00-17.23-9.17H499l-40-84.19h202.6a16.22 16.22 0 0114.4 9.24c13.82 27.52 40.47 80.7 42.4 85 2.37 5.34 4.42 11.22.86 19.28-4.58 10.33-31.13 66.12-34 72-5.89 11.75-7.36 22.42-2 31 3.89 6.32 11 11.76 19.65 11.76l79.53.16c2.36 0 4.07.31 6.22 4.79l30.56 64.47a7.12 7.12 0 01-.78 6m-314.45-209h90.69a9.46 9.46 0 018.32 4.3c2.19 3.44 2.22 8.21.09 12.83l-45.94 94.81zm10.84 211.46h-16.32c-4.86 0-6.88 0-12.65-10.7l-15-25.63c-5.43-8.71-15.92-13.9-28-13.9H336.5c-12.13 0-22.6 5.19-28.07 13.9l-14.94 25.67c-5.77 10.7-7.79 10.7-12.64 10.7l-82.85-.14c-1.51 0-3.22-.7-3.73-1.55a1.74 1.74 0 01-.22-.9 7.91 7.91 0 011-3.37c4.94-9.74 139.84-285 145.58-296.74a6.88 6.88 0 015.81-3.5H447.3l103.91 218.84-27.87 57.46c-4.15 8.59-3.21 19.9 2.37 28.84.25.39.59.69.85 1.08zm314-12.92l-30.73-64.63c-3.58-7.3-8.56-10.7-15.71-10.7l-79.53-.14c-4.37 0-8.92-3.31-10.68-6.8-2.87-5.67-1.69-12.35 2.52-20.73 2.94-5.89 29.61-62 34.22-72.41 5.76-13 1.24-23.05-.87-27.87-2.54-5.6-40.95-82.17-42.59-85.43a26.72 26.72 0 00-23.89-15H346.45c-6 0-11.45 3.25-15 8.89-1.66 3.36-140.87 287.44-145.78 297.08-3.49 6.89-2.14 11.73-.39 14.59 3 4.84 8.71 6.55 12.69 6.55l82.9.15c11.25 0 15.87-5 21.92-16.25l14.62-25c3.5-5.6 10.65-8.93 19.11-8.93H442.8c8.45 0 15.62 3.33 19.12 8.93l14.6 25c6.08 11.23 10.68 16.25 21.94 16.25h16.32c193.68.08 294.5.08 299.62 0a15.35 15.35 0 0012.91-7.35c3.11-4.94 3.67-11.27 1.43-16.09" fill="#fff"/></svg>