<svg viewBox="0 0 800.58 1000" xmlns="http://www.w3.org/2000/svg"><path d="M367.73 1000a8.06 8.06 0 01-7.61-6.4s-2.27-12.7-29.87-31.21c-41.06-27.51-66.59-20-116.18-25.67-53.22-6.12-93.4-33.25-112.83-55.94-33.76-39.43-39.44-62-42.88-164.16s-21.94-388.78-23.72-405.8c-3-29-17.28-30.2-17.28-30.2a7.65 7.65 0 01-6.79-7L.01 75.05a6.56 6.56 0 016.11-6.88S52.71 65.38 83.91 60c39.49-6.81 126.66-42.59 203.94-52.81C351.2-1.18 373.91.07 399.68.07h1.33c25.76 0 48.37-1.25 111.73 7.12 77.28 10.22 164.44 46 203.93 52.81 31.21 5.38 77.79 8.17 77.79 8.17a6.56 6.56 0 016.11 6.88l-10.56 198.56a7.65 7.65 0 01-6.79 7s-14.24 1.16-17.27 30.2c-1.79 17-20.29 303.64-23.73 405.8s-9.12 124.73-42.88 164.16c-19.43 22.69-59.6 49.82-112.83 55.94-49.59 5.7-75.12-1.84-116.17 25.67-27.61 18.51-29.88 31.21-29.88 31.21a8.05 8.05 0 01-7.61 6.4z" fill="#c92024"/><path d="M762.29 256.94l5.7-159.34s-69.61-9.17-110.7-24.07S501.08 23.09 391.6 28.82 218.29 54 150.96 72.38 32.36 95.31 32.36 95.31l8 162.78s21.67 11.46 23.95 48.14 27.37 448.22 27.37 471.15 14.83 76.8 38.78 91.7S200 909.21 251.29 911.5s84.39 8 100.35 21.78 27.37 35.54 27.37 35.54l43.34 2.29s18.25-37.83 51.32-45.86 93.52-16 110.63-16 65-22.93 85.53-42.42 38.82-29.83 45.66-189.18 14.8-361.1 21.67-379.44 25.13-41.27 25.13-41.27z" fill="#e4151f"/><path d="M404.14 20.46h-7.69a799.22 799.22 0 00-115.29 7.3c-49.09 6.46-91.74 20.75-129.36 33.37-25.06 8.4-46.7 15.66-64.84 18.65a506.14 506.14 0 01-55.76 6 10.26 10.26 0 00-7.18 3.35 10.37 10.37 0 00-2.67 7.49l8.36 163.55a10.49 10.49 0 005.21 8.45c.7.41 17.32 10.32 19.13 34.59 1.22 16.28 19.93 308.61 23.55 403.89 3.8 100.07 6 125.09 40 161.78 25.68 27.71 74.65 49 116.44 50.66 58.92 2.31 66.58 3.22 102.26 22.61A87.31 87.31 0 01370.47 976a10.32 10.32 0 009.22 5.78h41.2a10.32 10.32 0 009.22-5.78 87.49 87.49 0 0134.18-33.87c35.68-19.39 43.35-20.3 102.26-22.61 41.74-1.64 90.74-22.95 116.43-50.65 34-36.7 36.2-61.72 40-161.79 3.62-95.3 22.34-387.61 23.55-403.89 1.81-24.27 18.43-34.18 19.14-34.59a10.5 10.5 0 005.2-8.45l8.36-163.55a10.29 10.29 0 00-9.85-10.84 506.14 506.14 0 01-55.76-6c-18.13-3-39.77-10.25-64.83-18.65-37.63-12.62-80.27-26.91-129.37-33.37a799.11 799.11 0 00-115.28-7.28zm-3.79 20.64h3.81a781.24 781.24 0 01112.59 7.13c47.14 6.19 88.79 20.15 125.54 32.47 25.89 8.69 48.26 16.18 68 19.44s37.35 4.87 47.91 5.63c-.89 17.39-7.13 139.48-7.58 148.3-7.93 6.21-22.59 21.1-24.57 47.57-1.22 16.31-20 309.15-23.59 404.66-3.86 101.45-6.26 118-34.51 148.49-22 23.73-65.93 42.68-102.23 44.11-60.16 2.37-71.28 3.38-111.22 25.08a108.38 108.38 0 00-39.51 37.17h-29.4A108.64 108.64 0 00346.08 924c-39.94-21.69-51.06-22.7-111.23-25.07-36.3-1.43-80.24-20.39-102.23-44.11-28.24-30.47-30.65-47-34.51-148.5-3.62-95.5-22.37-388.32-23.58-404.68-2-26.47-16.65-41.36-24.58-47.57-.45-8.82-6.69-130.91-7.58-148.3 10.56-.76 28.12-2.37 47.91-5.63s42.12-10.76 68-19.44c36.75-12.32 78.4-26.28 125.54-32.48a781.32 781.32 0 01112.59-7.13h3.93z" fill="#fff"/><path d="M469.73 480.9c10.21 10 28.59 7.25 48.8 22.11 18 13.26 22.87 27.07 22.87 29s3 .76 9.15-1.91 6.48-9.15 6.48-21.35-6.1-15.63-17.15-27.45-14.11-21.37-14.11-31.3 5.34-13.72 5.34-22.11-.76-17.16-3.05-19.06-5.34-4.2-3-8 7.24 0 14.49 3.05 8.76 18.3 8.76 29-.38 21.36 1.53 21.36 5.72 0 6.1 4.95 2.29 6.48 6.1 6.48 5-6.86 4.57-22.87-10.72-27.09-15.32-33.57-8-9.15-9.53-14.11-7.62-9.91-16.77-25.16c-6.8-11.33.38-29.35 6.86-42.32 6-12.09 8-24.78 6.48-34.31s1.15-8 4.2-7.24 7.24 9.91 8.38 19.82 1.91 12.58 4.2 11.06 5.33-13.72 5.33-25.16-3.43-21.73-9.53-29.74-11.81-16.39-9.53-21 6.48-3.43 9.53 1.15 1.91 3.05 2.67 2.67c2.46-1.23 5-14.49 3.43-21.35s-7.24-12.2-4.19-16 13.07 5.17 16.39 13.73c2.67 6.86 2 15.61-1.14 21-2.67 4.57-5 7.62-5.72 11.82s3.43 9.15 12.2 19.06c8.94 10.1 13 17.91 13 32.78s-10.69 23.62-16.79 35.07a27 27 0 00-3.05 16s-4.57-2.67 17.54-22.11c12-10.58 16.39-24.78 14.48-38.13s-1.52-19.82 0-21.35 14.12 6.29 17.92 26.31c4.19 22.11-3.81 31.64-13 49.18s-13 31.64-11.82 44.22a146.13 146.13 0 003 20.21 116.68 116.68 0 014.19-12.2c2.29-5.34 9.53-9.91 20.21-17.92 6.43-4.82 8.39-16.77 7.62-23.26-.53-4.54-.76-11.81 4.2-11.05s9.89 13.19 10.29 25.16c.38 11.44-2.84 23.42-9.91 30.5a29.31 29.31 0 00-8.77 22.49c.38 9.15 2.29 21.73-3.43 32.41-7.41 13.82-22.88 18.68-28.59 24.4-6.87 6.86-9.15 16-8 21.73s4.19 14.48 1.14 24S574.57 543 574.57 543s4.4 1.29 11.06-.38c6.1-1.52 10.78-2.46 13.72-10.29 2.29-6.1-4.38-16.89-1.14-31.26 3.43-15.25 5-18.68 11.43-23.26s16.4-5 18.3-2.29c3.57 5-3.44 10.27-8.38 13.73-3.82 2.67-6.87 19.82-3.82 27.45s6.1 21 2.29 29.73c-4.35 10-13.76 13.84-28.21 14.87-10.68.76-21.73-.38-31.26-5.72s-16.24-2.74-17.16-1.52c-1.14 1.52-.38 12.2-5.72 20.59-9.88 15.53-25.16 24-42.7 28.21s-27.06 20.2-29 30.12-.76 27.45-2.67 31.64-13 8.39-24 12.58-31.26 23.26-34.69 27.45-2.67 7.24 6.1 9.91 3.43 6.1-.38 7.24-6.86 2.29-3.43 2.67-1.15 5.72-5.34 5.72-5 5.72-1.14 6.1c7.37.73 13.34 3.81 14.48 6.86s-.38 9.15-3.81 12.58-3.05 8-5.34 12.59-7.62 9.91-9.15 9.91-3.53.71-9.52-12.2c-5-10.68-5-19.83-6.11-22.49s-4.95-1.53-9.15-13.35-2.75-20.21 8.39-29.35c40.41-33.17 54.9-48.42 54.9-55.28s-4.43-17.61-12.58-32.79c-8.39-15.63-17.54-33.93-18.3-49.18-1.13-22.47.64-37.41 12.58-44.22 13.34-7.63 9.15-11.44-1.52-3.43s-13 13.34-16 24.78c-2.33 8.75-3.43 10.67-16.39 10.67s-35.46-13.33-54.9-30.5c-22.87-20.2-46.13-53.75-48.42-60.62-2.41-7.24-.38-9.53 4.2-8.38s19 2.92 46.13 1.14c23.25-1.52 34.75-12.74 36.22-24 1.14-8.77-9.91 18.3-38.13 18.3-31.26 0-35.83-2.67-45-7.24-6.14-3.07-22.47-10.29-39.64-10.68-16.78-.38-18.3 2.29-22.5 4.58s-6.48-.38-9.53 7.24-6.86 8.39-7.62 22.5-1.14 24.39 1.14 25.16 2.67-1.53 6.1-4.2 8-2.29 8.77-.38 0 5.72-2.29 7.63 0 5 1.53 5 3.05 5-1.53 5.34-5.34 2.29-4.19 6.86 3.43 9.92 7.24 9.15 12.2-7.29 12.2 8.71-1.52 25.16-8.77 22.49-15.63-8.35-19.44-14.49-6.86-7.24-10.67-11.06-9.15-6.86-9.15-21.35c0-24.4 6.1-33.55 6.1-54.9 0-29 1.9-40.79 14.48-40.41s25.93 1.91 38.13 1.53 20.42-1.06 26.68-4.2c3.05-1.52 2.67-7.24 3.05-13.34s5-15.25 15.64-26.69c10.49-11.25 23.63-18.29 31.64-23.63s10.29-9.92 17.92-13c3.26-1.31 11.82-.39 20.2-.39s14.91 0 25.16-6.48c22.5-14.1 24-16.39 24-18.68s-5.34 3.43-24 14.87c-8.43 5.16-14.1 4.19-23.63 4.19s-18.57-1.56-24 4.2c-6.86 7.24-15 6-21.35 1.9-8.39-5.33-12.22-22.57-5.34-28.21 8.39-6.86 30.52-27.21 37-35.45 11.06-14.11 6.57-17.92 16-25.55 9.92-8 13.35-8.76 14.11-13.34s2.29-13.72 6.86-13.72 6.1 4.19 6.86 5.33c0 0 1.53 1.15 5.34-1.14s3.43-7.24 6.48-12.2 8-7.62 13-3.05c6.45 5.95 4.58 7.62 11.06 7.24s12.58.39 18.68 6.1 8.77 9.92 16 9.15 13.35-4.19 25.55-3.05 20.58 8.39 21.35 15.63-1.53 9.54-4.2 7.25-5.13-6.1-14.1-6.1c-8.77 0-16.78 3.81-14.87 7.24 2.11 3.8 9.53 2.67 13.72 10.3s5 17.91 8.39 22.49 6.48 5.33 8.39 5.33 2.27 9.13-6.48 11.82c-5 1.53-9.15-1.14-13.73-4.95s-10.29-4.19-8.38 3.05 6.1 12.2 13.72 13 17.54 6.48 17.54 18.68.76 22.49-3 24.78-9.54-4.57-11.44-13-7.63-14.11-12.2-12.2-7.24 3.05-7.24 8.77 5.33 11.05 11.43 15.25 7.25 12.2 7.25 20.58 1.14 11.06 6.1 16 7.24 8.38.76 8.38-17.16-3.05-21.35-12.58-7.62-16.77-14.11-17.15-8.77 6.1-6.48 9.53 11.82 8 11.82 12.2-2.29 4.19-9.53 4.19-9.53-1.14-13-4.95-5.72-.77-6.86 2.66 1.9 10.68 10.67 11.06 21 1.91 23.64 11.06c2.56 8.78-1.91 12.2-5.72 12.2s.76-8.77-11.06-8.39-9.91 3.81-18.3 3.43-11.81-2.67-14.48-6.1-4.58 1.71-1.15 9.15c6.79 14.97 30.82 45.46 48.35 62.62z" fill="#fff"/><path d="M390.05 553.72a55.64 55.64 0 01-11.44.76c-4.95-.38-12.58-1.52-14.48-2.29s-5.34 6.1-3.43 14.87 11.43 24.78 11.81 34.69 1.53 15.25-8.77 15.25-27.06-3-40.41-5-21.35-7.25-34.31-7.25-17.53 3.44-22.11 16.78-10.29 21-12.58 34.31-1.91 21 3.43 21 16.39-5 24.78-10.67 8.39-12.59 6.48-14.49 0-2.67 2.67-2.29 6.1 2.29 7.24-.76 0-5-2.28-6.1-.76-2.29 2.28-2.29 6.49 0 6.87-2.67-.38-5-3.82-5-4.57-3.43 5.34-3 25.97 1.16 33.97 3.83a102.46 102.46 0 0024.78 5.34c9.15.76 16.78 6.48 25.16 6.48s14.49-2.29 18.3-7.63 7.25-16.39 3.43-25.16-11.43-24.4-14.86-37-3.09-22.09-8.05-21.71zm-234.08-189.1c2 6.74 6.1 12.2 6.1 22.12 0 13.72 2.29 13.72 6.1 14.86 2.56.77 5-.76 13.72-12.58s8-12.2 6.48-16.77-9.15-7.63-3.81-6.86 5.34.38 5.34-2.29a6.43 6.43 0 00-5-6.48c-3.43-.76-1.9-4.58-.76-8.39s6.86-8.39 16.77-16.39 16.4-13.35 25.93-13.35 14.87 13.35 18.3 26.69 6.86 15.63 9.53 24 6.86 11.05 9.53 11.05 3.81-6.09 9.91-14.1a99.85 99.85 0 0112.2-13.34 64.39 64.39 0 00-13.72-17.54c-8.77-7.63-14.75-17.95-16.78-27.07-3.05-13.72-10.67-19.44-21.35-18.3-13.35 1.43-18.3 2.29-27.44 12.58s-13.35 15.25-23.26 21.73c-11.56 7.56-15.43 8.79-25.16 17.92-6.06 5.74-5.68 12.22-2.63 22.51z" fill="#fff"/><path d="M408.73 214.8c-2.25.38-2.67 1.91-4.19 4.95s-1.53 5.34 3.81 5.34 6.48-1.14 5-5-2.33-5.67-4.62-5.29zm-11.44 38.88c-.38-.76-7.24-1.9-13 1.15-6.35 3.38-15.21 13.08-11.44 11.82 6.87-2.29 8.39 2.28 12.59 2.28s6.82-2.85 7.62-7.24c.8-4.19 5.85-4.79 4.23-8.01z" fill="#e4151f"/><g fill="#fff"><path d="M633.36 601.62l-2.32 2 .38 3c.11.86 10.37 87.58-26.62 171.2-30 67.76-79 124.18-79.52 124.74l8.61 7.53c.5-.57 50.66-58.24 81.36-127.64 24.55-55.47 29.13-111.08 29.13-144.87 0-14.13-.8-24.42-1.28-29.3l81.6-70.48-7.47-8.65zM63.57 325.47c.3 1 30.48 100.71 89.94 189.12 25.58 38 59.07 76.23 96.25 108.9l5.87-10.94c-36.43-32-67.6-67.12-92.63-104.34-58.46-86.93-88.18-185-88.47-186zM359.83 701c-18.32-10.68-37.66-23.08-54.41-34.78l8.09-8.34c16.51 11.53 37.25 23.87 55.3 34.4z"/><path d="M422.75 734.43c19.15 9 43.65 19.36 63.6 27.06C549.96 786 604.01 794.88 604.54 795l1.82-11.29c-.53-.09-53.46-8.76-115.89-32.86-19.7-7.6-39.28-16-58.18-24.82zm119.03-148.3c52.75 21.9 93.39 25.43 95 25.53l.73-11.42c-.37 0-37.1-2.62-87.94-23.74zM160.53 219.87C80.41 236.45 48.34 263.46 47.02 264.6l7.45 8.68c.31-.26 31.56-26.31 108.38-42.21 51.7-10.69 85.06-11.53 96.64-11.43 1.37 11.2 7.76 45.11 22.29 85.13l9-8.52c-17.69-48.77-20.43-82.31-20.49-82.65l-.39-5-5-.31c-1.45-.06-38.04-2.14-104.37 11.58zm468.76 16.05c-12.66 10.35-24 21.63-24.44 22.11l8.08 8.09c.12-.12 11.4-11.37 23.6-21.35 17.88-14.63 41.62-29.88 41.75-30l-16.78-4.58c-.13.13-14.05 10.81-32.21 25.73z"/><path d="M259.7 211.12l9.84 5.84c.06-.11 15.79-21 35.88-42.57l-17.25 1.76c-21.09 22.68-28.18 34.48-28.47 34.97zM399.2 76l18.3.76c38.89-29 50.79-34.82 51-34.91L461 31.78c-.77.39-21.19 12.58-61.8 44.22zM87.19 729.63c.31.45 31.1 45.43 92.24 105 43.58 42.43 126 85 129.47 86.77l5.23-10.17c-.84-.43-84.38-43.57-126.72-84.79-60.23-58.65-90.46-102.76-90.76-103.19zm231.2 80.51h-9l-.2.15a22.86 22.86 0 01-7.85 3.25 43.28 43.28 0 01-9.44 1.51c-.47 0-1.45 0-1.85 4.53l-.08.85h.85c4.25 0 7.62.4 8.57 1 1.1.72 1.65 2.26 1.65 4.58v29.6c0 2.18-.62 3.73-1.91 4.73s-3.53 1.56-6.5 1.56h-5.34v5.52h45.27v-5.52h-5c-3 0-5.16-.52-6.49-1.54s-1.91-2.54-1.91-4.75v-45.47zm30.52 4.8a16.76 16.76 0 00-6.92 13.78 15.39 15.39 0 005.85 12.56c3.83 3.1 9 4.67 15.27 4.67l7.23-.9a23.07 23.07 0 005.14-2.31c0 .18.06 1.9.06 1.9 0 6.37-1.11 11.24-3.31 14.47s-5.26 4.71-9.47 4.71l-5.06-.78-1.41-.72 1.87-1.28c2-1.34 3-2.9 3-4.64a5 5 0 00-2.55-4.36 11.53 11.53 0 00-6.24-1.51 10.82 10.82 0 00-6.54 1.87 6.07 6.07 0 00-2.66 5.1c0 3.34 1.88 6.11 5.58 8.24s8.13 3.09 13.6 3.09a32.89 32.89 0 0010.59-1.64 27.72 27.72 0 008.88-5 33.57 33.57 0 008.9-11.43 32.56 32.56 0 003.15-14.07c0-8.24-2.54-14.87-7.56-19.72s-11.8-7.31-20.17-7.31c-6.85-.03-12.7 1.76-17.23 5.28zm13.06 22.86c-1.13-2-1.7-5.62-1.7-10.83 0-4.26.59-7.33 1.75-9.13s2.89-2.57 5.42-2.57 4.37.87 5.45 2.64 1.72 5.24 1.72 10c0 5-.57 8.43-1.67 10.18s-2.84 2.48-5.5 2.48-4.41-.91-5.47-2.77zm61.73-26.65a27.62 27.62 0 00-8.88 5 33.21 33.21 0 00-8.92 11.4 32.64 32.64 0 00-3.16 14.08c0 8.27 2.55 14.94 7.57 19.82s11.78 7.35 20.12 7.35c6.93 0 12.74-1.8 17.27-5.36a16.94 16.94 0 006.92-13.87 15.35 15.35 0 00-5.89-12.54c-3.85-3.11-9-4.68-15.25-4.68l-7.24.89-5.15 2.26c0-.13-.06-1.83-.06-1.83 0-6.37 1.12-11.23 3.34-14.46s5.34-4.73 9.61-4.73l5 .76 1.41.72-1.87 1.3c-2 1.33-3 2.9-3 4.66a5 5 0 002.51 4.34 11.36 11.36 0 006.26 1.54 10.75 10.75 0 006.53-1.87 6.1 6.1 0 002.63-5.11c0-3.33-1.87-6.09-5.55-8.22s-8.13-3.1-13.6-3.1a32.77 32.77 0 00-10.6 1.65zm0 49.37c-1.15-1.89-1.73-5.28-1.73-10.06 0-5 .56-8.46 1.67-10.22s2.86-2.47 5.54-2.47 4.42.9 5.47 2.76 1.69 5.61 1.69 10.82c0 4.31-.59 7.42-1.74 9.25s-2.88 2.59-5.42 2.59-4.4-.88-5.48-2.67zm46.94-50.34l-2.49 15-4 16.26.9.1 7.38.64.27-.32a14.18 14.18 0 014.57-3.76 11.42 11.42 0 015.29-1.32c3.81 0 6.67 1.06 8.49 3.14s2.77 5.4 2.77 9.77c0 4.55-1 8.08-3.09 10.47s-4.94 3.56-8.81 3.56l-5.25-.69-1.51-.63.26-.21c2.87-2.06 4.26-4.08 4.26-6.18a6.23 6.23 0 00-2.65-5.21 10.82 10.82 0 00-6.61-1.9 11.5 11.5 0 00-7.13 2.2 7 7 0 00-3 5.8c0 3.55 2.25 6.5 6.69 8.77 4.31 2.18 9.76 3.33 16.31 3.33 8.68 0 15.88-1.89 21.4-5.61s8.47-8.69 8.47-14.59c0-5.32-2.42-9.76-7.18-13.2s-10.69-5.1-17.85-5.1a29.48 29.48 0 00-7.84 1 40.36 40.36 0 00-6.87 2.87c.47-2 1.67-7.33 1.67-7.33a16.59 16.59 0 015.07-6.2c1.31-.79 15.91-2.19 29-3.11l.6-.05 1.45-8-40.46-.2zM133.79 144.12l-3.28 1.13a12 12 0 00-9.95-7.28q-4.82-.54-11.63 1.81l-3.28 1.13 7.78 22.57q5.54-1.9 7-5.72c.9-2.25.73-5.18-.51-8.77l3-1 9.84 28.51-3 1q-2-5.79-5-7.85-3.51-2.35-9.3-.37l6.55 19c1.2 3.5 2.45 5.65 3.75 6.42.8.49 2 .45 3.69-.12l1.89-.65 1 3-33 11.38-1-3 1.29-.45a3.56 3.56 0 002.57-2.81q.39-2.07-1.15-6.55l-14.58-42.25a18 18 0 00-2.62-5.37 3.55 3.55 0 00-4.1-1.19l-1.47.51-1-3 49.65-17.14z"/><path d="M126.56 126l-49.64 17.13a1.15 1.15 0 00-.71 1.46l1 3a1.14 1.14 0 001.46.71l1.47-.51a2.43 2.43 0 012.86.87 17.1 17.1 0 012.4 5l14.58 42.25c1.2 3.47 1.26 5.16 1.1 6a2.44 2.44 0 01-1.81 1.95l-1.3.45a1.14 1.14 0 00-.7 1.45l1 3a1.16 1.16 0 001.46.71l33-11.38a1.11 1.11 0 00.66-.58 1.14 1.14 0 000-.87l-1-3a1.13 1.13 0 00-1.45-.71l-1.89.65c-1.72.59-2.45.4-2.73.22-.6-.35-1.8-1.58-3.26-5.82 0 0-5.38-15.56-6.12-17.72 2.91-.79 5.38-.74 7.16.45s3.33 3.67 4.58 7.27a1.14 1.14 0 001.45.71l3-1a1.13 1.13 0 00.71-1.45L124 147.72a1.13 1.13 0 00-1.45-.7l-3 1a1.13 1.13 0 00-.77 1.08 1.19 1.19 0 00.06.37 16.41 16.41 0 011 5.2 7.54 7.54 0 01-.48 2.78c-.75 1.93-2.64 3.4-5.29 4.53l-7-20.25 2.2-.76c4.36-1.5 8.11-2.09 11.14-1.76a10.88 10.88 0 019 6.64 1.13 1.13 0 001.4.59l3.28-1.13a1.14 1.14 0 00.67-.6 1.15 1.15 0 000-.91l-6.85-17.05a1.15 1.15 0 00-1.35-.75zm-.27 2.5c.67 1.66 5.27 13.1 6 14.93l-1.41.49c-2.27-4-5.6-6.56-10.18-7.09-3.37-.37-7.45.26-12.14 1.87l-3.27 1.13a1.15 1.15 0 00-.7 1.46l7.78 22.57a1.14 1.14 0 001.46.7c4-1.38 6.59-3.53 7.7-6.39a9.77 9.77 0 00.64-3.59 18.81 18.81 0 00-.92-4.83l1-.33c.66 1.92 8.42 24.43 9.09 26.35l-.93.32c-1.35-3.47-2.95-6-5-7.37-2.66-1.79-6.13-1.95-10.32-.51a1.15 1.15 0 00-.71 1.46l6.54 19c1.34 3.86 2.68 6.1 4.25 7 1.12.68 2.64.68 4.66 0l.8-.28.28.81-30.81 10.6-.28-.81.22-.08a4.69 4.69 0 003.31-3.67 6 6 0 00.1-1.16 19.23 19.23 0 00-1.29-6l-14.58-42.25a18.41 18.41 0 00-2.83-5.73 4.66 4.66 0 00-5.34-1.54l-.39.13-.28-.81zm40.65 48.86a9.62 9.62 0 01-.91 7.4 9.47 9.47 0 01-13.23 3.64 9.63 9.63 0 01-4.57-5.9 9.72 9.72 0 016.77-12 9.32 9.32 0 017.37.93 9.44 9.44 0 014.57 5.93z"/><path d="M154.7 169.43a10.48 10.48 0 00-6.56 5.11 10.62 10.62 0 00-1 8.27 10.79 10.79 0 005.09 6.58 10.61 10.61 0 0014.81-4.08 10.73 10.73 0 001-8.25 10.85 10.85 0 00-13.34-7.63zm-1.32 18a8.4 8.4 0 01-4-5.22 8.2 8.2 0 01.8-6.53 8.55 8.55 0 0115.69 2 8.75 8.75 0 01.33 2.34 8.64 8.64 0 01-1.13 4.21 8.1 8.1 0 01-5.14 4.11 8 8 0 01-6.55-.92zm81.8-28.02a38.7 38.7 0 01-12.09 13.21 36.66 36.66 0 01-12.61 5.28q-16.54 3.63-28.61-4.88-11-7.72-14-21.68-3.51-16 4.52-28.09t24.57-15.7a39.08 39.08 0 018.49-1q1.68 0 6.87.58a8.47 8.47 0 002.53 0c1.43-.32 2-1.42 1.81-3.3l3.48-.77 4.94 22.52-3.4.75a25.87 25.87 0 00-6.72-10.13q-5.49-5-11.83-3.58a14.78 14.78 0 00-10.22 7.21q-4.83 8.35-1.14 25.14 3.36 15.38 11.62 21a16.22 16.22 0 0013.09 2.47 18.4 18.4 0 007.12-3.42 34.72 34.72 0 007.31-8.09z"/><path d="M219.86 102l-3.48.76a1.15 1.15 0 00-.89 1.25c.22 1.8-.49 2-.91 2h-2.17l-7-.59-8.74 1c-11.27 2.47-19.77 7.92-25.27 16.18s-7.09 18-4.69 29c2.1 9.55 7 17.08 14.49 22.37 8.28 5.84 18.21 7.55 29.51 5.07a38.06 38.06 0 0013-5.45A39.88 39.88 0 00236.17 160a1.15 1.15 0 00-.41-1.56l-4.3-2.52a1.16 1.16 0 00-1.53.35 33.93 33.93 0 01-7.06 7.83 17.36 17.36 0 01-6.67 3.2 15 15 0 01-12.2-2.29c-5.23-3.54-9-10.35-11.14-20.25-2.38-10.85-2-19 1-24.33a13.57 13.57 0 019.47-6.66c3.89-.85 7.43.22 10.83 3.31a25.16 25.16 0 016.42 9.69 1.14 1.14 0 001.31.71l3.39-.75a1.14 1.14 0 00.88-1.36l-4.94-22.52a1.15 1.15 0 00-1.36-.85zm-.62 2.48l4.45 20.28-1.4.24a26.92 26.92 0 00-6.56-9.68c-3.93-3.55-8.26-4.85-12.85-3.84a16 16 0 00-11 7.75c-3.34 5.8-3.76 14.53-1.26 26 2.3 10.49 6.37 17.77 12.1 21.65a17.35 17.35 0 0014 2.63 19.32 19.32 0 007.57-3.62 35.46 35.46 0 006.91-7.51l2.35 1.38a37.47 37.47 0 01-11.06 11.9 36 36 0 01-12.23 5.13c-10.64 2.33-20 .75-27.7-4.71-7-5-11.6-12-13.57-21-2.26-10.31-.8-19.46 4.35-27.21s13.19-12.88 23.86-15.22l8.24-1 6.75.57h2.91a3.47 3.47 0 002.67-3.49zm41.85 54.31a9.61 9.61 0 01-1.72 7.26 9.47 9.47 0 01-13.55 2.15 9.63 9.63 0 01-3.89-6.37 9.7 9.7 0 1119.16-3z"/><path d="M249.8 149.55a10.88 10.88 0 00-9 12.46 10.74 10.74 0 004.33 7.1 10.61 10.61 0 0015.16-2.41 10.82 10.82 0 002.06-6.3 11 11 0 00-.15-1.79 10.86 10.86 0 00-12.42-9.06zm-3.29 17.74a8.45 8.45 0 01-3.45-5.63 8.26 8.26 0 011.52-6.41 8.54 8.54 0 0111.95-1.9 8.23 8.23 0 013.43 5.62 8.45 8.45 0 01-1.52 6.42 8 8 0 01-5.56 3.51 8.09 8.09 0 01-6.37-1.61zm78.27-56.91l-3.55.38a15.16 15.16 0 00-16.94-11.2l-1.27.13 5.32 49.8q.51 4.71 1.56 6.44t4.06 1.4l2.28-.25.33 3.13-35.93 3.84-.34-3.13 2.55-.27a3.91 3.91 0 003.2-1.85c.62-1.08.75-3.4.36-7L281.1 102l-1.27.14a15.39 15.39 0 00-10.24 5 15.58 15.58 0 00-3.95 9.52l-3.55.38-1.2-19.04 61-6.52z"/><path d="M321.81 90.35l-61 6.53a1.16 1.16 0 00-1 1.21l1.21 19.06a1.17 1.17 0 001.27 1.07l3.54-.38a1.14 1.14 0 001-1.05 14.56 14.56 0 013.66-8.85 14.15 14.15 0 019.51-4.63h.13c.16 2.16 5.16 48.69 5.16 48.69a33.74 33.74 0 01.21 3.43 6 6 0 01-.43 2.84 2.71 2.71 0 01-2.33 1.3l-2.55.27a1.13 1.13 0 00-.77.42 1.16 1.16 0 00-.25.71l.34 3.26a1.14 1.14 0 001.26 1l35.93-3.84a1.15 1.15 0 001-1.26l-.31-3.13a1.21 1.21 0 00-.42-.77 1.12 1.12 0 00-.84-.24l-2.28.24c-2.28.24-2.79-.59-3-.86-.42-.68-1-2.27-1.4-6 0 0-5-46.48-5.2-48.65h.13a14 14 0 0115.72 10.39 1.14 1.14 0 001.22.81l3.54-.38a1.16 1.16 0 00.79-.43 1.13 1.13 0 00.22-.87l-2.85-18.89a1.14 1.14 0 00-1.21-1zm-.85 2.39c.27 1.8 2.22 14.68 2.51 16.63l-1.56.17a16.41 16.41 0 00-5.79-8.19 16.69 16.69 0 00-11.94-2.93l-1.28.13a1.14 1.14 0 00-1 1.26l5.32 49.8c.36 3.35.93 5.62 1.73 6.92 1 1.55 2.69 2.2 5.16 1.93l1.13-.12c0 .4.05.46.09.85l-33.66 3.6c0-.39-.05-.46-.09-.85l1.41-.15a5 5 0 004.07-2.42 8.26 8.26 0 00.74-4 34.91 34.91 0 00-.23-3.65l-5.28-49.81a1.14 1.14 0 00-.42-.76 1.08 1.08 0 00-.84-.25l-1.27.13a16.16 16.16 0 00-15 14.62l-1.57.17c-.12-2-.95-15-1.06-16.79zm113.66-1.29a7.51 7.51 0 00-3.93 3.32 31.67 31.67 0 00-3.14 6.49l-20.74 57.2-10.52.17-12-33h-.37L371.13 159l-10.52.18L337.59 101a21.64 21.64 0 00-2.93-5.61 5.86 5.86 0 00-3.23-2.14l-.06-3.14 31.31-.52.05 3.14a3.46 3.46 0 00-2.37 1 3.34 3.34 0 00-1 2.65 8.17 8.17 0 00.41 2.23c.25.88.58 1.8 1 2.77l13.08 32.87h.37l6.87-17.54-6-16.51a25.61 25.61 0 00-1.53-3.63 8 8 0 00-4.4-3.94l-.05-3.15 30.88-.5.05 3.14a3.6 3.6 0 00-2.46 1 3.43 3.43 0 00-1 2.66 10.17 10.17 0 00.41 2.23 26.49 26.49 0 00.87 2.76l10.26 31.65h.37l9.07-26.27a30 30 0 001.12-4.08 20.83 20.83 0 00.45-4.44 5.06 5.06 0 00-2.06-4.31 7.45 7.45 0 00-4.49-1.37l-.05-3.14 22-.36z"/><path d="M434.55 87.22l-22 .37a1.13 1.13 0 00-1.12 1.16l.05 3.14a1.15 1.15 0 001.16 1.13 6.19 6.19 0 013.82 1.16 3.92 3.92 0 011.56 3.38l-.42 4.2-1.07 3.92-8.16 23.6c-1.46-4.52-9.38-28.95-9.38-28.95l-.86-2.7-.36-1.95v-.09a2.21 2.21 0 01.6-1.72l1.69-.65c.45-.17 1.12-.67 1.12-1.15v-3.15a1.14 1.14 0 00-.35-.81 1.17 1.17 0 00-.81-.32l-30.88.51a1.14 1.14 0 00-1.12 1.14l.05 3.17a1.15 1.15 0 00.75 1 6.8 6.8 0 013.78 3.41l1.47 3.47 5.84 16.11c-.26.67-4.53 11.57-5.84 14.9-1.52-3.84-12.19-30.68-12.19-30.68l-.94-2.66-.36-1.93v-.07a2.24 2.24 0 01.61-1.73l1.61-.64c.44-.18 1.13-.68 1.13-1.16l-.06-3.15a1.1 1.1 0 00-.34-.8 1.13 1.13 0 00-.82-.32l-31.3.51a1.16 1.16 0 00-.81.35 1.17 1.17 0 00-.32.82l.05 3.14a1.15 1.15 0 00.89 1.1 4.74 4.74 0 012.61 1.74 21.14 21.14 0 012.75 5.31l23 58.26a1.15 1.15 0 001.09.72l10.52-.17a1.15 1.15 0 001.05-.74s10.33-27 11.9-31.08c1.5 4.12 11.11 30.65 11.11 30.65a1.15 1.15 0 001.1.75l10.52-.17a1.15 1.15 0 001.05-.75l20.75-57.2 3-6.25a6.44 6.44 0 013.31-2.86 1.14 1.14 0 00.8-1.11l-.05-3.08a1.15 1.15 0 00-1.18-1.08zm-1.1 2.31v1.28a9 9 0 00-3.73 3.33l-3.26 6.73s-20 55-20.48 56.46l-8.91.14c-.54-1.46-11.71-32.28-11.71-32.28a1.39 1.39 0 00-1.24-.75 1.42 1.42 0 00-1.27.74l-12.53 32.73-9 .15-22.72-57.52a22.8 22.8 0 00-3.11-5.91 6.9 6.9 0 00-3-2v-1.48l29-.48v1.3l-2 .8a4.42 4.42 0 00-1.34 3.4v.11l.46 2.54 1 2.86 13.08 32.87a1.4 1.4 0 001.25.74 1.42 1.42 0 001.25-.7l6.86-17.54a1.13 1.13 0 000-.81l-6-16.51-1.61-3.8a9.08 9.08 0 00-4.26-4v-1.39l28.59-.47v1.28l-2.08.82a4.46 4.46 0 00-1.32 3.39v.12l.44 2.5.91 2.88 10.24 31.59a1.42 1.42 0 002.54 0l9.07-26.27 1.16-4.22.47-4.69a6.13 6.13 0 00-2.54-5.22 8.53 8.53 0 00-4-1.27v-1.19zm65.44 53.75L493.23 161l-52.39-3.71.22-3.14 1.82.13q2.38.18 3.48-2.4a18.7 18.7 0 001-5.69l3.16-44.58c.23-3.33.06-5.59-.53-6.76a3.22 3.22 0 00-2.81-1.89l-1.82-.13.22-3.13 51.48 3.64-.39 18.38-3.38-.25a12.69 12.69 0 00-6.25-10.5 21.67 21.67 0 00-9.83-2.87l-4.4-.31-1.68 23.81c3.43.24 6-.57 7.56-2.46s2.55-4.68 2.81-8.41l3.57.25-2.07 29.23-3.57-.25q.39-5.5-1.52-8.49c-1.44-2.25-3.85-3.5-7.21-3.73l-1.39 19.54q-.27 3.9 1.18 5.38a5.52 5.52 0 003.59 1.26 22.44 22.44 0 0012.42-2.6 18.58 18.58 0 008.78-9.62z"/><path d="M444.48 89.65l-.22 3.14a1.14 1.14 0 00.28.83 1.17 1.17 0 00.78.4l1.82.12a2.11 2.11 0 011.87 1.27c.33.67.68 2.29.41 6.16l-3.13 44.58a17.72 17.72 0 01-1 5.31c-.69 1.63-1.62 1.77-2.35 1.72l-1.82-.13a1.15 1.15 0 00-.83.28 1.13 1.13 0 00-.39.78l-.22 3.14a1.14 1.14 0 001.06 1.22l52.39 3.71a1.15 1.15 0 001.17-.79l5.66-17.77a1.15 1.15 0 00-.64-1.39l-3.57-1.54a1.19 1.19 0 00-.89 0 1.16 1.16 0 00-.62.63 17.56 17.56 0 01-8.26 9 21.42 21.42 0 01-11.8 2.46 4.29 4.29 0 01-2.84-.9 5 5 0 01-.91-3.42v-1.09s1.13-15.88 1.29-18.2c2.33.39 4.14 1.26 5.21 2.93a11.32 11.32 0 011.4 6.09c0 .54 0 1.11-.06 1.7v.11a1.14 1.14 0 001.06 1.14l3.57.25a1.13 1.13 0 001.22-1.06l2.17-29.23a1.14 1.14 0 00-1.06-1.22l-3.57-.25a1.13 1.13 0 00-1.22 1.06c-.24 3.46-1.1 6.07-2.54 7.75-1.2 1.4-3 2.08-5.47 2.09.15-2 1.39-19.52 1.52-21.48l3.26.23a20.67 20.67 0 019.28 2.72 11.5 11.5 0 015.7 9.61 1.15 1.15 0 001.06 1.06l3.38.24a1.18 1.18 0 00.86-.3 1.16 1.16 0 00.37-.82l.43-18.39a1.14 1.14 0 00-1.06-1.16l-51.48-3.65a1.16 1.16 0 00-1.27 1.06zm2.2 1.31l49.25 3.48c0 1.79-.29 14.12-.33 16.09l-1.43-.1a13.65 13.65 0 00-6.5-10.4A22.93 22.93 0 00477.29 97l-4.4-.31a1.16 1.16 0 00-1.22 1.07l-1.68 23.81a1.14 1.14 0 001.06 1.22c3.79.27 6.66-.69 8.51-2.85 1.57-1.85 2.47-4.59 2.87-8l1.41.1c-.14 2-1.76 24.93-1.9 27l-1.33-.09v-.7a13.51 13.51 0 00-1.77-7.35c-1.64-2.56-4.36-4-8.09-4.26a1.16 1.16 0 00-1.23 1.06l-1.38 19.55c-.21 3 .28 5 1.51 6.26a6.39 6.39 0 004.32 1.6 23.67 23.67 0 0013-2.73 19.74 19.74 0 008.67-9.2l1.73.75-5.07 15.92-50.35-3.57c0-.39 0-.46.06-.85l.68.05c1.46.1 3.44-.36 4.61-3.1a19.46 19.46 0 001.13-6.06l3.16-44.58c.07-1 .1-1.84.1-2.64a11 11 0 00-.75-4.71 4.37 4.37 0 00-3.74-2.52h-.69c.14-.45.14-.52.17-.87zm139.66 17.9l-.72-.11a3.91 3.91 0 00-4.27 1.8q-1.39 2.24-2.31 8.28l-8 53.06-16.67-2.52-28.38-53.89h-.36l-5 33.26c-.65 4.34-.8 7.34-.42 9q.78 3.45 4.91 4.07l1 .16-.47 3.11-18.81-2.85.47-3.11 1.07.16a2.92 2.92 0 002.65-1.07c1.09-1.19 1.85-3.14 2.26-5.84l7.13-47.17a20.25 20.25 0 00-3.65-5.67 6.88 6.88 0 00-3.62-1.7l.47-3.11 27.67 4.14 25.58 48.53.37.05 4.49-29.74c.67-4.38.65-7.35 0-8.9a4.78 4.78 0 00-4-2.76l-1-.15.47-3.11 19.65 3z"/><path d="M512.45 94.5l-.47 3.11a1 1 0 000 .17 1.15 1.15 0 001 1.13 5.66 5.66 0 013 1.42 18.75 18.75 0 013.24 5c-.12.75-7.08 46.78-7.08 46.78a10 10 0 01-2 5.23 1.76 1.76 0 01-1.63.72l-1.08-.16a1.13 1.13 0 00-1.3 1l-.47 3.11a1.14 1.14 0 001 1.3l18.82 2.85a1.15 1.15 0 001.3-1l.47-3.11a1 1 0 00-.21-.85 1.1 1.1 0 00-.75-.45l-1-.16c-2.28-.34-3.54-1.36-4-3.19a10.18 10.18 0 01-.17-2.06 45.18 45.18 0 01.61-6.51s3.85-25.42 4.59-30.32c2.42 4.61 27 51.35 27 51.35a1.1 1.1 0 00.84.6l16.68 2.54a1.16 1.16 0 001.31-1l8-53.07c.59-3.86 1.31-6.5 2.15-7.84a2.77 2.77 0 013.13-1.28l.72.11a1.15 1.15 0 001.3-1l.47-3.11a1.16 1.16 0 00-.21-.85 1.1 1.1 0 00-.75-.45l-19.65-3a1.13 1.13 0 00-1.3.95l-.47 3.11a1.1 1.1 0 000 .18 1.09 1.09 0 00.23.67 1.15 1.15 0 00.75.46l1 .15a3.61 3.61 0 013.08 2.1 7.62 7.62 0 01.44 3 35.37 35.37 0 01-.48 5.24s-3.33 22-4 26.79l-24.25-46a1.13 1.13 0 00-.84-.59l-27.66-4.19a1.14 1.14 0 00-1.36 1.12zm2.09 1.47l26 3.93 25.31 48a1.42 1.42 0 001.39.62 1.34 1.34 0 001.12-.93l4.5-29.73a38.19 38.19 0 00.49-5.56 10 10 0 00-.63-4 5.85 5.85 0 00-4.71-3.38c.06-.4.08-.47.14-.87l17.38 2.63-.13.88a5 5 0 00-5 2.35c-1 1.64-1.83 4.49-2.47 8.72 0 0-7.53 49.77-7.85 51.93l-15-2.26L527 115a1.4 1.4 0 00-1.38-.62 1.32 1.32 0 00-1.12.92l-5 33.27a49 49 0 00-.64 6.84 12.18 12.18 0 00.23 2.58c.44 1.9 1.8 4.27 5.73 4.92l-.13.86-16.55-2.5.13-.85a4 4 0 003.59-1.44c1.28-1.37 2.11-3.48 2.56-6.44l7.13-47.17a1 1 0 000-.17 1.16 1.16 0 00-.12-.51 20.9 20.9 0 00-3.92-6 7.85 7.85 0 00-3.13-1.47c.05-.51.08-.7.16-1.22zm140.67 45.81l-3.46-.85a15.18 15.18 0 00-12.13-16.28l-1.25-.31L626.49 173q-1.14 4.6-.72 6.59c.27 1.32 1.39 2.21 3.35 2.69l2.22.55-.75 3.05-35.11-8.58.75-3 2.49.6a3.86 3.86 0 003.64-.66q1.42-1.2 2.7-6.42l11.89-48.65-1.24-.31a15.34 15.34 0 00-18.27 8.86l-3.47-.85 5.32-18.4L658.94 123z"/><path d="M598.2 108.15l-5.33 18.34a1.11 1.11 0 00.11.89 1.15 1.15 0 00.72.54l3.47.85a1.14 1.14 0 001.31-.64 14.41 14.41 0 016.45-7.08 14.13 14.13 0 0110.51-1.14h.13l-11.62 47.53c-1 4.23-1.9 5.47-2.33 5.83a2.67 2.67 0 01-2.63.42l-2.49-.6a1.14 1.14 0 00-1.38.84l-.75 3.05a1.15 1.15 0 00.84 1.38l35.08 8.64a1.15 1.15 0 001.38-.84l.75-3a1.24 1.24 0 000-.27 1.11 1.11 0 00-.87-1.11l-2.22-.55c-2.24-.55-2.44-1.5-2.5-1.82a4.87 4.87 0 01-.09-1 22.1 22.1 0 01.8-5.08s11.1-45.42 11.61-47.54h.14a14.33 14.33 0 018.89 5.87 14.11 14.11 0 012.4 8.11v1.19a1.14 1.14 0 00.87 1.11l3.47.85a1.15 1.15 0 001.37-.92l3.73-18.74a1.13 1.13 0 00-.84-1.33l-59.64-14.57a1.15 1.15 0 00-1.34.79zm1.9 1.69l57.51 14c-.36 1.78-2.9 14.56-3.29 16.49l-1.4-.34v-.31a16.29 16.29 0 00-2.8-9.39 16.66 16.66 0 00-10.24-6.8l-1.25-.31a1.15 1.15 0 00-1.38.84l-11.88 48.65a24.47 24.47 0 00-.86 5.62 7.11 7.11 0 00.13 1.47c.37 1.78 1.78 3 4.19 3.57l1.12.28c-.1.38-.11.44-.21.83l-32.88-8c.09-.38.1-.45.2-.83l1.38.33a5 5 0 004.65-.89c1.17-1 2.14-3.22 3.07-7l11.89-48.65a1.14 1.14 0 00-.84-1.38l-1.24-.31a16.18 16.18 0 00-19.05 8.67l-1.53-.38c.56-1.91 4.2-14.42 4.71-16.16zm109.94 82.8l-10.06 15.7-49.64-17.16 1-3 1.73.6q2.25.78 4-1.43a18.69 18.69 0 002.48-5.22l14.6-42.24q1.64-4.74 1.24-6.66a3.23 3.23 0 00-2.22-2.56l-1.73-.59 1-3L721.29 144l-5.13 17.65-3.21-1.11a12.67 12.67 0 00-3.31-11.77 21.65 21.65 0 00-8.75-5.32l-4.22-1.45-7.79 22.57c3.25 1.12 5.89 1 7.94-.42s3.67-3.86 4.89-7.4l3.38 1.17-9.57 27.7-3.38-1.17c1.2-3.47 1.45-6.34.73-8.59q-1.22-3.83-6-5.48l-6.4 18.51q-1.27 3.71-.25 5.51a5.38 5.38 0 003.14 2.14 22.49 22.49 0 0012.67.72 18.61 18.61 0 0011-7z"/><path d="M671.39 126.76l-1 3a1.14 1.14 0 00.71 1.46l1.73.59a2.1 2.1 0 011.47 1.71c.15.74.07 2.38-1.2 6.06l-14.6 42.24a17.89 17.89 0 01-2.29 4.88c-1.09 1.39-2 1.3-2.71 1.06l-1.73-.6a1.15 1.15 0 00-1.46.71l-1 3a1.17 1.17 0 00.71 1.46l49.64 17.15a1.15 1.15 0 001.34-.47l10.07-15.69a1.15 1.15 0 00-.26-1.51l-3.05-2.41a1.13 1.13 0 00-.85-.24 1.16 1.16 0 00-.77.45 17.52 17.52 0 01-10.31 6.59 21.45 21.45 0 01-12-.68 4.42 4.42 0 01-2.5-1.61 2.79 2.79 0 01-.32-1.44 9.91 9.91 0 01.64-3.14s5.2-15 6-17.25c2.16 1 3.67 2.3 4.27 4.18a8.06 8.06 0 01.34 2.43 17 17 0 01-1.06 5.45 1.19 1.19 0 00-.06.37 1.14 1.14 0 00.77 1.08l3.38 1.17a1.13 1.13 0 001.45-.71l9.57-27.7a1.13 1.13 0 00-.71-1.45l-3.38-1.17a1.16 1.16 0 00-1.45.71c-1.13 3.28-2.63 5.57-4.46 6.83-1.49 1-3.45 1.09-5.78.5.72-2.1 6.35-18.41 7-20.25l3.09 1.06a20.71 20.71 0 018.29 5 11.2 11.2 0 013.29 8 15 15 0 01-.27 2.76 1.64 1.64 0 000 .22 1.14 1.14 0 00.77 1.08l3.21 1.11a1.15 1.15 0 001.47-.76l5.13-17.65a1.14 1.14 0 00-.72-1.4l-48.78-16.86a1.15 1.15 0 00-1.62.68zm1.79 1.83l46.66 16.12-4.49 15.45-1.22-.42a18.29 18.29 0 00.21-2.17 13.52 13.52 0 00-3.92-9.6 23 23 0 00-9.21-5.61l-4.16-1.44a1.14 1.14 0 00-1.46.71l-7.79 22.56a1.14 1.14 0 00.71 1.46c3.59 1.24 6.6 1.06 8.95-.56 2-1.36 3.58-3.79 4.84-6.93l1.34.47c-.67 1.91-8.16 23.62-8.83 25.54l-1.37-.48a19.23 19.23 0 001-5.07 10.25 10.25 0 00-.45-3.11c-.92-2.9-3.18-5-6.72-6.21a1.13 1.13 0 00-1.45.71l-6.4 18.51c-1 2.82-1 4.93-.16 6.44a6.29 6.29 0 003.76 2.66 23.61 23.61 0 0013.3.75 19.72 19.72 0 0010.75-6.64l1.48 1.17-9 14.06-47.76-16.48.28-.81.65.22c1.38.47 3.41.55 5.25-1.8a19.47 19.47 0 002.66-5.55l14.6-42.25a20.45 20.45 0 001.38-6.18 6 6 0 00-.1-1.09 4.38 4.38 0 00-3-3.4l-.65-.22z"/></g></svg>