<svg id="fc-utrecht" xmlns="http://www.w3.org/2000/svg" viewBox="0 0 925.62 1000"><defs><style>.cls-3{fill:#fff}</style></defs><path d="M960 223.21L800 24.14H224L64 223.21c29.06 9.39 99.49 93.66 64.76 162.37C79.33 483.31 65 528.57 71.6 576c9.54 68.39 107.74 153.31 133.34 175.84 5.94 5.21 21 17.25 48.82 39.18C342.1 860.81 512 999.86 512 999.86c.94-.77 169.9-139.05 258.25-208.8 27.78-21.93 42.87-34 48.81-39.18 25.6-22.53 123.8-107.45 133.34-175.88 6.61-47.47-7.73-92.73-57.14-190.46C860.52 316.87 931 232.6 960 223.21z" transform="translate(-49.19 -12)" fill-rule="evenodd" fill="#004996"/><path d="M122.39 570.87c.57 5.9 5.4 19 14.23 33.18 8.71 14.31 20.87 30.06 33.94 44.64 26.32 29.66 55.44 55 68.22 66.26 1.57 1.4 6.68 5.63 14.41 11.81 7.8 6.25 18.47 14.71 32.32 25.63C350.64 803.82 458.4 891.51 512 935.25c52.91-43.18 160.87-131 226.52-182.88 13.82-10.9 24.5-19.36 32.29-25.61 7.73-6.18 12.85-10.41 14.42-11.81 12.78-11.21 41.89-36.6 68.32-66.38 13-14.46 25.13-30.21 33.83-44.52 8.83-14.2 13.66-27.28 14.23-33.18v-.35a103.92 103.92 0 001-13.68v-1.15c0-12.94-2.62-28.27-10.77-51.42-8.13-23.14-21.82-53.47-42.38-94a140.82 140.82 0 01-15-63.77.6.6 0 000-.13v-1c.58-43.36 18-80.49 38.13-108.83a211.36 211.36 0 0115.55-19.17L775.45 76.94H248.54L135.76 217.35a211.87 211.87 0 0115.61 19.24c20.27 28.48 37.77 66 38.08 109.76l-.58 13.23a139.78 139.78 0 01-14.41 50.71c-20.54 40.51-34.23 70.84-42.36 94-8.18 23.25-10.76 38.61-10.77 51.57v.37a102 102 0 001 14.32v-.14l.06.49z" transform="translate(-49.19 -12)" fill="#1d1d1b"/><path class="cls-3" d="M775.45 76.94H248.54L135.76 217.35a211.87 211.87 0 0115.61 19.24c20.27 28.48 37.77 66 38.08 109.76l-.58 13.23a140 140 0 01-14.41 50.71c-20.53 40.51-34.23 70.84-42.36 94s-10.76 38.61-10.77 51.57v.37a102 102 0 001 14.32v-.14l.06.49c.57 5.9 5.4 19 14.23 33.18s20.87 30.06 33.94 44.64c26.32 29.66 55.44 55 68.22 66.26.88.79 2.94 2.51 5.92 4.95l580.73-580.77z" transform="translate(-49.19 -12)"/><path d="M253.19 726.76c7.8 6.25 18.47 14.71 32.32 25.63C350.64 803.82 458.4 891.51 512 935.25c52.91-43.18 160.87-131 226.52-182.88 13.82-10.9 24.5-19.36 32.29-25.61s12.85-10.41 14.42-11.81c12.78-11.21 41.89-36.6 68.32-66.38 13-14.46 25.13-30.21 33.83-44.52s13.62-27.28 14.22-33.18v-.35a103.92 103.92 0 001-13.68v-1.15c0-12.94-2.62-28.27-10.77-51.42s-21.82-53.47-42.38-94a140.82 140.82 0 01-15-63.77.6.6 0 000-.13v-1c.58-43.36 18-80.49 38.13-108.83a211.36 211.36 0 0115.55-19.17l-62.8-78.19L244.7 719.9c2.3 1.87 5.13 4.17 8.49 6.86z" transform="translate(-49.19 -12)" fill="#e40521" fill-rule="evenodd"/><path class="cls-3" d="M896.52 343.55c-.25-27.08 12.81-55.51 28.47-76.41s20.82-29.47 49.84-43.64l-4.32-5.57L805.17 12H218.83L53.51 217.91l-4.32 5.57C78.21 237.65 99 267.12 99 267.12c15.66 20.9 28.72 49.33 28.47 76.41a78.55 78.55 0 01-8.32 35.86c-42.05 83.34-59.7 129.86-59.8 173.92A165 165 0 0061 576.2c5.6 38.46 33.81 77.37 63.22 110.8 29.49 33.21 60.83 60.38 73.63 71.65 6.44 5.64 21.41 17.57 49.26 39.54C335.52 868 512 1012 512 1012s176.48-144 264.89-213.86c27.85-22 42.82-33.9 49.26-39.54 12.8-11.27 44.14-38.44 73.63-71.65 29.41-33.38 57.62-72.29 63.22-110.75a165 165 0 001.62-22.89c-.1-44.06-17.75-90.58-59.81-173.9a78.55 78.55 0 01-8.29-35.86zm45.26 232.57c-3.91 29.93-29.57 67.67-58 99.48-28.4 32-59 58.53-71.76 69.79-5.44 4.78-20.66 16.94-48.38 38.8-78.17 61.72-217.78 175.73-250.23 202.27l-1.41 1.11-2.68-2.18c-36.89-30.16-172.74-141-248.92-201.2-27.72-21.86-42.94-34-48.38-38.8-12.8-11.26-43.36-37.81-71.76-69.79-28.47-31.81-54.13-69.55-58-99.48a141.84 141.84 0 01-1.41-19.92c-.1-37.61 15.57-81.41 57.5-164.21a100.19 100.19 0 0010.62-45.55c-.07-32.22-13.69-62.8-30.49-86.24a152.75 152.75 0 00-27-29.17 93.7 93.7 0 00-12-8.28L229.12 36.43h565.76l149.67 186.32a93.7 93.7 0 00-12 8.28 152.75 152.75 0 00-27 29.17c-16.8 23.44-30.42 54-30.49 86.24A100.19 100.19 0 00885.69 392c41.93 82.8 57.6 126.6 57.5 164.21a141.84 141.84 0 01-1.41 19.91z" transform="translate(-49.19 -12)"/><path transform="rotate(-45 504.478 487.859)" fill="#004996" d="M114.27 334.96h858.6v199.03h-858.6z"/><path class="cls-3" d="M201.34 679c3.61-3 7.33-5.91 10.65-9.21s6.2-7 9.23-10.64l40.48 40.55c7.84 7.85 19.27 19.8 27.87 26 8.17 5.79 13.66 9.17 23.41 9.39 8.51 0 15.4-3.11 21.24-8.93 12.33-12.32 14.11-23.79 6.36-40.86-3.88-8.65-20.14-24.91-27.12-31.91l-43.2-43.26a46.27 46.27 0 005.74-4.85 49 49 0 004.88-5.74l50.73 50.83c15.85 16.66 30.8 31.38 27.29 55.42-1.6 12.71-8.75 23.85-17.49 32.59-16.05 16-38.82 27.91-62.27 14.24a101 101 0 01-19.64-15.4zm236.3-40.39c-3.6 3-7.34 5.9-10.67 9.2s-6.2 7.07-9.21 10.67l-87.66-87.8a241 241 0 00-22.66 26.62 63.33 63.33 0 00-5.47-6.82 62.11 62.11 0 00-6.66-5.32L363.58 517a69 69 0 005.32 6.66 65.42 65.42 0 006.8 5.47c-8.82 6.83-17.64 13.63-25.72 21.71zM376.3 504.29l28.25-28.18c6.23-6.22 15.6-16.17 24.33-18.6 11.83-3.26 22.21-.79 31.89 8.91 14 14 14.46 31.17 5 46.36 21 6.41 42.3 11.34 63.52 16.67l14 3.69c-4.27 3.67-8.67 7.23-12.78 11.33s-7.54 8.36-11.22 12.62l-45.7-14.23c-5.84-1.86-16.1-4.73-24.44-7.24l-.93.93L494 582.36c-3.61 3-7.33 5.9-10.66 9.23s-6.2 7-9.22 10.63zm65.78 26.12c15.35-12.47 15.12-26.49.43-41.19a54.21 54.21 0 00-7.78-6.47c-14-9.74-22.75 1.33-30.83 9.4zm66.12-157.8a69.55 69.55 0 005.46 6.81 71.33 71.33 0 006.8 5.47 246.38 246.38 0 00-32.63 28.56l30.65 30.71 13.79-13.77a160.55 160.55 0 0015-17.56 68 68 0 005.45 6.79 65.14 65.14 0 006.8 5.48 160 160 0 00-17.6 15l-13.79 13.76 36.23 36.27c13.36-13.66 21.66-23.36 28.63-32.57a68.08 68.08 0 005.44 6.8 69.74 69.74 0 006.81 5.48l-50.53 50.41L457.69 423zm169.13-6.38l9.35 15.19c-3.56 12.38-11.25 23.48-20.12 32.35-28.37 28.32-68.67 30.9-97.88 1.64-37.21-37.25-30.31-78.05-1.42-106.91 8.76-8.73 21.79-16.89 34-20 3.65 6 7.72 11.7 11.62 17.74l-1.86 1.85c-12.6-2.81-26.51.24-35.12 8.84-22 22-8.22 53.53 12.75 74.52 24.37 24.4 52.61 30.42 73 10 8.21-8.2 13.19-22.29 13-34.4zm-63.88-98.71c3.59-3 7.35-5.9 10.65-9.22s6.2-7 9.23-10.62L672 286.36c7-6.46 14.23-12.79 21-19.54s13-13.92 19.53-20.95l-38.63-38.69c3.57-3 7.33-5.91 10.65-9.22s6.19-7 9.2-10.64l97.79 97.93c-3.6 3-7.32 5.91-10.65 9.22s-6.21 7-9.23 10.65l-47.75-47.85c-7 6.48-14.23 12.8-21 19.55s-13.08 13.93-19.56 21l47.75 47.83c-3.62 3-7.35 5.89-10.66 9.2s-6.2 7.05-9.21 10.65zm236.69-40.76c-3.6 3-7.33 5.89-10.65 9.2s-6.2 7-9.23 10.64l-87.66-87.79a239.72 239.72 0 00-22.68 26.62 62.93 62.93 0 00-5.46-6.79 64.39 64.39 0 00-6.62-5.34l68.26-68.16a63.54 63.54 0 005.31 6.66 65.2 65.2 0 006.79 5.46c-8.84 6.83-17.66 13.63-25.72 21.7z" transform="translate(-49.19 -12)"/><path d="M347.87 350.08c-7.76-.61-15.53-1.55-23.3-1.55s-15.53.94-23.3 1.55V137h118.36c-.63 4.36-1.55 9-1.55 13.37s.92 9 1.55 13.35a565.07 565.07 0 00-71.76-4.34v66.77h32.93c12.11 0 24.53-1.24 37.57-2.79-.62 4.34-1.55 9-1.55 13.35s.93 9 1.55 13.36c-13-1.24-25.46-2.8-37.88-2.8h-32.62z" transform="translate(-49.19 -12)" fill="#e40521"/><path class="cls-3" d="M746.22 695L740 719.56c-17.12 8.83-37.37 12.27-56.48 12.27-61 0-107.22-37.65-107.22-96.12 0-74.44 51.33-108.37 113.51-108.37 18.81 0 41.64 4.84 58.18 14-2.57 9.7-4.29 19.39-6.57 29.37h-4c-10.55-15.4-28.81-26.23-47.35-26.23-47.34 0-66.44 45.34-66.44 87.26 0 48.78 24 83 67.87 83 17.69 0 38.22-9.14 51.06-21.4z" transform="translate(-49.19 -12)"/></svg>