<svg viewBox="0 0 1000 1000" xmlns="http://www.w3.org/2000/svg"><path d="M0 500.62C-.33 224.46 223.23.33 499.4 0S999.66 223.25 1000 499.41 776.76 999.67 500.61 1000 .34 776.76 0 500.62" fill="#c4a86a"/><path d="M978.87 500.6c.31-264.49-213.8-479.15-478.29-479.47S21.45 234.94 21.13 499.43s213.81 479.12 478.28 479.44S978.54 765.06 978.87 500.6" fill="#010101"/><path d="M154.94 500.43C154.71 309.85 309 155.17 499.58 154.94S844.83 309 845.06 499.59 691 844.83 500.42 845.06 155.18 691 154.94 500.43" fill="#c4a86a"/><path d="M172.69 500.41c.22 180 145.74 325.91 325.51 326.87l.07-654.57c-180.17.94-325.79 147.37-325.58 327.7z" fill="#d8242c"/><path d="M827.31 499.61c-.22-180-145.75-325.93-325.51-326.89l-.07 654.57c180.16-.94 325.8-147.36 325.58-327.68z" fill="#fff"/><path d="M811.54 246.62c1.12-3.45.87-7.27-.78-11.52 4.8 2.49 9.4 3.15 13.91 1.88a27.24 27.24 0 0011.68-6.38 26.47 26.47 0 005.83-7.86 28.24 28.24 0 002.42-8.7 22.88 22.88 0 00-1.34-10.84c-1.29-3.56-4.11-7.66-8.4-12.43l-30.72-32.86-67 62.64 12.77 13.66 26.27-24.56 13.51 14.45c3.87 4.22 5.77 7.64 5.73 10.4 0 2.91-2.1 6.32-6.35 10.36l-6.07 5.92a47.86 47.86 0 00-5.23 6c-.73 1.12-1.66 2.49-2.71 4.25l14.39 15.41 1.67-1.57a7.56 7.56 0 011.43-6.11 46.86 46.86 0 015.88-6.17l4.5-4.21c4.68-4.48 7.55-8.38 8.61-11.76zm-9.41-31.47l-14.83-15.86 18-16.83 15.21 16.28c2.83 3.08 4.58 5.7 5.2 7.93 1.13 4-.36 7.88-4.41 11.68-3.82 3.49-7.59 4.46-11.44 2.86q-3.32-1.36-7.73-6.06zM746.66 125c-2.45-9.68-9.38-17.74-20.69-24.25s-21.85-8.44-31.38-5.72c-12.31 2.65-22.58 11.26-31 25.81-8.2 14.39-10.48 27.56-6.8 39.75 2.46 9.66 9.4 17.74 20.72 24.26s21.85 8.4 31.36 5.71c12.47-3 22.72-11.61 30.91-25.84 8.39-14.63 10.68-27.82 6.88-39.72zm-23.45 30.16q-7.73 13.4-17.74 17.33c-6.66 2.63-13.25 2.08-19.82-1.73s-10.46-9.24-11.56-16.33.91-15.14 6-24.08 11.11-14.7 17.77-17.32 13.39-2 19.94 1.8 10.39 9.26 11.43 16.32-.9 15.11-6.02 24.03zm185.57 147.15a45 45 0 00-4.67-13.51l-18-35.19-81.66 41.75 18 35.16c6.39 12.37 16 18.88 29.21 19.56q14.64.81 30.93-7.54a78.22 78.22 0 0012.71-8.47 41.08 41.08 0 0010.22-12.55 30.64 30.64 0 003.26-19.21zm-19.11 9.79c-3.06 4.92-8.77 9.44-17.11 13.68-6.1 3.06-11.68 4.87-16.88 5.37-9.63.86-16.41-2.71-20.52-10.76l-8-15.74 53.29-27.23 8 15.74c3.94 7.84 4.35 14.11 1.22 18.94zM598.1 51.84q-19.25-4.32-31.67 3.7c-11 6.17-18.31 17.38-22.06 33.74-3.64 16.15-2 29.44 5.1 40q7.81 12.78 26.92 17.15t31.66-3.7c11-6.52 18.3-17.77 22-33.76 3.72-16.44 2-29.73-5-40q-7.86-12.77-26.95-17.13zm13.27 52.82c-2.31 10.09-6.27 17.32-11.89 21.78s-12.07 5.86-19.46 4.17-12.74-5.81-15.84-12.26-3.56-14.73-1.25-24.81 6.34-17.29 12-21.77 12.19-5.79 19.58-4.12 12.64 5.85 15.7 12.29 3.44 14.72 1.16 24.72zM154.72 290.49l-14.19-7.21-18.22 35.88-18.82-9.55 20.82-40.98-14.35-7.3-29.46 57.96 81.66 41.46 8.6-16.96-34.26-17.43zM485.73 44.05l4.54 63.84-40.99-61.26-20.04 1.43 6.52 91.47 17.8-1.26-4.62-64.96 41.97 62.28 19.12-1.34-6.5-91.47-17.8 1.27zM272.6 101.71l-17.54 12.78 8.76 43.01-38.89-21.06-18.25 13.29 59.35 27.57 20.29 27.87 15.49-11.27-20.3-27.87zm-68.58 158.58l-17.82-15.45 29.2-33.64-12.04-10.43-29.18 33.63-14.72-12.74L191.25 185 179 174.36l-44.08 50.8 69.28 60.09 45.52-52.51-12.45-10.79zm153.2-113.84l-7.69-22.29 42.1-14.55-5.2-15.04-42.1 14.56-6.35-18.42 45.85-15.85-5.31-15.35-63.55 21.97 29.95 86.66 65.68-22.7-5.37-15.59zM154.44 656.18L132.31 667l9.56 19.5c1.89 3.88 3.73 6.54 5.59 8.07 3.25 2.63 7.12 2.83 11.8.59 5-2.43 7.54-5.67 7.63-9.87 0-2.33-.87-5.33-2.66-9.1zm30.24 30.91a23.06 23.06 0 01-1.87 10.77 28.62 28.62 0 01-4.86 7.61 26.89 26.89 0 01-7.89 5.8A27.25 27.25 0 01157 714c-4.69-.12-8.89-2.08-12.76-5.89.36 4.54-.52 8.3-2.6 11.26s-5.89 5.8-11.67 8.7l-5.54 2.69a44.72 44.72 0 00-7.45 4.2 7.6 7.6 0 00-3.15 5.42l-2.06 1-9.27-18.93c1.53-1.39 2.83-2.44 3.86-3.27a43.07 43.07 0 016.74-4.21l7.59-3.86c5.24-2.61 8.24-5.27 9.1-8.06.85-2.61 0-6.43-2.44-11.6l-8.69-17.78-32.27 15.81-8.22-16.81 82.35-40.33 19.78 40.41c2.69 5.81 4.18 10.55 4.38 14.34m10.81 120.75q10.72-.84 22-11.4c7.5-7 11.74-14 12.82-21.18s-1-13.32-6.14-19q-7.78-8.28-18.54-7.5t-22.09 11.35q-11.33 10.56-12.83 21.27c-1 7.09 1 13.43 6.26 19s11.32 8 18.48 7.43m-2 18.29q-14.83-.33-28.34-14.64t-12.69-29.25c.05-12.74 6.07-24.67 18.12-36 12.27-11.49 24.59-16.71 37.15-15.68q14.82.32 28.33 14.68t12.69 29.23c.14 12.46-5.88 24.41-18.15 35.95-12 11.22-24.32 16.45-37.11 15.71m144.28 1.28L328.9 841l-23.03-14.88-41.03 63.32-16.18-10.47 41.04-63.33-23.14-15 8.82-13.62zm89.99 30.88l-4.99 15.46-26.1-8.45-23.24 71.79-18.35-5.94 23.24-71.8-26.21-8.48 4.98-15.45zm89.53 21.75l-48.5-1.63-.65 19.48 44.51 1.5-.52 15.9-44.54-1.5-.77 23.57 50.72 1.71-.56 16.48-69.44-2.36 3.09-91.62 67.2 2.27zm52.07-7.09l5.56 24L596 892c4.19-1 7.24-2.18 9.12-3.65 3.31-2.54 4.34-6.3 3.24-11.37-1.25-5.38-3.86-8.61-7.92-9.65-2.23-.56-5.38-.35-9.46.55zm36.93-22.48a22.31 22.31 0 0110 4.25 27.69 27.69 0 016.37 6.41 27.23 27.23 0 013.57 22.31c-1.19 4.55-4 8.22-8.6 11.13 4.5.68 8 2.36 10.39 5.06s4.3 7 5.83 13.32l1.36 6a43.76 43.76 0 002.45 8.18 7.5 7.5 0 004.57 4.29l.5 2.24-20.53 4.78c-1-1.82-1.71-3.32-2.3-4.49a42.64 42.64 0 01-2.58-7.54l-2.06-8.27c-1.4-5.7-3.29-9.2-5.8-10.65-2.35-1.44-6.3-1.48-11.85-.24l-19.29 4.48 8.13 35-18.21 4.3-20.74-89.31 43.81-10.18c6.3-1.33 11.25-1.69 15-1m64.63-11.6l30 51.78 15.3-8.84c7.82-4.51 11-11.48 9.65-21.06-.74-5.15-2.85-10.63-6.22-16.6-4.67-8.05-9.5-13.54-14.58-16.34s-11.23-2.14-18.85 2.21zm23.37-29.64a30.5 30.5 0 0119.34 2.25 40.79 40.79 0 0113.07 9.53 78.7 78.7 0 019.11 12.27C741.9 843.88 745 854 745 863.79 745 877 739 887 727 894l-34.2 19.82-45.93-79.36L681 814.65a46 46 0 0113.27-5.38m97.79-6.71l15.86-17-34.19-16.21zm-40.95-39.72L765.86 747l89.26 38.68L841 800.87l-17.83-8.51-23 24.72 9.47 17.49L796 849.26zm78.02-107.77L842 630.71l81 43-8.36 15.77-57.09-30.39c-1.53-.84 48.18 46.17 48.18 46.17l-8.55 17s-68-14.28-66.33-13.52l57.63 30.53-8.33 15.79-81-43 13.05-24.64 70 16.08zm60.18-155.53A22.66 22.66 0 11912 522.16a22.65 22.65 0 01-22.7-22.62m-778.61 0A22.66 22.66 0 1088 522.16a22.65 22.65 0 0022.7-22.62m420.48-73.9c.06 2.07.16 5.78.33 12.11.72 27.78-21.09 36.17-29.74 37.42v26.36c37.32-1.68 48.23 56.91 52.83 74.47l25.49-.68-27.58-149.71zm-32.92-149.32l-191.92 2.53v23.29h23.11c2.24.08 25.58 1.72 25.62 35.86v335.06c0 25.48-21.49 27.13-29.77 27.14h-17.21v24.75h165.69v-25h-21c-.15 0-29.93-2.26-29.95-27.52 0-31.23-.21-170.84-.21-170.84h75.69v-26.21h-75.39L422.71 302l75.55-.08zm3.53-.04v25.43c5.53-.14 20.26-.48 36.21-.5 37.61 0 59.27 13.51 76.49 26.87 25.82 20 31.3 58.56 31.3 58.56h25.47l-14.15-112.1z" fill="#c4a86a"/></svg>