<svg viewBox="0 0 1000 687.9" xmlns="http://www.w3.org/2000/svg"><path d="M499.38 615.63C735 615.62 926 494.42 926 344.95S735 74.25 499.38 74.26 72.59 195.57 72.59 344.95s191.09 270.7 426.79 270.68z" fill="#fff" stroke="#fff" stroke-width="3.99"/><path d="M230.46 563.62h536.11v61.08H230.46zM64.43 439.01h870.54v61.08H64.43zm0-124.61h870.54v61.08H64.43zm0-124.6h870.54v61.08H64.43zm168.4-124.61h532.2v61.08h-532.2z" fill="#e30613"/><path d="M0 343.95c0-190 223.8-344 499.91-344s500.09 154 500.09 344-224 344-500.1 344S0 533.81 0 343.95zm499.9 265c232.74 0 421.1-118.74 421.1-265S732.64 78.85 499.91 78.85c-232.46 0-421 118.71-421 265.11S267.45 608.95 499.9 608.95z" fill="#af8919"/><path d="M451.37 57.36c12.09-.49 17.65-.63 21.63-.86s15.22-1.12 20 .75c-.4-10-2.31-14.41-18-13.66s-18.08.73-21.87.86c-9.05.38-9.5-11.54-.57-11.9 4-.14 6.23-.26 22.06-1 15.62-.5 17.2-4.86 16.75-14.91-4.72 2.35-15.84 2.11-20 2.35-3.72.13-9.26.26-21.62.88-25.32.98-23.97 38.49 1.62 37.49zm-74.95 9.81c12.21-2.35 17.47-3.34 21.41-4.08s14.66-3.36 19.89-2.38c-2-9.68-4.4-13.64-19.89-10.67s-17.56 3.48-21.62 4.22c-8.69 1.62-11.09-10.18-2.15-11.93 3.8-.6 6.21-1.1 21.37-4 15.51-3 16.53-7.69 14.54-17.51-4.18 2.87-15.48 4.62-19.26 5.35-4 .87-9.32 1.74-21.43 4.09-24.94 4.75-17.83 41.76 7.14 36.91zm148.33-10.8c12.23 1 17.57 1.5 21.62 1.74 4.14.5 15.23.87 19.78 3.22.74-9.93-.62-14.39-16.32-15.65s-17.8-1.6-21.72-1.73c-9-.86-8-12.78.91-12 4.06.38 6.16.5 21.86 1.86s17.63-3 18.63-12.92c-5 1.62-16.07.26-20-.12s-9.53-.74-21.61-1.74c-25.39-2.02-28.52 35.37-3.15 37.34zm73.07 7.58c12.09 2 17.45 3 21.47 3.71s15 2.12 19.4 4.84c1.79-9.8.79-14.4-14.65-17.12s-17.74-3.11-21.61-3.74c-8.95-1.6-6.73-13.29 2-11.78 3.9.75 6.15 1.11 21.59 3.83s18-1.36 19.65-11.16c-5 1.24-15.83-1.24-19.86-1.87s-9.26-1.61-21.38-3.84c-24.98-4.35-31.57 32.65-6.61 37.13zm-420.76 84.2c10.47-6.35 15-9.07 18.63-11.19 3.35-2.1 12.67-8.19 17.84-9.06-5.17-8.44-8.94-11.3-22.42-3.1s-15.28 9.31-18.86 11.29c-7.64 4.6-13.87-5.58-6.13-10.3 3.57-2 5.42-3.22 18.85-11.29 13.27-8.21 12.71-12.8 7.5-21.24-3.1 4.23-12.85 9.56-16.4 11.67s-8.11 4.71-18.48 11.17c-21.75 13.04-2.39 45.32 19.47 32.05zM123 194.21c9-8.31 12.84-12.17 15.81-14.9s10.89-10.8 15.59-12.54c-6.69-7.2-11-9.19-22.4 1.49s-13.29 12.3-16 14.89c-6.7 6.22-14.86-2.59-8.32-8.69 3-2.72 4.71-4.21 16-14.89 11.54-10.69 10-15 3.24-22.23-2.19 4.46-10.75 11.79-13.71 14.54s-7 6.56-15.85 14.89c-18.65 17.26 6.96 44.69 25.64 27.44zm-39.18 51.04c6.6-10.44 9.39-15 11.53-18.38s7.55-13.18 11.94-16.15c-8.57-5.34-13.11-6.2-21.41 7.22-8.31 13.26-9.57 15.13-11.67 18.61-4.74 7.56-14.92 1.25-10.15-6.34 2.2-3.34 3.35-5.33 11.71-18.61s5.52-17.14-2.94-22.35c-.81 5.07-7.2 14.14-9.41 17.73-1.92 3.37-4.93 7.97-11.42 18.27-13.5 21.61 18.4 41.47 31.82 20zm-24.16 59.36c3.76-11.66 5.66-16.91 6.79-20.66s4.15-14.62 7.55-18.6c-9.47-3-14.09-2.61-19.05 12.3-4.77 14.91-5.6 17-6.53 20.86-2.79 8.55-14.25 4.85-11.54-3.73 1.18-3.72 1.84-5.95 6.7-20.73 4.84-15.15 1.26-18-8.31-21 .67 5-3.35 15.52-4.54 19.24s-3 9.07-6.73 20.74c-7.67 24.24 28 35.78 35.66 11.58zm-4.13 63.44v-21.61c0-4.09-.39-15.27 1.77-20.11-10.12 0-14.39 1.86-14.39 17.38v22.1c0 8.93-12.17 8.93-12.17-.12 0-4 .25-6.22.25-22 0-15.52-4.4-17.38-14.35-17.38 2 4.84 1.44 16 1.44 19.88v21.59c0 25.6 37.45 25.6 37.45.27zm19.2 62.33c-4-11.55-5.69-16.77-6.85-20.62s-5.23-14.28-5-19.24c-9.38 3.1-12.94 6.21-8 21.1s5.75 16.89 6.88 20.75c3 8.58-8.46 12.29-11.28 3.84-1.2-3.84-2-6-7-20.85s-9.67-15.13-19.2-11.93c3.6 3.74 6.6 14.53 8 18.39s2.94 9 6.7 20.48c8.2 24.22 43.9 12.16 35.75-11.92z" fill="#fff"/><path d="M107.66 480.16c-7.32-9.67-10.55-14.13-12.84-17.37-2.7-3.1-9.77-11.8-11-16.75-7.88 5.95-10.18 9.91-.94 22.58 9.5 12.43 10.89 14.16 13.29 17.52 5.34 7.21-4.16 14.27-9.5 7.21-2.62-3.26-3.79-5-13.29-17.65s-13.83-11.31-22-5.34c4.59 2.61 10.94 11.93 13.29 14.89 2.41 3.36 5.76 7.71 13.13 17.52 15.2 20.24 45.2-2.22 29.86-22.61zm50.58 47.94c-9.1-8.06-13.26-11.68-16.3-14.29s-11.66-9.93-13.87-14.4c-6.57 7.45-8.31 11.94 3.38 22.24C143.36 532.08 145 533.56 148 536.3c6.69 6-1.27 14.78-8 8.93-3-2.74-4.55-4.22-16.44-14.65-11.69-10.43-15.91-8.44-22.45-.86 4.75 1.62 12.87 9.42 15.86 12.17 3 2.59 7.14 6.2 16.24 14.4 18.89 16.88 43.85-11.06 25.03-28.19zm58.82 34.64c-10.63-5.84-15.61-8.31-19-10.3-3.61-1.85-13.71-6.7-16.84-10.8-4.88 8.95-5.43 13.51 8.42 21s16 8.45 19.31 10.3c8.07 4.35 2.36 14.78-5.6 10.55-3.56-1.73-5.55-3-19.37-10.3-13.72-7.58-17.33-4.6-22 4.22 5.12.62 14.65 6.21 18.23 8.21s8.36 4.47 19 10.3c22.37 12.03 40.24-21.15 17.85-33.18zm61.8 26.56c-11.41-4.08-16.59-5.83-20.4-7.19s-14.46-4.84-18.17-8.16c-3.35 9.32-3.35 14 11.46 19.24s16.9 6.09 20.68 7.45c8.42 3.1 4.29 14.41-4 11.43-3.72-1.5-5.88-2.24-20.62-7.7-14.81-5.09-18-1.74-21.35 7.7 5.1-.25 15.66 4 19.2 5.35 3.72 1.36 8.93 3.23 20.36 7.2 24.23 8.78 36.71-26.62 12.84-35.32zm63.86 21.86l-21-4.84c-4-.87-15.11-3-19-6.1-2.43 9.83-1.89 14.55 13.66 17.89 15.21 3.61 17.43 4.11 21.26 5.1 8.68 2.11 6.12 13.65-2.58 11.67-3.79-.88-6.2-1.49-21.49-5.09s-18 .27-20.22 10c4.95-.86 15.94 2.13 19.84 3s9.16 2.23 21.08 5c24.73 5.83 33.25-30.78 8.45-36.63zm65.15 11.43c-12-1.48-17.36-2.22-21.34-2.75-3.95-.37-15.26-1.48-19.68-4-1.1 10 0 14.41 15.54 16.4s17.88 2.24 21.77 3c9 1 7.32 12.92-1.59 11.68-3.9-.51-6.09-.76-21.6-2.87-15.59-1.85-18 2.11-19.2 12.06 5-1.35 16.07.5 20 1.1s9.36 1.14 21.41 2.75c25.21 3.23 30.16-34.01 4.69-37.37zm70.4 5.95c-12.26 0-17.78.13-21.76.13s-15.21.49-20.05-1.61c0 10.06 1.8 14.41 17.69 14.14h21.79c8.93 0 9.14 12 0 12h-21.79c-15.89.13-17.46 4.48-17.46 14.41 4.73-2 15.84-1.5 19.82-1.6h21.76c25.42.05 25.42-37.47 0-37.47zm69.25-.74c-12.34 1-17.68 1.62-21.61 2s-15.29 1.87-20.06.25c1 9.93 2.93 14.14 18.64 12.66s17.83-1.61 21.88-2c8.84-.9 10 10.9 1.15 11.9-4 .39-6.15.5-21.85 2.14-15.62 1.35-17 5.81-16.1 15.74 4.61-2.48 15.7-3 19.68-3.35l21.63-2c25.37-2.44 21.98-39.68-3.36-37.34zm69.36-8.2c-12 2.12-17.43 3-21.41 3.85-3.82.62-14.91 3.09-19.9 2 1.89 9.9 4.2 13.76 19.69 11s17.64-3.24 21.62-4c8.87-1.62 10.86 10.31 2.16 11.91-3.89.63-6.14 1-21.58 3.85-15.7 2.73-16.49 7.34-14.65 17 4.33-2.59 15.44-4.21 19.36-5s9.1-1.61 21.3-3.72c25.06-4.47 18.37-41.35-6.59-36.89zm65.72-14.53c-11.66 2.86-17 4.1-20.93 5.09-3.76 1-14.7 4.1-19.68 3.36 2.39 9.81 5.19 13.54 20.52 9.69 15.16-3.74 17.43-4.35 21.14-5.34 8.78-2.11 11.71 9.44 3 11.66-4 1-6.13 1.37-21.48 5.21-15 3.86-15.85 8.58-13.38 18.14 4.13-3.12 15.22-5.23 19.05-6.21s9.1-2.24 20.93-5.2c24.82-6.23 15.7-42.73-9.17-36.4z" fill="#fff"/><path d="M743 582.59c-11.36 4.6-16.52 6.59-20.05 8-3.79 1.62-13.83 6.23-19 6.23 3.84 9.16 7 12.52 21.41 6.69 14.66-5.84 16.65-6.69 20.44-8.33 8.3-3.24 12.74 8 4.52 11.31-3.7 1.37-5.91 2.24-20.35 8.07-14.67 5.83-14.67 10.56-11 19.88 3.78-3.73 14.3-7.33 18-8.93 3.61-1.39 8.76-3.49 20.09-8 23.48-9.56 9.45-44.34-14.06-34.92zm58.21-30.17c-10.72 6.09-15.27 8.56-18.84 10.57-3.59 1.85-13.08 7.93-18.25 8.45 5 8.69 8.52 11.52 22.17 4 14-7.68 15.84-8.81 19.33-10.67 7.68-4.48 13.6 6 5.64 10.42-3.34 2-5.33 3-18.94 10.68s-13.09 12.31-8.37 21c3.19-4.12 13.29-9.21 16.69-11 3.56-2 8.32-4.7 19-10.67 22.24-12.54 3.98-45.19-18.43-32.78z" fill="#fff"/><path d="M853.91 516.28c-9.93 7.33-14.22 10.55-17.44 12.91s-11.91 9.58-16.88 10.69c6 8.07 9.94 10.43 22.66 1.11 12.45-9.3 14.21-10.67 17.63-13 7.13-5.47 14.27 4.09 7.13 9.55-3.41 2.36-5.14 3.72-17.65 13s-11.54 13.91-5.49 22c2.72-4.46 11.77-10.69 15.18-13.16 3.19-2.5 7.59-5.71 17.28-12.91 20.43-15.29-1.99-45.44-22.42-30.19zm76.32-98.96c-5.74 10.81-8.17 15.65-9.9 19.12-2 3.49-6.74 13.79-10.49 17 8.87 4.7 13.44 5.07 20.55-9 7.4-13.9 8.37-15.89 10.21-19.36 4.13-8.06 14.81-2.5 10.41 5.46-1.73 3.49-2.77 5.59-9.87 19.5s-4.15 17.26 4.53 22c.64-5.11 6.16-14.79 8-18.39s4.4-8.43 9.84-19.23c11.74-22.56-21.51-39.81-33.28-17.1zm14.09-61.7c-1.73 12.15-2.78 17.49-3.36 21.47s-1.89 15-4.52 19.37c9.87 1.62 14.43.62 16.75-14.9s2.79-17.77 3.47-21.75c1.37-8.79 13.29-6.94 11.81 1.88-.55 4-1 6.08-3.36 21.74-2.53 15.38 1.37 17.88 11.29 19.48-1.15-5 1.07-16 1.62-20 .8-4 1.57-9.32 3.35-21.49 3.98-25.05-33.13-31.01-37.05-5.8zm-10.89-72.4c3.56 11.66 5.1 16.88 6.49 20.73 1.22 3.73 5 14.4 4.4 19.38 9.57-3 13.28-5.84 8.47-20.87s-5.26-17-6.48-21c-2.63-8.44 8.73-12.06 11.47-3.47 1.19 3.84 1.81 5.95 6.53 21s9.36 15.27 18.89 12.3c-3.43-3.86-6.18-14.78-7.32-18.63-1.47-3.71-3-8.94-6.6-20.61-7.52-24.34-43.4-13.16-35.85 11.17zm-32.72-57.74c7.17 9.83 10.3 14.27 12.69 17.51s9.29 11.92 10.68 16.89c7.93-5.83 10.29-9.69 1.23-22.48-9.31-12.66-10.73-14.4-12.92-17.75-5.34-7.08 4.18-14.29 9.52-7.08 2.4 3.35 3.77 5.21 13 17.75 9.12 12.79 13.71 11.56 21.82 5.73-4.5-2.75-10.67-11.93-13.08-15.29s-5.49-7.57-12.66-17.38c-14.99-20.73-45.3 1.49-30.28 22.1zm-47.15-50.66c9.1 8.2 13.26 11.8 16.19 14.53s11.54 9.8 13.72 14.4c6.69-7.44 8.34-11.78-3.35-22.35s-13.3-11.92-16.26-14.64c-6.69-5.84 1.36-14.91 8-9 2.89 2.87 4.77 4.35 16.17 14.79 11.67 10.55 15.87 8.44 22.67 1-5-1.61-12.93-9.57-16-12.18-2.88-2.73-6.86-6.34-15.93-14.52-18.89-16.98-44.06 10.84-25.21 27.97zm-55.96-42.47c10.32 6.21 14.91 9.2 18.27 11.31s13.27 7.7 16.32 11.79c5.08-8.44 5.87-13.05-7.37-21.36s-15.29-9.43-18.63-11.55c-7.54-4.71-1.36-14.89 6.32-10 3.36 2 5.36 3.22 18.62 11.54s17 5.46 22.43-3c-5.17-.74-14.56-7.2-17.65-9.31-3.39-2.1-8.13-5-18.63-11.3-21.41-13.52-41.45 18.36-19.68 31.88zm-62.38-30.28c11.12 5.09 16.06 7.45 19.62 9.19 3.72 1.61 14.28 5.83 17.64 9.56 4.14-8.94 4.34-13.66-9.9-20.24s-16.24-7.58-19.83-9.2c-8.35-3.72-3.2-14.65 5-10.79 3.58 1.61 5.52 2.47 19.8 9.18s17.65 3.36 22-5.58c-5.25-.25-15.29-5.34-18.9-7.08s-8.75-4-19.6-9.07c-23.22-10.68-38.81 23.34-15.83 34.03zM670 79.59c11.64 3.47 17 5.09 20.81 6.08 3.72 1.24 14.65 4 18.63 7.21 3-9.57 2.54-14.27-12.51-18.63-15.29-4.6-17.21-5.22-21.19-6.46-8.53-2.37-5.19-13.9 3.5-11.3 3.82 1.12 6 1.74 21 6.21s17.84.87 20.7-8.7c-5 .5-15.72-3.21-19.5-4.21s-9-2.74-20.79-6.2c-24.34-7.33-35.02 28.67-10.65 36zm228.57 391.99c-8.16 9.07-11.76 13.3-14.35 16.26-2.82 3.11-9.62 11.94-14.22 14.16 7.52 6.48 11.88 8.08 22.17-3.73s11.91-13.52 14.47-16.49c6-6.71 14.93 1 9 7.94-2.67 2.85-4 4.6-14.55 16.4-10.29 11.77-8.11 16-.63 22.44 1.65-4.81 9.39-13 12.14-16 2.59-2.84 6.12-7.06 14.3-16.13 16.63-19.26-11.72-44.08-28.33-24.85zM306.66 84.68c11.67-3.59 17.06-5.09 20.78-6.21 3.87-1.23 14.49-4.84 19.68-4.21-3-9.57-6-13.3-20.78-8.69-15.08 4.46-17.27 5.08-21 6.2-8.7 2.49-12.05-8.82-3.62-11.44 3.78-1.22 6.12-1.72 21.05-6.31s15.46-9.19 12.71-18.64c-4 3.24-14.91 5.85-18.63 7.09-4 1.24-9.1 2.74-20.78 6.21-24.43 7.33-13.75 43.47 10.59 36zm-70.35 28.27c11-5.08 16-7.2 19.6-8.93s13.68-6.82 18.82-6.95c-4.17-9.07-7.7-12.29-22-5.73s-16.29 7.46-19.79 9.07c-8.15 3.73-13.3-7.08-5-10.8 3.53-1.61 5.52-2.59 19.78-9.06 14.3-6.7 14.11-11.29 9.9-20.48-3.35 3.84-13.79 8.07-17.38 9.67-3.57 1.86-8.53 4.11-19.63 9.07-23.19 10.84-7.49 44.86 15.7 34.14z" fill="#fff"/><path d="M290 81.09c18.65 119.45 14.9 332.28-126.44 429.36L990.31 327.3z" fill="#fff" stroke="#12100b" stroke-width="1.75"/><path d="M532.81 281.86l18.64-29.91-22.2-11.16-3.58 6.07c-44.39-32.16-97.63 34.4-65 59.13 5.74 4.33 8 6.32 17.09 11.52 22.72 13.29-3.8 38.88-19.68 24.86-6.17-5.47-10.07-7.83-14-15.79l-25 25.32c53.71 70.43 142.11-15.64 92.4-51.25-5-3.73-30.19-13.3-20.13-26.59 8.75-11.95 30.05 2.34 41.46 7.8zm22.25-40.23l8.48 136.09h36.87l80.47-136.59H629.9l-20.36 34.4h16.91l-31.2 47.68-4.5-81.58z" fill="#12100b"/><path d="M400 332.03c-9.51 2.49-21.24 2.61-35.46 2.61l-12.84 41.23h-35.57l30.2-102.82H327.7l16.43-30.8H404c29.67 0 46.8 16.65 41.05 43.72-3.36 15.98-11.49 37.75-45.05 46.06zm-18.63-59.61l-8.53 30.18h16.29c6.17 0 16.46-1.12 19.57-14.51 3.35-13.3-7.28-15.67-14.5-15.67z" fill="#12100b"/><path d="M303.67 66.95A17.6 17.6 0 00288 40.86a17.84 17.84 0 00-17.65 15z" fill="#fff" stroke="#12100b" stroke-width="1.75"/><path d="M291.06 62.34c3.35-8.08 4.52-14.52.13-20.11H295a17.57 17.57 0 018.69 24.7l-10.88-3.6z" fill="#12100b" stroke="#12100b" stroke-width="1.75"/><path d="M130.28 563.99L279.25 59.11l16.1 4.96-149.28 504.76z" fill="#fff" stroke="#12100b" stroke-width="1.75"/><path d="M288.81 62.34L138.96 567.09" fill="none" stroke="#12100b" stroke-width="5.26"/></svg>