<svg viewBox="0 0 758.1 1000" xmlns="http://www.w3.org/2000/svg"><path d="M1.05 41.52l-1.08.24v554.7c-.06 31.93-.1 59.51 11.35 88.94 19.75 50.79 54.17 96.35 111.62 147.73 109.12 97.6 254 165.92 255.49 166.6l.58.27.58-.27c1.45-.68 146.37-69 255.49-166.6 57.45-51.38 91.87-96.94 111.62-147.73 11.45-29.43 11.4-57 11.35-88.94V41.76l-1-.24C683.44 25.47 515.77 0 379.05 0S74.66 25.47 1.05 41.52z" fill="#005fab"/><path d="M379.05 2.74c135.86 0 302.3 25.19 376.3 41.26v558.73c0 29-.66 54.68-11.17 81.71-19.59 50.36-53.79 95.6-110.9 146.68C527.96 925.31 389.13 992.18 379.05 997c-10.08-4.79-148.91-71.66-254.24-165.88-57.11-51.08-91.32-96.32-110.9-146.68-10.51-27-11.17-52.67-11.17-81.72V44c74-16.07 240.45-41.26 376.31-41.26z" fill="#fff"/><path d="M130.81 52.51v745.1c-58.47-55.08-78.91-94.77-90.13-123.62-8.64-22.22-9.22-44.22-9.22-71.25V67.44c26.91-5.2 61.14-11 99.32-16.29zm99.3 823.17v-99h99.31v161.8c-28.18-15.82-63.22-36.81-99.3-61.7zm198.58 61.53V776.68h98.48l.81.09v100.01c-36 24.88-71.06 45.86-99.24 61.68zm198.6-140.47V51.13c38.16 5.34 72.38 11.08 99.28 16.28v535.31c0 27-.58 49-9.22 71.24-11.22 28.84-31.65 68.53-90.1 123.58z" fill="#005fab"/><path d="M627.29 797.57q-6.29 5.92-13.17 12.09c-27.34 24.45-57.06 47-86.12 67.09V776.74l-.81-.09h-98.5v160.56l.07 1.22c-21.34 12-38.75 21-49.71 26.5-10.94-5.5-28.32-14.5-49.62-26.45v-161.8h-99.32v100.1c-29.06-20.06-58.8-42.66-86.15-67.12q-6.87-6.15-13.14-12V51.2c75.98-10.68 167.59-19.7 248.23-19.7s172.3 9 248.29 19.66v746.41z" fill="#ffe600"/><g fill="#005fab"><path d="M323.65 226.34s1.64-16.7 7.7-26.88c5.82-9.75 14.55-18.48 24.65-21.05 11.11-2.82 19.69-4.11 25.68-9.07 5-4.11 5.47-9.93 3.25-10.79s-8.73.35-12.84 1.37a19.11 19.11 0 00-7.19 3.77s-.34-3.77.34-5.31.52-2.39-.17-4.79a10.34 10.34 0 01-.17-4.62c7.53.68 14.55-.17 16.78-2.91s.34-9.25-2.57-11.47-9.24-1.37-13.18-.17a51.54 51.54 0 00-8.9 4.11c-4.62-7.36-4.11-11.47-4.11-11.47-5.13-3.94-2.4-7 4.45-11.3a123 123 0 0113.87-7.36c4.79-10.44 15.06-9.76 25-9.41s13 .17 14.37-1.72 1.55-6.16 1.55-6.16c6.5 5.48 2.56 10.61-2.74 13.52s-9.42 9.42-8.9 12.67 2.39 3.6 2.39 3.6c.69-8.39 11.47-16.09 21.23-16.27a28 28 0 0116.26 4.8c-2.06 10.44-13 14.89-17.12 12.66-3.46-1.87-4.11-7.53-4.11-7.53s-1 .69-1 5 7.53 11.81 17.11 6.5a23.46 23.46 0 016.68 8.22c2.91 5.65 2.57 13.52.68 21.05s-1.37 14.21 2.06 17.29 9.75 1.37 9.75 1.37a10.27 10.27 0 01-4.79 8c-5.65 3.43-13.35-.51-13.35-.51a29.22 29.22 0 00-4.79 13.18c-.69 7.53 5.65 12.5 11.81 12.67 0 0-2.57 3.86-9.24 4.28-8.22.51-14.38-7.88-14.38-7.88s-1.71 3.6-2.4 11.81 6.5 15.41 6.5 15.41-1.54 4.28-10.44 8-10.1 3.77-10.1 3.77-8.38-7.53-11.81-13.52a41.61 41.61 0 00-.85 14.89s-14.51.82-23.62-3.6c-11-5.3-19.86-11.12-27.73-13.69-6.94-2.2-15.61-.46-15.61-.46zm63.16-110.92s-6.67-.34-9.93-.17a8.88 8.88 0 00-7.36 5.13s2.91 4.11 7 4.28 10.12-3.08 10.29-9.24z"/><path d="M365.93 143.15s-.53 1.27-5.14 1.71a56.19 56.19 0 00-16.6 5.13c-6.5 3.09-14.21 3.77-18.49.18s-3.76-9.08-3.42-13.18c0 0 4.11 5.82 9.76 7.53 5.44 1.65 8.38.85 14-.52s14.07-1.54 19.89-.85zm-46.88 55.63a45.44 45.44 0 015.48-11.64c4.28-6.85 12.83-11.13 12.83-11.13s-13-3.08-20.54-6.16-16.96-8.22-20.77-14.85c0 0 .51-5.48-2.39-8.22s-7.88-2.05-7.88-2.05a10.87 10.87 0 012.06-4.62c1.71-2.23 1.88-6.85-4.8-9.25a12.65 12.65 0 01.52 4.8c-.35 2-1.37 4.28-4.45 4.45 0 0 .85-6.51-2.06-9.08s-7.19-2.22-10.44.18a14.31 14.31 0 015 2.73c2.06 1.89 1.2 6.51 1.2 6.51a18.78 18.78 0 00-5.65-2.91c-3.59-1.2-8.21 2.4-9.07 5.65a22.49 22.49 0 014.45-.52c2.23 0 5 3.26 6.16 5.65 0 0-1.37 8.39 5.31 10.27a15.09 15.09 0 00-2.4 6c-.51 3.43 2.23 8.05 2.23 8.05s1.2-5.65 3.25-7.19 5.48-.34 7.53 1.71 2.74 4.62 1.2 8 1.54 8.73 3.25 10.78c0 0 .69-4.28 2.57-5.65s4.11-1 9.76 3.25 17.65 15.24 17.65 15.24zm171.32 234.5a13.82 13.82 0 01-11.47 6c-4.79.11-9.76-4.79-9.76-4.79-4.62 1.37-6 5-4.27 8.73s7 7.7 7 7.7a36.31 36.31 0 01-12-2.39c-6-2.4-5-7.19-5-7.19l-7.53 3.59c-3.26 1.54-8.56.86-12.33-1.2s-8.38-1.37-12 1.55a8.66 8.66 0 00-2.91 7.53c-4.28-2.91-6.33-10.45-3.25-14.72s8.9-5.31 8.9-5.31c-2.4-3.77-6.68-4.45-10.27-2.91a17 17 0 00-5.48 3.59 11.32 11.32 0 011.54-8.9c2.91-4.45 7.87-5.3 12-4.45a12.82 12.82 0 016.51 3.25s.51-5.3-3.08-8.55c-2.8-2.53-6.85-1.2-6.85-1.2 1.71-4.45 10.1-7 13.87-4.62s5.13 6.84 9.07 7.7 12.15 0 12.15 0 .69-8.05-4.28-19.68-12.32-16.78-22.08-21.06-20-6.16-25.16-10.78a23.79 23.79 0 01-6.64-10.45c-1.88 3.59-7.87 7-14.89 3.42s-5.82-8.9-5.82-8.9 1.71 4.28 8.56 2.74 14-10.44 15.23-25.51-6.67-27-16.26-37-21.22-15.92-34.4-20.2-27.05-.34-34.24 2.06a55.94 55.94 0 00-12.66 6.16c1.54 2.39 5.82 2.22 5.82 2.22-5.48 4.62-9.25 3.43-13 1.54s-5.48-.68-10.79 2.74-5.47 6.33-5.3 8.56 3.59 4.79 3.59 4.79a10.55 10.55 0 01-6.33-.51 8.85 8.85 0 01-4.45-4.79c-4.28 2.39-8.05.85-10.27.34s-6.17-.69-8.56.51-2.74 5.31-2.74 5.31c-2.57-2.91-2.74-7.36-.68-9.93a11 11 0 015-3.42 6.4 6.4 0 00-4.79-2.4 6.29 6.29 0 00-5.14 2.57c-2.91-4.45 2.57-9.42 6-9.42s6.68 3.09 6.68 3.09 1.54-3.94-.69-5.82-5.65-1.2-5.65-1.2 2.4-3.6 5.65-3.94 6.68 3.77 8.22 6.68 5 .34 14.21-5.82 22.22-15.59 35.4-24.79 21.91-7.19 30.3-3.08 21.39 13.52 38.85 14.54 28.07-5.13 28.07-5.13 9.25 6 17.46 21.74 12 39 12 39 10.09 4.27 19.34 3.76 16.43-2.57 19-12.49-4.45-22.94-13-31.67-17.8-20-19-31.33a30.84 30.84 0 0113.52-28.58c9.07-5.82 16.78-5.31 33.72-5.31s23.28 3.08 30.47-11.81c0 0 1.37 3.25 2.23 11.13s-4.3 16.81-14.55 17.63a39.29 39.29 0 01-16.09-2.4 27.32 27.32 0 013.93 6.16c2.4 4.63-.34 14.55-.34 14.55s-3.94-11.81-13.18-17.63-20.71-5.64-26.7.52-5.31 19 .85 27 21.91 23.28 28.08 35.78c5.65 11.46 4.49 29.15-8.73 39-14.21 10.62-36.63 5.82-36.63 5.82s1.54 13.35 7.36 20 15.4 10.78 22.08 8.73 6-11.81 6-11.81 2.3 1.19 3.25 7.36c1 6.68-2.74 14-12.32 15.41a48.1 48.1 0 013.42 4.1c3.08 3.94 5.48 13.18 4.28 24.48s-2.91 22.6-1.71 27.22 4.59 6.96 13.66 6.79z"/><path d="M277.95 413.77c-4.62-4.79-4.45-12-1.71-15.41s8.21-5.13 8.21-5.13-4.63-2.86-8.56-2.57a12 12 0 00-7.36 3.25c-1.2-11.29 8.22-13.69 12.5-12.66a19.1 19.1 0 017 3.25 7.65 7.65 0 00-2.06-7.53 8.7 8.7 0 00-7.36-2.4c1.37-3.42 6.68-6 10.61-4.79s7.88 6.85 9.76 9.76 6.33 1.71 13.18-2.4 11.13-7.88 11.3-9.59-3.77-3.76-8.56-12.49-3.77-16.26-3.77-16.26-8.21 2.74-11.46-1-3.09-9.59-3.09-9.59c3.6 4.28 6.68 4.28 15.41-2.56s15.92-14.38 26.87-22.43 24.82-8.73 34.41-4.28 13.86 8.73 13.86 8.73-3.15.35-3.42 6.85c-.34 8.39 8.05 9.59 8.05 9.59s-12 5.3-25.34 10.61-21.57 8.73-22.25 19.17 2.4 22.08 5.65 26.87a12.14 12.14 0 0011.81 5.65s-5.31 6.68-11.47 5.65-9.41-4.11-12.32-4.28-9.59 2.57-14.38 7-4.79 9.41-3.08 12.84a10.86 10.86 0 005.3 4.79s-14.2 2.23-16.26-7.7a3.42 3.42 0 00-3.42 1.37c-1.54 1.88-5.82 1.54-9.76-.52s-11.5-2-13.86-.34c-4.26 3.07-4.43 8.55-4.43 8.55zM264.24 582.8h-25.37v44.33h-26.31V494.9h50.34q45.76 0 45.77 43.56 0 25.86-19.07 38.11l18.45 50.56H279.3zm17.54-43.95q0-9.72-4.87-15.36t-14-5.64h-24v42h24.41q9.34 0 13.92-5.83t4.54-15.17zm125.01 88.28l-21.74-52.7-17.55 1.95v50.75h-26.31V494.9h26.31v58.14l17.55-1.94 21.35-56.2h29.94l-28.22 66.31 28.98 65.92zM545.35 603l.57 22a175.45 175.45 0 01-37.76 4.47q-14.86 0-24.6-4.08a32.07 32.07 0 01-15.25-13 58.58 58.58 0 01-7.63-21q-2.1-12-2.1-30.33 0-38.31 10.58-53.38t39-15.07q16.41 0 37.95 5.25l-.76 21.39a221 221 0 00-33.37-2.92q-10.5 0-15.83 3.41t-7.92 12.93q-2.56 9.52-2.57 28.39 0 27 5.24 35.87t21.84 8.85a216.92 216.92 0 0032.61-2.78zm-328.6 73.77h8.78l5.08 36.18h.91l7.38-36.18h9.68l7.38 36.18h.91l5.08-36.18h8.78l-7.87 43.77h-12.64l-6.48-33.28-6.47 33.28h-12.65zm61.3 43.77l9.26-43.77h15.86l9.25 43.77h-8.37l-1.63-7.92h-14.37l-1.64 7.92zm15.74-36.43l-4.18 20.79h11.26l-4.18-20.79zm27 36.43l9.26-43.77h15.86l9.25 43.77h-8.35l-1.63-7.92h-14.4l-1.63 7.92zm15.73-36.43l-4.18 20.79h11.26l-4.18-20.79zm53.82 36.43h-23.42v-43.77h8.35v35.92h15.07zm5.43-43.77h8.77l5.09 36.18h.9l7.38-36.18h9.69l7.38 36.18h.91l5.08-36.18h8.77l-7.86 43.77h-12.65l-6.48-33.28-6.47 33.28h-12.65zm65.89 0h8.35v43.77h-8.35zm33.14 0l.07 36.37q0 7-2.94 9.46t-10 2.44v-7.72a5.26 5.26 0 003.51-1c.72-.65 1.08-1.85 1.08-3.61v-36zm35.83 43.77l-6.9-17.44-5.56.64v16.8h-8.35v-43.77h8.35v19.25l5.56-.65 6.78-18.6h9.5l-8.96 21.95 9.2 21.82z"/></g></svg>