<svg id="sc-heerenveen" xmlns="http://www.w3.org/2000/svg" xmlns:xlink="http://www.w3.org/1999/xlink" viewBox="0 0 1134.5 1220.31"><defs><clipPath id="clip-path" transform="translate(68.62 73.78)"><path class="cls-1" d="M512.5 106.74c-102.62 0-209.44-25.08-296.79-73.76L66.93 182c36.68 36.65 81.16 134.59 81.16 209.91 0 162.62-41.46 302.48-41.46 358.75 0 119.1 143 144.37 206.08 159.29 44.23 10.43 140.73 19.05 199.79 78.14C571.58 929 668 920.38 712.24 909.92c63.08-14.92 206.11-40.19 206.11-159.29 0-56.27-41.46-196.13-41.46-358.75 0-75.32 44.47-173.26 81.18-209.91L809.27 33c-87.37 48.66-194.18 73.74-296.77 73.74"/></clipPath><clipPath id="clip-path-2" transform="translate(68.62 73.78)"><path class="cls-1" d="M801.05 18.22c-82.9 46.21-185.39 71.66-288.55 71.66S306.83 64.43 223.93 18.22L212.77 12l2.94 21c87.35 48.68 194.18 73.76 296.79 73.76S721.9 81.66 809.27 33l2.93-21z"/></clipPath><clipPath id="clip-path-3" transform="translate(68.62 73.78)"><path class="cls-1" d="M117.52 564.64c-4.72 32.79-10 62.92-14.67 89.21-7.31 41.62-13.09 74.45-13.09 96.78 0 37.65 12.59 66.88 32.05 89.81l22.13.08h1c-22.9-21.85-38.31-50.81-38.31-89.87 0-34.84 15.87-101.62 28-186z"/></clipPath><clipPath id="clip-path-4" transform="translate(68.62 73.78)"><path class="cls-1" d="M297 923.6l11.86 2.73 27.38 5.61c47.37 9.06 119 22.77 164.34 68.12L512.5 1012v-23.91c-59.07-59.09-155.56-67.71-199.8-78.17-42.33-10-120.89-24.79-167.84-69.48l-23.07-.08C167.16 893.8 249.9 912.81 297 923.6"/></clipPath><clipPath id="clip-path-5" transform="translate(68.62 73.78)"><path class="cls-1" d="M918.35 750.63c0 39-15.38 68-38.23 89.79l22.61.53c19.68-23 32.5-52.4 32.5-90.32 0-22.34-5.82-55.17-13.11-96.79-4.66-26.31-10-56.39-14.71-89.22l-17-.12c12.09 84.45 28 151.29 28 186.13"/></clipPath><clipPath id="clip-path-6" transform="translate(68.62 73.78)"><path class="cls-1" d="M712.23 909.92C668 920.38 563.12 929 512.5 988.09V1012l11.93-11.94c45.32-45.35 116.94-59.06 164.31-68.12l27.42-5.61L728 923.6c46.9-10.73 129.26-29.59 175-83l-22.61-.53c-47.16 45-125.74 59.77-168.15 69.8"/></clipPath><clipPath id="clip-path-7" transform="translate(68.62 73.78)"><path class="cls-1" d="M958.06 182c-36.71 36.65-81.18 134.59-81.18 209.91 0 62 6 120.7 13.49 172.68l17.06.1c-7.53-52-13.7-110.93-13.7-172.78 0-68.6 41-162.75 76.28-198l11-11V182z"/></clipPath><clipPath id="clip-path-8" transform="translate(68.62 73.78)"><path class="cls-1" d="M43.06 182L55 193.88c35.25 35.25 76.22 129.41 76.22 198 0 61.89-6.16 120.89-13.69 172.92l17.08-.14c7.47-52 13.48-110.75 13.48-172.78 0-75.32-44.47-173.26-81.16-209.91z"/></clipPath><clipPath id="clip-path-9" transform="translate(68.62 73.78)"><path class="cls-1" d="M809.27 32.98l148.79 148.99h22.9v-.96L812.2 12l-2.93 20.98z"/></clipPath><clipPath id="clip-path-10" transform="translate(68.62 73.78)"><path class="cls-1" d="M723.17 325.43C655.59 348.52 581.43 368.27 520.5 379c-6.75 1.19-14.26 2.58-22.11 4.13L110.64 159.21c-11.08 11.1-19.75 19.79-23.49 23.55 35.61 43.41 71.81 128.49 75.47 197.79L274.2 445c-42.47 15.66-83 33.64-116.74 53.78-.46 5-1 9.93-1.54 14.87 107.24-67.28 298.24-111.17 366.59-122.93C653 368.27 831.88 305.21 892 262.06c3.56-8.32 7.2-16.48 11.09-24.23L668.87 102.76a657.07 657.07 0 01-156.55 19.06 650.88 650.88 0 01-192.46-29.27z"/></clipPath><clipPath id="clip-path-11" transform="translate(68.62 73.78)"><path class="cls-1" d="M520.5 567.73c-93.12 16-293.09 65.76-394.54 140.43-1.6 10.36-2.85 19.72-3.56 27.72l395.29 228.4c57.5-47 139-58.16 196.17-70.11 3.31-.71 6.65-1.46 10-2.18l-434.9-251c81.94-29.37 167.4-49.33 221.9-59.38l380.51 219.68c7.38-14.37 11.72-30.94 11.72-50.31 0-27.51-11.3-80.08-22.14-147l-142.78-82.47c52.82-18.7 98.21-38.31 126.29-54.65-.3-4.46-.47-9-.77-13.47C810.53 486.18 658.88 544 520.5 567.73"/></clipPath><clipPath id="clip-path-12" transform="translate(68.62 73.78)"><path class="cls-1" d="M710.52 581.75c-13.54 23.44-15.49 73.14 31 100s88.58.3 102.09-23.15c7.78-13.49 9-39.52-12.76-52.12-22.06-12.73-38.79-3.67-43.06 3.67-1.26 2.18-3.68 3.81-6.25 2.34s-2.7-4.3-1.3-6.69c4.25-7.37 3.89-26.27-18.13-39a35.21 35.21 0 00-17.73-4.92c-15.1 0-28.19 10.11-33.83 19.9"/></clipPath><clipPath id="clip-path-13" transform="translate(68.62 73.78)"><path class="cls-1" d="M186 279.06c-13.51 23.44-15.45 73.15 31 100s88.55.29 102.12-23.15c7.77-13.51 9-39.51-12.81-52.14-22.06-12.72-38.79-3.65-43 3.71-1.25 2.19-3.7 3.8-6.26 2.29s-2.7-4.27-1.28-6.67c4.22-7.34 3.88-26.28-18.13-39a35.55 35.55 0 00-17.75-4.9c-15.1 0-28.17 10.11-33.85 19.91"/></clipPath><clipPath id="clip-path-14" transform="translate(68.62 73.78)"><path class="cls-1" d="M799.26 259.51c-7.17 12.44-11 32.34-6.11 52.27 30.59-12.41 57.39-24.89 77.85-36.49.38-9-4.09-21.49-20.17-30.77a34.91 34.91 0 00-17.73-4.92c-15.08 0-28.18 10.11-33.84 19.91"/></clipPath><clipPath id="clip-path-15" transform="translate(68.62 73.78)"><path class="cls-1" d="M157.67 687.62c1.89 21 12.62 43.66 39 58.9 46.5 26.84 88.58.25 102.08-23.16 7.82-13.53 9.07-39.52-12.78-52.16-22.05-12.72-38.78-3.62-43 3.72-1.27 2.2-3.71 3.77-6.26 2.3s-2.7-4.29-1.31-6.69c2.45-4.24 3.22-12.4-.71-21-27.72 11.64-53.83 24.36-77 38.07"/></clipPath><clipPath id="clip-path-16" transform="translate(68.62 73.78)"><path class="cls-1" d="M428 798.42c-13.52 23.46-15.48 73.16 31 100s88.56.28 102.11-23.17c7.79-13.49 9-39.54-12.83-52.13s-38.77-3.64-43 3.74c-1.26 2.16-3.71 3.8-6.3 2.28-2.38-1.39-2.67-4.3-1.31-6.67 4.26-7.35 3.94-26.28-18.11-39a35.2 35.2 0 00-17.73-4.93c-15.1 0-28.17 10.1-33.83 19.91"/></clipPath><clipPath id="clip-path-17" transform="translate(68.62 73.78)"><path class="cls-1" d="M520.21 121.69c-7.23 25.68-2.23 63.41 36.54 85.8 46.48 26.83 88.56.28 102.09-23.16 7.81-13.5 9.06-39.51-12.8-52.13-22-12.75-38.77-3.65-43 3.72-1.25 2.17-3.7 3.79-6.28 2.3-2.42-1.39-2.69-4.29-1.29-6.69 2.07-3.6 3.48-8.25 1.34-15.31-24.77 3.43-51 4.7-76.6 5.47"/></clipPath><clipPath id="clip-path-18" transform="translate(68.62 73.78)"><path class="cls-1" d="M43.04 12.02h937.93V1012H43.04z"/></clipPath><radialGradient id="radial-gradient" cx="199.93" cy="495.83" r="20.13" gradientTransform="translate(-8087.05 -19867.92) scale(40.84)" gradientUnits="userSpaceOnUse"><stop offset="0" stop-color="#b2bcdc"/><stop offset=".08" stop-color="#b2bcdc"/><stop offset=".1" stop-color="#a9b6d8"/><stop offset=".26" stop-color="#6187bb"/><stop offset=".38" stop-color="#2d67a7"/><stop offset=".48" stop-color="#105299"/><stop offset=".53" stop-color="#004a92"/><stop offset=".78" stop-color="#004a92"/><stop offset=".91" stop-color="#15427e"/><stop offset="1" stop-color="#193f75"/></radialGradient><radialGradient id="radial-gradient-2" cx="205.91" cy="496.8" r="20.14" gradientTransform="translate(-5277.55 -13288.97) scale(27.62)" gradientUnits="userSpaceOnUse"><stop offset="0" stop-color="#fff"/><stop offset=".44" stop-color="#fff"/><stop offset=".67" stop-color="#fdfdfe"/><stop offset=".81" stop-color="#f4f3f4"/><stop offset=".94" stop-color="#e5e6e6"/><stop offset="1" stop-color="#dadcdc"/></radialGradient><radialGradient id="radial-gradient-3" cx="205.92" cy="496.78" r="20.13" gradientTransform="translate(-5277.53 -13288.91) scale(27.62)" xlink:href="#radial-gradient-2"/><radialGradient id="radial-gradient-4" cx="265.82" cy="548.91" r="20.13" gradientTransform="matrix(4.34 0 0 4.34 -340.59 -1698.62)" gradientUnits="userSpaceOnUse"><stop offset="0" stop-color="#f8c0ae"/><stop offset=".03" stop-color="#f6b2a5"/><stop offset=".13" stop-color="#f08281"/><stop offset=".23" stop-color="#eb5c63"/><stop offset=".34" stop-color="#e83c4b"/><stop offset=".45" stop-color="#e62439"/><stop offset=".56" stop-color="#e5162c"/><stop offset=".68" stop-color="#e30d23"/><stop offset=".82" stop-color="#e30520"/><stop offset=".91" stop-color="#d0131c"/><stop offset="1" stop-color="#bd1818"/></radialGradient><radialGradient id="radial-gradient-5" cx="152.8" cy="480.58" r="20.14" gradientTransform="matrix(4.48 0 0 4.48 -394.95 -1780.89)" xlink:href="#radial-gradient-4"/><radialGradient id="radial-gradient-6" cx="281.64" cy="476.24" r="20.13" gradientTransform="matrix(4.56 0 0 4.56 -381.23 -1821.36)" xlink:href="#radial-gradient-4"/><radialGradient id="radial-gradient-7" cx="151.61" cy="553.85" r="20.13" gradientTransform="matrix(4.84 0 0 4.84 -472 -1940.81)" xlink:href="#radial-gradient-4"/><radialGradient id="radial-gradient-8" cx="203.79" cy="584.95" r="20.13" gradientTransform="matrix(4.73 0 0 4.73 -435.82 -1879.45)" xlink:href="#radial-gradient-4"/><radialGradient id="radial-gradient-9" cx="222.95" cy="450.74" r="20.13" gradientTransform="matrix(5.29 0 0 5.29 -549.35 -2193.23)" xlink:href="#radial-gradient-4"/><linearGradient id="linear-gradient" x1="202.23" y1="487.29" x2="222.36" y2="487.29" gradientTransform="translate(-5738.75 -14374.8) scale(29.77)" gradientUnits="userSpaceOnUse"><stop offset="0" stop-color="#1b579d"/><stop offset="1" stop-color="#9eabd2"/><stop offset="1" stop-color="#7592c2"/><stop offset="1" stop-color="#235ea1"/><stop offset="1" stop-color="#004a92"/></linearGradient><linearGradient id="linear-gradient-2" x1="180.96" y1="472.27" x2="201.1" y2="472.27" gradientTransform="rotate(-90.67 -1519.425 5071.482) scale(14.46)" gradientUnits="userSpaceOnUse"><stop offset="0" stop-color="#1b579d"/><stop offset=".17" stop-color="#2a61a4"/><stop offset=".5" stop-color="#547bb5"/><stop offset=".96" stop-color="#97a7cf"/><stop offset="1" stop-color="#9eabd2"/><stop offset="1" stop-color="#7592c2"/><stop offset="1" stop-color="#235ea1"/><stop offset="1" stop-color="#004a92"/></linearGradient><linearGradient id="linear-gradient-3" x1="203.6" y1="524.51" x2="223.73" y2="524.51" gradientTransform="rotate(21.76 27380.215 -4431.25) scale(20.25)" gradientUnits="userSpaceOnUse"><stop offset="0" stop-color="#1b579d"/><stop offset=".46" stop-color="#9eabd2"/><stop offset=".59" stop-color="#7592c2"/><stop offset=".87" stop-color="#235ea1"/><stop offset="1" stop-color="#004a92"/></linearGradient><linearGradient id="linear-gradient-4" x1="344.91" y1="610.74" x2="365.04" y2="610.74" gradientTransform="matrix(2.74 0 0 2.74 5.23 -895.68)" gradientUnits="userSpaceOnUse"><stop offset="0" stop-color="#1d2b4e"/><stop offset=".37" stop-color="#1d2b4e"/><stop offset=".51" stop-color="#1e325b"/><stop offset=".98" stop-color="#1d2b4e"/><stop offset="1" stop-color="#1d2b4e"/></linearGradient><linearGradient id="linear-gradient-5" x1="212.09" y1="524.34" x2="232.22" y2="524.34" gradientTransform="matrix(19.4 0 0 19.4 -3532.02 -9170.71)" gradientUnits="userSpaceOnUse"><stop offset="0" stop-color="#1d2b4e"/><stop offset=".51" stop-color="#1e3867"/><stop offset=".98" stop-color="#1d2b4e"/><stop offset="1" stop-color="#1d2b4e"/></linearGradient><linearGradient id="linear-gradient-6" x1="280.8" y1="496.87" x2="300.94" y2="496.87" gradientTransform="matrix(5.22 0 0 5.22 -518.64 -2145.22)" gradientUnits="userSpaceOnUse"><stop offset="0" stop-color="#1d2b4e"/><stop offset=".2" stop-color="#1e2d51"/><stop offset=".39" stop-color="#1e325c"/><stop offset=".51" stop-color="#1e3867"/><stop offset=".98" stop-color="#1d2b4e"/><stop offset="1" stop-color="#1d2b4e"/></linearGradient><linearGradient id="linear-gradient-7" x1="197.09" y1="514.52" x2="217.22" y2="514.52" gradientTransform="rotate(72.15 9417.993 2785.862) scale(21.14)" gradientUnits="userSpaceOnUse"><stop offset="0" stop-color="#1b579d"/><stop offset=".43" stop-color="#597fb6"/><stop offset=".81" stop-color="#8ba0cb"/><stop offset="1" stop-color="#9eabd2"/><stop offset="1" stop-color="#7592c2"/><stop offset="1" stop-color="#235ea1"/><stop offset="1" stop-color="#004a92"/></linearGradient><linearGradient id="linear-gradient-8" x1="205.88" y1="452.08" x2="226.02" y2="452.08" gradientTransform="rotate(46.12 6750.75 902.803) scale(10.1)" gradientUnits="userSpaceOnUse"><stop offset="0" stop-color="#7b8ebd"/><stop offset=".25" stop-color="#7b8ebd"/><stop offset=".28" stop-color="#7489b8"/><stop offset=".52" stop-color="#425f8d"/><stop offset=".73" stop-color="#1e3f6d"/><stop offset=".89" stop-color="#1d3056"/><stop offset="1" stop-color="#1d2b4e"/></linearGradient><style>.cls-1{fill:none}.cls-37{clip-path:url(#clip-path-18)}.cls-38{fill:#fff}</style></defs><g clip-path="url(#clip-path)"><path fill="url(#radial-gradient)" d="M135.54 106.76h891.12v955.11H135.54z"/></g><g clip-path="url(#clip-path-2)"><path fill="url(#linear-gradient)" d="M281.38 85.8h599.41v94.72H281.38z"/></g><g clip-path="url(#clip-path-3)"><path fill="url(#linear-gradient-2)" d="M158.39 914.95l-3.27-276.49 58.44-.69 3.26 276.49-58.43.69z"/></g><g clip-path="url(#clip-path-4)"><path fill="url(#linear-gradient-3)" d="M244.12 779.6l396.1 158.13-112.81 282.58-396.1-158.12L244.12 779.6z"/></g><g clip-path="url(#clip-path-5)"><path fill="url(#linear-gradient-4)" d="M948.74 638.29h55.11v276.44h-55.11z"/></g><g clip-path="url(#clip-path-6)"><path fill="url(#linear-gradient-5)" d="M581.12 913.92h390.49v171.86H581.12z"/></g><g clip-path="url(#clip-path-7)"><path fill="url(#linear-gradient-6)" d="M945.5 255.74h104.08v382.69H945.5z"/></g><g clip-path="url(#clip-path-8)"><path fill="url(#linear-gradient-7)" d="M206.84 225.1l121.52 377.54-206.83 66.58L0 291.69l206.84-66.59z"/></g><g clip-path="url(#clip-path-9)"><path fill="url(#linear-gradient-8)" d="M967.08 0l167.42 174.09-174.14 167.43-167.39-174.09L967.08 0z"/></g><path fill="#b8c1e0" d="M284.32 106.76L135.55 255.72h-23.88L272.39 94.83l8.99-9.03 2.94 20.96z"/><g clip-path="url(#clip-path-10)"><path fill="url(#radial-gradient-2)" d="M155.76 166.34h815.96v421.04H155.76z"/></g><g clip-path="url(#clip-path-11)"><path fill="url(#radial-gradient-3)" d="M191.01 527.17H971.7v510.89H191.01z"/></g><g clip-path="url(#clip-path-12)"><path fill="url(#radial-gradient-4)" d="M763.64 635.64h157.6v146.72h-157.6z"/></g><g clip-path="url(#clip-path-13)"><path fill="url(#radial-gradient-5)" d="M239.19 332.93H396.8v146.74H239.19z"/></g><g clip-path="url(#clip-path-14)"><path fill="url(#radial-gradient-6)" d="M856.87 313.38h83.12v72.17h-83.12z"/></g><g clip-path="url(#clip-path-15)"><path fill="url(#radial-gradient-7)" d="M226.29 723.33h150.18v123.78H226.29z"/></g><g clip-path="url(#clip-path-16)"><path fill="url(#radial-gradient-8)" d="M481.1 852.28h157.61v146.73H481.1z"/></g><g clip-path="url(#clip-path-17)"><path fill="url(#radial-gradient-9)" d="M581.6 189.99h154.92V308.1H581.6z"/></g><g class="cls-37"><path class="cls-38" d="M197.14 563.68c-3.27-.5-5.44-.22-7.33.66a4.52 4.52 0 00-2.24 6.48c1.92 4 6.36 5.32 11.16 8.32 4 2.47 9.26 4.82 11.86 10.28 3.7 7.78 1.47 18.63-12.66 25.37-5.76 2.75-12.34 4.73-18 4L178.64 606c3.26.5 8 .68 11.19-.82.95-.47 5.62-2.83 3.31-7.65-1.65-3.45-5.36-5.16-10.76-8s-9.2-5.66-11.39-10.27c-3.65-7.64-1-18.58 10.51-24.07 4.73-2.25 11.27-3.57 16.73-2.32z" transform="translate(68.62 73.78)"/></g><g class="cls-37"><path class="cls-38" d="M263.14 580.31c-5.48 6-11.86 11.35-18.33 14-13.07 5.32-23.17-3.12-27.79-15.28-9.08-24.26 5.52-41.61 17.24-46.39a26.08 26.08 0 0115.52-1.81l-1 11.43a15 15 0 00-8 .77c-7.84 3.2-10.67 15.38-6.46 25.7 4.83 11.82 11.15 10.76 13.87 9.67 3.1-1.27 6.15-4.27 7.85-6.2z" transform="translate(68.62 73.78)"/></g><g class="cls-37"><path class="cls-38" d="M420.47 628.82l-18.8 6.01-5.54-38.09-19.51 6.26 5.53 38.11-18.81 6.02-11.79-81.59 18.81-6.02 4.22 29.61 19.52-6.26-4.15-29.03 18.8-6.04 11.72 81.02z"/></g><g class="cls-37"><path class="cls-38" d="M407.53 531.46c-6 6.45-14.4 13.57-24.48 16.33-13.61 3.72-21.86-9.78-23.72-17.33-6.5-26.53 9.27-41.8 22.17-45.32 9.89-2.72 19.15-.92 22.11 9.82 3.3 12.1-10.94 23.46-25.77 27 .46 2.54 2.31 12.38 11.78 9.8 4.82-1.32 7.74-4.55 11.61-8.25zm-31.47-19.08c10.21-2.3 14.48-6.85 13.23-13-.69-3.3-3.34-5.12-6.56-4.22-5.82 2.07-7.23 9.2-6.67 17.23" transform="translate(68.62 73.78)"/></g><g class="cls-37"><path class="cls-38" d="M462.43 518.31c-6.14 6.23-14.85 13.06-25 15.46-13.73 3.25-21.5-10.54-23.09-18.17-5.57-26.72 10.7-41.44 23.71-44.52 10-2.36 19.19-.22 21.74 10.61 2.9 12.2-11.72 23.07-26.67 26.13.39 2.53 1.87 12.44 11.43 10.19 4.9-1.17 7.92-4.25 11.9-7.83zm-30.77-20.17c10.27-2 14.72-6.36 13.67-12.55-.57-3.32-3.16-5.21-6.43-4.44-5.89 1.87-7.54 8.94-7.24 17" transform="translate(68.62 73.78)"/></g><g class="cls-37"><path class="cls-38" d="M489.43 474.18l.87.06.78-2.42c.75-2.75 2.52-12.46 9.28-13.81 3.9-.81 6.61.57 9.27 2.64L504.37 479a9.9 9.9 0 00-5.25-.12c-4.21.84-9.25 4.45-8.85 16.46l.79 25.19-18.44 3.71-1.9-58.85 18.44-3.7z" transform="translate(68.62 73.78)"/></g><g class="cls-37"><path class="cls-38" d="M559.83 499.64c-6.42 6-15.4 12.41-25.67 14.35-13.87 2.67-21-11.47-22.29-19.16-4.38-26.94 12.55-40.93 25.67-43.42 10.07-1.94 19.17.6 21.26 11.55 2.33 12.32-12.71 22.53-27.8 24.93.26 2.55 1.31 12.52 11 10.66 4.94-.92 8.1-3.9 12.24-7.28zM530 478.14c10.37-1.49 15-5.7 14.24-11.92-.45-3.37-3-5.35-6.23-4.73-6 1.61-8 8.6-8 16.65" transform="translate(68.62 73.78)"/></g><g class="cls-37"><path class="cls-38" d="M587.5 452.24l.25.18c3.73-9.3 10.49-15.06 16.58-16.57 7.8-1.93 11.95 1.35 14.25 9.26a50.2 50.2 0 011.51 9.57l2.91 37.8-18.23 4.52-2.92-36.84a13.16 13.16 0 00-.5-2.88c-1.58-4.63-3.88-4.77-5.11-4.47-6.9 1.71-7.36 13.19-6.75 21.3l2.07 26.17-18.24 4.53-4.57-58.7 18.16-4.52z" transform="translate(68.62 73.78)"/></g><g class="cls-37"><path class="cls-38" d="M648.05 485.36l-23.8-51.82 17.75-8.16c4 10.45 8 21 12.57 36l.21-.06c1-16.63 2.6-28.85 4.35-41l14.45-1.25-12.52 62.43z" transform="translate(68.62 73.78)"/></g><g class="cls-37"><path class="cls-38" d="M731.45 450.44c-5.56 6.76-13.57 14.39-23.48 17.73-13.34 4.52-22.38-8.51-24.68-15.94-8-26.09 6.81-42.26 19.49-46.55 9.7-3.26 19.06-2 22.61 8.55 4 11.89-9.51 24.07-24.12 28.49.63 2.5 3 12.22 12.32 9.08 4.77-1.59 7.47-5 11.11-8.89zm-32.52-17.21c10.05-2.9 14.07-7.7 12.47-13.78-.9-3.24-3.65-4.89-6.84-3.82-5.67 2.41-6.66 9.6-5.63 17.6" transform="translate(68.62 73.78)"/></g><g class="cls-37"><path class="cls-38" d="M756.09 396.63c3.09-1.19 5.94.32 6.94 3.54 1.87 6-1.91 11-11.86 14.27-1.37-7.93-.69-15.15 4.92-17.81M777.34 423c-3.48 4.08-6 7.57-10.74 9.36-9.16 3.54-12-6.07-12.7-8.53 14.41-5.07 27.43-17.8 22.9-29.5-4-10.4-13.4-11.25-23-7.59-12.48 4.84-26.64 21.61-17.5 47.31 2.6 7.36 12.17 20 25.33 14.91 9.77-3.77 17.45-11.7 22.7-18.73z" transform="translate(68.62 73.78)"/></g><g class="cls-37"><path class="cls-38" d="M800.72 379.7l.29.12c1.91-9.83 7.45-16.73 13.18-19.37 7.31-3.36 12-.93 15.74 6.44a47.92 47.92 0 013.27 9.11l9.95 36.58-17.09 7.89-9.75-35.67a13.22 13.22 0 00-1-2.73c-2.42-4.24-4.71-4-5.84-3.44-6.46 3-4.79 14.34-2.69 22.19l7 25.32-17.16 7.86-15.45-56.81 17-7.84z" transform="translate(68.62 73.78)"/></g></svg>