<svg viewBox="0 0 1000 1000" xmlns="http://www.w3.org/2000/svg"><g fill-rule="evenodd"><path d="M500 1000C224.31 1000 0 775.69 0 500S224.31 0 500 0s500 224.31 500 500-224.33 500-500 500" fill="#b6942c"/><path d="M500 21C235.86 21 21 235.86 21 500s214.86 479.05 479 479.05S979.05 764.17 979.05 500 764.14 21 500 21" fill="#fff"/><path d="M638.56 750.49l34.12-19.67 16.46 25.7L655 768.57l-16.46-18.08" fill="#fff"/><path d="M211.83 708.25c5.16-6.86 4.94-12.94.18-20-3.37-5-8.71-10.15-14.85-6-5.81 3.91-2.51 11.8-.28 16.87 3 7.43 7.23 17.23 7.27 25.31.08 9.39-3.87 17.76-11.77 23.09a30.65 30.65 0 01-26.58 3.58c-9.29-3-16.66-10.69-22.05-18.7-10.08-15-12.72-32.92.39-47l15.51 14.51c-6.8 8-5.62 15.94-.07 24.16 3.59 5.35 10.33 11.09 16.94 6.64s1.78-14.36-.45-19.94c-6.63-16.1-11.84-32.84 5.57-44.56a28.39 28.39 0 0124.45-4c8.78 2.51 15 8.26 19.95 15.57 9.38 13.91 12.16 28.57 1.63 42.74l-15.84-12.26m-8.05 94.08l-16.58-15.05 64.46-71 26.72 24.25c6.94 6.28 13.25 12 15.49 21.43A28.25 28.25 0 01287 788c-6.12 6.73-14.69 11.4-24 11.06-10.71-.45-17.13-6.5-24.71-13.35L227.64 776l-23.86 26.32m44.92-30.8c3.95 3.56 7.25 6.58 13 6.09a13.29 13.29 0 0011.3-14.79c-.81-4.31-4.22-7.42-7.31-10.23l-9.23-8.35-17.11 18.83zm78.77 115.59l-21.11-11.84 4.52-20.09L283.79 840l-14.88 14.27-17.2-9.65L325.45 776l22.69 12.73-20.67 98.4M315 837.3l7.59-34.41-25.42 24.41zm55 63.52l-21.58-5.89 25.32-92.54 39 10.66c8.24 2.25 16.56 4.67 22.46 11.21 6.19 7.06 7.89 17.25 5.42 26.27-2.96 10.54-11.69 18.58-22.62 19.47l5.95 45.55-24-6.54-4.15-40.44-15.8-4.3zm14.36-52.47l11.88 3.25c4.44 1.2 9.18 2.95 13.73 1.73 4.09-1.21 7.17-5 8.26-9a12 12 0 00-2.67-10.89c-3-3.28-9.36-4.45-13.41-5.55l-11.33-3.11zm138.11-5.15l-24.05-.48-1.55 76.91-22.37-.46 1.55-76.9-24.32-.49.37-19 70.75 1.41-.38 19M616.34 904l-23.76 4.53-9.45-18.25-30.51 5.72-2.22 20.51-19.4 3.71 12.26-100 25.54-4.88 47.5 88.6m-41.6-30.07l-16.34-31.2-3.72 35zm208.99-67.06l-19.43-10.2-10 8.14L767 820.39l-4.52 3.7L733 788l13.53-11c2.95-2.4 6.1-4.36 10-4.48a12.92 12.92 0 0110.29 4.77 12 12 0 01.81 14.75l20.75 11-4.74 3.87m-24-12.65c2.43-2 4.3-3.77 4.6-7a8.61 8.61 0 00-2-6.25 7.39 7.39 0 00-6.61-3c-2.48.18-4.05 1.38-5.94 2.93l-9 7.32 10.5 12.92zm19.75-13.99c-8.29-8.14-13.37-21.1-4-30.71 9.18-9.36 22-5.31 30.15 2.72s13.44 21.33 4.16 30.79-22 5.37-30.34-2.8m22.15-23.4c-3-2.88-6.88-5.78-11-6.88a11.63 11.63 0 00-11.51 2.8c-7.28 7.42-1.26 17.3 4.71 23.15 5.72 5.61 15.72 10.84 22.61 3.8s.93-17.26-4.79-22.87zm34.35-4.11l-32.42-25.89-8.27 10.35-4-3.17 20.17-25.26 4 3.17-8.28 10.36 32.44 25.88zm23.59-32.1L824.7 698l-7.24 11.1-4.26-2.78 17.68-27.08 4.27 2.78-7.25 11.08 34.74 22.72-3.19 4.89m29.38-51.24l-14.08 26.68-41.21-21.75 13.76-26.08 4.44 2.34-11 20.92 13.11 6.92 8.75-16.59 4.14 2.19-8.74 16.58 15.09 8 11.34-21.51 4.44 2.34M903.63 634l-22 .5-4.8 12 18.79 7.5-2.18 5.4-43.25-17.4 6.48-16.21c1.42-3.53 3.23-6.76 6.6-8.77a13 13 0 0111.3-.83 12.11 12.11 0 017.87 12.53l23.46-.49zm-27.08.57c1.15-2.92 1.92-5.38.58-8.41a8.54 8.54 0 00-4.79-4.47 7.29 7.29 0 00-7.2.62c-2.09 1.36-2.89 3.17-3.79 5.43L857 638.48l15.44 6.18zm-11.61-30.7l3.9-14.22c1.75-6.42 4.38-10.83 10.58-13.7 5.59-2.65 11.65-2.67 17.48-1.06a27.37 27.37 0 0114.18 8.88c4.06 5 4.89 10.21 3.21 16.38l-4.4 16-44.95-12.32m44-2.87c1.42-5.18 1.38-9.64-2.33-13.83a24.16 24.16 0 00-11.24-6.6c-4.57-1.23-9.69-1.37-14.16.57-4.71 2-6.43 5.43-7.72 10.15l-2.26 8.24 35.45 9.72zm16.89-57.36l-14.17 2.46-2.73 17.05 12.76 6.24-.78 4.83-43.61-22.29 1.07-6.64 48.39-7.55zm-41.92 6.53l20.92 10.65 2.28-14.15zm45.89-28.97V526l-46.61-.11v-8.7l37.33-14-37.26-13.82v-8.57l46.61.12v5.85l-40.7-.11v.34l40.66 14.84v3.94l-40.72 15v.22l40.7.12" fill="#1f211d"/><path d="M567.75 268.72c1.81 1.8 3.54 4.76 4.73 5.28s11.83 5.95 16.26 17 3.82 7.36 8.7 22 25 27 27.77 24.59c2.08 4.23-.2 17.2.53 20.65-4.7-1.81-5.5-.33-5.5-.33a12.93 12.93 0 01-7.26-3.7c-4.28-10.94-15.22-25.33-15.22-25.33s-17.93-27.49-24.29-30.66-9.1-2.74-10.86-.07-.68 6.69-.38 10.15 4.16 5.59 6.65 6.19 16 16.89 16 16.89 9.94 14.43 15.87 20.52 14.36 13.2 16.31 14.84 2.17 12.33 2 14.81 14.65 10.15 16.8 9.75 1.57-3.83 1.57-3.83-.08-7.8-.2-10.11-2.52-4.51-2.52-4.51-3.74.47-5-1.35-2.85-8.42-2.21-10 12.44 9 13.07 10.08-.9 2.52-.38 4.37 5.48 2.64 8.43 4.08 6.49 5.77 6.49 5.77l4.58 5s-1.92 2.26-1.85 3.85 4.14 4.87 4.21 12.53 16.06.25 16.06.25-2.31-15.22-4-16.58-13.24-7.91-13.24-7.91-.31-6.79 2.59-9.53-1.93-7.27-7.08-9.06a17.4 17.4 0 00-9.71-.41s1.4-4.26 1.34-5.41-1.95-4.54-5.84-7.24-8.65-2.49-7.64-5.73 7.36-18.71 4.65-21.18-15-3.06-17.67-3.37-9.11-9.26-12.67-20.52-4.66-19.29-12-29.64-18.81-15.48-22.68-14.71-8.31 10.8-6.48 12.59m59.51 147.88l11.46-5.61a11.6 11.6 0 01-2-8c.49-5 .17-5.94-1.6-6.29s-5.54 5-7.08 9.16-.8 10.72-.8 10.72M561.26 241.7s-4.71 1.38-5.23-.48a10.88 10.88 0 00-2.2-3.66l-.45-6.76s2.55-4.17 14.31 0 18.31 11.49 16.81 12.85-23.24-2-23.24-2m-35.69-23.96c3.32.6 6.49 6.64 6.79 8.94s-8.64 5-8.64 5l-7 3.77s-2.44 1.28-5-3.62-1.95-4.52-1.95-4.52l1.73-4.13s10.7-6.1 14-5.48m14.24 198.93s-8.91-5.15-12.46-27.56-4.19-35.66-6.4-45.79-11.56-20.08-14-29.8 1.29-30.14 3.09-32.74a37.94 37.94 0 013.85-4.6s1.84-1.64 1.08 2.63 1.73 16.31 4.33 22.38 7.67 11.59 13.39 22.31 7.46 44 8.62 56.28a59.87 59.87 0 007.22 22.4s2.42 2 .88 6.33-5.6 8.16-5.6 8.16zm-75.1-112.73a1.33 1.33 0 00-.66 2.35c.8.53 4.55 10.38 7.44 14.69a70 70 0 019.46 20.75c5.22 12.49 6.11 27.1 9.77 31.36s11 19.93 11 19.93l7.76 1s8.24-1 8.92-7.38-7-18-7-18 .24-3.29-1.73-4.35-5.87-5.69-5.87-5.69l-14.54-37.31.72-4.85s-3.08-3.91-6.79-9.12-11.11-6.63-10.05-4.54-3.54-1.58-3.54-1.58-3.55 2.47-4.89 2.74m-44.52-58.98l-3.76-21.52 3.55-16.94-2.52-4.51a48.57 48.57 0 00-5.52 12.1c-2.38 7.61-1.8 29.28-1.8 29.28l.7 20.65s3 12.43 6.81 16a141.7 141.7 0 0011.72 9.14 90.28 90.28 0 01-7.28-25.4c-1.67-13.81-1.9-18.85-1.9-18.85m16.3 112.8l-3.51-40.76-4.34 15.39 2.59 14.92zm41.18 17.58c-1.18-6.59-13.35-37.67-14.36-41s-1.29-21.05-2.55-26.34-6.54-16-9.28-18.8-4.28-11.37-4.28-11.37l-2.42 1s.12-.44-.79-1.41-2.62-.32-2.62-.32a40.75 40.75 0 00-5 3.29c-1.12 1.06.36 1.86.36 1.86s1.89 9.16 3.28 14.15 4.86 7.87 7.43 16.45-.2 26.47-.15 30.79 4.3 14.71 4.3 14.71 3.4 7.5 7.18 17.42 4.3 16.17 4.3 16.17l11 4.54 11.78-1.85s.79-1.47-1.58-5.71-5.38-7-6.56-13.58M350.7 218s6.1 6.84 12.7 3.64a7.47 7.47 0 004.19-9.45l-4.51-13.67 3.85-12.72s1.23-3.57-2.78-5.85-5.51-2.05-5.51-2.05 4.48-9.51 5.7-9.91 7.58 3.07 10.12 5.7a12.86 12.86 0 004.39 3.26 12.85 12.85 0 003.63 3.31c2.12 1.2 2.84-2 3.57-1.9s1.48-.32 12.6 1.53 11.16 3.52 11.16 3.52l-1.81 5.67s-9-1-15.09-1-11.12-3.86-13.68-4.19-5.34 5.46-5.34 5.46-2.62 5.92-2 7a25.27 25.27 0 003.32 4.87c1.32 1.27 2.6 0 12.48 2.87s15.83.41 15.83.41l-1.77 12.5s-4.63-.11-11.41 3.62a73.71 73.71 0 01-12.84 5.61l-1.2 7.4s8.83 3 15.44 0a27.16 27.16 0 0115.73-1.52c1.81.55.74-8.9.74-8.9l9.32-56s-6.6-.91-10-.3-14.83 3.2-15.75 1.12-6.89-7-6.89-7L371 154l-10.39.5-3.88 16-22.9 13 2 10.33s4.77-1.34 13.06-1 12.17 4.44 12.17 4.44-.56 5.56-4.26 7.91-8.47 8.5-8.47 8.5zm-72.51 282.8l18.73 8.76L318.28 529l8.49-12.17s1.46-9.89-16.7-23.13c-11.77-8.55-22.94-8-25.23-7.49-2.83.61-5.36 4.88-5.36 4.88l-1.29 9.7m12.47-38.37s9.85.31 24.35 13.53 12.37 29.5 12.37 29.5-.08 6.35 6.55-.32c4.05-4.24 6.07-2.21 6.07-2.21l7.68-9s.09-18.72-13.15-33.5-35.07-11.67-35.07-11.67l-8.8 13.71m26.55-38.31s-.33 5.23 2.26 7 7.43-1.89 17.75 8.41 11.68 18.93 12.32 20.07 10.16-1.06 10.16-1.06l2.1-16.89s.3-6-10.83-17.22-22.11-10.73-22.11-10.73-3.38 5.94-9.32 6.62-2.33 3.76-2.33 3.76M623.86 730a26.52 26.52 0 0025.83-7.29c11.45-11.81 8.36-28.46 8.36-28.46l-3.88-11.52s-4.41-7.59-6.54-6.77-.94 4.82-.94 4.82 4.51 18.72-7.82 27.41-24.53.86-27.36 2.29-1 7.43-1 7.43z" fill="#df203a"/><path d="M581.81 681.66a6 6 0 014-3.51c3.14-.89 21.26 12.3 33.72-5.64s3-33.85 3-33.85l13.59 9.2s7.38 21.64-6.73 41.68-40.39 6.52-40.39 6.52zm56.91 53.87c3.13-1 12.1 2.17 18.34-.44s8.45-14.41 8.45-14.41l7.49 18.16s-4 10.3-10.23 13.34-17.15 1.09-17.15 1.09l-12-14a11 11 0 015-3.7m20.31 23.58c2-1 4.23 1.11 7.77-.36s8.55-12 8.55-12l5.55 10.45-24.25 6.78-1.55-1.64a15.16 15.16 0 013.91-3.23" fill="#df203a"/><g fill="#1f211d"><path d="M196.48 212.43c-1.7.94-11.11 3.7-13.18-3.41s20-18 29.62-21.92 26.31-12.54 38.48-12.23 17.58 5 17.58 5 62-15.94 70.51-13.75c2.94 1-.16 2.62-.16 2.62-53.17 13.49-65.64 25.07-70.05 23.54s-18.91-8.37-39.61-5.67-36.58 15.32-36.81 16.77 6.34-.56 7.18 4.89c.41 2.86-1.88 3.26-3.56 4.2"/><path d="M226.16 204.1c12.08-1.44 19.33-1.2 21.3-2.16s0-7.22-1.21-7.17-1.54-2-3.26-1.88-32.83 9.07-36.41 13 1 2 1 2 6.54-2.35 18.62-3.78m-17.06 13.23c-.9-.54-11.93 10.67-8.34 13.41s18.87-4.66 18.87-4.66-.38 4.07 6.61 5.2 17.65-12.11 17.65-12.11.76-2.35 2.88-.43 5.74 5.22 12.9 3.73S285 212.32 283 212.71s11.47-2 18.38-2.6 10.77 1.23 16.74-.8c4.27-1.34 5.92-3.45 6.38-5.78s-17.81-3.5-22.7-3-14.37 1.82-17.49 3.12-4.53 2.25-7.53 5.85-12.81 4.36-15.15 4.2-6.82-4-10.33-4.73-11.25.81-17.85 2-18.76 6.67-17 8 6-2 13.45-2.94a40.15 40.15 0 0113.34.54s-9.64 4.2-10.84 3.39-2.79-4.21-4.47-3a36.24 36.24 0 01-12.44 6.07c-7.14 2.08-9.16 2.17-9.24.16s3.78-5.39 2.89-5.93m176.05-57.36s2.55 5.36-1.63 2.38-11.88-6.67-14.5-6.85-4.9.23-6 1.16 4.46 8.48 1.65 16.69-23 8.9-26.61 12.26-1.36 7.86 1.19 13 13.3 18.18 13.3 18.18 3.59 2.72-1.65 2.09S328.12 201 325.4 192.5s2-13.12 6.82-14.79 12.09-7.21 17-8.32 3.19-5.64 3.19-5.64-2.88-6.23-1.63-10.33 12.94-1.49 18.45-1.16 16 7.64 16 7.64"/><path d="M405.87 175.39c1.43 0 3-9.38 3-9.38s1.94-1.83-1-2-13.52 1.52-14.64 2.14-1.6 3-6.42 5.21-3.73.47-8 2.41-16 16.08-17.32 19.32a31.84 31.84 0 01-3.68 7.4c-1.37 1.81-3.48 5.94.17 10.12s7.37 2.84 10.25 2.7 7.62 2 7.62 2-15.31 18.92-9.77 26.19 23.22-4.56 24.62-5.5 5.24-5.46-1.36-4.27a44.7 44.7 0 01-11.84.56s1.39-7.88 4.33-12.66 4.33-6.57 5.63-9.5.95-4.39-1.69-5.13-14.06-3.68-17-3.84-3.33-3-2.64-6.81 3.6-9.71 10.3-14.65 9.89-5.1 15.37-5.35 12.49 1.13 13.94 1.06m19.77 17.87s-7.14 8.14-10.58 15-2.4 16.6-9.8 19.25-3.67-23-1.74-30.87 11.52-25.68 14.44-31.32 12.55-15.92 16.57-16.69a24.09 24.09 0 017.81-.07s21-7.95 30.22-9.24 12.73.27 17.24 3.81c12.57 9.25 16.37 28.16 16.37 28.16s4.39 1.24 7 13.55.54 36.12-1 40.53-5.68 8.37-5.68 8.37-.53 7.55-4.12 11.18-6.37 11.89-7.22 12.5-3.21-.72-2.44-2.79 5.54-11.24 5.54-11.24 2.35-5.6.83-7-2.84 1-3.17.16a15.61 15.61 0 01-.44-3.16l-.9-.83s-.6-6.61-.12-8.38.77-2.35 2.23-1.83 1.87 2.79 1.87 2.79a4.39 4.39 0 012.62.18 3.35 3.35 0 012.14 2.5s4.06-6 .71-15.67-5.84-13.31-8.13-13.2-4.63 12.36-4.22 15.24a3.55 3.55 0 01-2.12 3.86s4.5 9.91-3.55 10.86-9.71-3.59-13.16-9.2-4.85-5-7.22-6-21.37.7-28.25 1.9-10.23-2.12-11.44-3.21-.31-19.08-.31-19.08m33.79 90.91s6.46 2 10.62-1.95 11.56-12.41 13.52-13.94 5.58-4 5.58-4 2.21-2.43 1 2.26-4.6 12.66-7.51 18.58-6.78 9.8-12.49 10.69-7.4-3.41-8.64-5.38-4-5.31-4-5.31-2.64-1-3-2.75.75-2.63 2.8-2.15 2.2 3.95 2.2 3.95"/><path d="M462 274.57c2 .18 4.07.38 5.19-.53s-2-6.27-2-6.27-2.77-3.63-5.06-3.24-1 3-1 3-6.65.3-8.32 1.54-2.49-3.91-2.49-3.91.21-1.48.4-3.51-3.86-2.42-3.86-2.42-6.76 3.8-8.75 4.75-2.3-6-2.3-6-.25-11.27-.39-14.43-2-5.42-3.83-7.34-6.19-2.61-7.94-2.81-1.56-8.9-1.73-12.36 1.9-15.13 1.9-15.13.07-4.62-2.32.11-4.39 17.56-4.11 23.32 1.23 13.85 2.76 15.51 7.51-.08 10 2.69 2.2 22.17 3.52 25.59 5.71 4.65 7.93 2.8a61.27 61.27 0 005-4.85s-.18 8.39 2.11 7.71 13.38-4.4 15.41-4.2"/><path d="M432.49 231.12c1.91 3.68 5.59 1.77 5.59 1.77a64.28 64.28 0 0110.81-3.69c5.16-1.11 6.9-.9 10.35-1.35s2.46-3-.78-4.31-9.93-1.84-14.25-1.64-11.11 3.71-11.11 3.71-2.51 1.85-.61 5.51m9.51 5.35s-4.23 2.23-.47 2.33 7.24-.05 7.24-.05-.4 4.06 2.79 4.21 1.58-3.54 1.58-3.54 9.88 1.25 11.08 2.07 1-3.22 1-3.22 1.73-.37.23-1.47-8.2-2.22-12.55-2.29-10.9 2-10.9 2m104.17-11.31c3 1.31 4.17 8.77 4.31 11.66s.6 6.61-3.64 8.85-9.2-5.37-9.57-6.79-3.64-3.59-6.76-2.28-5.51 11.54-5.63 15.36 3.83 14 3.83 14a88.2 88.2 0 00-12.71 5.45 77.84 77.84 0 00-13.73 9.6c-2.49 2.16 1 2 1 2s3.89-3.66 13.48-8.74 16.6-4 16.6-4a3.74 3.74 0 003.86-3.93c.1-4.06-4.31-11.65-2.86-17.8 0 0 9.47 10.85 13.93 7.15s6.25-8.67 6.06-18.5-2.13-14.65-2.24-17-2.41-2.19-3.82-1.26a11.37 11.37 0 00-2.73 3.3s-2.25 1.55.71 2.86"/><path d="M522.88 234.41s6.69-5.53.71-3.52-9.59 5.36-23.11 25.11-11.76 63.6-11.76 63.6-12-15.91-14.69-16.95-.75 2.36-.75 2.36 13.44 21.34 16.25 25.84 11.26 24.06 10.9 28.7c1.23 1.39 6.26-2 6.26-2s1.23 1.4-.21-4.6-13.05-25.12-13.05-25.12 1-34.75 8.82-52.2 20.63-41.15 20.63-41.15m40.35 9.02s-8.5-4.25-.73-3.25 29.15.75 49.38 16.95 24.32 45.53 24.32 45.53.07 5.77 3.35 5.43 7.22 2 7.22 2 5 3.82 5.1 5.93-3.11-.43-3.11-.43-18.51-.09-21.57-3.61-6.67-18.79-19.78-43.23-44.18-25.29-44.18-25.29m90.96 93.25c-.8 3.51-5.35 13.35-5.22 20.09s6.24 5.71 8.35 5.59 5.61-3.74 9.91-2.78 3.86 4.45 3.78 6.77-.17 12.74-.17 12.74-12.56 3.67-18.39 6.64-12.85 9.67-14.45 12.05c-3 2.46-4.56 5.82-1.65 6.07s7.9-8.29 22-11.65 21.35 2.86 21.35 2.86 2.63 2.77 5.37-.64 4.23-8.31 2.36-11.29-6.77-4.52-6.77-4.52 1.38-15.67.54-21.41-3.06-7.57-5.86-9.76-9.08-.16-9.08-.16a11.56 11.56 0 00-9.83 3.95c-1.07-2.27.89-13.55.89-13.55a32 32 0 00.51-9.85c-.61-5-2.83 5.33-3.63 8.85M588.38 352c-.66-1.71-.94-3.6 1.65-1.81s6.6 4.89 10.57 7.41 7.57 8.9 7.57 8.9.11-1.56 1.55.7c4.85 4.59 5.55 19.4 5.55 19.4s5.58-.27 9.39 3 3.05 7.18.05 9.25-7.88.37-7.88.37-5.11 2-7.62 1.9-4.75-2.46-4.75-2.46.42-3.31-1.36-4.39-2.13-4.33-2-5.69 4.52-2.14 3.51-11.34-3.26-12-6.27-14.37-9.3-9.2-10-10.9"/><path d="M652.15 400.1a128.66 128.66 0 01-19.23 13.06c-10 5.31-11.21 3.81-13.57 2.77s-1.08-6.51-1.08-6.51.45-2.91-2.14-.68-3.55 10.6-2.85 13.45 6.44 5.68 13.89 4.16 23.5-12.66 23.5-12.66 3.85 11.95 21.12 10.18 26.34-22.05 26.21-24.56-2-.48-2-.48-.64-1.51-2.53-.67-6.7 4.95-18.93 7.65-12.9.41-14.53-1.44a26.61 26.61 0 01-3.51-5c-1-1.88-4.4.77-4.4.77m-30.44 122.3s8.83-9.08 11.75-16.75 1.39-31.87 1.44-39 1.29-29.95 1.43-35-2.85-3.34-3.3-.62-8 23.33-7 34.85-1.25 22.63-2.28 29.42-11 16.33-12.83 18.14-3 5.74-3.06 12.87 1.35 24.44 1.35 24.44 0 3.85 2.87 3.71 1.84-5.86 1.84-5.86-3.32-13.16-1.75-16.51 9.58-9.71 9.58-9.71m55.47 7.63c.87-5.82-1.33-15.75-4-20.44s-4.36-18.87-2.5-24.37 7.51-28.9 8-34.12 3.86-20.43 3-21.36-1.33-3.78-1.33-3.78-2.24-2.42-3.16 2.65-8.62 25.86-9.25 29-6.34 20.74-6.77 23.84-2 23.8-1.23 27.25c1.32 7.45 7 14.71 8.87 24.65s-1.21 11.24-2.28 16.88-2.22 6.09-3 6.31-1.07 5.83 4 2.32 8.76-23 9.65-28.8"/><path d="M618.4 543.22c.67-6 2.68-.31 2.2 1.84s-4.84 19.89.57 20.22 12.77-15.46 12.77-15.46-1-8.44 3.7-7.11-.77 7.93-.77 7.93-3.8 13.5-4.39 17.37-.41 11.79-10.81 12.08-8-11.17-7.14-16.63 3.18-14.21 3.87-20.24"/><path d="M634 566.41c-.13 1.35.22 4.43-.22 7.53s3.23 3.32 8 1.95 6.15-12.45 6.38-15.74 2-11.66 2-11.66 4.29-3.1.93-4.86-2.89 4.19-2.89 4.19a121.08 121.08 0 01-6.93 12.47c-3.25 4.77-5.85 2.78-7.23 6.12"/><path d="M652.59 561.08c-.64-1.3-5.38.46-4.35 5.81s5.11 2.07 5.11 2.07 5.15-5.25 6.3-9.35a63.37 63.37 0 001.69-9.15c.79.16 4.38-1.36 2.51-8.22-4.13-1.92-4.08 7.52-4.08 7.52s-3.72 11-7.18 11.32M501.67 392.16c-15.15-.45-22.48 3.57-28.78 2.79s-20.07-10.53-20.71-16.08-.69-18.47-1.91-21.9-.79-6.71-2.33-6.53-3.34-1.3-4.13-1.84-7.82 5.86-7.82 5.86-8.91-13-5-26.95 4.74-24.23 4.46-28.26-2.44-8.75-5.12-10.47-11.44-7.47-16.13-16.88-3.67-16.61-3.29-27c.73-2.92-1.37-2.44-2 .38s-1 28.11 2.69 38.62 13 16.27 14.52 19.58 1.28 19.13 1.41 29.72 6.47 28.58 6.47 28.58-20.31-1.35-35-.67-30.84 2.22-33.42 2.75-3 4.37.52 4.88 23.17 4.6 31.61 36.6 3.2 43.61 2.71 45.56-1.19 11.43 4 11.39 6-.09 14.2-1.45c28.79-7.12 69.79-4.42 69.79-4.42s5.81 8.58 12.84 35.26 6.75 65.24 6.75 65.24.5 6.89 3.45 7.94 49.43 17.9 61.09 19.48 24.82 3.07 27.34-4.76 5.47-43.65 2.82-95.77-15.93-72.32-15.93-72.32 10.71 2.37 13.21-6-3-27-5.4-32.72-12.68-23.34-15.11-25.77-5.09-10.16-5.09-10.16-3-3.14-1.69 1.43c2.31 3.94 13.39 38.5 14.62 44.23s3.89 17.17.58 20.22-12.37-.38-13.1.42-.82 11.43-19.66 12.7-26.27-1.09-32.16-7.56-6.14-15.7-21.3-16.15"/><path d="M368 391.79c1.83-1 7.16-4.53 7.16-4.53s5.42-1.41 5.13 4.53-5.74 10.1-5.74 10.1-2.09 2-10 5.83-13.07 5.09-16.81 5.56-.11-2.6-.11-2.6 12-3 18.53-8.68c1.63-2 1.22-1.66 1.14-3.53s-1.14-5.73.7-6.68m-17.36-6.69c4.82-2.27 3.64-6 2.66-8.38s-1.65-4.4-7.56-3.84-18.89 7.1-21.93 10.28-1.86 12.83-11.94 29S290.85 451 286 461.3s-12.25 34.56-10.36 37.95c1.89.34 3.21.7 3.21.7 3-26.15 20.42-48.66 24.08-53.78s19.83-27.09 23.7-34.36 5.38-14.72 10.27-18.41a70.83 70.83 0 0113.76-8.3m-32.32 143.23a22.16 22.16 0 015.16-10.52c4.39-5 15.72-12.87 24.86-27.62A66.09 66.09 0 00358.48 453c-.27-8.65.83-10 5.63-15.3s16.25-11.34 18.68-11.72a10.08 10.08 0 014.36.23s7.2 5.73 5.54 10.15-19.36 9.59-22.88 14.66c1 3-3.38 14.34-4.21 18.28s-4.11 20.29-13.83 31.75-29.84 26.55-31.43 29.67l-2-2.36M216.06 650.27s-2 7 2.3 9.15 8-4.56 8-4.56 8.21 2.35 11.77 1.17c.15 3.17-1.79 4.71 2.31 6.1s9.47-11 9.47-11 10.78-7.44 12.94-10.74c-43.55-9.53-46.27-15.17-46.27-15.17s-6.52 2.77-6.49 12.59 5.94 12.45 5.94 12.45m351.91-29.83c-2.34-.77-1.43-12.1 1.46-12.22s3 1.88 3 1.88 8.27 3.66 9.51 11.4-.41 9.86-.41 9.86 2.45 21.28-.6 24-1.27-2.25-1.27-2.25.84-13.06-1.79-19.87-7.51-12.09-9.87-12.83m36.91 22.87s4.1 1.24 5.52.31a2.89 2.89 0 001.33-2.37s2.07 1 2.19-2.71-4.72-7.88-4.72-7.88a130 130 0 01-9.14-16.06c-4.49-9.33-8.13-19.28-8.9-23s-2.56.71-2.56.71a98.8 98.8 0 005.08 28.09c5 15.09 11.2 22.91 11.2 22.91m14.55-4.47c-3.86-1.84-.82-4.86-.82-4.86s.68-4.08 3.62-3.07 7 .26 18.94 9.24S655.64 671 655.64 671s7.19 23.66 13.55 42.16 18.21 36.7 17.81 39.32-7.94 3.28-7.94 3.28-12.46-25.16-14.67-35.18a398.35 398.35 0 00-16.65-52.72c-7.86-19.58-24.42-27.2-28.26-29.06"/><path d="M701.1 764.26c-9.83-12.26-18.57-7.51-18.57-7.51a93.42 93.42 0 00-26 6.7s-10.13-12.52-22.59-25.24-37.74-33.51-44.58-43.89-16.28-38.32-21.43-43.24-22.45-9.94-26-12.08-9.55-12.27-14.73-24.19-5.5-36.76-5.5-36.76l-2.09-1.64s-2.74 15.75 3.06 40.64 17.1 37.67 20.32 38.37 14.89 3.07 18.57 7.24 17.66 31.28 26.51 41.26 57.14 58.63 58.75 62.31c0 0-1.52 10.49 4.37 12.82s9.7 9.37 8.34 11.47-1.51 4.41-.7 9.56-5.18 43.34-6.81 45.74-2.68 23-2.29 31.34 5.8 12.47 12.13 11.87 12.51-4.64 12.51-4.64 4.83 4.41 7.86 1.08-.38-8.08-.38-8.08 7.79-6.45 9.61-10.87c0 0 4.52 3.85 6.68.54s-.2-10.38-.2-10.38 5.69-8.09 5.79-18.2-.7-21.1-.62-25.43 1.18-11.91 1.18-11.91 2.72 2.46 4.28-1.08-2.57-11.45-2.57-11.45 4.93-12.09-4.91-24.35"/></g><path d="M682.53 756.75s6.46 2 5.62 9-6.74 16.52-6.74 16.52c.42 2.59-1 8.73-1 8.73s-1 4.09 2-.1a46.62 46.62 0 007.2-19.14c.83-7 2-6.75 0-11.86s-7.07-3.13-7.07-3.13m2.7 39.23c-2.47 2.72-2 5.88-.25 7s1.52-4.41 4-7.12 3-4.21 4.8-8.63 1.75-12.23 1.75-12.23c-2.22 8.5-7.83 18.31-10.3 21m-28.68 54.5a8.61 8.61 0 015.93-3.16c5.44-1.15 10.88-2.54 15.93.4a2.63 2.63 0 011 2.54c-7-2-14.53-1.34-21.7-.42 0 0-1.17-.23-1.14.64m.92-4.68c4.52-2.24 9.82-.46 14.34-2.68 0-.31-.05-1.17-.06-1.45a14.42 14.42 0 00-10.45-.67 4 4 0 00-3.1 1.89c-.23.87-.48 2.05-.73 2.91M660 831c1.44-.08 2.55-1 4-1.36a37.59 37.59 0 019.83-.17l.06 1.17c-2.56 1-5.49.24-8.34 1-2.3.39-4.53 2.52-6.59 1.45-.88-.23-.39-2 1.06-2m4.98-10.17c2.92.34 5.46-.56 8.4.16.28 0 1.23 1.7 1 1.71-4.87 1.09-9.54.44-14.1 1.52a3.1 3.1 0 01.46-2.33c1.42-.65 2.54-1.28 4.29-1.06m-3.75-5.04c3.64-2.48 8.32-1.54 12.67-1.46.56 0 1.45.51 1.74.21a2.76 2.76 0 00.16-2.62c-.32-.56-.89-.54-1.49-.79-3.77-.39-7.54-.51-11.24.81a1.89 1.89 0 00-1.38 1.22c-.25.88.37 1.72-.46 2.63m1.88-9.05c4.58-1.37 9.49-1.31 14.1-1.53-.06-1.45.43-3.2-1.31-3.42-4.05.2-8.12-.48-11.8 1.13-1.15.36-1.93 2.12-1 3.82m1.48-12.22a.68.68 0 01-.59 0 2.3 2.3 0 00-.18 2.31c1.79 1.08 3.17-.14 4.88-.81 2.27-1 4.88-.52 7.21-.34.59 0 1.76.5 2 .2a2.3 2.3 0 00.18-2.32 11.21 11.21 0 00-13.53.92" fill="#fff"/><path d="M345.58 228.08a2 2 0 00.24-3.09s-2.43-2.58-4-2.13-71.23 35-118.36 131.66-25.81 172.84-25.81 172.84a38 38 0 015.47-6.82c1.34-4.31-12.1-93.14 36.36-178s104.21-112.86 106.06-114.5m330.55 11.17C606 188.71 534.17 184 534.17 184s-9.93-1.41-11.29-1.1c-1.64-.33-5-.8-2.56-1.06.5 0 11.4.6 12.24.55 0 0 69.37 2.32 145.34 55.41 83.69 57.39 124.85 150.52 128.1 231.54 6.65 166-114.77 249.8-115.5 249.82-.26 0-6 4.74-7.26 3.93-2.49-1.56-6.1-3.6-5.41-6 .28-1 5.39-4.27 5.68-5.11 1.16-3.23 118.13-77.27 113.54-254.64-2.17-83.34-51.26-167.89-120.96-218.13M259 661.56S323.14 747 440.45 769.3 623 752 623 752s4.9-3.57 4.78 3.25-3.68 7.75-3.68 7.75-60.1 38.07-181.38 17.75S259 661.56 259 661.56" fill="#1f211d"/><path d="M562.3 248.45c6.46-1 3.56-1 7.15-1.78s5.55 4.38 5.89 5.23-1.76 2.67-1.76 2.67-16.66 14.81-18.31 25.6 4.65 28.26 4.65 28.26 11.3 31.14 12.31 37.17 2.91 34.4 4.1 41.17 6.47 11.39 6.57 13.56-5.21.12-7.22.34-1.4 1.09-4.43 1.08-12.61-6.64-14.59-21.3-2.36-25.5-5.2-36.63-19.81-52.14-14.65-65.54 19-28.8 25.49-29.83" fill="#df203a"/><path d="M592.24 823c-4.52-12.2 2.08-26 14.79-30.71s26.58 1.51 31.11 13.71a24.13 24.13 0 01-14.58 30.92c-12.7 4.72-26.71-1.46-31.32-13.92m4.37-1.62c3.77 10.18 15 15 25.34 11.19s15.59-14.78 11.83-25c-3.66-9.85-14.89-14.75-25.13-10.95s-15.65 14.86-12.04 24.71zm34 1.69l-4.37 1.62-11.59-8.77-4.49 1.65 4.26 11.5-3.78 1.4-9.26-24.95 11.2-4.16a13.33 13.33 0 016.69-1.11 6.61 6.61 0 014.85 4.31c1.82 4.94-1 8.09-5.55 9.9zm-17.42-10.14c3.6-1.34 8.77-2.53 7.1-7-1.19-3.24-4.2-2.62-7.42-1.44l-6.64 2.48 2.78 7.52zM311.06 518.16a71.1 71.1 0 00-50.82-20.78A70.32 70.32 0 00218 511.24h-.32v.22a69.51 69.51 0 00-26.42 39.34l-.44.25.26.43a71.17 71.17 0 00-2.1 16.86v.66a71.62 71.62 0 10122.1-50.82m3.52 13.61a64.72 64.72 0 019.52 20.89 13.81 13.81 0 00-8.27 1.91c-7.11 3.92-10.68 6.06-10.82 6.14l-.26.16-2.34 2.1c-3.21-1.12-9.75-2.22-19 2.27-9.77 4.74-13.8 10.77-15.21 13.52a18.94 18.94 0 00-2.11-1.3l-.22-.12-.24-.07c-.09 0-9.65-3.32-12.95-9.64-3.12-6-3.08-8.6-3.08-9.07l.68-.93c.16-.15 16.15-15 30.32-19.37 12.27-3.79 28.91-5.92 34-6.49zm-48 76.24c-3.37 1.8-8.92 1.16-18.5-2.11-13.88-4.73-16.26-8.26-22.64-17.72l-1.26-1.87c-6.38-9.43-9.59-28.53-9.59-37.9 0-.89 0-1.7.09-2.4.34-4 4.77-7.48 13.48-10.57.2 1.77.58 5.09.58 5.09v.15c.08.36 2 9 6 13.81a18.13 18.13 0 008.8 5.54 33.67 33.67 0 003.74 10.4c4.12 7.87 14.26 11.8 16.1 12.46 1.29.73 8.83 5.37 8.83 13.3a13.48 13.48 0 01-.48 3.55c-1.18 4.39-2.83 7-5.17 8.27zm40.2-85.58c1.22 1.22 2.34 2.5 3.46 3.79-7.32.94-20.76 3-31.46 6.28-15.51 4.8-32.9 21.73-33.6 22.37l2.32-.16-.72-.13s-4.65-.66-7.39-4c-2.49-3-4.21-8.92-4.7-11.11 0-.33-.59-5.3-.66-5.9l2.39-.69a26.18 26.18 0 0016.64-13.1l-.44-.22c7.45.5 16.5-.37 20.4-2.77l2.83-1.73c4-2.45 7.77-4.77 9.86-6.25l-.45-.67a65.53 65.53 0 0121.54 14.27zm-46.58-19a65.6 65.6 0 0118.82 2.65c-1.87 1.18-4.09 2.55-6.32 3.91l-2.84 1.75c-3.61 2.21-18.12 2.71-23.54.79-3.4-1.21-10.54-1.51-16.88-1.53a64.7 64.7 0 0130.76-7.57zm-46.19 19a65.72 65.72 0 016-5.24c8.25-.33 20.59-.32 24.29 1a17.42 17.42 0 002.36.63 20.43 20.43 0 01-11.79 8.29l-4.89 1.36c-8.46 2.58-19.64 7-21.17 16a17.85 17.85 0 00-8.45 1.42l-1.63.77a64.73 64.73 0 0115.26-24.23zM195 568.67a65.52 65.52 0 011.46-13.9c1.73-1 4.12-2.27 6.49-3.38a11.71 11.71 0 015.7-.85c.42 10.65 3.66 29 10.58 39.18l1.25 1.85c6.79 10.09 9.89 14.68 25.69 20.08 5.14 1.75 10.38 3.24 15.1 3.36a16.33 16.33 0 01.16 8c-.84 2.89-3.48 8-5.38 11.38A65.39 65.39 0 01195 568.67zM294.18 625a65.71 65.71 0 01-31.34 9.43 58.84 58.84 0 004.38-9.85 21.81 21.81 0 00.06-10.4 13.19 13.19 0 002.17-.89c3.87-2.06 6.53-6 8.16-12a19 19 0 00.7-5.09c0-6.18-3.14-11.14-6.62-14.57l1.57.54c.09-.27 2.43-6.51 12.78-11.52 7.55-3.66 12.37-2.74 14.32-2 .78 3.74 2.72 14.71 1.06 25.74-1.7 11.37-5.77 25.72-7.24 30.68zm12.65-9.81c-1.55 1.54-3.16 3-4.84 4.38a230.72 230.72 0 005.4-24.37 69.17 69.17 0 00.73-10.17 88.27 88.27 0 00-1.81-17.49c.95-.85 1.81-1.62 2-1.83.89-.52 4.38-2.58 10.41-5.9 4.54-2.49 6.37-.61 6.58-.4l-.06-.07.17-.12a65 65 0 01.72 9.4 65.72 65.72 0 01-19.33 46.57z" fill="#1f211d"/></g></svg>