<svg viewBox="0 0 615.91 1000" xmlns="http://www.w3.org/2000/svg"><path d="M307.96 1.36h306.6v825.49c-65.93 114.53-186.26 171.79-306.6 171.79z" fill="#010101"/><path d="M1.36 1.36h306.6v997.28c-120.33 0-240.67-57.26-306.6-171.79z" fill="#ffd505"/><path d="M307.96 347.48l37.69-88.11c-7.1-8.87-13.8-17.74-19.61-26.61 15.61 2.41 53.76 0 80.64 0 8.42 0 15.83 12.75 21.2 19.26l36.06.05c6.41 0 10.14 3.25 12.52 7.17 6.82 11.22 8.49 32.73 6.32 59.87-3-2.67-13.49-9-21.62-11.8-4.32-1.48-7.66-1.28-12.15-1.28h-39.72c-23.87 28.55-28 74.7-7.82 125.25l148.61-99.68c8 10.48 26.35 33.57 15.91 42.81l-55.62 50.7L586.64 403c2.55 12.13 14.17 40 2.77 45.39l-63.58 29.18 74.48-2.7c-.75 15.34 5.49 44.2-10.76 46.12l-65.19 9.28 71.52 17c-.37 11-7.13 42.73-20.79 43.09l-66.58-2.5 62.75 37.44c-11.79 17-17.92 42.51-36.73 33.82l-58.65-28.62 51.34 54.81c-13.8 10.18-31.08 32.82-45.53 22l-43.8-32.75 8.07 70.54 69.08 2.9-5.08 41.27-11.59-17.18-28.85.91 29.44 38.34-26.15 25.91-.82-23.91L448.34 796l-3 49.4-40.56-.77 16.18-18.11-5.44-53.16-15.11.7-16.89 18.51-1.85-47.5 26.51.68-24.29-94-54.93 24.39c18.68 10.63 17 33.62.53 40 37.22 62.56 68.48 122.18 65.57 175l-20.88 2.68c-1.33-35.67-21.27-76.75-44.84-110.8 9.73 34.06 20.51 76 18.94 112.4l-20.21 2.6c-1.08-21.75-6.31-51.44-20.15-84.05V347.48z" fill="#ffd505"/><path d="M393.2 298.43c-4 6.35-20.36 1.08-19.48-11.6.69-10 8.81-10.86 13.67-9.87-.93 4.16-3.57 12.35 5.81 21.47zm14.49-45.26c-1.44.84-3.9 2.88-7.08 4.23-12 5.11-16.73-7.48-27.68-10.95 8.26-.48 30.9-3.38 34.76 6.72zm69.92 55.98c1-6.06 1.73-33-5.38-44.46-2-3.25-5.49-6.61-8.89-6.64l-46.21-.1c-12.65 8.89-20.67 17.52-20.43 23.95.4 10.24 8.67 15.91 17 18.85h41.14c8.16 0 18.06 5 22.77 8.44z" fill="#010101"/><path d="M450.69 296.71c-10.76-11.69-26.86-7.17-39.36-9.3l-2-3.68 26.18-.16c9.69-.06 22.23 4.33 27.12 14.06-3.11-1.28-7-.72-12-.92z" fill="#ffd505"/><path d="M1.36 1.36h613.19v213.46H1.36z" fill="#010101"/><path d="M568.09 185h-63.55V31.11h63.13v22.83h-30.64v36.62h27.65v23h-27.65v48.42h31.06zm-233-59.14h29.49v32.21c0 3.51 2.16 5.88 6.2 5.88s5.88-2.58 5.88-6.1v-17.37c0-5.57-3.46-12.23-10.72-19.64-13.74-14-22.43-23.32-25.8-28.1a27 27 0 01-5-15.8V59.66q0-29.92 37.56-29.92 33.64 0 33.63 27.25v26.63h-29.67V56c0-3.08-1.6-5.36-4.86-5.36-3.77 0-5.62 3-5.65 8.93v9.86c0 5.72 4.19 12.57 11.58 20.06 13.45 13.63 22.16 23 25.86 28.35a31.51 31.51 0 015.52 18.24v19.64q0 30.68-37.67 30.69-36.33 0-36.32-27.91v-32.62zm-9 59.14h-63.57V31.11h63.12v22.83h-30.68v36.62h27.7v23h-27.7v48.42h31.07V185zM252.54 54.16h-18.15V185h-32.51V54.16h-18.15v-23h68.81zM174.39 185h-32.51V31.11h32.51zm-40-153.91L114.48 185h-46L48.54 31.11h31.7l11.23 109.4 11.14-109.4zm285.33 94.77h29.5v32.21c0 3.51 2.14 5.88 6.19 5.88s5.89-2.58 5.89-6.1v-17.37c0-5.57-3.47-12.23-10.72-19.64-13.75-14-22.43-23.32-25.81-28.1a27 27 0 01-5-15.8V59.66q0-29.92 37.57-29.92 33.62 0 33.62 27.26v26.62H461.3V56c0-3.08-1.62-5.36-4.86-5.36-3.78 0-5.63 3-5.66 8.93v9.86c0 5.72 4.19 12.57 11.58 20.06 13.45 13.63 22.16 23 25.86 28.35a31.51 31.51 0 015.52 18.24v19.64q0 30.68-37.67 30.69-36.33 0-36.32-27.91v-32.62z" fill="#fff"/><path d="M307.96 347.48l-37.69-88.11c7.09-8.87 13.79-17.74 19.61-26.61-15.61 2.42-53.76 0-80.63 0-8.43 0-15.84 12.76-21.21 19.26l-36.08.08c-6.41 0-10.13 3.25-12.52 7.17-6.81 11.22-8.48 32.73-6.32 59.87 2.95-2.67 13.49-9 21.62-11.79 4.32-1.49 7.66-1.29 12.15-1.29h39.72c23.87 28.55 28 74.7 7.82 125.25L65.84 331.6c-8 10.49-26.35 33.57-15.91 42.81l55.62 50.7L29.28 403c-2.55 12.14-14.17 40-2.77 45.39l63.58 29.18-74.47-2.7c.74 15.35-5.51 44.2 10.75 46.12l65.19 9.28-71.52 17c.37 11 7.12 42.73 20.79 43.09l66.58-2.49-62.75 37.39c11.78 17 17.92 42.51 36.73 33.83l58.66-28.63-51.35 54.81c13.8 10.18 31.08 32.82 45.52 22l43.81-32.75-8.07 70.58-69.08 2.9 5.07 41.3 11.58-17.18 28.86.91-29.43 38.31 26.15 25.91.82-23.91L167.57 796l3 49.4 40.56-.76-16.17-18.12 5.45-53.16 15.11.7 16.89 18.51 1.85-47.5-26.51.69 24.29-94 54.92 24.38c-18.68 10.63-17 33.62-.53 40-37.23 62.57-68.48 122.18-65.57 175l20.87 2.67c1.34-35.67 21.28-76.74 44.85-110.8-9.74 34.06-20.51 76-18.94 112.41l20.21 2.6c1.08-21.76 6.31-51.45 20.15-84.06V347.48z" fill="#010101"/><path d="M222.72 298.43c4 6.35 20.35 1.09 19.48-11.59-.68-10-8.82-10.87-13.67-9.88.93 4.16 3.58 12.36-5.81 21.47zm-14.48-45.26a47.92 47.92 0 007.07 4.23c12 5.11 16.73-7.48 27.68-10.95-8.26-.48-30.9-3.38-34.75 6.72zm-69.93 55.98c-1-6-1.73-33 5.38-44.46 2-3.24 5.49-6.61 8.88-6.64l46.22-.1c12.65 8.89 20.68 17.52 20.43 23.95-.4 10.24-8.67 15.91-17 18.85h-41.14c-8.16 0-18.06 5-22.77 8.44z" fill="#ffd505"/><path d="M165.23 296.71c10.76-11.69 26.86-7.17 39.36-9.3l2-3.67-26.17-.16c-9.69-.06-22.23 4.33-27.12 14.06 3.11-1.29 6.95-.73 11.95-.93z" fill="#010101"/><path d="M307.96 414.06c71.94 0 130.62 58.37 130.62 130S379.9 674 307.96 674s-130.62-58.41-130.62-130 58.67-129.94 130.62-129.94z" fill="#fff"/><path d="M239.55 589.87a267.53 267.53 0 0131.84-38.76c-6.32-11.44-17.5-33.21-21.3-46l-37.69 8.28c-8.83 14.86-13.09 37.73-11.5 54.45 12.44 9.06 25.43 14.9 38.65 22zm49-173.35a131.63 131.63 0 0151.41 2.56c2.73 5.81 9.36 12.4 18.1 27.1-6.9 5.9-18.25 14.45-22.55 21.21-14.29-2.79-39.41-4.55-55.06-3.16-1.95-8.64-3.42-19-6.44-26.8 4.85-8.45 8.09-15.41 14.52-20.91zm113.41 38.61c1.83 1.91 3.62 3.89 5.35 5.94a127.77 127.77 0 0125.92 49.73 93.58 93.58 0 00-12.79-8c-4.28-15-14.76-29.19-24.06-40.73a43 43 0 005.58-6.95zm-79.92 217a131 131 0 01-83.48-19.23c10.41-3.17 22.41-12.72 23-22.49 13.07 6.35 43.21 5.78 58 7.27 2.19 11.13 7.93 16.51 13.66 22a45.76 45.76 0 00-11.13 12.42zm78.29-80.61c-7.6.2-43.76 7-52.08 9.81-9.86-11.9-15-32.36-22.36-44.49 8.54-13.09 21-26.76 32.47-39.8 10.75 4.19 24 8.38 41.8 14.28 1.18 17.49 1.84 44.36.17 60.2z" fill="#010101"/><path d="M416.19 615c-5-8.45-11-19-15.43-23.71zm6.29-117.83c-2.34 11.29-19 30.14-26.63 37zm-71.59 98.35c-8.49 13.59-24.75 31.22-35.9 44.14zM322.96 660c.55-.88 25.07-.86 43.7-1-18.63.14-43.15.12-43.7 1zm-137-72.44c5.39-7.39 15-17 20.92-21.82-5.89 4.83-15.53 14.43-20.92 21.82zm79.43 45.49c-11.52-13.3-22.41-34.74-28.21-47.8zm69.28-75.38c-17.94-3.88-53.09-5.67-69.3-7.61zm23.89-36.5c-6.46-19.44-22-49-25.16-57.3zM399.69 464c-11.91-7.39-34.4-16-45.89-18.39zm-114.4-25.1a473.51 473.51 0 00-50.89-1.07zm-70.64 77.39c-5.15-5.79-14.9-21.43-21.1-32.85zm70.68-58.55c-12.16 12.13-33.4 43-39.22 52.56zm-47.37 194.81c9 1.33 17.93 2.48 24.84 5.06-6.84-2.61-15.84-3.73-24.84-5.06z" fill="#010101"/><path d="M307.96 1000c-61.49 0-121.78-14.91-174.34-43.11A338.23 338.23 0 01.19 827.53l1.17-.68h-1.4V1.36h1.36V0h614.64v826.85h-1.4l1.17.68a338.14 338.14 0 01-133.42 129.36c-52.57 28.2-112.86 43.11-174.35 43.11zM2.72 826.49c61.72 107 175.8 170.79 305.24 170.79s243.53-63.84 305.24-170.79V2.71H2.72zm320.8-165.3a1.14 1.14 0 00.54-.47l-2.3-1.43c.67-1.1.85-1.39 35.83-1.59l9-.05v2.71h-8.92c-14.38.14-32.32.24-34.15.83zm-61.17-2.31c-6.11-2.28-13.81-3.41-22-4.61l-2.6-.38.4-2.68 2.6.38c8.3 1.22 16.14 2.37 22.52 4.75zm53.67-18.38l-2.06-1.77c2.09-2.42 4.36-5 6.72-7.69 10.41-11.87 22.21-25.32 29.06-36.27l2.3 1.43c-7 11.14-18.84 24.68-29.32 36.63-2.36 2.68-4.62 5.26-6.7 7.67zm-51.66-6.57c-13.4-15.47-25.14-40.75-28.4-48.13l2.48-1.1c3.24 7.29 14.83 32.27 28 47.46zm150.66-18.28l-1.85-3.14c-4.5-7.63-9.59-16.28-13.4-20.33l2-1.86c4 4.27 9.19 13.06 13.76 20.82l1.85 3.13zm-228-27.29l-2.19-1.6c.31-.43.65-.88 1-1.32a147.33 147.33 0 0120.15-20.75l1.73 2.1c-.68.55-1.39 1.16-2.14 1.81a140.21 140.21 0 00-18.51 19.76zM334.38 559c-11.93-2.59-32-4.28-48.19-5.64-8-.67-15.61-1.31-21-2l.33-2.7c5.32.64 12.88 1.28 20.88 1.95 17.08 1.44 36.44 3.06 48.54 5.69zm62.38-23.88l-1.81-2c8.23-7.36 24-25.76 26.2-36.23l2.66.55c-2.4 11.56-19.08 30.56-27.05 37.68zm-39.49-13.52c-4.18-12.6-12.31-29.6-18.2-42.06-3.25-6.84-5.82-12.25-6.94-15.19l2.54-1c1.07 2.83 3.63 8.2 6.86 15 5.94 12.5 14.08 29.62 18.32 42.36zm-143.63-4.46c-5.23-5.86-15.12-21.75-21.28-33.11l2.38-1.29c6.1 11.22 15.83 26.88 20.92 32.59zm33.63-6.14l-2.33-1.4c6-9.91 27.27-40.69 39.43-52.82l1.92 1.92c-12.02 11.93-33.07 42.43-39.02 52.3zm151.69-45.89c-11.87-7.36-34.18-15.84-45.46-18.22l.56-2.66c11.49 2.43 34.23 11.07 46.33 18.57zM285.17 440.2a474.38 474.38 0 00-50.72-1.07l-.11-2.71a475.68 475.68 0 0151.07 1.08z" fill="#010101"/></svg>