<svg id="willem-II" xmlns="http://www.w3.org/2000/svg" viewBox="0 0 1011.49 1011.48"><defs><style>.cls-1,.cls-6{fill:#fff}.cls-1,.cls-5{stroke:#facb5e;stroke-linecap:round;stroke-linejoin:round;stroke-width:11.48px}.cls-1,.cls-6,.cls-7{fill-rule:evenodd}.cls-5{fill:none}.cls-7{fill:#facb5e}</style></defs><path class="cls-1" d="M1012 512c0 276.14-223.86 500-500 500S12 788.14 12 512 235.86 12 512 12s500 223.86 500 500z" transform="translate(-6.26 -6.26)"/><path d="M999.93 612.77S917.31 1012 510.09 1012c-402 0-489.85-399.23-489.85-399.23z" transform="translate(-6.26 -6.26)" fill="#352a82" fill-rule="evenodd"/><path d="M985.88 372.5l-962.07.24c58.93-210.51 250.7-367 480.02-367 230 0 423.73 155.3 482.05 366.76z" fill="#e42313" fill-rule="evenodd" stroke="#facb5e" stroke-linecap="round" stroke-linejoin="round" stroke-width="11.48"/><path class="cls-1" d="M321.39 378.76s.48-45.63-39.7-49c0 0 73.18 2.87 83.23-62.17h283.22s12.24 62.17 91.82 62.17c0 0-39-.46-39 49z" transform="translate(-6.26 -6.26)"/><path d="M358.66 261.35s5.25-70.78-59.31-90.87c0 0 54 18.18 103.3-31.09 0 0 48.31 23.44 102.35-7.65 0 0 42.57 31.09 103.31 7.65 0 0 40.45 41.33 98.61 31.09 0 0-60.45 5.26-65 90.87z" fill="#eebcbd" fill-rule="evenodd" stroke="#facb5e" stroke-linecap="round" stroke-linejoin="round" stroke-width="11.48"/><path class="cls-5" d="M399.31 124.28l35.2 102.54"/><path class="cls-6" d="M417.72 792.11c-38.37 9.9-49.14-35.88-49.14-35.88-52.29 0-51-34.43-51-34.43V609.57h383.87v112.87s-6.38 38.08-49.74 33.79c0 0-7 48.46-58.66 35.71 0 0-21.69 48.47-81 48.47 0 0-63.13 8.29-94.34-48.3z" transform="translate(-6.26 -6.26)"/><path class="cls-5" d="M511.26 118.3v105.6m110.86-93.36l-39.79 102.54" transform="translate(-6.26 -6.26)"/><path class="cls-7" d="M466.78 663.77s-9.56 1.91-28.69 21c0 0-5.74 3.83 3.82 3.83 0 0 61.86-3.19 88 23a62.24 62.24 0 0022.32 4.46s4.78 2.23 15.94-8.93c0 0 2.55-11.48-4.46-11.48 0 0-29.33-37-96.93-31.88z" transform="translate(-6.26 -6.26)"/><path class="cls-7" d="M424.7 703.31s3.19-8.93 8.92-8.93h23.6s13.07 1.59 7.33 7.33c0 0-33.48 59 8.61 106.82 0 0-27.42 3.82-51-14 0 0-22.32-43.36 2.55-91.18z" transform="translate(-6.26 -6.26)"/><path class="cls-7" d="M429.16 806.61s11.48 22.32 32.52 27.42c0 0 62.49 10.21 102.67-30 0 0 7.65-7.65 0-7.65 0 0-29 4.14-34.44-1.28 0 0-51.65 32.52-100.75 11.48z" transform="translate(-6.26 -6.26)"/><path class="cls-7" d="M477 841.05s96 29 125.62-63.14c0 0-12.12 14.67-21.68 14.67 0 0-34.44 48.47-103.94 48.47z" transform="translate(-6.26 -6.26)"/><path class="cls-7" d="M510.78 753.05s-.63 14.66 3.83 28.69c0 0 63.13 35.71 93.74-21.68 0 0 1.27 0-1.92-27.42 0 0-28.06 40.81-83.54 15.3 0 0-12.11-1.91-12.11 5.11z" transform="translate(-6.26 -6.26)"/><path class="cls-7" d="M471.88 700.12s-32.52 56.75 5.12 105.21c0 0 23.91 2.88 33.16-6.37 0 0 4.46-11.48-1.28-17.22 0 0-8.93-21 0-59.3 0 0 10.84-14-7-20.41l-21.69-6.38s-8.29.64-8.29 4.47zm6.38-42.73s79.32-16.18 103.94 31.25c0 0 3.95 18.08-9.88 9.88 0 0-16.26-36-94.06-41.13z" transform="translate(-6.26 -6.26)"/><path class="cls-7" d="M517.07 717.24s-4.37 13.12-4.37 17c0 0-.55 3.28 3.28 7.11 0 0 58.48 30.6 84.72-12.58 0 0 1.63-3.83 1.63-10.93 0 0-4.5-15.44-13.66-24.6 0 0-10.17 41.32-61.77 22.41 0 0-5.46-2.73-9.83 1.64z" transform="translate(-6.26 -6.26)"/><path class="cls-5" d="M426.13 790.35l-8.41 2.71m0 0c-38.37 9.91-49.14-35.87-49.14-35.87-52.29 0-51-34.43-51-34.43m0 0V610.52m-297.77 0h980.59" transform="translate(-6.26 -6.26)"/><path class="cls-7" d="M264.19 421.84c-8.09.75-13.18 6.72-16 15.92L202 587.47h-6.25l-38.87-116.39h-1.62l-42.09 116.39h-6.48l-49-149.71c-3.94-11.94-6.25-14.43-16-15.92v-6.22h68v6.22c-8.32.75-14.8 1.24-14.8 10.45a25.91 25.91 0 001.62 8.2L124 530.27h.46l27.06-75.85-8.1-23.88c-3-5.46-5.55-8.2-16.65-8.7v-6.22H199v6.22c-9.95.75-16.65 1-16.65 9.45 0 3 1.85 8.95 3.24 13.68l24.75 82.81h.46l25.67-84.55a32.89 32.89 0 001.62-10.44c0-10.2-8.1-10.45-16-11v-6.22h42.09v6.22zm59.22 161.9h-55.28v-6c8.32-2.24 12.26-3 12.26-14.92v-73.08c0-11.19-3.47-12.94-12.26-14.68v-6h44.41v94.54c0 7.71 1.85 13.18 10.87 14.17v6zM296.35 411.9c9.94 0 17.81 8.7 17.81 19.39 0 10.95-7.87 19.15-17.81 19.15-10.64 0-18-8.45-18-19.15 0-10.44 7.63-19.39 18-19.39zm91.36 171.84h-55.28v-6c9.25 0 11.79-8.95 11.79-14.92V436c0-2.74-.46-14.43-11.79-14.43v-6h43.94v147.28c0 7.21 2.31 14.92 11.34 14.92v6zm64.29 0h-55.27v-6c9.25 0 11.79-8.95 11.79-14.92V436c0-2.74-.46-14.43-11.79-14.43v-6h43.94v147.28c0 7.21 2.31 14.92 11.33 14.92v6zm43.25-70.13c0-34.32 7.87-39.79 16.43-39.79 8.09 0 11.1 6.22 12.48 11.69 1.85 7.46 1.85 20.39 2.09 28.1zm55 39c-4.39 5.73-12.49 16.67-26.14 16.67-22 0-27.06-25.37-27.75-46.51h58.28c-.69-13.43-3.69-56.7-43.94-56.7-26.6 0-47.64 23.38-47.64 60.18 0 42.53 23.59 60.93 46.95 60.93 18.5 0 31.68-8 45.79-31.08l-5.55-3.49zm198.03 31.13h-55v-6c11.33-.49 11.33-8.21 11.33-14.17v-60.15c0-7.72 0-20.65-12.49-20.65-9.71 0-19.42 12.44-19.42 14.43v66.4c0 7.95 2.08 13.43 10.87 14.17v6H629.4v-6c11.1-.74 11.1-8.45 11.1-14.17v-60.18c0-8 0-20.65-12.72-20.65-9.95 0-19.2 12.44-19.2 14.43v66.4c0 7.71 1.62 13.18 10.64 14.17v6h-55.51v-6c7.63-1.49 12.72-2.74 12.72-14.92v-73.11c0-12.94-6-13.68-12.72-14.68v-6h44.18V487h.46c3.24-6 13.41-20.89 32.84-20.89 21 0 26.83 13.68 30.3 21.64 10.41-14.68 20.82-21.64 34.23-21.64 12.72 0 31 7.71 31 35.07v62.42c0 6.21 0 13.92 11.57 14.17v6zm147.79 0h-81v-6.22c12.49-1.24 21.51-2.23 21.51-17.65V439.5c0-16.42-10.87-16.91-21.51-17.66v-6.22h81v6.22c-10.87.5-22 .75-22 17.66v120.37c0 15.91 9.25 16.66 22 17.65v6.22zm89.93 0h-80.91v-6.22c12.49-1.24 21.51-2.23 21.51-17.65V439.5c0-16.42-10.87-16.91-21.51-17.66v-6.22H986v6.22c-10.87.5-22 .75-22 17.66v120.37c0 15.91 9.25 16.66 22 17.65v6.22z" transform="translate(-6.26 -6.26)"/><path class="cls-5" d="M701.45 608.61v112.87m0 0s-6.38 38.09-49.74 33.8c0 0-7 48.46-58.66 35.7" transform="translate(-6.26 -6.26)"/><path class="cls-6" d="M389.14 940.52h-35.32v-2.47c11-.52 11.37-3.51 11.37-13.14v-65h-6.53c-13.31 0-16.58 2.47-19.24 16.65h-2.9l.72-22.11h68.24l.72 22.11h-2.9c-2.54-14.31-5.93-16.65-19.24-16.65h-6.53v66.47c0 8.85 1.45 11.32 11.61 11.71v2.47zm16.95-1.95c7.5-.39 9.55-1.17 9.55-11.32v-30.17c0-7.68-2.3-7.81-4.23-7.81a29 29 0 00-4.84.52v-1.95c6.29-2.21 12.46-4.68 18.75-7.16l.48.39v46.18c0 8.59.61 10.8 9 11.32v1.95h-28.71v-1.95zm13.54-86.9a6.4 6.4 0 016.3 6.64 6.31 6.31 0 01-6.3 6.63c-4.35 0-6-4.16-6-6.63s1.81-6.64 6-6.64zm20.69 86.9c7.14-.52 9.32-2.21 9.32-9.37v-62c0-5.86-.73-7.94-5.45-7.94a41.18 41.18 0 00-4.11.26v-2.12c6.41-1.69 12.82-3.51 19.23-5.73l.49.27v77.66c0 7.54 2.06 8.58 9.07 9v1.95h-28.55v-1.95zm49.6-39.93c.49-7.42 8.23-9.76 12.1-9.76 11 0 15.37 13.4 15.37 25.5 0 8.58-1.94 23.28-15.85 23.28-3 0-11.62-1.69-11.62-6.24v-32.78zm-10.16 34.86c0 4.81 12.7 8.32 18.75 8.32 22.38 0 29.52-20.55 29.52-32.26 0-13.92-6.9-28.88-21.54-28.88-9.19 0-15.6 7.55-16.33 10.54h-.24v-39.28l-.6-.27c-5.81 2.22-11.74 4-17.54 5.73v2.08a18.16 18.16 0 012.66-.13c5.32 0 5.32 2.73 5.32 6.63v67.52zm107.68 2.34a163.23 163.23 0 00-16.82 5.85l-.25-.26v-10.79l-5.19 5.59a17.5 17.5 0 01-12.71 5.59c-5 0-14.4-3.12-14.4-16.91v-32.78c0-7.8-3.87-8.07-7.5-8.32V882h17.67v42.4c0 1.82 1.08 9.89 9.07 9.89 3.63 0 7.26-1.82 10.52-4.68 1.1-1 1.94-2.35 1.94-6.64v-30.58c0-5.2-.48-7.93-8.95-8.19V882h19.11v44.6c0 4.69.25 7.68 7.51 7.42v1.82zm11.73-38.76c0-7.68-2.3-7.81-4.23-7.81a17.07 17.07 0 00-4.12.52v-2.08c5.93-2.08 12-4.43 17.91-7l.6.27v11.57h.24c5.69-9.24 9.8-11.84 14.4-11.84 4.11 0 6.53 2.74 6.53 7 0 3.25-1.69 5.72-4.59 5.72-4.24 0-5.45-4.55-8.35-4.55s-8.23 6.51-8.23 10.67v29.27c0 9 4.12 9.49 10.28 9.75v1.95h-29v-1.95c6.65-1.3 8.59-1.69 8.59-9v-32.49zm40.77 55.15c0-3.9 2.18-6.63 5.93-11.45 5.69 1.3 8.34 1.3 19.72 1.7 8.95.26 14.88.52 14.88 6.37 0 6.89-8.23 12.62-22.38 12.62-13.8 0-18.15-5.21-18.15-9.24zm6.54-56.2c0-8.71 4.71-11.7 9.07-11.7 10.4 0 12.34 17.43 12.34 21.07 0 2.86-.61 12.49-8.84 12.49-9.43 0-12.57-11.58-12.57-21.86zm38.47-6V885h-9.32a17 17 0 01-6.66-1.29c-4.84-2-7.49-3-11.73-3-9.19 0-20.8 6.25-20.8 21.73 0 7.54 4.1 13.53 11.24 16.91-10.76 10.28-10.76 12-10.76 14.18 0 3.64 3.14 5.2 6.41 6.89-6.17 4.69-11.86 10-11.86 15.87 0 6.9 9.07 12.62 21.42 12.62 10.89 0 31-7.28 31-22 0-3.65-1.69-13.27-14.63-13.92l-15.61-.78c-3.63-.13-9.44-.52-9.44-3.51 0-2.6 4.85-7.94 7.26-8.2.73 0 5.08.65 6.54.65 6.77 0 19.23-5.07 19.23-19.12 0-6.51-1.09-9-2.3-12z" transform="translate(-6.26 -6.26)"/><path class="cls-5" d="M1012 512c0 276.14-223.86 500-500 500S12 788.14 12 512 235.86 12 512 12s500 223.86 500 500" transform="translate(-6.26 -6.26)"/><path class="cls-7" d="M375.48 674l-16.31 40.35a27.91 27.91 0 00-2 6 4.09 4.09 0 00.85 2.76 8.38 8.38 0 003.77 2.46l1.13.47-.49 1.22-25.94-10.49.49-1.21 1.31.52a10.59 10.59 0 004.79 1.08 4.12 4.12 0 002.64-1.28 24.79 24.79 0 002.89-5.82L359 684.52a17.33 17.33 0 001.41-4.45 3.36 3.36 0 00-.62-2 3.91 3.91 0 00-1.81-1.43 12.61 12.61 0 00-5-.66l-.16-1.48 21.45-1 1.2.48zm18.89 24.14a11 11 0 01.37-6.24 6.6 6.6 0 013.41-3.69 5.62 5.62 0 014.69-.16 5.22 5.22 0 013.29 3.56q.94 3.28-.95 8a19.24 19.24 0 01-2.63 4.65 13.65 13.65 0 01-3.55 3.24q-3.9-5.78-4.6-9.36zm14.88 10.05a10.56 10.56 0 004.53-5.31 11 11 0 00-.55-9.48q-2.42-4.85-9.4-7.65-7.23-2.93-12.9-.85a12.25 12.25 0 00-7.66 7 13.8 13.8 0 00-1 7.22q.48 3.48 4.71 10.4c-4.31.16-7.66.92-10 2.27a11.62 11.62 0 00-5.15 6 12.25 12.25 0 00.44 10.37q2.52 5.19 9.79 8.13 7.67 3.11 13.79.79a14.16 14.16 0 008.53-8.26 15.25 15.25 0 001.06-8.31q-.66-4.1-4.47-10.05a19.51 19.51 0 008.32-2.23zm-16.6 21.15a8.27 8.27 0 01-4 4.63 6.14 6.14 0 01-5.18.17 6.35 6.35 0 01-2.85-2.33 6.87 6.87 0 01-1.11-4.3 17.7 17.7 0 011.45-6 22.34 22.34 0 012.65-4.84 15.69 15.69 0 012.86-3.13 8.78 8.78 0 012.42-1.18q6.65 10 3.72 17zm236.14-17.84a5 5 0 01-5.15-.8q-3.92-2.87-8-13-2.45-6.06-1.92-8.76a3.38 3.38 0 012.15-2.69 3.67 3.67 0 012.65-.15 10.29 10.29 0 014.42 3.65 52.81 52.81 0 016.49 11.75q1.24 3.09 2.56 7.31a9.38 9.38 0 01-3.21 2.65zm7.57 18a30.3 30.3 0 006.41-15.86 34.22 34.22 0 00-2.31-16.37 25.92 25.92 0 00-6.58-9.74 18.58 18.58 0 00-9-4.69 16.13 16.13 0 00-19.13 14.73 21.25 21.25 0 001.59 9.68q2.82 7 8.15 9.5a13 13 0 0010.88.27 12.47 12.47 0 003.13-1.78 23.27 23.27 0 003.16-3.12 28.64 28.64 0 01.34 10.48 22.46 22.46 0 01-3.92 9.33 34.16 34.16 0 01-8.52 8.19l.4 1a39.12 39.12 0 0015.44-11.66zm21.99-36.65a5.17 5.17 0 015.22.77q4 2.83 8 12.86c1.61 4 2.23 6.79 1.88 8.44a3.71 3.71 0 01-5.59 3c-1.62-.81-3.39-2.64-5.3-5.51a52.69 52.69 0 01-4.89-9.31c-.62-1.55-1.5-4-2.62-7.48a9.68 9.68 0 013.28-2.72zm-7.21-18.51a32 32 0 00-6.72 16 33.49 33.49 0 002.23 17 26.82 26.82 0 006.36 9.52 17.69 17.69 0 009 4.82 16.52 16.52 0 009.41-.92 16.15 16.15 0 007-5.39 15.89 15.89 0 003.15-8.57 21.35 21.35 0 00-1.61-9.74c-1.86-4.63-4.57-7.77-8.11-9.45a13 13 0 00-10.86-.28 17.45 17.45 0 00-4.48 2.66 11.5 11.5 0 00-2.09 2.49 32.93 32.93 0 01-.17-10.76 22.19 22.19 0 013.72-8.93 37.28 37.28 0 018.85-8.57l-.4-1a36.47 36.47 0 00-15.21 11.15z" transform="translate(-6.26 -6.26)"/></svg>